<svg width="37" height="20" viewBox="0 0 37 20" fill="none" xmlns="http://www.w3.org/2000/svg"><path d="M9.93341 6.2936C9.61697 6.63252 9.11066 6.89983 8.60435 6.86164C8.54106 6.40339 8.78894 5.9165 9.07901 5.61577C9.39546 5.26731 9.94923 5.01909 10.3975 5C10.4503 5.47734 10.2446 5.94514 9.93341 6.2936ZM10.3923 6.95234C9.65916 6.91415 9.03155 7.32944 8.68346 7.32944C8.3301 7.32944 7.79742 6.97143 7.21728 6.98098C6.46309 6.99053 5.76164 7.37718 5.37664 7.99295C4.58553 9.2245 5.17095 11.048 5.93569 12.0504C6.31014 12.5468 6.75844 13.091 7.34913 13.0719C7.90818 13.0528 8.12969 12.7425 8.80476 12.7425C9.48512 12.7425 9.68026 13.0719 10.2709 13.0624C10.8827 13.0528 11.2677 12.5659 11.6422 12.0695C12.0694 11.5062 12.2434 10.9573 12.254 10.9286C12.2434 10.9191 11.0726 10.5133 11.0621 9.29133C11.0515 8.26981 11.985 7.78292 12.0272 7.75428C11.4998 7.04781 10.677 6.97143 10.3923 6.95234ZM14.6273 5.56804V13.0098H15.9036V10.4656H17.6704C19.2843 10.4656 20.4182 9.46317 20.4182 8.01204C20.4182 6.56092 19.3054 5.56804 17.7126 5.56804H14.6273ZM15.9036 6.54182H17.3751C18.4826 6.54182 19.1155 7.07645 19.1155 8.01682C19.1155 8.95719 18.4826 9.49659 17.3698 9.49659H15.9036V6.54182ZM22.7493 13.0671C23.551 13.0671 24.2946 12.6996 24.6322 12.1172H24.6585V13.0098H25.8399V9.30565C25.8399 8.23162 24.8906 7.53947 23.4297 7.53947C22.0743 7.53947 21.0722 8.24117 21.0353 9.20541H22.185C22.2799 8.74716 22.7493 8.44643 23.3928 8.44643C24.1733 8.44643 24.6111 8.7758 24.6111 9.38202V9.79254L23.0183 9.87846C21.5363 9.95961 20.7346 10.5086 20.7346 11.4632C20.7346 12.4275 21.5627 13.0671 22.7493 13.0671ZM23.0921 12.184C22.4118 12.184 21.9793 11.8881 21.9793 11.4346C21.9793 10.9668 22.396 10.6947 23.1924 10.6518L24.6111 10.5706V10.9907C24.6111 11.6876 23.9571 12.184 23.0921 12.184ZM27.4169 15.0338C28.6615 15.0338 29.247 14.6042 29.7585 13.301L32 7.61108H30.7026L29.1995 12.0074H29.1731L27.67 7.61108H26.3357L28.498 13.0289L28.382 13.3583C28.1869 13.9168 27.8704 14.1316 27.3061 14.1316C27.2059 14.1316 27.0108 14.1221 26.9316 14.1125V15.0051C27.0055 15.0242 27.3219 15.0338 27.4169 15.0338Z" fill="#000"/><rect x=".25" y=".25" width="36.5" height="19.5" rx="2.75" stroke="#959393" stroke-width=".5"/></svg>