<svg width="37" height="20" viewBox="0 0 37 20" fill="none" xmlns="http://www.w3.org/2000/svg"><g clip-path="url(#clip0_601_4447)"><path d="M17.8024 10.2117V13.3407H16.8076V5.61666H19.4458C20.0822 5.60434 20.6939 5.84456 21.1573 6.28805C21.6207 6.70074 21.8802 7.29821 21.8678 7.91416C21.8802 8.53627 21.6207 9.13374 21.1573 9.55259C20.6939 9.98992 20.1255 10.2117 19.452 10.2117H17.8024ZM17.8024 6.56523V9.26309H19.4705C19.8413 9.27541 20.1996 9.12758 20.4529 8.86273C20.9781 8.35765 20.9843 7.52611 20.4776 7.00255L20.4529 6.97791C20.1996 6.7069 19.8413 6.55907 19.4705 6.57139L17.8024 6.56523ZM24.16 7.88336C24.8953 7.88336 25.476 8.08047 25.9024 8.46852C26.3287 8.86273 26.5387 9.3986 26.5387 10.0823V13.3345H25.5873V12.6016H25.544C25.13 13.2052 24.5863 13.507 23.9005 13.507C23.3197 13.507 22.8255 13.3345 22.4362 12.9896C22.0532 12.6693 21.8369 12.195 21.8493 11.6961C21.8493 11.1479 22.0593 10.7167 22.4733 10.3903C22.8872 10.0638 23.4433 9.90368 24.1353 9.90368C24.7284 9.90368 25.2104 10.0146 25.5934 10.224V9.99608C25.5934 9.6573 25.4451 9.33701 25.1856 9.12143C24.92 8.88736 24.5802 8.75801 24.228 8.75801C23.6719 8.75801 23.2332 8.99208 22.9058 9.4602L22.0284 8.912C22.5042 8.2283 23.2147 7.88336 24.16 7.88336ZM22.8749 11.7207C22.8749 11.9794 22.9985 12.2197 23.2024 12.3675C23.4248 12.54 23.6966 12.6323 23.9747 12.6262C24.3948 12.6262 24.7964 12.4599 25.093 12.1642C25.4204 11.8562 25.5873 11.4928 25.5873 11.074C25.2783 10.8276 24.8458 10.7044 24.2898 10.7044C23.8882 10.7044 23.5483 10.803 23.2765 10.9939C23.0108 11.191 22.8749 11.4312 22.8749 11.7207ZM32.0005 8.05583L28.6765 15.669H27.6509L28.8866 13.0081L26.6994 8.06199H27.7806L29.3561 11.8562H29.3808L30.9193 8.06199L32.0005 8.05583Z" fill="#5F6368"/><path d="M13.7801 9.53405C13.7801 9.23224 13.7554 8.93042 13.7059 8.63477H9.51074V10.341H11.9142C11.8153 10.8891 11.494 11.3819 11.0245 11.6899V12.7986H12.4579C13.2982 12.0287 13.7801 10.8891 13.7801 9.53405Z" fill="#4285F4"/><path d="M9.51085 13.87C10.7095 13.87 11.7228 13.4758 12.458 12.7982L11.0246 11.6895C10.623 11.9605 10.1102 12.1145 9.51085 12.1145C8.3493 12.1145 7.36692 11.3323 7.01474 10.2852H5.53809V11.4308C6.29186 12.9214 7.83031 13.87 9.51085 13.87Z" fill="#34A853"/><path d="M7.01449 10.2848C6.82914 9.73665 6.82914 9.13918 7.01449 8.58482V7.44531H5.53783C5.22407 8.06186 5.06055 8.74348 5.06055 9.43484C5.06055 10.1262 5.22407 10.8078 5.53783 11.4244L7.01449 10.2848Z" fill="#FBBC04"/><path d="M9.51086 6.75573C10.1472 6.74341 10.7589 6.98363 11.2161 7.42096L12.4827 6.15826C11.6795 5.40064 10.6168 4.98795 9.51086 5.00027C7.83031 5.00027 6.29186 5.94883 5.53809 7.4456L7.01475 8.59127C7.36692 7.53799 8.3493 6.75573 9.51086 6.75573Z" fill="#EA4335"/></g><rect x=".25" y=".25" width="36.5" height="19.5" rx="2.75" stroke="#959393" stroke-width=".5"/><defs><clipPath id="clip0_601_4447"><path fill="#fff" transform="translate(5 5)" d="M0 0H27V10.718H0z"/></clipPath></defs></svg>