<svg width="104" height="281" viewBox="0 0 104 281" fill="none" xmlns="http://www.w3.org/2000/svg"><mask id="mask0_302_10421" style="mask-type:alpha" maskUnits="userSpaceOnUse" x="0" y="0" width="104" height="281"><path d="M54 281V52.6L0 85.6V32.4L54 0H103.2V281H54Z" fill="#fff"/></mask><g mask="url(#mask0_302_10421)" stroke="#698AFF" stroke-width="3"><path d="M54.4155 1.5H101.7V279.5H55.5V52.6V49.9254L53.2178 51.3201L1.5 82.9254V33.2493L54.4155 1.5Z"/><path opacity=".6" d="M217.5 4.5C217.5 70.2278 164.44 123.5 99 123.5C33.5601 123.5 -19.5 70.2278 -19.5 4.5C-19.5 -61.2278 33.5601 -114.5 99 -114.5C164.44 -114.5 217.5 -61.2278 217.5 4.5Z"/><path opacity=".7" d="M190.5 4.5C190.5 55.3178 149.526 96.5 99 96.5C48.4735 96.5 7.5 55.3178 7.5 4.5C7.5 -46.3178 48.4735 -87.5 99 -87.5C149.526 -87.5 190.5 -46.3178 190.5 4.5Z"/><path opacity=".8" d="M163.5 5.5C163.5 41.4092 134.612 70.5 99 70.5C63.3883 70.5 34.5 41.4092 34.5 5.5C34.5 -30.4092 63.3883 -59.5 99 -59.5C134.612 -59.5 163.5 -30.4092 163.5 5.5Z"/><path opacity=".9" d="M136.5 5C136.5 26.2808 119.469 43.5 98.5 43.5C77.5309 43.5 60.5 26.2808 60.5 5C60.5 -16.2808 77.5309 -33.5 98.5 -33.5C119.469 -33.5 136.5 -16.2808 136.5 5Z"/><path d="M117.5 4.5C117.5 15.0285 109.183 23.5 99 23.5C88.8174 23.5 80.5 15.0285 80.5 4.5C80.5 -6.02854 88.8174 -14.5 99 -14.5C109.183 -14.5 117.5 -6.02854 117.5 4.5Z"/><circle opacity=".5" cx="98.5" cy="5.5" r="143"/><circle opacity=".4" cx="99" cy="6" r="171.5"/><circle opacity=".3" cx="99" cy="6" r="206.5"/><circle opacity=".2" cx="99" cy="6" r="248.5"/><circle opacity=".1" cx="97.5" cy="5.5" r="292"/></g></svg>