<svg width="74" height="74" viewBox="0 0 74 74" fill="none" xmlns="http://www.w3.org/2000/svg"><path d="M61.3953 12.6048L61.3952 12.6047C54.8823 6.09206 46.2106 2.5 37 2.5C27.7894 2.5 19.1177 6.09206 12.6048 12.6047L12.6047 12.6048C6.09206 19.1177 2.5 27.7894 2.5 37C2.5 46.2106 6.09206 54.8823 12.6047 61.3952L12.6048 61.3953C19.1177 67.9079 27.7894 71.5 37 71.5C46.2106 71.5 54.8823 67.9079 61.3952 61.3953L61.3953 61.3952C67.9079 54.8823 71.5 46.2106 71.5 37C71.5 27.7894 67.9079 19.1177 61.3953 12.6048ZM37 62.5412C22.9187 62.5412 11.4588 51.0813 11.4588 37C11.4588 22.9187 22.9187 11.4588 37 11.4588C51.0813 11.4588 62.5412 22.9187 62.5412 37C62.5412 51.0813 51.0813 62.5412 37 62.5412ZM27.9118 46.5299C27.9118 50.0894 31.9308 52.164 34.8324 50.1023L47.5825 41.043C50.0413 39.296 50.0413 35.6452 47.5825 33.8982L34.8324 24.8389C31.9308 22.7772 27.9118 24.8518 27.9118 28.4113V46.5299Z" fill="#fff" stroke="#234FED" stroke-width="5"/></svg>