<svg width="57" height="53" viewBox="0 0 57 53" fill="none" xmlns="http://www.w3.org/2000/svg"><path d="M37.4062 0C27.9086 0 17.8125 3.0952 17.8125 8.83333V15.9C17.8125 16.8752 18.6105 17.6667 19.5938 17.6667C20.577 17.6667 21.375 16.8752 21.375 15.9V14.0591C25.1548 16.4229 31.3963 17.6667 37.4062 17.6667C43.4162 17.6667 49.6577 16.4229 53.4375 14.0591V15.9C53.4375 17.6278 49.0556 20.3838 40.8191 21.0657C39.843 21.1435 39.1127 22.0021 39.1946 22.9737C39.2694 23.8959 40.0496 24.592 40.9652 24.592C41.0186 24.592 41.0649 24.5885 41.1184 24.5849C45.7567 24.1998 50.3773 23.0091 53.4375 21.0763V22.9667C53.4375 24.4754 50.2099 26.6449 44.2213 27.6943C43.2559 27.8639 42.6075 28.7825 42.7785 29.7401C42.9317 30.5951 43.6834 31.1993 44.5277 31.1993C44.631 31.1993 44.7379 31.1923 44.8412 31.1711C48.4642 30.5386 51.3641 29.5033 53.4375 28.1889V30.0333C53.4375 31.5421 50.2099 33.7115 44.2213 34.7609C43.2559 34.9305 42.6075 35.8492 42.7785 36.8067C42.9317 37.6618 43.6834 38.266 44.5277 38.266C44.631 38.266 44.7379 38.2589 44.8412 38.2377C48.4642 37.6053 51.3641 36.5665 53.4375 35.2556V37.1C53.4375 38.6087 50.2099 40.7782 44.2213 41.8276C43.2559 41.9972 42.6075 42.9159 42.7785 43.8734C42.9317 44.7285 43.6834 45.3327 44.5277 45.3327C44.631 45.3327 44.7379 45.3256 44.8412 45.3044C48.4642 44.6719 51.3641 43.6331 53.4375 42.3223V44.1667C53.4375 45.8945 49.0556 48.6505 40.8191 49.3324C39.843 49.4101 39.1127 50.2687 39.1946 51.2404C39.2694 52.1626 40.0496 52.8587 40.9652 52.8587C41.0186 52.8587 41.0649 52.8551 41.1184 52.8516C49.0236 52.1944 57 49.2582 57 44.1667V8.83333C57 3.0952 46.9039 0 37.4062 0ZM37.4062 14.1333C27.6201 14.1333 21.375 10.9922 21.375 8.83333C21.375 6.67447 27.6201 3.53333 37.4062 3.53333C47.1924 3.53333 53.4375 6.67447 53.4375 8.83333C53.4375 10.9922 47.1924 14.1333 37.4062 14.1333Z" fill="#fff"/><path d="M19.5938 21.2C10.0961 21.2 0 24.2952 0 30.0333V44.1667C0 49.9048 10.0961 53 19.5938 53C29.0914 53 39.1875 49.9048 39.1875 44.1667V30.0333C39.1875 24.2952 29.0914 21.2 19.5938 21.2ZM35.625 44.1667C35.625 46.3255 29.3799 49.4667 19.5938 49.4667C9.80756 49.4667 3.5625 46.3255 3.5625 44.1667V42.3258C7.34231 44.6896 13.5838 45.9333 19.5938 45.9333C25.6037 45.9333 31.8452 44.6896 35.625 42.3258V44.1667ZM35.625 37.1C35.625 39.2589 29.3799 42.4 19.5938 42.4C9.80756 42.4 3.5625 39.2589 3.5625 37.1V35.2591C7.34231 37.6229 13.5838 38.8667 19.5938 38.8667C25.6037 38.8667 31.8452 37.6229 35.625 35.2591V37.1ZM19.5938 35.3333C9.80756 35.3333 3.5625 32.1922 3.5625 30.0333C3.5625 27.8745 9.80756 24.7333 19.5938 24.7333C29.3799 24.7333 35.625 27.8745 35.625 30.0333C35.625 32.1922 29.3799 35.3333 19.5938 35.3333Z" fill="#fff"/></svg>