<svg width="65" height="51" viewBox="0 0 65 51" fill="none" xmlns="http://www.w3.org/2000/svg"><path d="M54.1568 17.4447C51.1526 5.09671 39.0158 -2.40049 27.0483 0.69913C17.6959 3.12149 10.905 11.4615 10.2053 21.3842C3.56473 22.5141 -0.930829 28.9844 0.164276 35.836C1.13777 41.9272 6.25317 46.388 12.2363 46.3635H22.3915V42.1724H12.2363C7.74953 42.1724 4.11222 38.4194 4.11222 33.7901C4.11222 29.1607 7.74953 25.4077 12.2363 25.4077C13.3581 25.4077 14.2674 24.4696 14.2674 23.3121C14.2572 12.8959 22.433 4.44341 32.5283 4.43306C41.2674 4.42402 48.7902 10.7985 50.4806 19.6449C50.6475 20.5282 51.3423 21.2029 52.207 21.3213C57.7596 22.1372 61.6197 27.4428 60.8291 33.1717C60.1191 38.3161 55.8621 42.1464 50.8259 42.1724H42.7018V46.3635H50.8259C58.6778 46.339 65.0238 39.7516 64.9999 31.6501C64.9801 24.9062 60.5063 19.045 54.1568 17.4447Z" fill="#fff"/><path d="M31.4085 25.5038L23.5841 33.5278L26.3422 36.3563L30.8413 31.7625V51H34.7535V31.7625L39.233 36.3563L41.9911 33.5278L34.1667 25.5038C33.4037 24.726 32.1715 24.726 31.4085 25.5038Z" fill="#fff"/></svg>