<svg width="197" height="294" viewBox="0 0 197 294" fill="none" xmlns="http://www.w3.org/2000/svg"><mask id="mask0_302_10456" style="mask-type:alpha" maskUnits="userSpaceOnUse" x="0" y="0" width="197" height="294"><path d="M96 293.2C81.6 293.2 67.8667 290.333 54.8 284.6C41.7333 278.733 30.3333 270.533 20.6 260C11 249.467 4.13333 237.067 0 222.8L52.8 208.8C55.6 219.333 61.0667 227.533 69.2 233.4C77.4667 239.133 86.4 242 96 242C104.267 242 111.8 240 118.6 236C125.533 232 131 226.6 135 219.8C139.133 213 141.2 205.467 141.2 197.2C141.2 184.8 136.933 174.2 128.4 165.4C120 156.467 109.2 152 96 152C92 152 88.1333 152.6 84.4 153.8C80.6667 154.867 77.0667 156.4 73.6 158.4L49.2 115.6L140.8 39.6L144.8 51.2H11.2V0H191.2V51.2L120 120L119.6 104.8C136.133 107.333 150.067 113.133 161.4 122.2C172.867 131.133 181.533 142.2 187.4 155.4C193.4 168.467 196.4 182.4 196.4 197.2C196.4 215.333 191.8 231.667 182.6 246.2C173.4 260.6 161.2 272.067 146 280.6C130.8 289 114.133 293.2 96 293.2Z" fill="#fff"/></mask><g mask="url(#mask0_302_10456)" stroke="#698AFF" stroke-width="3"><path d="M147.843 115.442C151.574 117.217 154.831 119.323 160.501 123.401C171.763 132.181 180.267 143.045 186.029 156.009L186.033 156.018L186.037 156.026C191.944 168.89 194.9 182.61 194.9 197.2C194.9 215.065 190.372 231.118 181.333 245.398C172.269 259.582 160.256 270.876 145.27 279.29C130.303 287.56 113.889 291.7 96 291.7C81.8077 291.7 68.2817 288.876 55.4086 283.229C42.5304 277.446 31.2991 269.367 21.7049 258.986C12.5989 248.993 5.98936 237.289 1.87883 223.854L51.7546 210.629C54.7435 220.78 60.2615 228.802 68.3225 234.617L68.3338 234.625L68.3452 234.633C76.8501 240.531 86.0793 243.5 96 243.5C104.519 243.5 112.315 241.436 119.355 237.296C126.504 233.171 132.155 227.591 136.287 220.57C140.565 213.528 142.7 205.727 142.7 197.2C142.7 184.419 138.288 173.446 129.484 164.364C120.779 155.11 109.574 150.5 96 150.5C91.8558 150.5 87.8419 151.121 83.9646 152.364C80.5897 153.331 77.3235 154.665 74.1672 156.366L51.1265 115.951L127.777 52.3544L130.976 49.7H126.819H12.7V1.5H189.7V50.5642L131.457 106.922L129.718 108.605L131.998 109.414C132.729 109.673 133.428 109.921 134.1 110.158C140.589 112.457 144.423 113.815 147.843 115.442Z"/><path opacity=".6" d="M300.5 1.5C300.5 67.2278 247.44 120.5 182 120.5C116.56 120.5 63.5 67.2278 63.5 1.5C63.5 -64.2278 116.56 -117.5 182 -117.5C247.44 -117.5 300.5 -64.2278 300.5 1.5Z"/><path opacity=".7" d="M273.5 1.5C273.5 52.3178 232.526 93.5 182 93.5C131.474 93.5 90.5 52.3178 90.5 1.5C90.5 -49.3178 131.474 -90.5 182 -90.5C232.526 -90.5 273.5 -49.3178 273.5 1.5Z"/><path opacity=".8" d="M246.5 -0.5C246.5 35.4092 217.612 64.5 182 64.5C146.388 64.5 117.5 35.4092 117.5 -0.5C117.5 -36.4092 146.388 -65.5 182 -65.5C217.612 -65.5 246.5 -36.4092 246.5 -0.5Z"/><path opacity=".8" d="M240.5 -2.5C240.5 24.0241 219.219 45.5 193 45.5C166.781 45.5 145.5 24.0241 145.5 -2.5C145.5 -29.0241 166.781 -50.5 193 -50.5C219.219 -50.5 240.5 -29.0241 240.5 -2.5Z"/><path opacity=".8" d="M219.5 -4.5C219.5 9.33419 208.504 20.5 195 20.5C181.496 20.5 170.5 9.33419 170.5 -4.5C170.5 -18.3342 181.496 -29.5 195 -29.5C208.504 -29.5 219.5 -18.3342 219.5 -4.5Z"/><circle opacity=".5" cx="181.5" cy="2.5" r="143"/><circle opacity=".4" cx="182" cy="3" r="171.5"/><circle opacity=".3" cx="182" cy="3" r="206.5"/><circle opacity=".2" cx="182" cy="3" r="248.5"/><circle opacity=".1" cx="174.5" cy="-5.5" r="292"/><circle opacity=".1" cx="177" cy="-21" r="338.5"/></g></svg>