<svg width="59" height="60" viewBox="0 0 59 60" fill="none" xmlns="http://www.w3.org/2000/svg"><path d="M40.2837 19.0378C39.5759 8.5575 30.9621 0 20.166 0C9.04647 0 0 9.1998 0 20.5078C0 31.4842 8.41315 40.2475 18.7206 40.9671C19.4665 51.5893 28.2021 60 38.834 60C49.9535 60 59 50.8002 59 39.4922C59 28.68 50.7292 19.7961 40.2837 19.0378ZM3.45703 20.5078C3.45703 11.1383 10.9527 3.51562 20.166 3.51562C29.0248 3.51562 36.1404 10.485 36.8212 19.0863C32.6887 19.5047 28.9199 21.1976 25.9001 23.7711L21.921 11.6317C21.6857 10.9138 21.0253 10.4297 20.2813 10.4297C19.5372 10.4297 18.8768 10.9138 18.6415 11.6317L13.1102 28.5067C12.7359 29.6484 13.5765 30.8208 14.7502 30.8208C15.4739 30.8208 16.1484 30.355 16.3899 29.6183L17.225 27.0703H22.7998C20.5926 30.0097 19.1473 33.5705 18.7681 37.4462C10.4567 36.7697 3.45703 29.6516 3.45703 20.5078ZM22.1852 23.5547H18.3773L20.2813 17.7462L22.1852 23.5547ZM38.834 56.4844C29.6206 56.4844 22.125 48.8617 22.125 39.4922C22.125 30.1227 29.6206 22.5 38.834 22.5C48.0473 22.5 55.543 30.1227 55.543 39.4922C55.543 48.8617 48.0473 56.4844 38.834 56.4844Z" fill="#fff"/><path d="M35.9531 31.0547H31.3437C30.3891 31.0547 29.6152 31.8417 29.6152 32.8125C29.6152 33.7833 30.3891 34.5703 31.3437 34.5703H34.1357C33.8645 37.5874 32.8985 42.4215 30.264 44.5649C29.5185 45.1713 29.3977 46.2775 29.994 47.0355C30.5922 47.7959 31.6803 47.9148 32.4235 47.31C37.6218 43.0811 37.6816 33.2298 37.6816 32.8125C37.6816 31.8417 36.9077 31.0547 35.9531 31.0547Z" fill="#fff"/><path d="M46.0938 35.7422H44.1348V30.9375C44.1348 29.9667 43.3609 29.1797 42.4063 29.1797C41.4517 29.1797 40.6777 29.9667 40.6777 30.9375V47.8125C40.6777 48.7833 41.4517 49.5703 42.4063 49.5703C43.3609 49.5703 44.1348 48.7833 44.1348 47.8125V39.2578H46.0938C47.0484 39.2578 47.8223 38.4708 47.8223 37.5C47.8223 36.5292 47.0484 35.7422 46.0938 35.7422Z" fill="#fff"/><path d="M44.25 7.38281C48.3801 7.38281 51.7402 10.7999 51.7402 15C51.7402 15.9708 52.5141 16.7578 53.4688 16.7578C54.4234 16.7578 55.1973 15.9708 55.1973 15C55.1973 8.86137 50.2863 3.86719 44.25 3.86719C43.2954 3.86719 42.5215 4.65422 42.5215 5.625C42.5215 6.59578 43.2954 7.38281 44.25 7.38281Z" fill="#fff"/><path d="M14.75 52.6172C10.6199 52.6172 7.25977 49.2001 7.25977 45C7.25977 44.0292 6.48585 43.2422 5.53125 43.2422C4.57665 43.2422 3.80273 44.0292 3.80273 45C3.80273 51.1386 8.71368 56.1328 14.75 56.1328C15.7046 56.1328 16.4785 55.3458 16.4785 54.375C16.4785 53.4042 15.7046 52.6172 14.75 52.6172Z" fill="#fff"/></svg>