<svg width="242" height="294" viewBox="0 0 242 294" fill="none" xmlns="http://www.w3.org/2000/svg"><mask id="mask0_302_10438" style="mask-type:alpha" maskUnits="userSpaceOnUse" x="20" y="0" width="202" height="294"><path d="M20 293.6V246.4L140.8 139.2C149.867 131.2 156.267 123.667 160 116.6C163.733 109.533 165.6 102.933 165.6 96.8C165.6 88 163.8 80.2 160.2 73.4C156.6 66.4667 151.533 61.0667 145 57.2C138.467 53.2 130.8 51.2 122 51.2C112.8 51.2 104.667 53.3333 97.6 57.6C90.6667 61.7333 85.2667 67.2667 81.4 74.2C77.5333 81 75.7333 88.4 76 96.4H20C20 76.6667 24.3333 59.6 33 45.2C41.6667 30.8 53.7333 19.6667 69.2 11.8C84.6667 3.93333 102.667 -5.72205e-06 123.2 -5.72205e-06C142 -5.72205e-06 158.8 4.13332 173.6 12.4C188.533 20.5333 200.267 31.9333 208.8 46.6C217.333 61.2666 221.6 78.2667 221.6 97.6C221.6 111.867 219.6 123.733 215.6 133.2C211.6 142.533 205.667 151.2 197.8 159.2C189.933 167.067 180.267 176 168.8 186L90.8 254.4L86.4 242.4H221.6V293.6H20Z" fill="#fff"/></mask><g mask="url(#mask0_302_10438)" stroke="#698AFF" stroke-width="3"><path d="M21.5085 94.9C21.7231 76.0293 26.0006 59.7386 34.2852 45.9735C42.802 31.8224 54.6553 20.8806 69.88 13.137C85.1007 5.39546 102.86 1.5 123.2 1.5C141.772 1.5 158.316 5.58098 172.869 13.7095L172.876 13.7135L172.883 13.7173C187.576 21.7197 199.108 32.9253 207.503 47.3543C215.886 61.7615 220.1 78.4941 220.1 97.6C220.1 111.736 218.117 123.387 214.22 132.611C210.302 141.754 204.481 150.265 196.734 158.145C188.899 165.979 179.261 174.887 167.814 184.87L167.811 184.872L103.511 241.272L100.515 243.9H104.5H220.1V292.1H21.5V247.074L141.792 140.325C141.793 140.324 141.793 140.324 141.794 140.324C150.933 132.259 157.477 124.588 161.326 117.301C165.14 110.081 167.1 103.24 167.1 96.8C167.1 87.7926 165.256 79.747 161.528 72.7024C157.805 65.5341 152.549 59.9271 145.774 55.9148C138.973 51.754 131.03 49.7 122 49.7C112.56 49.7 104.154 51.8915 96.8283 56.3137C89.6759 60.5784 84.0894 66.3001 80.0929 73.4641C76.3396 80.0669 74.4676 87.2213 74.4742 94.9H21.5085Z"/><path opacity=".6" d="M314.5 7.5C314.5 73.2278 261.44 126.5 196 126.5C130.56 126.5 77.5 73.2278 77.5 7.5C77.5 -58.2278 130.56 -111.5 196 -111.5C261.44 -111.5 314.5 -58.2278 314.5 7.5Z"/><path opacity=".7" d="M287.5 7.5C287.5 58.3178 246.526 99.5 196 99.5C145.474 99.5 104.5 58.3178 104.5 7.5C104.5 -43.3178 145.474 -84.5 196 -84.5C246.526 -84.5 287.5 -43.3178 287.5 7.5Z"/><path opacity=".8" d="M260.5 8.5C260.5 44.4092 231.612 73.5 196 73.5C160.388 73.5 131.5 44.4092 131.5 8.5C131.5 -27.4092 160.388 -56.5 196 -56.5C231.612 -56.5 260.5 -27.4092 260.5 8.5Z"/><path opacity=".9" d="M233.5 8C233.5 29.2808 216.469 46.5 195.5 46.5C174.531 46.5 157.5 29.2808 157.5 8C157.5 -13.2808 174.531 -30.5 195.5 -30.5C216.469 -30.5 233.5 -13.2808 233.5 8Z"/><path d="M214.5 7.5C214.5 18.0285 206.183 26.5 196 26.5C185.817 26.5 177.5 18.0285 177.5 7.5C177.5 -3.02854 185.817 -11.5 196 -11.5C206.183 -11.5 214.5 -3.02854 214.5 7.5Z"/><circle opacity=".5" cx="195.5" cy="8.5" r="143"/><circle opacity=".4" cx="196" cy="9" r="171.5"/><circle opacity=".3" cx="196" cy="9" r="206.5"/><circle opacity=".2" cx="196" cy="9" r="248.5"/><circle opacity=".1" cx="188.5" cy=".5" r="292"/><circle opacity=".1" cx="191" cy="-15" r="338.5"/></g></svg>