<svg width="247" height="288" viewBox="0 0 247 288" fill="none" xmlns="http://www.w3.org/2000/svg"><mask id="mask0_302_10474" style="mask-type:alpha" maskUnits="userSpaceOnUse" x="20" y="0" width="206" height="288"><path d="M145.2 288V243.2H20V192.4L110.8 -1.14441e-05H173.2L82.4 192.4H145.2V120.4H200.4V192.4H226V243.2H200.4V288H145.2Z" fill="#fff"/></mask><g mask="url(#mask0_302_10474)"><path d="M145.2 288H142.2V291H145.2V288ZM145.2 243.2H148.2V240.2H145.2V243.2ZM20 243.2H17V246.2H20V243.2ZM20 192.4L17.287 191.12L17 191.728V192.4H20ZM110.8 -1.52588e-05V-3.00002H108.899L108.087 -1.28039L110.8 -1.52588e-05ZM173.2 -1.52588e-05L175.913 1.28036L177.933 -3.00002H173.2V-1.52588e-05ZM82.4 192.4L79.687 191.12L77.6669 195.4H82.4V192.4ZM145.2 192.4V195.4H148.2V192.4H145.2ZM145.2 120.4V117.4H142.2V120.4H145.2ZM200.4 120.4H203.4V117.4H200.4V120.4ZM200.4 192.4H197.4V195.4H200.4V192.4ZM226 192.4H229V189.4H226V192.4ZM226 243.2V246.2H229V243.2H226ZM200.4 243.2V240.2H197.4V243.2H200.4ZM200.4 288V291H203.4V288H200.4ZM148.2 288V243.2H142.2V288H148.2ZM145.2 240.2H20V246.2H145.2V240.2ZM23 243.2V192.4H17V243.2H23ZM22.713 193.68L113.513 1.28036L108.087 -1.28039L17.287 191.12L22.713 193.68ZM110.8 2.99998H173.2V-3.00002H110.8V2.99998ZM170.487 -1.28039L79.687 191.12L85.1131 193.68L175.913 1.28036L170.487 -1.28039ZM82.4 195.4H145.2V189.4H82.4V195.4ZM148.2 192.4V120.4H142.2V192.4H148.2ZM145.2 123.4H200.4V117.4H145.2V123.4ZM197.4 120.4V192.4H203.4V120.4H197.4ZM200.4 195.4H226V189.4H200.4V195.4ZM223 192.4V243.2H229V192.4H223ZM226 240.2H200.4V246.2H226V240.2ZM197.4 243.2V288H203.4V243.2H197.4ZM200.4 285H145.2V291H200.4V285Z" fill="#698AFF"/><path opacity=".6" d="M292.5 1.5C292.5 67.2278 239.44 120.5 174 120.5C108.56 120.5 55.5 67.2278 55.5 1.5C55.5 -64.2278 108.56 -117.5 174 -117.5C239.44 -117.5 292.5 -64.2278 292.5 1.5Z" stroke="#698AFF" stroke-width="3"/><path opacity=".7" d="M265.5 1.5C265.5 52.3178 224.526 93.5 174 93.5C123.474 93.5 82.5 52.3178 82.5 1.5C82.5 -49.3178 123.474 -90.5 174 -90.5C224.526 -90.5 265.5 -49.3178 265.5 1.5Z" stroke="#698AFF" stroke-width="3"/><path opacity=".8" d="M238.5 2.5C238.5 38.4092 209.612 67.5 174 67.5C138.388 67.5 109.5 38.4092 109.5 2.5C109.5 -33.4092 138.388 -62.5 174 -62.5C209.612 -62.5 238.5 -33.4092 238.5 2.5Z" stroke="#698AFF" stroke-width="3"/><path opacity=".9" d="M211.5 2C211.5 23.2808 194.469 40.5 173.5 40.5C152.531 40.5 135.5 23.2808 135.5 2C135.5 -19.2808 152.531 -36.5 173.5 -36.5C194.469 -36.5 211.5 -19.2808 211.5 2Z" stroke="#698AFF" stroke-width="3"/><path d="M192.5 1.5C192.5 12.0285 184.183 20.5 174 20.5C163.817 20.5 155.5 12.0285 155.5 1.5C155.5 -9.02854 163.817 -17.5 174 -17.5C184.183 -17.5 192.5 -9.02854 192.5 1.5Z" stroke="#698AFF" stroke-width="3"/><circle opacity=".5" cx="173.5" cy="2.5" r="143" stroke="#698AFF" stroke-width="3"/><circle opacity=".4" cx="174" cy="3" r="171.5" stroke="#698AFF" stroke-width="3"/><circle opacity=".3" cx="174" cy="3" r="206.5" stroke="#698AFF" stroke-width="3"/><circle opacity=".2" cx="174" cy="3" r="248.5" stroke="#698AFF" stroke-width="3"/><circle opacity=".1" cx="166.5" cy="-5.5" r="292" stroke="#698AFF" stroke-width="3"/><circle opacity=".1" cx="169" cy="-21" r="338.5" stroke="#698AFF" stroke-width="3"/></g></svg>