<svg width="39" height="16" viewBox="0 0 39 16" fill="none" xmlns="http://www.w3.org/2000/svg"><path d="M17.9145 7.7373V12.3832H16.4375V0.914733H20.3547C21.2996 0.896442 22.2078 1.25312 22.8958 1.9116C23.5838 2.52435 23.9691 3.41146 23.9508 4.32602C23.9691 5.24972 23.5838 6.13683 22.8958 6.75873C22.2078 7.40806 21.3638 7.7373 20.3638 7.7373H17.9145ZM17.9145 2.32315V6.32889H20.3914C20.9418 6.34718 21.4739 6.12769 21.85 5.73443C22.6298 4.9845 22.6389 3.74985 21.8867 2.97248L21.85 2.9359C21.4739 2.53349 20.9418 2.314 20.3914 2.33229L17.9145 2.32315ZM27.3542 4.28029C28.4459 4.28029 29.3082 4.57295 29.9412 5.14912C30.5742 5.73443 30.8861 6.53009 30.8861 7.54525V12.3741H29.4733V11.2858H29.4091C28.7945 12.182 27.9872 12.6302 26.9689 12.6302C26.1066 12.6302 25.3727 12.3741 24.7948 11.8619C24.226 11.3864 23.9049 10.6822 23.9232 9.94138C23.9232 9.12742 24.2352 8.48724 24.8498 8.00252C25.4644 7.51781 26.2901 7.28003 27.3175 7.28003C28.1982 7.28003 28.9137 7.44464 29.4825 7.75559V7.41721C29.4825 6.9142 29.2624 6.43864 28.8771 6.11854C28.4826 5.77101 27.978 5.57896 27.4551 5.57896C26.6295 5.57896 25.9782 5.92649 25.492 6.62155L24.1893 5.80759C24.8957 4.79244 25.9506 4.28029 27.3542 4.28029ZM25.4461 9.97796C25.4461 10.3621 25.6296 10.7187 25.9323 10.9382C26.2625 11.1943 26.6662 11.3315 27.079 11.3224C27.7028 11.3224 28.2991 11.0754 28.7394 10.6364C29.2257 10.1792 29.4733 9.63957 29.4733 9.01768C29.0147 8.65186 28.3725 8.46894 27.5469 8.46894C26.9506 8.46894 26.446 8.61527 26.0424 8.89879C25.6479 9.19144 25.4461 9.54812 25.4461 9.97796ZM38.9957 4.53636L34.0602 15.8402H32.5374L34.3721 11.8894L31.1246 4.54551H32.73L35.0693 10.1792H35.106L37.3903 4.54551L38.9957 4.53636Z" fill="#5F6368"/><path d="M12.9484 6.73369C12.9484 6.28555 12.9117 5.83742 12.8383 5.39844H6.60938V7.93175H10.178C10.0312 8.7457 9.55414 9.47735 8.85694 9.93462V11.5808H10.9852C12.2329 10.4376 12.9484 8.7457 12.9484 6.73369Z" fill="#4285F4"/><path d="M6.60963 13.1704C8.38933 13.1704 9.89382 12.585 10.9855 11.579L8.85719 9.93284C8.2609 10.3352 7.49948 10.5639 6.60963 10.5639C4.88498 10.5639 3.42636 9.4024 2.90345 7.84766H0.710938V9.54873C1.83013 11.7619 4.11438 13.1704 6.60963 13.1704Z" fill="#34A853"/><path d="M2.90118 7.84891C2.62597 7.03495 2.62597 6.14784 2.90118 5.32474V3.63281H0.708662C0.24279 4.54825 0 5.56031 0 6.58682C0 7.61334 0.24279 8.62539 0.708662 9.54083L2.90118 7.84891Z" fill="#FBBC04"/><path d="M6.60964 2.60688C7.55453 2.58859 8.46273 2.94526 9.14158 3.5946L11.0222 1.71976C9.82961 0.594858 8.25173 -0.0178931 6.60964 0.000397995C4.11439 0.000397995 1.83013 1.40881 0.710938 3.63118L2.90346 5.33225C3.42636 3.76836 4.88498 2.60688 6.60964 2.60688Z" fill="#EA4335"/></svg>