<svg width="28" height="28" viewBox="0 0 28 28" fill="none" xmlns="http://www.w3.org/2000/svg"><path fill-rule="evenodd" clip-rule="evenodd" d="M27.5846 10.5352C27.4157 9.85916 27.1905 9.23944 26.9653 8.61972C26.8527 8.39437 26.7964 8.22535 26.6839 8.05634C26.4024 7.43662 25.7831 6.42254 25.3891 5.91549C25.2765 5.74648 25.1639 5.57747 24.995 5.40845L24.4321 4.73239C24.1506 4.39437 23.2499 3.5493 22.8558 3.21127C22.518 2.92958 22.2365 2.70423 21.8988 2.47887C19.9847 1.1831 17.9581 0.394366 15.65 0.112676C15.1997 0.056338 14.8056 0 14.4115 0H13.173C12.9479 0.056338 12.6101 0.056338 12.3849 0.056338C11.2027 0.169014 10.0205 0.507042 8.95091 0.901408C8.44426 1.12676 7.88131 1.35211 7.48724 1.57746C7.37465 1.69014 7.31836 1.69014 7.20577 1.74648C7.09318 1.80282 7.03688 1.85916 6.92429 1.91549C6.8117 1.97183 6.75541 2.02817 6.64282 2.08451C6.02357 2.47887 5.79839 2.64789 5.12285 3.15493C4.78508 3.43662 4.5036 3.71831 4.22213 4L3.60288 4.61972C3.49029 4.73239 3.49029 4.78873 3.3777 4.84507C3.26511 5.01408 3.15252 5.1831 2.98364 5.35211C2.87105 5.52113 2.75846 5.6338 2.64587 5.80282L1.97033 6.8169L1.51997 7.66197C1.29479 8.11268 1.01331 8.73239 0.844426 9.1831C0.731836 9.6338 0.56295 10.0282 0.45036 10.4789C0.33777 10.9296 0.22518 11.3803 0.168885 11.8873C0.0562951 12.4507 0 13.0141 0 13.5775C0 14.5915 0 14.9859 0.11259 16.0563C0.33777 17.6338 0.844426 19.1549 1.57626 20.507C2.58957 22.4789 4.10954 24.2254 5.91098 25.4648C6.47393 25.8592 7.37465 26.4225 8.05019 26.7042C9.68275 27.4366 11.6531 28 13.5108 28C15.0871 28 15.8752 28 17.3952 27.6056C18.6337 27.3239 19.5907 26.8732 20.7166 26.3099C21.2795 26.0282 22.2928 25.3521 22.7432 24.9577C23.5313 24.2817 23.9817 23.8873 24.6572 23.0423C24.9387 22.7042 25.1639 22.4225 25.3891 22.0845L25.8957 21.3521C25.952 21.2394 26.0083 21.1831 26.0646 21.0704C26.5713 20.2254 26.7964 19.662 27.1342 18.7606C27.3031 18.3662 27.4157 17.9155 27.5283 17.4648C28.1475 15.1549 28.1475 12.8451 27.5846 10.5352ZM24.7135 6.08451C24.9387 6.42253 25.1639 6.70423 25.3328 7.04225C25.558 7.38028 25.7268 7.71831 25.8957 8.05634C25.952 8.16901 25.952 8.22535 26.0083 8.33803L26.2335 8.90141C26.2898 9.01408 26.2898 9.12676 26.3461 9.1831H21.2795C21.2232 9.07042 21.1669 8.73239 21.1669 8.61972C21.1106 8.4507 21.0543 8.28169 20.9981 8.05634L20.6603 7.04225C20.4351 6.42253 20.1536 5.85915 19.8159 5.29577L19.7596 5.1831H24.038C24.038 5.29577 24.6572 6.02817 24.7135 6.08451ZM16.213 0.84507C17.0574 0.957746 17.9581 1.23944 18.7463 1.52113L19.9847 2.08451C20.3225 2.25352 20.604 2.42253 20.8855 2.59155C21.7299 3.09859 22.2365 3.49296 22.9121 4.16901C23.081 4.28169 23.2499 4.39437 23.3624 4.50704H19.3092C19.0277 4 17.7892 2.59155 17.2826 2.14085L17.17 2.02817L16.6633 1.57746C16.5507 1.52113 16.4944 1.46479 16.3819 1.35211C16.2693 1.29577 16.213 1.23944 16.1004 1.12676L15.5374 0.732394C15.7626 0.788732 15.9878 0.84507 16.213 0.84507ZM14.3552 0.732394C14.4115 0.732394 14.8619 1.01408 14.9745 1.12676C15.1997 1.23944 16.1567 2.02817 16.3819 2.19718L16.6633 2.42254C16.8322 2.59155 17.0011 2.70423 17.17 2.87324L18.4648 4.50704H14.3552V0.732394ZM14.3552 5.23944H18.9714C18.9714 5.35211 19.0277 5.35211 19.084 5.46479L19.7033 6.59155C19.8722 6.92958 19.9847 7.21127 20.1536 7.60563C20.2662 7.88732 20.604 9.01408 20.604 9.23944H14.3552V5.23944ZM13.6797 0.732394V4.50704H9.57016C9.79534 4.11268 10.1894 3.77465 10.4709 3.43662L11.9908 2.02817C12.3849 1.74648 12.7227 1.40845 13.1167 1.1831C13.173 1.07042 13.5671 0.788732 13.6797 0.732394ZM13.6797 5.23944V9.1831H7.43095C7.43095 8.95775 7.65613 8.28169 7.71242 8.05634C7.82501 7.66197 7.9376 7.38028 8.10649 7.04225C8.33167 6.47887 8.50055 6.14085 8.78203 5.6338C8.83832 5.57747 9.00721 5.29577 9.00721 5.23944H13.6797ZM4.84137 4.33803L5.01026 4.16901C6.36134 2.87324 8.27537 1.85916 10.0768 1.23944C10.5835 1.07042 11.259 0.957746 11.822 0.84507C12.0471 0.788732 12.2723 0.788732 12.4975 0.788732C12.2723 0.957746 11.7657 1.29577 11.4279 1.57746C11.3716 1.6338 11.3153 1.6338 11.259 1.69014C10.9775 1.91549 10.0768 2.76056 9.90793 2.98592L9.57016 3.38028C9.40127 3.5493 8.78203 4.33803 8.66944 4.61972H4.67249C4.72878 4.4507 4.78508 4.39437 4.84137 4.33803ZM2.08292 8.05634C2.13921 8 2.13921 7.94366 2.19551 7.83099C2.2518 7.66197 2.3081 7.5493 2.42069 7.38028L2.92734 6.53521C3.03993 6.47887 3.77177 5.40845 3.94065 5.23944C3.99695 5.1831 4.05324 5.1831 4.22213 5.1831H8.21908C8.21908 5.23944 8.16278 5.35211 8.10649 5.40845C7.82501 5.91549 7.54354 6.47887 7.31836 7.04225C7.20577 7.38028 7.03688 7.71831 6.98059 8.05634C6.92429 8.28169 6.69911 8.95775 6.69911 9.1831H1.57626C1.68885 8.90141 1.91403 8.39437 2.08292 8.05634ZM3.94065 22.7606C3.94065 22.7042 3.32141 21.9718 3.26511 21.8592L2.08292 19.8873C1.91403 19.5493 1.74515 19.0423 1.57626 18.7606H6.69911C6.69911 19.0423 6.868 19.6056 6.98059 19.8873C7.37465 21.1831 8.21908 22.7606 8.21908 22.7606H3.94065ZM11.2027 27.0423C9.73904 26.7042 8.38796 26.1972 7.09318 25.4084C6.8117 25.2394 6.47393 25.0141 6.24875 24.8451C6.13616 24.7324 5.96727 24.6197 5.85468 24.507C5.79839 24.4507 5.74209 24.3944 5.6295 24.338C5.57321 24.2817 5.57321 24.2817 5.51691 24.2817L5.06655 23.831C4.95396 23.7183 4.78508 23.6056 4.72878 23.493H8.78203C9.00721 23.8873 9.45757 24.3944 9.79534 24.7887C9.85163 24.9014 9.96422 24.9577 10.0205 25.0141C10.3583 25.4648 11.4842 26.4225 11.9908 26.8169L12.5538 27.2113C12.1034 27.2113 11.4842 27.0986 11.2027 27.0423ZM13.6797 27.2113C13.3982 27.1549 12.2723 26.1972 11.9346 25.9718L11.6531 25.7465C11.3716 25.4648 10.9212 25.1268 10.6398 24.7887L9.73904 23.7183C9.68275 23.6056 9.62645 23.5493 9.51386 23.4366H13.6234L13.6797 27.2113ZM13.6797 22.7606H9.00721C9.00721 22.7042 8.95091 22.6479 8.89462 22.5352C8.83832 22.4789 8.78203 22.3662 8.78203 22.3099L8.27537 21.4085C7.9376 20.7887 7.48724 19.4366 7.37465 18.7606H13.6234L13.6797 22.7606ZM18.4648 23.493C18.1833 23.9437 17.5078 24.6761 17.1137 25.0704C17.0011 25.1831 16.9448 25.2394 16.8885 25.3521L16.1004 26.0282C15.8189 26.2535 14.5804 27.2113 14.3552 27.2676V23.493H18.4648ZM14.3552 18.8169H20.604C20.604 19.0986 20.2662 20.1127 20.1536 20.4507C20.0973 20.6197 20.041 20.7887 19.9284 20.9577C19.7596 21.3521 19.3655 22.1408 19.084 22.5915C19.0277 22.6479 18.9714 22.7042 18.9714 22.8169H14.3552V18.8169ZM22.5743 24.169L22.1802 24.507C22.0677 24.6197 21.8988 24.7324 21.7862 24.8451C20.0973 26.0282 18.2396 26.8732 16.213 27.2113C15.9878 27.2676 15.7626 27.2676 15.5374 27.2676L16.8885 26.2535C17.17 26.0282 18.1833 25.0141 18.5211 24.5634L19.1403 23.7746L19.2529 23.662C19.3092 23.6056 19.3092 23.6056 19.3655 23.493H23.4187C23.2499 23.6056 22.7995 24 22.5743 24.169ZM26.2898 19.0986L26.0646 19.662C25.7831 20.2817 25.1639 21.3521 24.7135 21.9155L24.038 22.8169H19.7596C20.4351 21.5775 20.604 21.3521 20.9981 19.9437L21.2795 18.8169H26.3461C26.4024 18.8732 26.3461 18.9859 26.2898 19.0986ZM26.909 17.1831C26.8527 17.3521 26.8527 17.5211 26.7964 17.6901C26.7401 17.8028 26.6839 18.0845 26.6839 18.1408H1.35108L1.06961 17.1831C1.01331 16.8451 0.900721 16.507 0.844426 16.169C0.788131 15.831 0.731836 15.493 0.731836 15.0986C0.731836 14.9296 0.675541 14.7042 0.675541 14.5352V13.9718C0.675541 12.7887 0.844426 11.4366 1.1822 10.3099C1.23849 10.1408 1.29479 9.97183 1.29479 9.85915H26.6276C26.6839 9.97183 26.7401 10.1408 26.7401 10.3099C26.9653 11.0423 27.1342 12.0563 27.1905 12.8451V13.9718C27.3031 15.0423 27.1905 16.169 26.909 17.1831Z" fill="#212121"/><path fill-rule="evenodd" clip-rule="evenodd" d="M7.48627 16.9007C8.16181 16.9007 7.99292 17.0134 8.2744 16.5064L8.78106 15.5486C8.83735 15.4359 8.83735 15.3796 8.89365 15.3233C9.23142 14.7599 9.62548 13.8585 9.96325 13.2951L10.0195 13.2388C10.0195 13.4078 10.0758 13.6331 10.0758 13.7458C10.0758 13.9711 10.0758 14.0838 10.1321 14.2528L10.3573 16.619C10.3573 16.9007 10.2447 16.8444 11.0329 16.8444C11.0892 16.7317 11.9899 14.8726 12.1588 14.6472C12.2151 14.5345 12.2713 14.4218 12.3276 14.2528L13.2847 12.3937L13.4535 12.0557C13.5661 11.8866 13.8476 11.3233 13.9602 11.2106C14.0728 11.0979 14.0728 11.2106 14.0728 11.0416H12.9469C12.9469 11.4359 13.1721 11.2106 12.6654 12.3373C12.6091 12.5064 12.5528 12.619 12.4402 12.788L11.5395 14.5345C11.4832 14.6472 11.3706 14.9289 11.3143 14.9289C11.3143 14.4782 11.0892 12.6754 11.0892 12.112C11.0892 11.774 11.0329 11.4923 11.0329 11.1542H10.5262L8.83735 14.2528C8.78106 14.3655 8.49958 14.9289 8.44328 14.9289C8.44328 14.1965 8.16181 12.619 8.16181 11.774C8.16181 11.6613 8.16181 11.4923 8.21811 11.3796C8.2744 11.2106 8.38699 11.2106 8.38699 11.0416H6.69814C6.69814 11.2669 6.81073 11.1542 6.92332 11.6613L7.0922 13.1261C7.1485 13.7458 7.48627 16.619 7.48627 16.9007ZM3.65821 12.3373C3.65821 13.4641 5.85371 13.5768 5.85371 15.0979C5.85371 15.4923 5.79742 15.7176 5.68483 15.943C5.57224 16.1683 5.45965 16.3373 5.29076 16.5064C5.12188 16.6754 4.8967 16.788 4.67152 16.8444C4.05227 17.0697 3.26414 17.0134 2.5886 16.8444C2.47601 16.788 2.30712 16.7317 2.19453 16.7317C1.68788 16.5064 1.91306 16.5064 2.08194 15.6049C2.13824 15.4923 2.08194 15.4359 2.19453 15.3796C2.19453 15.7176 2.36342 16.0557 2.53231 16.2247C2.81378 16.5627 3.20785 16.5627 3.65821 16.5627C4.16486 16.5627 4.55893 16.2247 4.67152 15.8303C4.8404 14.9852 4.10857 14.6472 3.65821 14.2528C3.15155 13.8585 2.5886 13.4641 2.5886 12.6754C2.5886 12.281 2.75749 11.8303 2.98267 11.6613C3.20785 11.4359 3.48932 11.2106 3.82709 11.0979C4.10857 10.9852 4.39004 10.9852 4.72781 10.9289C5.00929 10.9289 5.85371 11.0416 6.13519 11.2106C6.13519 11.3796 5.91001 12.112 5.91001 12.2247H5.79742C5.79742 11.9993 5.62853 11.7176 5.45965 11.5486C5.34706 11.4923 5.29076 11.4359 5.12188 11.3796C4.44634 11.2106 3.65821 11.4923 3.65821 12.3373ZM18.2386 11.3796C18.2386 11.7176 17.6194 13.8021 17.5068 14.1965C17.3379 14.8162 17.1127 15.6613 16.8875 16.281C16.8312 16.5064 16.7187 16.7317 16.4935 16.788V16.9007H18.2386C18.2386 16.5627 17.9571 16.8444 18.4638 15.3233L18.8016 14.1402H19.7586C20.0401 14.1965 20.2652 14.2528 20.3215 14.5345C20.4904 14.5345 20.4341 14.4218 20.5467 14.0275C20.603 13.8585 20.6593 13.6331 20.7156 13.4641C20.5467 13.4641 20.603 13.5768 20.3778 13.6331C20.1527 13.6895 19.1956 13.6895 18.9142 13.6895L19.4208 11.8866C19.5334 11.3796 19.646 11.4923 20.5467 11.4923C20.7719 11.4923 20.9971 11.6049 21.1097 11.7176C21.4474 12.0557 21.2786 12.112 21.5037 12.112C21.5037 11.9993 21.6163 11.7176 21.6726 11.5486C21.7289 11.4359 21.7289 11.3796 21.7852 11.2669C21.8415 11.1542 21.8978 11.0416 21.7852 11.0416H18.2949C18.126 11.2106 18.2386 11.2669 18.2386 11.3796ZM21.7289 12.112C21.9541 12.112 21.8415 11.8866 22.3482 11.6049C22.6859 11.4359 22.9674 11.4923 23.4178 11.4923L22.2356 15.6049C22.123 15.943 21.9541 16.7317 21.6726 16.788V16.9007H23.3615C23.3615 16.5627 23.1363 16.9007 23.4178 15.8866C23.4741 15.6613 23.5304 15.4923 23.5867 15.2669L23.9244 14.0275C24.1496 13.2951 24.3748 12.45 24.6 11.6613C24.6563 11.4923 24.6 11.5486 25.1629 11.5486C25.557 11.5486 25.8948 11.8303 26.0073 12.1683C26.1762 12.1683 26.1199 11.9993 26.2325 11.7176C26.2888 11.6049 26.4014 11.2669 26.4014 11.1542H22.1793C22.0667 11.1542 22.0104 11.4359 21.9541 11.6613C21.8415 11.7176 21.7289 11.943 21.7289 12.112ZM15.0298 11.3233C15.0298 11.6613 15.0298 11.5486 14.9735 11.8866L14.692 12.9007C14.5794 13.3514 13.735 16.3937 13.5098 16.619C13.3973 16.788 13.341 16.7317 13.2847 16.8444H15.0298C15.0298 16.5064 14.8046 16.788 15.0861 15.774L15.255 15.0979C15.3676 14.6472 15.5365 14.1965 15.6491 13.7458C15.8179 13.1261 16.0431 12.281 16.2683 11.6613C16.3246 11.4359 16.4372 11.2106 16.6624 11.1542V11.0416C14.3543 11.0416 15.0298 10.9852 15.0298 11.3233Z" fill="#212121"/></svg>