<svg width="42" height="11" viewBox="0 0 42 11" fill="none" xmlns="http://www.w3.org/2000/svg"><path d="M5.03996 0.000394155H1.77322C1.54963 0.000394155 1.35954 0.160066 1.32466 0.377043L0.00343043 8.61059C-0.0228477 8.77299 0.105195 8.9195 0.27283 8.9195H1.83243C2.05597 8.9195 2.24606 8.7599 2.28095 8.54252L2.63728 6.32182C2.67169 6.1044 2.86226 5.94476 3.08533 5.94476H4.11949C6.27138 5.94476 7.5133 4.92125 7.83767 2.89302C7.98381 2.00566 7.84386 1.30848 7.42111 0.820205C6.95682 0.283982 6.13332 0.000394155 5.03996 0.000394155ZM5.41685 3.00759C5.2382 4.15975 4.34256 4.15975 3.47655 4.15975H2.98361L3.32942 2.00804C3.34998 1.87797 3.4646 1.7822 3.59836 1.7822H3.82428C4.41419 1.7822 4.9707 1.7822 5.25824 2.11269C5.42974 2.30991 5.48229 2.60286 5.41685 3.00759Z" fill="#283B82"/><path d="M14.8046 2.96994H13.2403C13.107 2.96994 12.9919 3.06573 12.9713 3.19579L12.9021 3.62584L12.7927 3.46995C12.454 2.98682 11.6988 2.82535 10.945 2.82535C9.21638 2.82535 7.73991 4.11223 7.45236 5.91745C7.30287 6.81794 7.51543 7.67901 8.03512 8.27946C8.51182 8.83158 9.19392 9.06163 10.0055 9.06163C11.3984 9.06163 12.1708 8.18138 12.1708 8.18138L12.101 8.60862C12.0747 8.772 12.2028 8.91848 12.3695 8.91848H13.7785C14.0026 8.91848 14.1917 8.75883 14.2271 8.5415L15.0725 3.27887C15.0994 3.11688 14.9718 2.96994 14.8046 2.96994ZM12.624 5.96253C12.4732 6.84093 11.7638 7.43067 10.8591 7.43067C10.4049 7.43067 10.0418 7.28744 9.80868 7.01607C9.5775 6.74657 9.4896 6.363 9.56318 5.93574C9.70407 5.06483 10.4254 4.45593 11.3162 4.45593C11.7605 4.45593 12.1216 4.60098 12.3594 4.87466C12.5978 5.15119 12.6923 5.53714 12.624 5.96253Z" fill="#283B82"/><path d="M23.1356 2.97013H21.5636C21.4136 2.97013 21.2727 3.04337 21.1877 3.16593L19.0195 6.30499L18.1006 3.28846C18.0428 3.09969 17.8656 2.97013 17.6649 2.97013H16.1202C15.9324 2.97013 15.802 3.1504 15.8617 3.32412L17.5933 8.31863L15.9654 10.5774C15.8373 10.7553 15.9663 11 16.1875 11H17.7576C17.9066 11 18.0461 10.9286 18.1307 10.8084L23.3591 3.39036C23.4843 3.21285 23.3558 2.97013 23.1356 2.97013Z" fill="#283B82"/><path d="M28.3412 0.000394155H25.074C24.8509 0.000394155 24.6608 0.160066 24.6259 0.377043L23.3047 8.61059C23.2785 8.77299 23.4064 8.9195 23.5732 8.9195H25.2498C25.4055 8.9195 25.5388 8.80781 25.5631 8.65567L25.9381 6.32182C25.9724 6.1044 26.1631 5.94476 26.3861 5.94476H27.4198C29.5721 5.94476 30.8136 4.92125 31.1384 2.89302C31.2851 2.00566 31.1442 1.30848 30.7215 0.820205C30.2576 0.283982 29.4346 0.000394155 28.3412 0.000394155ZM28.7181 3.00759C28.5399 4.15975 27.6444 4.15975 26.7778 4.15975H26.2854L26.6317 2.00804C26.6522 1.87797 26.7659 1.7822 26.9001 1.7822H27.126C27.7155 1.7822 28.2725 1.7822 28.56 2.11269C28.7315 2.30991 28.7835 2.60286 28.7181 3.00759Z" fill="#469BDB"/><path d="M38.1055 2.96994H36.5421C36.4079 2.96994 36.2937 3.06573 36.2737 3.19579L36.2044 3.62584L36.0946 3.46995C35.7559 2.98682 35.0012 2.82535 34.2474 2.82535C32.5187 2.82535 31.0428 4.11223 30.7552 5.91745C30.6062 6.81794 30.8177 7.67901 31.3375 8.27946C31.8152 8.83158 32.4963 9.06163 33.3078 9.06163C34.7007 9.06163 35.4731 8.18138 35.4731 8.18138L35.4033 8.60862C35.3771 8.772 35.5051 8.91848 35.6728 8.91848H37.0814C37.3045 8.91848 37.4946 8.75883 37.5295 8.5415L38.3754 3.27887C38.4011 3.11688 38.2732 2.96994 38.1055 2.96994ZM35.9249 5.96253C35.7749 6.84093 35.0647 7.43067 34.16 7.43067C33.7067 7.43067 33.3427 7.28744 33.1096 7.01607C32.8785 6.74657 32.7915 6.363 32.8641 5.93574C33.0059 5.06483 33.7263 4.45593 34.6172 4.45593C35.0614 4.45593 35.4224 4.60098 35.6603 4.87466C35.8996 5.15119 35.9942 5.53714 35.9249 5.96253Z" fill="#469BDB"/><path d="M39.9503 0.226283L38.6094 8.61059C38.5832 8.77299 38.7112 8.9195 38.8779 8.9195H40.2259C40.4499 8.9195 40.6401 8.7599 40.6744 8.54252L41.9966 0.309449C42.0229 0.146937 41.8949 0 41.7282 0H40.2187C40.0854 0.000391737 39.9708 0.0962922 39.9503 0.226283Z" fill="#469BDB"/></svg>