<svg width="40" height="12" viewBox="0 0 40 12" fill="none" xmlns="http://www.w3.org/2000/svg"><path d="M26.0535 0C23.2133 0 20.6752 1.36303 20.6752 3.88133C20.6752 6.76935 25.1766 6.96882 25.1766 8.41968C25.1766 9.03058 24.4205 9.57742 23.1291 9.57742C21.2963 9.57742 19.9265 8.81331 19.9265 8.81331L19.3404 11.3546C19.3404 11.3546 20.9184 12 23.0134 12C26.1186 12 28.562 10.57 28.562 8.00868C28.562 4.95697 24.0419 4.76343 24.0419 3.41679C24.0419 2.93824 24.6626 2.41389 25.9503 2.41389C27.4032 2.41389 28.5886 2.96961 28.5886 2.96961L29.1622 0.515195C29.1622 0.515195 27.8724 0 26.0535 0ZM0.0687715 0.185239L0 0.555717C0 0.555717 1.19486 0.758192 2.27102 1.16208C3.65667 1.62523 3.75538 1.89485 3.98875 2.73227L6.53173 11.809H9.94061L15.1922 0.185239H11.7912L8.41669 8.08828L7.0397 1.38929C6.91342 0.622597 6.27376 0.185239 5.49078 0.185239H0.0687715ZM16.5599 0.185239L13.8918 11.809H17.135L19.7937 0.185239H16.5599ZM34.6483 0.185239C33.8663 0.185239 33.4519 0.572912 33.1479 1.25036L28.3964 11.809H31.7974L32.4555 10.0492H36.5989L36.9991 11.809H40L37.382 0.185239H34.6483ZM35.0907 3.32562L36.0988 7.68741H33.3979L35.0907 3.32562Z" fill="#1434CB"/></svg>