<svg width="34" height="21" viewBox="0 0 34 21" fill="none" xmlns="http://www.w3.org/2000/svg"><path d="M20.3429 10.4976C20.3429 12.5738 19.7464 14.6034 18.6287 16.3297C17.5111 18.056 15.9225 19.4015 14.0639 20.1961C12.2053 20.9906 10.1602 21.1985 8.1871 20.7934C6.21404 20.3884 4.40166 19.3886 2.97915 17.9205C1.55665 16.4524 0.587914 14.5819 0.195447 12.5455C-0.197021 10.5092 0.00440586 8.3985 0.774259 6.48032C1.54411 4.56214 2.84781 2.92265 4.5205 1.76916C6.19319 0.61567 8.15973 0 10.1715 0C12.8691 0 15.4562 1.10599 17.3638 3.07467C19.2713 5.04335 20.3429 7.71344 20.3429 10.4976Z" fill="#E40520"/><path d="M23.8283 2.71418e-06C21.3041 -0.00187132 18.8698 0.966771 17.0001 2.71699C16.6328 3.06192 16.2896 3.43323 15.9731 3.82815H18.0248C18.3067 4.18175 18.5661 4.55372 18.8016 4.94175H15.1916C14.9751 5.29978 14.7796 5.67082 14.606 6.05291H19.3848C19.5485 6.41453 19.692 6.78552 19.8145 7.16408H14.181C14.0626 7.52867 13.9632 7.8996 13.8835 8.27524H20.1144C20.2688 9.00535 20.3479 9.75027 20.3505 10.4976C20.3518 11.6315 20.1748 12.7581 19.8263 13.8335H14.181C14.3036 14.212 14.447 14.583 14.6107 14.9447H19.3895C19.2161 15.3273 19.0197 15.6984 18.8016 16.0558H15.1916C15.4271 16.4431 15.6865 16.8142 15.9683 17.167H18.0248C17.7089 17.5632 17.3657 17.9354 16.9978 18.2806C18.2216 19.4254 19.6971 20.2453 21.2968 20.6696C22.8966 21.0939 24.5723 21.1098 26.1793 20.7158C27.7863 20.3218 29.2762 19.5299 30.5201 18.4084C31.764 17.287 32.7246 15.8698 33.3189 14.2792C33.9131 12.6887 34.1231 10.9728 33.9308 9.27975C33.7384 7.58669 33.1494 5.96746 32.2147 4.562C31.28 3.15654 30.0278 2.00714 28.5662 1.21314C27.1046 0.419144 25.4777 0.00444768 23.826 0.00488099L23.8283 2.71418e-06Z" fill="#FAB31E"/><path d="M32.6437 16.3519C32.6437 16.285 32.663 16.2195 32.6991 16.1638C32.7351 16.1081 32.7864 16.0647 32.8463 16.039C32.9063 16.0134 32.9723 16.0067 33.036 16.0198C33.0996 16.0328 33.1581 16.0651 33.204 16.1124C33.2499 16.1598 33.2811 16.2202 33.2938 16.2859C33.3065 16.3516 33.3 16.4197 33.2751 16.4816C33.2503 16.5435 33.2082 16.5964 33.1543 16.6336C33.1003 16.6708 33.0368 16.6907 32.9719 16.6907C32.8849 16.6907 32.8014 16.655 32.7399 16.5914C32.6783 16.5279 32.6437 16.4418 32.6437 16.3519ZM32.9719 16.6102C33.0383 16.6102 33.102 16.583 33.1489 16.5346C33.1958 16.4862 33.2222 16.4205 33.2222 16.3519C33.2222 16.2834 33.1958 16.2177 33.1489 16.1693C33.102 16.1209 33.0383 16.0937 32.9719 16.0937C32.9056 16.0937 32.8419 16.1209 32.795 16.1693C32.748 16.2177 32.7217 16.2834 32.7217 16.3519C32.7217 16.4205 32.748 16.4862 32.795 16.5346C32.8419 16.583 32.9056 16.6102 32.9719 16.6102ZM32.9271 16.5006H32.8586V16.2033H32.9814C33.0074 16.2008 33.0336 16.2058 33.0569 16.2179C33.0679 16.2265 33.0767 16.2376 33.0829 16.2502C33.089 16.2629 33.0923 16.2769 33.0923 16.291C33.0926 16.3077 33.088 16.324 33.0792 16.3379C33.0704 16.3518 33.0576 16.3626 33.0428 16.369L33.0947 16.5006H33.0215L32.9766 16.3836H32.9271V16.5006ZM32.9271 16.3325H32.9648C32.978 16.3362 32.9918 16.3362 33.005 16.3325C33.0105 16.3289 33.015 16.3238 33.0179 16.3178C33.0208 16.3118 33.0221 16.305 33.0215 16.2983C33.0215 16.2924 33.0199 16.2866 33.017 16.2815C33.0141 16.2763 33.01 16.2721 33.005 16.2691C32.991 16.2654 32.9764 16.2654 32.9625 16.2691H32.9271V16.3325Z" fill="#FAB31E"/><path d="M7.79641 11.6491C7.71818 11.6378 7.63929 11.6321 7.5603 11.632C6.93226 11.632 6.61588 11.8538 6.61588 12.2899C6.60973 12.3467 6.61551 12.4042 6.63284 12.4584C6.65017 12.5127 6.67863 12.5624 6.71628 12.6043C6.75393 12.6461 6.79988 12.6791 6.85101 12.701C6.90214 12.7229 6.95723 12.7331 7.01253 12.731C7.45405 12.731 7.77752 12.2899 7.79641 11.6491ZM8.59917 13.579H7.68544L7.70433 13.1306C7.56552 13.3063 7.38823 13.4454 7.18708 13.5365C6.98593 13.6276 6.76668 13.6681 6.54741 13.6545C5.95006 13.6545 5.53924 13.1672 5.53924 12.4703C5.53924 11.4151 6.24755 10.8011 7.47766 10.8011C7.62852 10.803 7.77912 10.8144 7.92863 10.8352C7.95443 10.7432 7.96872 10.6482 7.97113 10.5525C7.97113 10.2674 7.77989 10.1602 7.26281 10.1602C6.86549 10.1582 6.47058 10.2241 6.09409 10.3551L6.24755 9.38045C6.67447 9.2353 7.12031 9.15807 7.56975 9.1514C8.51417 9.1514 9.01944 9.59001 9.01944 10.4209C9.00966 10.7087 8.97968 10.9954 8.92972 11.2787C8.83292 11.9122 8.6275 13.2525 8.59917 13.579Z" fill="#06326E"/><path d="M5.07634 13.578H3.97372L4.60649 9.4842L3.19221 13.578H2.44139L2.34695 9.50613L1.68349 13.578H0.649348L1.5135 8.2512H3.10013L3.19693 11.2314L4.16497 8.2512H5.93104L5.07634 13.578Z" fill="#06326E"/><path d="M25.1932 11.6491C25.1149 11.6378 25.0361 11.6321 24.9571 11.632C24.329 11.632 24.0126 11.8538 24.0126 12.2899C24.0065 12.3467 24.0123 12.4042 24.0296 12.4584C24.0469 12.5127 24.0754 12.5624 24.113 12.6043C24.1507 12.6461 24.1966 12.6791 24.2478 12.701C24.2989 12.7229 24.354 12.7331 24.4093 12.731C24.8485 12.731 25.1743 12.2899 25.1932 11.6491ZM25.9959 13.579H25.0822L25.1082 13.1306C24.9692 13.3062 24.7919 13.4452 24.5908 13.5363C24.3897 13.6273 24.1705 13.6679 23.9513 13.6545C23.3539 13.6545 22.9431 13.1672 22.9431 12.4703C22.9431 11.4151 23.6514 10.8011 24.8815 10.8011C25.0324 10.803 25.183 10.8144 25.3325 10.8352C25.3583 10.7432 25.3726 10.6482 25.375 10.5525C25.375 10.2674 25.1837 10.1602 24.6667 10.1602C24.2654 10.1569 23.8664 10.2228 23.4861 10.3552L23.6396 9.38045C24.0658 9.2355 24.5108 9.15828 24.9594 9.1514C25.9039 9.1514 26.4115 9.59001 26.4115 10.4209C26.4017 10.7087 26.3717 10.9954 26.3218 11.2787C26.2297 11.9122 26.0243 13.2525 25.9959 13.579Z" fill="#06326E"/><path d="M13.5084 13.5124C13.2529 13.6026 12.9852 13.6503 12.7151 13.6537C12.1508 13.6537 11.8415 13.3175 11.8415 12.701C11.8715 12.3134 11.9219 11.9278 11.9926 11.546C12.0564 11.1414 12.4649 8.5926 12.4649 8.5926H13.5628L13.4353 9.24809H14.0964L13.9476 10.2886H13.2818C13.1543 11.1122 12.9725 12.1381 12.9701 12.2745C12.9701 12.4963 13.0858 12.5938 13.3503 12.5938C13.4508 12.5974 13.5513 12.5843 13.6477 12.5548L13.5084 13.5124Z" fill="#06326E"/><path d="M16.8731 13.4767C16.5086 13.5944 16.1289 13.6543 15.7469 13.6545C14.5191 13.6545 13.8769 12.9893 13.8769 11.7222C13.8769 10.2406 14.6915 9.1514 15.7988 9.1514C16.7031 9.1514 17.2816 9.76058 17.2816 10.7182C17.2763 11.0773 17.2312 11.4346 17.147 11.7831H14.9559C14.8827 12.4118 15.2723 12.6725 15.9004 12.6725C16.2955 12.6731 16.6855 12.5806 17.0407 12.402L16.8731 13.4767ZM16.2569 10.9107C16.2569 10.8206 16.3726 10.1383 15.7445 10.1383C15.3951 10.1383 15.1448 10.4136 15.0362 10.9107H16.2569Z" fill="#06326E"/><path d="M9.26322 10.6181C9.26322 11.1639 9.52057 11.5416 10.1038 11.8365C10.55 12.0534 10.6208 12.1167 10.6208 12.3238C10.6208 12.5943 10.4225 12.7161 9.9857 12.7161C9.64898 12.7149 9.31475 12.6564 8.99642 12.5431L8.84531 13.5447C9.22183 13.6324 9.60679 13.6757 9.99279 13.6738C11.1592 13.6738 11.6975 13.2157 11.6975 12.2264C11.6975 11.6294 11.4614 11.2809 10.9183 11.008C10.4461 10.7887 10.4012 10.7399 10.4012 10.5377C10.4012 10.3354 10.5854 10.1844 10.9419 10.1844C11.2075 10.1882 11.4725 10.2102 11.7352 10.2502L11.8864 9.23159C11.5644 9.18042 11.2393 9.15193 10.9136 9.1463C9.68585 9.15117 9.2585 9.81641 9.26322 10.6181Z" fill="#06326E"/><path d="M22.2437 9.26546C22.5906 9.27602 22.9296 9.37479 23.2306 9.553L23.41 8.39797C23.2495 8.33218 22.6781 7.94718 22.1965 7.94718C21.8399 7.95043 21.4895 8.04333 21.1756 8.21784C20.8617 8.39235 20.5938 8.6432 20.395 8.94868C19.7528 8.72937 19.4883 9.17286 19.1672 9.61392L18.8792 9.68215C18.9051 9.53917 18.917 9.39385 18.9146 9.2484H17.8993C17.7624 10.5886 17.5168 11.9459 17.3232 13.2861L17.2736 13.5785H18.3786C18.5628 12.3406 18.6643 11.5511 18.7257 11.0151L19.1412 10.7714C19.2026 10.5277 19.3986 10.4522 19.7882 10.4619C19.7354 10.7544 19.7094 11.0514 19.7103 11.3489C19.7103 12.7671 20.4516 13.6492 21.6392 13.6492C21.9706 13.6459 22.2998 13.5933 22.6167 13.4932L22.8103 12.2749C22.5199 12.4393 22.1968 12.5326 21.8659 12.5478C21.2237 12.5478 20.8365 12.0604 20.8365 11.249C20.8412 10.0866 21.4197 9.26546 22.2437 9.26546Z" fill="#06326E"/><path d="M31.5914 8.2563L31.3553 9.79389C31.0531 9.38452 30.7296 9.08723 30.2999 9.08723C29.7427 9.08723 29.2351 9.52341 28.9045 10.1643C28.5853 10.0935 28.27 10.0049 27.9601 9.89867C27.9882 9.68291 28.0048 9.46571 28.0097 9.24806H26.9968C26.8598 10.5883 26.6143 11.9456 26.4231 13.2858L26.3711 13.5782H27.469C27.6178 12.5791 27.7334 11.7482 27.8161 11.0903C28.1939 10.7369 28.3827 10.4299 28.7605 10.4518C28.5847 10.8976 28.4941 11.3742 28.4937 11.8554C28.4937 12.9373 29.0249 13.6537 29.8277 13.6537C30.0218 13.6558 30.2139 13.6131 30.3899 13.5288C30.566 13.4445 30.7216 13.3207 30.8453 13.1664L30.7934 13.5709H31.8393L32.6822 8.2563H31.5914ZM30.2126 12.5791C29.8348 12.5791 29.6459 12.2916 29.6459 11.7262C29.6459 10.8758 30.0001 10.2642 30.503 10.2642C30.8807 10.2642 31.0862 10.5615 31.0862 11.1122C31.0862 11.9748 30.7249 12.5767 30.2126 12.5767V12.5791Z" fill="#06326E"/><path d="M5.39607 13.2613H4.29109L4.92386 9.16755L3.51194 13.2613H2.75876L2.66668 9.19192L2.00086 13.2613H0.969078L1.83087 7.93699H3.41986L3.46472 11.2315L4.53428 7.93699H6.25077L5.39607 13.2613Z" fill="#fff"/><path d="M8.1079 11.3346C8.0297 11.3228 7.95083 11.3162 7.87179 11.3151C7.24611 11.3151 6.92737 11.5369 6.92737 11.9755C6.92162 12.0322 6.92769 12.0895 6.94516 12.1436C6.96263 12.1976 6.99111 12.2472 7.02868 12.289C7.06624 12.3308 7.11204 12.3638 7.16298 12.3858C7.21392 12.4078 7.26883 12.4183 7.32403 12.4166C7.77027 12.4166 8.1079 11.9731 8.1079 11.3346ZM7.99457 13.2621L8.01581 12.8138C7.87726 12.9898 7.70001 13.1291 7.4988 13.2202C7.29759 13.3113 7.07821 13.3516 6.8589 13.3377C6.25919 13.3377 5.85072 12.8503 5.85072 12.1558C5.85072 11.1007 6.55904 10.4866 7.78916 10.4866C7.93996 10.4876 8.09057 10.4982 8.24012 10.5183C8.26606 10.4272 8.28034 10.333 8.28262 10.2381C8.28262 9.95056 8.08901 9.84334 7.5743 9.84334C7.17715 9.84366 6.7826 9.90947 6.40558 10.0383C6.41738 9.96762 6.55904 9.06358 6.55904 9.06358C6.98479 8.91665 7.43 8.83856 7.87888 8.83208C8.8233 8.83208 9.33093 9.27314 9.32857 10.1016C9.32117 10.3904 9.29116 10.6781 9.23885 10.9618C9.15149 11.5905 8.94608 12.9356 8.91774 13.2621H7.99457Z" fill="#fff"/><path d="M23.7293 8.08082L23.5475 9.23584C23.2464 9.05763 22.9074 8.95886 22.5605 8.9483C21.7365 8.9483 21.1581 9.77193 21.1581 10.944C21.1581 11.753 21.5476 12.2404 22.1899 12.2404C22.521 12.2266 22.8444 12.1332 23.1343 11.9675L22.9407 13.1858C22.6246 13.2859 22.2962 13.3384 21.9655 13.3418C20.785 13.3418 20.0342 12.4597 20.0342 11.0439C20.0342 9.13837 21.0589 7.8079 22.5228 7.8079C22.9366 7.83081 23.3441 7.92299 23.7293 8.08082Z" fill="#fff"/><path d="M25.5094 11.3346C25.4312 11.3227 25.3523 11.3161 25.2733 11.3151C24.6476 11.3151 24.3289 11.5369 24.3289 11.9755C24.3227 12.0323 24.3285 12.0897 24.3458 12.144C24.3631 12.1982 24.3916 12.248 24.4292 12.2899C24.4669 12.3317 24.5129 12.3647 24.564 12.3866C24.6151 12.4084 24.6702 12.4187 24.7255 12.4166C25.167 12.4166 25.4929 11.9731 25.5094 11.3346ZM26.3145 13.2621H25.3984L25.4197 12.8138C25.2811 12.9898 25.1039 13.1291 24.9026 13.2202C24.7014 13.3113 24.4821 13.3516 24.2627 13.3377C23.663 13.3377 23.2546 12.8503 23.2546 12.1558C23.2546 11.1007 23.9629 10.4866 25.193 10.4866C25.343 10.4876 25.4929 10.4982 25.6416 10.5183C25.6692 10.4275 25.6843 10.3332 25.6865 10.2381C25.6865 9.95056 25.4929 9.84334 24.9781 9.84334C24.581 9.84366 24.1864 9.90947 23.8094 10.0383C23.8094 9.96762 23.9605 9.06358 23.9605 9.06358C24.3871 8.91678 24.8331 8.8387 25.2827 8.83208C26.2271 8.83208 26.7348 9.27314 26.7324 10.1016C26.725 10.3904 26.695 10.6781 26.6427 10.9618C26.5483 11.5905 26.3428 12.9356 26.3145 13.2621Z" fill="#fff"/><path d="M13.8242 13.1965C13.5687 13.2869 13.3009 13.3346 13.0309 13.3378C12.4666 13.3378 12.1596 13.004 12.1596 12.3875C12.187 11.9997 12.2375 11.6139 12.3107 11.2325C12.3745 10.828 12.7829 8.27668 12.7829 8.27668H13.8808L13.751 8.93217H14.3153L14.1642 9.97267H13.5999C13.4724 10.7963 13.2906 11.8222 13.2882 11.9586C13.2882 12.1828 13.4039 12.2803 13.666 12.2803C13.7667 12.2835 13.8672 12.2695 13.9635 12.2389L13.8242 13.1965Z" fill="#fff"/><path d="M17.1912 13.1615C16.8265 13.2784 16.4468 13.3375 16.065 13.3369C14.8349 13.3369 14.195 12.6741 14.195 11.4046C14.195 9.92545 15.0096 8.83378 16.1146 8.83378C17.0212 8.83378 17.5997 9.44541 17.5997 10.4031C17.5941 10.7621 17.549 11.1194 17.4651 11.4679H15.2787C15.2032 12.0942 15.5928 12.3573 16.2232 12.3573C16.6185 12.3571 17.0085 12.2638 17.3636 12.0844L17.1912 13.1615ZM16.575 10.5931C16.575 10.503 16.6907 9.82067 16.0626 9.82067C15.7132 9.82067 15.4629 10.096 15.3543 10.5931H16.575Z" fill="#fff"/><path d="M9.57965 10.3003C9.57965 10.8485 9.83701 11.2262 10.4202 11.5186C10.8688 11.7355 10.9373 11.8013 10.9373 12.006C10.9373 12.2765 10.7413 12.3983 10.3045 12.3983C9.96721 12.3968 9.63238 12.3392 9.31285 12.2277C9.31285 12.2277 9.16882 13.1829 9.16174 13.2268C9.53886 13.3158 9.92474 13.3591 10.3116 13.356C11.4756 13.356 12.0139 12.8978 12.0139 11.9085C12.0139 11.3139 11.7778 10.9655 11.2371 10.6901C10.7649 10.4708 10.72 10.4221 10.72 10.2198C10.72 10.0176 10.9042 9.86408 11.2607 9.86408C11.5263 9.86796 11.7913 9.88994 12.054 9.92987L12.2122 8.92592C11.8901 8.87606 11.5652 8.84757 11.2395 8.84063C9.99756 8.83332 9.57729 9.501 9.57965 10.3003Z" fill="#fff"/><path d="M32.1585 13.2617H31.1149L31.1668 12.8597C31.0427 13.0142 30.8867 13.1381 30.7103 13.2224C30.5338 13.3067 30.3413 13.3493 30.1469 13.347C29.3465 13.347 28.8152 12.6331 28.8152 11.5511C28.8152 10.111 29.6369 8.89507 30.612 8.89507C30.8217 8.894 31.0282 8.94773 31.2123 9.05127C31.3965 9.15481 31.5522 9.30478 31.665 9.4872L31.9011 7.94718H32.9896L32.1585 13.2617ZM30.5294 12.2627C31.0441 12.2627 31.4053 11.6608 31.4053 10.8006C31.4053 10.2499 31.1999 9.95019 30.8198 9.95019C30.3192 9.95019 29.9627 10.5545 29.9627 11.4122C29.9627 11.9751 30.1539 12.2627 30.5388 12.2627H30.5294Z" fill="#fff"/><path d="M27.3085 8.93132C27.1692 10.2715 26.926 11.6288 26.7324 12.9715L26.6828 13.2614H27.7878C28.1821 10.6127 28.2765 10.0937 28.8975 10.1619C28.9715 9.72261 29.1126 9.29821 29.3154 8.90452C28.8432 8.80705 28.5953 9.0751 28.2576 9.58925C28.297 9.37217 28.3191 9.15213 28.3237 8.93132H27.3085Z" fill="#fff"/><path d="M18.2191 8.93132C18.0798 10.2715 17.8342 11.6288 17.643 12.9715L17.5934 13.2614H18.6983C19.0926 10.6127 19.1871 10.0937 19.8057 10.1619C19.8814 9.72272 20.0232 9.29847 20.226 8.90452C19.7537 8.80705 19.5058 9.0751 19.1682 9.58925C19.2076 9.37217 19.2297 9.15213 19.2343 8.93132H18.2191Z" fill="#fff"/><path d="M32.6437 12.9227C32.6437 12.8557 32.663 12.7902 32.6991 12.7345C32.7351 12.6788 32.7864 12.6354 32.8463 12.6098C32.9063 12.5842 32.9723 12.5775 33.036 12.5905C33.0996 12.6036 33.1581 12.6359 33.204 12.6832C33.2499 12.7306 33.2811 12.7909 33.2938 12.8566C33.3065 12.9223 33.3 12.9905 33.2751 13.0523C33.2503 13.1142 33.2082 13.1671 33.1543 13.2044C33.1003 13.2416 33.0368 13.2614 32.9719 13.2614C32.8849 13.2614 32.8014 13.2257 32.7399 13.1622C32.6783 13.0987 32.6437 13.0126 32.6437 12.9227ZM32.9719 13.181C33.0214 13.181 33.0698 13.1659 33.111 13.1375C33.1521 13.1091 33.1842 13.0688 33.2031 13.0216C33.2221 12.9744 33.227 12.9224 33.2174 12.8723C33.2077 12.8222 33.1839 12.7762 33.1489 12.7401C33.1139 12.704 33.0693 12.6794 33.0207 12.6694C32.9722 12.6594 32.9219 12.6645 32.8762 12.6841C32.8304 12.7036 32.7913 12.7367 32.7638 12.7792C32.7363 12.8217 32.7217 12.8716 32.7217 12.9227C32.7217 12.9912 32.748 13.0569 32.795 13.1054C32.8419 13.1538 32.9056 13.181 32.9719 13.181ZM32.9271 13.0714H32.8586V12.7741H32.9814C33.0066 12.7713 33.0321 12.7764 33.0546 12.7887C33.0664 12.7971 33.076 12.8084 33.0826 12.8216C33.0892 12.8348 33.0925 12.8494 33.0923 12.8642C33.0921 12.8805 33.0873 12.8963 33.0785 12.9097C33.0697 12.9231 33.0573 12.9336 33.0428 12.9398L33.0947 13.0714H33.0191L32.9766 12.9544H32.9271V13.0714ZM32.9271 12.9032H32.9648C32.978 12.9067 32.9918 12.9067 33.005 12.9032C33.0099 12.8996 33.0138 12.8949 33.0166 12.8894C33.0193 12.8839 33.0207 12.8777 33.0207 12.8716C33.0207 12.8654 33.0193 12.8593 33.0166 12.8538C33.0138 12.8482 33.0099 12.8435 33.005 12.8399C32.991 12.8363 32.9764 12.8363 32.9625 12.8399H32.9271V12.9032Z" fill="#fff"/></svg>