<svg width="37" height="15" viewBox="0 0 37 15" fill="none" xmlns="http://www.w3.org/2000/svg"><path d="M6.7606 1.93387C6.32695 2.44053 5.63313 2.84015 4.9393 2.78306C4.85257 2.098 5.19225 1.37012 5.58976 0.920552C6.0234 0.399619 6.78228 0.0285442 7.39661 0C7.46888 0.713606 7.18701 1.41294 6.7606 1.93387ZM7.38938 2.91865C6.38477 2.86156 5.52471 3.4824 5.04771 3.4824C4.56347 3.4824 3.8335 2.94719 3.03849 2.96147C2.00498 2.97574 1.04373 3.55376 0.516133 4.47431C-0.567976 6.31541 0.234265 9.04139 1.28224 10.54C1.79538 11.2821 2.40971 12.0956 3.21918 12.0671C3.98528 12.0385 4.28883 11.5747 5.21394 11.5747C6.14627 11.5747 6.41368 12.0671 7.22315 12.0528C8.06153 12.0385 8.58913 11.3107 9.10227 10.5685C9.68769 9.72645 9.9262 8.9058 9.94065 8.86299C9.9262 8.84872 8.32171 8.24215 8.30726 6.41532C8.2928 4.8882 9.57205 4.16032 9.62987 4.11751C8.90713 3.06137 7.77966 2.94719 7.38938 2.91865ZM13.193 0.849191V11.9743H14.942V8.17079H17.3632C19.5748 8.17079 21.1286 6.67222 21.1286 4.50285C21.1286 2.33349 19.6037 0.849191 17.421 0.849191H13.193ZM14.942 2.30495H16.9584C18.4762 2.30495 19.3435 3.10419 19.3435 4.50999C19.3435 5.91579 18.4762 6.72217 16.9512 6.72217H14.942V2.30495ZM24.3232 12.0599C25.4217 12.0599 26.4408 11.5105 26.9033 10.6399H26.9395V11.9743H28.5584V6.43673C28.5584 4.83111 27.2575 3.79638 25.2555 3.79638C23.3981 3.79638 22.0248 4.84539 21.9743 6.28687H23.5498C23.6799 5.60181 24.3232 5.15224 25.2049 5.15224C26.2746 5.15224 26.8744 5.64462 26.8744 6.5509V7.16461L24.6918 7.29305C22.6609 7.41437 21.5623 8.23501 21.5623 9.66223C21.5623 11.1037 22.697 12.0599 24.3232 12.0599ZM24.7929 10.7398C23.8606 10.7398 23.268 10.2973 23.268 9.61941C23.268 8.92008 23.8389 8.51332 24.9303 8.4491L26.8744 8.32778V8.95576C26.8744 9.99762 25.9782 10.7398 24.7929 10.7398ZM30.7194 15C32.4251 15 33.2273 14.3578 33.9284 12.4096L37 3.90343H35.2221L33.1623 10.4757H33.1261L31.0663 3.90343H29.2378L32.201 12.0029L32.042 12.4952C31.7746 13.3302 31.341 13.6513 30.5676 13.6513C30.4303 13.6513 30.1629 13.637 30.0545 13.6227V14.9572C30.1557 14.9857 30.5893 15 30.7194 15Z" fill="#000"/></svg>