<svg width="37" height="20" viewBox="0 0 37 20" fill="none" xmlns="http://www.w3.org/2000/svg"><g clip-path="url(#clip0_601_4409)"><path d="M20.4808 10.4996C20.4808 11.6933 20.1273 12.8603 19.465 13.8528C18.8028 14.8454 17.8615 15.619 16.7602 16.0759C15.6589 16.5327 14.4471 16.6522 13.278 16.4193C12.1088 16.1864 11.0349 15.6116 10.192 14.7675C9.34914 13.9234 8.77512 12.8479 8.54257 11.6771C8.31001 10.5063 8.42937 9.2927 8.88554 8.18981C9.34171 7.08693 10.1142 6.14428 11.1053 5.48107C12.0965 4.81786 13.2617 4.46387 14.4538 4.46387C16.0522 4.46387 17.5852 5.09977 18.7155 6.23169C19.8458 7.36361 20.4808 8.89881 20.4808 10.4996Z" fill="#E40520"/><path d="M22.546 4.46387C21.0503 4.46279 19.6079 5.01973 18.5 6.02604C18.2824 6.22436 18.079 6.43785 17.8915 6.66491H19.1072C19.2742 6.86822 19.428 7.08209 19.5675 7.30519H17.4284C17.3001 7.51105 17.1843 7.72438 17.0814 7.94407H19.9131C20.01 8.15199 20.0951 8.36529 20.1677 8.58295H16.8296C16.7594 8.79258 16.7006 9.00585 16.6533 9.22183H20.3454C20.4369 9.64161 20.4838 10.0699 20.4853 10.4996C20.486 11.1515 20.3812 11.7993 20.1747 12.4176H16.8296C16.9022 12.6353 16.9872 12.8486 17.0842 13.0565H19.9159C19.8131 13.2765 19.6967 13.4899 19.5675 13.6954H17.4284C17.5679 13.918 17.7217 14.1314 17.8887 14.3343H19.1072C18.92 14.5621 18.7166 14.7761 18.4986 14.9745C19.2238 15.6327 20.0981 16.1042 21.046 16.3481C21.9939 16.5921 22.9869 16.6012 23.9391 16.3747C24.8913 16.1482 25.7741 15.6928 26.5112 15.048C27.2483 14.4033 27.8175 13.5884 28.1696 12.6739C28.5217 11.7594 28.6461 10.7728 28.5321 9.79938C28.4182 8.82594 28.0692 7.89494 27.5153 7.08685C26.9615 6.27876 26.2195 5.6179 25.3534 5.16138C24.4874 4.70486 23.5233 4.46642 22.5446 4.46667L22.546 4.46387Z" fill="#FAB31E"/><path d="M27.7695 13.8656C27.7695 13.8271 27.7809 13.7895 27.8023 13.7574C27.8237 13.7254 27.854 13.7005 27.8896 13.6857C27.9251 13.671 27.9642 13.6671 28.0019 13.6746C28.0397 13.6822 28.0743 13.7007 28.1015 13.7279C28.1287 13.7552 28.1472 13.7899 28.1547 13.8276C28.1622 13.8654 28.1584 13.9046 28.1437 13.9402C28.1289 13.9757 28.104 14.0062 28.072 14.0276C28.0401 14.049 28.0025 14.0604 27.964 14.0604C27.9124 14.0604 27.863 14.0399 27.8265 14.0033C27.79 13.9668 27.7695 13.9173 27.7695 13.8656ZM27.964 14.0141C28.0033 14.0141 28.041 13.9985 28.0689 13.9707C28.0967 13.9428 28.1123 13.905 28.1123 13.8656C28.1123 13.8263 28.0967 13.7885 28.0689 13.7606C28.041 13.7328 28.0033 13.7171 27.964 13.7171C27.9247 13.7171 27.8869 13.7328 27.8591 13.7606C27.8313 13.7885 27.8157 13.8263 27.8157 13.8656C27.8157 13.905 27.8313 13.9428 27.8591 13.9707C27.8869 13.9985 27.9247 14.0141 27.964 14.0141ZM27.9374 13.9511H27.8968V13.7802H27.9696C27.985 13.7787 28.0005 13.7816 28.0144 13.7886C28.0208 13.7935 28.0261 13.7999 28.0297 13.8072C28.0334 13.8144 28.0353 13.8225 28.0353 13.8306C28.0355 13.8402 28.0328 13.8496 28.0276 13.8576C28.0223 13.8656 28.0148 13.8718 28.006 13.8754L28.0367 13.9511H27.9934L27.9668 13.8839H27.9374V13.9511ZM27.9374 13.8544H27.9598C27.9676 13.8566 27.9758 13.8566 27.9836 13.8544C27.9869 13.8524 27.9895 13.8495 27.9912 13.846C27.993 13.8425 27.9937 13.8387 27.9934 13.8348C27.9933 13.8314 27.9924 13.8281 27.9907 13.8251C27.989 13.8222 27.9865 13.8197 27.9836 13.818C27.9753 13.8159 27.9667 13.8159 27.9584 13.818H27.9374V13.8544Z" fill="#FAB31E"/><path d="M13.0465 11.1617C13.0001 11.1552 12.9534 11.1519 12.9066 11.1519C12.5344 11.1519 12.3469 11.2793 12.3469 11.5301C12.3433 11.5628 12.3467 11.5958 12.357 11.627C12.3673 11.6582 12.3841 11.6868 12.4064 11.7109C12.4287 11.7349 12.456 11.7539 12.4863 11.7665C12.5166 11.7791 12.5492 11.7849 12.582 11.7837C12.8436 11.7837 13.0353 11.5301 13.0465 11.1617ZM13.5221 12.2713H12.9807L12.9919 12.0135C12.9096 12.1145 12.8046 12.1945 12.6854 12.2469C12.5662 12.2993 12.4363 12.3225 12.3064 12.3147C11.9524 12.3147 11.709 12.0345 11.709 11.6338C11.709 11.0272 12.1287 10.6741 12.8576 10.6741C12.947 10.6752 13.0362 10.6817 13.1248 10.6937C13.1401 10.6408 13.1486 10.5862 13.15 10.5312C13.15 10.3673 13.0367 10.3056 12.7303 10.3056C12.4948 10.3045 12.2608 10.3424 12.0378 10.4177L12.1287 9.85728C12.3817 9.77383 12.6458 9.72942 12.9121 9.72559C13.4718 9.72559 13.7711 9.97777 13.7711 10.4555C13.7654 10.621 13.7476 10.7858 13.718 10.9487C13.6606 11.313 13.5389 12.0835 13.5221 12.2713Z" fill="#06326E"/><path d="M11.4347 12.2707H10.7814L11.1563 9.91694L10.3183 12.2707H9.87338L9.81742 9.92955L9.4243 12.2707H8.81152L9.32357 9.20801H10.2637L10.3211 10.9215L10.8947 9.20801H11.9411L11.4347 12.2707Z" fill="#06326E"/><path d="M23.3548 11.1617C23.3084 11.1552 23.2617 11.1519 23.2149 11.1519C22.8427 11.1519 22.6552 11.2793 22.6552 11.5301C22.6516 11.5628 22.655 11.5958 22.6653 11.627C22.6756 11.6582 22.6924 11.6868 22.7147 11.7109C22.737 11.7349 22.7643 11.7539 22.7946 11.7665C22.8249 11.7791 22.8575 11.7849 22.8903 11.7837C23.1505 11.7837 23.3436 11.5301 23.3548 11.1617ZM23.8304 12.2713H23.289L23.3044 12.0135C23.2221 12.1144 23.117 12.1944 22.9978 12.2467C22.8787 12.2991 22.7488 12.3224 22.6189 12.3147C22.2649 12.3147 22.0215 12.0345 22.0215 11.6338C22.0215 11.0272 22.4412 10.6741 23.1701 10.6741C23.2595 10.6752 23.3487 10.6817 23.4373 10.6937C23.4526 10.6408 23.4611 10.5862 23.4625 10.5312C23.4625 10.3673 23.3492 10.3056 23.0428 10.3056C22.805 10.3037 22.5686 10.3416 22.3433 10.4177L22.4342 9.85728C22.6867 9.77394 22.9504 9.72954 23.2163 9.72559C23.7759 9.72559 24.0767 9.97777 24.0767 10.4555C24.0709 10.621 24.0531 10.7858 24.0235 10.9487C23.9689 11.313 23.8472 12.0835 23.8304 12.2713Z" fill="#06326E"/><path d="M16.4311 12.233C16.2797 12.2849 16.121 12.3123 15.961 12.3143C15.6266 12.3143 15.4434 12.1209 15.4434 11.7665C15.4611 11.5436 15.491 11.3219 15.5329 11.1024C15.5707 10.8698 15.8127 9.4043 15.8127 9.4043H16.4633L16.3877 9.78118H16.7794L16.6913 10.3794H16.2968C16.2212 10.853 16.1135 11.4428 16.1121 11.5213C16.1121 11.6488 16.1806 11.7048 16.3373 11.7048C16.3969 11.7069 16.4565 11.6994 16.5136 11.6824L16.4311 12.233Z" fill="#06326E"/><path d="M18.4248 12.2124C18.2088 12.2801 17.9838 12.3146 17.7574 12.3147C17.03 12.3147 16.6494 11.9322 16.6494 11.2037C16.6494 10.3519 17.1321 9.72559 17.7882 9.72559C18.324 9.72559 18.6668 10.0758 18.6668 10.6265C18.6637 10.8329 18.637 11.0384 18.5871 11.2387H17.2888C17.2454 11.6002 17.4762 11.7501 17.8484 11.7501C18.0825 11.7504 18.3136 11.6972 18.5241 11.5946L18.4248 12.2124ZM18.0596 10.7371C18.0596 10.6853 18.1282 10.293 17.756 10.293C17.549 10.293 17.4007 10.4513 17.3363 10.7371H18.0596Z" fill="#06326E"/><path d="M13.9156 10.5689C13.9156 10.8827 14.0681 11.0999 14.4137 11.2694C14.6781 11.3941 14.72 11.4305 14.72 11.5496C14.72 11.7051 14.6025 11.7752 14.3437 11.7752C14.1442 11.7745 13.9461 11.7408 13.7575 11.6757L13.668 12.2515C13.8911 12.302 14.1192 12.3269 14.3479 12.3258C15.039 12.3258 15.358 12.0624 15.358 11.4936C15.358 11.1503 15.2181 10.95 14.8963 10.7931C14.6165 10.667 14.5899 10.6389 14.5899 10.5227C14.5899 10.4064 14.6991 10.3195 14.9103 10.3195C15.0677 10.3217 15.2247 10.3344 15.3804 10.3573L15.4699 9.77169C15.2791 9.74228 15.0865 9.72589 14.8935 9.72266C14.166 9.72546 13.9128 10.1079 13.9156 10.5689Z" fill="#06326E"/><path d="M21.6071 9.79117C21.8126 9.79724 22.0135 9.85403 22.1919 9.95649L22.2982 9.29239C22.203 9.25457 21.8645 9.0332 21.5791 9.0332C21.3678 9.03507 21.1602 9.08849 20.9742 9.18882C20.7882 9.28916 20.6294 9.43339 20.5116 9.60903C20.1311 9.48294 19.9744 9.73793 19.7841 9.99152L19.6134 10.0307C19.6288 9.94854 19.6358 9.86499 19.6344 9.78136H19.0329C18.9517 10.5519 18.8062 11.3323 18.6915 12.1029L18.6621 12.271H19.3169C19.426 11.5593 19.4861 11.1054 19.5225 10.7971L19.7687 10.657C19.8051 10.5169 19.9212 10.4735 20.1521 10.4791C20.1208 10.6473 20.1054 10.818 20.1059 10.9891C20.1059 11.8045 20.5452 12.3117 21.2489 12.3117C21.4453 12.3097 21.6403 12.2795 21.8281 12.222L21.9428 11.5215C21.7707 11.616 21.5793 11.6697 21.3832 11.6784C21.0027 11.6784 20.7732 11.3982 20.7732 10.9316C20.776 10.2633 21.1188 9.79117 21.6071 9.79117Z" fill="#06326E"/><path d="M27.146 9.21094L27.0061 10.095C26.827 9.85962 26.6353 9.6887 26.3807 9.6887C26.0505 9.6887 25.7498 9.93948 25.5539 10.308C25.3647 10.2673 25.1779 10.2163 24.9943 10.1552C25.0109 10.0312 25.0207 9.9063 25.0237 9.78116H24.4235C24.3423 10.5517 24.1968 11.3321 24.0835 12.1027L24.0527 12.2708H24.7033C24.7914 11.6964 24.86 11.2186 24.9089 10.8404C25.1328 10.6372 25.2447 10.4607 25.4686 10.4733C25.3644 10.7296 25.3107 11.0036 25.3105 11.2803C25.3105 11.9023 25.6252 12.3143 26.1009 12.3143C26.2159 12.3155 26.3297 12.2909 26.434 12.2424C26.5384 12.194 26.6306 12.1228 26.7039 12.034L26.6731 12.2666H27.2929L27.7923 9.21094H27.146ZM26.329 11.6964C26.1051 11.6964 25.9932 11.5311 25.9932 11.206C25.9932 10.7171 26.203 10.3654 26.501 10.3654C26.7249 10.3654 26.8466 10.5363 26.8466 10.853C26.8466 11.3489 26.6325 11.695 26.329 11.695V11.6964Z" fill="#06326E"/><path d="M11.6242 12.0886H10.9694L11.3443 9.73487L10.5077 12.0886H10.0614L10.0069 9.74888L9.61235 12.0886H9.00098L9.51162 9.02734H10.4532L10.4797 10.9216L11.1135 9.02734H12.1306L11.6242 12.0886Z" fill="#fff"/><path d="M13.231 10.9809C13.1847 10.974 13.138 10.9703 13.0911 10.9697C12.7204 10.9697 12.5315 11.0972 12.5315 11.3493C12.5281 11.3819 12.5317 11.4149 12.5421 11.446C12.5524 11.4771 12.5693 11.5056 12.5915 11.5296C12.6138 11.5536 12.6409 11.5726 12.6711 11.5852C12.7013 11.5979 12.7338 11.6039 12.7665 11.6029C13.031 11.6029 13.231 11.3479 13.231 10.9809ZM13.7067 12.0891H13.1639L13.1765 11.8313C13.0944 11.9325 12.9893 12.0126 12.8701 12.065C12.7509 12.1174 12.6209 12.1406 12.4909 12.1325C12.1356 12.1325 11.8936 11.8523 11.8936 11.453C11.8936 10.8464 12.3133 10.4933 13.0422 10.4933C13.1315 10.4939 13.2208 10.5 13.3094 10.5115C13.3247 10.4591 13.3332 10.405 13.3346 10.3504C13.3346 10.1851 13.2198 10.1234 12.9148 10.1234C12.6795 10.1236 12.4457 10.1615 12.2223 10.2355C12.2293 10.1949 12.3133 9.67509 12.3133 9.67509C12.5655 9.59062 12.8293 9.54572 13.0953 9.54199C13.6549 9.54199 13.9557 9.79559 13.9543 10.2719C13.9499 10.438 13.9322 10.6034 13.9012 10.7665C13.8494 11.128 13.7277 11.9014 13.7109 12.0891H13.7067Z" fill="#fff"/><path d="M22.4873 9.11004L22.3796 9.77414C22.2012 9.67167 22.0004 9.61489 21.7948 9.60881C21.3065 9.60881 20.9638 10.0824 20.9638 10.7563C20.9638 11.2214 21.1946 11.5016 21.5752 11.5016C21.7714 11.4937 21.963 11.44 22.1348 11.3447L22.0201 12.0452C21.8328 12.1028 21.6382 12.133 21.4423 12.1349C20.7427 12.1349 20.2979 11.6277 20.2979 10.8137C20.2979 9.7181 20.905 8.95312 21.7724 8.95312C22.0176 8.9663 22.2591 9.0193 22.4873 9.11004Z" fill="#fff"/><path d="M23.5421 10.9809C23.4958 10.974 23.4491 10.9702 23.4022 10.9697C23.0315 10.9697 22.8426 11.0972 22.8426 11.3493C22.839 11.382 22.8424 11.415 22.8527 11.4462C22.8629 11.4774 22.8798 11.506 22.9021 11.5301C22.9244 11.5542 22.9516 11.5731 22.9819 11.5857C23.0122 11.5983 23.0449 11.6042 23.0776 11.6029C23.3393 11.6029 23.5323 11.3479 23.5421 10.9809ZM24.0192 12.0891H23.4764L23.489 11.8313C23.4069 11.9325 23.3018 12.0126 23.1826 12.065C23.0634 12.1174 22.9334 12.1406 22.8034 12.1325C22.4481 12.1325 22.2061 11.8523 22.2061 11.453C22.2061 10.8464 22.6258 10.4933 23.3547 10.4933C23.4436 10.4938 23.5323 10.4999 23.6205 10.5115C23.6368 10.4593 23.6458 10.4051 23.6471 10.3504C23.6471 10.1851 23.5323 10.1234 23.2273 10.1234C22.992 10.1236 22.7582 10.1615 22.5348 10.2355C22.5348 10.1949 22.6244 9.67509 22.6244 9.67509C22.8771 9.59069 23.1414 9.5458 23.4078 9.54199C23.9674 9.54199 24.2682 9.79559 24.2668 10.2719C24.2624 10.438 24.2447 10.6034 24.2137 10.7665C24.1577 11.128 24.036 11.9014 24.0192 12.0891Z" fill="#fff"/><path d="M16.6181 12.0514C16.4668 12.1034 16.3081 12.1308 16.1481 12.1326C15.8137 12.1326 15.6318 11.9407 15.6318 11.5862C15.6481 11.3632 15.678 11.1414 15.7214 10.9221C15.7591 10.6896 16.0012 9.22266 16.0012 9.22266H16.6517L16.5748 9.59954H16.9091L16.8196 10.1978H16.4852C16.4097 10.6713 16.302 11.2612 16.3006 11.3396C16.3006 11.4685 16.3691 11.5246 16.5244 11.5246C16.5841 11.5265 16.6437 11.5184 16.7007 11.5008L16.6181 12.0514Z" fill="#fff"/><path d="M18.6133 12.0312C18.3972 12.0984 18.1722 12.1325 17.9459 12.1321C17.217 12.1321 16.8379 11.751 16.8379 11.0211C16.8379 10.1706 17.3206 9.54297 17.9753 9.54297C18.5125 9.54297 18.8553 9.89463 18.8553 10.4452C18.852 10.6517 18.8253 10.8571 18.7755 11.0575H17.48C17.4353 11.4176 17.6661 11.5689 18.0397 11.5689C18.2739 11.5688 18.505 11.5151 18.7154 11.412L18.6133 12.0312ZM18.2481 10.5545C18.2481 10.5027 18.3167 10.1104 17.9445 10.1104C17.7375 10.1104 17.5892 10.2687 17.5248 10.5545H18.2481Z" fill="#fff"/><path d="M14.1031 10.3861C14.1031 10.7014 14.2556 10.9185 14.6012 11.0867C14.867 11.2114 14.9075 11.2492 14.9075 11.3669C14.9075 11.5224 14.7914 11.5924 14.5326 11.5924C14.3327 11.5916 14.1343 11.5584 13.945 11.4944C13.945 11.4944 13.8597 12.0436 13.8555 12.0688C14.0789 12.12 14.3076 12.1449 14.5368 12.1431C15.2265 12.1431 15.5455 11.8797 15.5455 11.3108C15.5455 10.969 15.4056 10.7686 15.0852 10.6103C14.8054 10.4842 14.7788 10.4562 14.7788 10.3399C14.7788 10.2236 14.888 10.1354 15.0992 10.1354C15.2566 10.1376 15.4136 10.1502 15.5693 10.1732L15.663 9.59595C15.4721 9.56728 15.2796 9.5509 15.0866 9.54691C14.3507 9.54271 14.1017 9.9266 14.1031 10.3861Z" fill="#fff"/><path d="M27.482 12.0889H26.8636L26.8944 11.8577C26.8209 11.9465 26.7284 12.0178 26.6239 12.0663C26.5193 12.1148 26.4052 12.1392 26.29 12.1379C25.8158 12.1379 25.501 11.7274 25.501 11.1053C25.501 10.2773 25.9878 9.57821 26.5656 9.57821C26.6899 9.57759 26.8123 9.60849 26.9214 9.66802C27.0305 9.72755 27.1228 9.81378 27.1896 9.91866L27.3295 9.0332H27.9745L27.482 12.0889ZM26.5167 11.5145C26.8217 11.5145 27.0357 11.1684 27.0357 10.6738C27.0357 10.3572 26.914 10.1849 26.6887 10.1849C26.3922 10.1849 26.1809 10.5323 26.1809 11.0255C26.1809 11.3491 26.2942 11.5145 26.5223 11.5145H26.5167Z" fill="#fff"/><path d="M24.608 9.59905C24.5255 10.3696 24.3814 11.15 24.2667 11.922L24.2373 12.0887H24.892C25.1257 10.5658 25.1816 10.2674 25.5496 10.3066C25.5935 10.054 25.677 9.81 25.7972 9.58364C25.5174 9.5276 25.3705 9.68172 25.1705 9.97734C25.1938 9.85252 25.2069 9.72601 25.2096 9.59905H24.608Z" fill="#fff"/><path d="M19.2223 9.59905C19.1398 10.3696 18.9943 11.15 18.8809 11.922L18.8516 12.0887H19.5063C19.7399 10.5658 19.7959 10.2674 20.1624 10.3066C20.2073 10.0541 20.2913 9.81015 20.4115 9.58364C20.1317 9.5276 19.9848 9.68172 19.7847 9.97734C19.8081 9.85252 19.8212 9.72601 19.8239 9.59905H19.2223Z" fill="#fff"/><path d="M27.7695 11.894C27.7695 11.8554 27.7809 11.8178 27.8023 11.7858C27.8237 11.7537 27.854 11.7288 27.8896 11.714C27.9251 11.6993 27.9642 11.6954 28.0019 11.703C28.0397 11.7105 28.0743 11.729 28.1015 11.7563C28.1287 11.7835 28.1472 11.8182 28.1547 11.856C28.1622 11.8937 28.1584 11.9329 28.1437 11.9685C28.1289 12.0041 28.104 12.0345 28.072 12.0559C28.0401 12.0773 28.0025 12.0887 27.964 12.0887C27.9124 12.0887 27.863 12.0682 27.8265 12.0317C27.79 11.9951 27.7695 11.9456 27.7695 11.894ZM27.964 12.0425C27.9933 12.0425 28.022 12.0338 28.0464 12.0174C28.0708 12.0011 28.0898 11.9779 28.101 11.9508C28.1122 11.9237 28.1152 11.8938 28.1094 11.865C28.1037 11.8362 28.0896 11.8097 28.0689 11.7889C28.0481 11.7682 28.0217 11.754 27.9929 11.7483C27.9642 11.7426 27.9343 11.7455 27.9072 11.7568C27.8801 11.768 27.857 11.787 27.8407 11.8115C27.8244 11.8359 27.8157 11.8646 27.8157 11.894C27.8157 11.9334 27.8313 11.9711 27.8591 11.999C27.8869 12.0268 27.9247 12.0425 27.964 12.0425ZM27.9374 11.9794H27.8968V11.8085H27.9696C27.9846 11.8069 27.9997 11.8098 28.013 11.8169C28.02 11.8217 28.0257 11.8282 28.0296 11.8358C28.0335 11.8434 28.0355 11.8518 28.0353 11.8603C28.0352 11.8697 28.0324 11.8788 28.0272 11.8865C28.0219 11.8942 28.0146 11.9002 28.006 11.9038L28.0367 11.9794H27.992L27.9668 11.9122H27.9374V11.9794ZM27.9374 11.8828H27.9598C27.9676 11.8848 27.9758 11.8848 27.9836 11.8828C27.9865 11.8807 27.9888 11.8779 27.9904 11.8748C27.9921 11.8716 27.9929 11.8681 27.9929 11.8645C27.9929 11.861 27.9921 11.8575 27.9904 11.8543C27.9888 11.8511 27.9865 11.8484 27.9836 11.8463C27.9753 11.8443 27.9667 11.8443 27.9584 11.8463H27.9374V11.8828Z" fill="#fff"/></g><rect x=".25" y=".25" width="36.5" height="19.5" rx="2.75" stroke="#959393" stroke-width=".5"/><defs><clipPath id="clip0_601_4409"><path fill="#fff" transform="translate(8 4)" d="M0 0H21V13H0z"/></clipPath></defs></svg>