<svg width="37" height="20" viewBox="0 0 37 20" fill="none" xmlns="http://www.w3.org/2000/svg"><g clip-path="url(#clip0_601_4434)"><path d="M8.24 6.00063H6.13993C5.9962 6.00063 5.874 6.10473 5.85157 6.24619L5.00221 11.614C4.98531 11.7199 5.06763 11.8154 5.17539 11.8154H6.178C6.3217 11.8154 6.44391 11.7114 6.46633 11.5697L6.69541 10.1219C6.71753 9.98013 6.84004 9.87605 6.98344 9.87605H7.64826C9.03163 9.87605 9.83001 9.20878 10.0385 7.88647C10.1325 7.30796 10.0425 6.85343 9.77075 6.5351C9.47228 6.18551 8.94288 6.00063 8.24 6.00063ZM8.48229 7.96117C8.36744 8.71231 7.79167 8.71231 7.23494 8.71231H6.91805L7.14036 7.30951C7.15358 7.22471 7.22726 7.16228 7.31325 7.16228H7.45848C7.83771 7.16228 8.19547 7.16228 8.38032 7.37774C8.49057 7.50631 8.52435 7.6973 8.48229 7.96117Z" fill="#283B82"/><path d="M14.5173 7.93674H13.5116C13.426 7.93674 13.352 7.99918 13.3387 8.08397L13.2943 8.36435L13.2239 8.26271C13.0062 7.94774 12.5207 7.84247 12.0361 7.84247C10.9248 7.84247 9.97567 8.68145 9.79082 9.85836C9.69472 10.4454 9.83136 11.0068 10.1655 11.3983C10.4719 11.7582 10.9104 11.9082 11.4321 11.9082C12.3276 11.9082 12.8241 11.3343 12.8241 11.3343L12.7793 11.6129C12.7624 11.7194 12.8447 11.8149 12.9519 11.8149H13.8577C14.0017 11.8149 14.1233 11.7108 14.1461 11.5691L14.6895 8.13814C14.7068 8.03253 14.6248 7.93674 14.5173 7.93674ZM13.1155 9.88775C13.0185 10.4604 12.5625 10.8449 11.9809 10.8449C11.6889 10.8449 11.4555 10.7515 11.3056 10.5746C11.157 10.3989 11.1005 10.1488 11.1478 9.87028C11.2384 9.3025 11.7021 8.90552 12.2747 8.90552C12.5603 8.90552 12.7925 9.00009 12.9454 9.17851C13.0987 9.3588 13.1594 9.61041 13.1155 9.88775Z" fill="#283B82"/><path d="M19.873 7.93681H18.8624C18.766 7.93681 18.6754 7.98456 18.6208 8.06447L17.2269 10.111L16.6361 8.14435C16.599 8.02128 16.4851 7.93681 16.3561 7.93681H15.363C15.2423 7.93681 15.1585 8.05434 15.1969 8.16759L16.31 11.4238L15.2635 12.8964C15.1812 13.0123 15.2641 13.1719 15.4063 13.1719H16.4157C16.5115 13.1719 16.6012 13.1253 16.6555 13.047L20.0167 8.21078C20.0972 8.09505 20.0146 7.93681 19.873 7.93681Z" fill="#283B82"/><path d="M23.2195 6.00063H21.1191C20.9757 6.00063 20.8535 6.10473 20.8311 6.24619L19.9817 11.614C19.9648 11.7199 20.0471 11.8154 20.1543 11.8154H21.2321C21.3322 11.8154 21.4179 11.7426 21.4336 11.6434L21.6746 10.1219C21.6967 9.98013 21.8193 9.87605 21.9626 9.87605H22.6272C24.0108 9.87605 24.8089 9.20878 25.0177 7.88647C25.112 7.30796 25.0214 6.85343 24.7496 6.5351C24.4515 6.18551 23.9224 6.00063 23.2195 6.00063ZM23.4618 7.96117C23.3472 8.71231 22.7715 8.71231 22.2144 8.71231H21.8979L22.1205 7.30951C22.1337 7.22471 22.2067 7.16228 22.293 7.16228H22.4383C22.8173 7.16228 23.1753 7.16228 23.3601 7.37774C23.4704 7.50631 23.5038 7.6973 23.4618 7.96117Z" fill="#469BDB"/><path d="M29.4965 7.93674H28.4914C28.4051 7.93674 28.3317 7.99918 28.3188 8.08397L28.2743 8.36435L28.2037 8.26271C27.986 7.94774 27.5008 7.84247 27.0162 7.84247C25.9049 7.84247 24.9561 8.68145 24.7712 9.85836C24.6754 10.4454 24.8114 11.0068 25.1456 11.3983C25.4526 11.7582 25.8905 11.9082 26.4122 11.9082C27.3076 11.9082 27.8042 11.3343 27.8042 11.3343L27.7593 11.6129C27.7425 11.7194 27.8247 11.8149 27.9326 11.8149H28.8381C28.9815 11.8149 29.1037 11.7108 29.1262 11.5691L29.67 8.13814C29.6865 8.03253 29.6042 7.93674 29.4965 7.93674ZM28.0947 9.88775C27.9982 10.4604 27.5416 10.8449 26.9601 10.8449C26.6686 10.8449 26.4346 10.7515 26.2848 10.5746C26.1362 10.3989 26.0803 10.1488 26.127 9.87028C26.2181 9.3025 26.6812 8.90552 27.2539 8.90552C27.5395 8.90552 27.7716 9.00009 27.9246 9.17851C28.0784 9.3588 28.1392 9.61041 28.0947 9.88775Z" fill="#469BDB"/><path d="M30.6825 6.1479L29.8206 11.614C29.8037 11.7199 29.886 11.8154 29.9932 11.8154H30.8597C31.0037 11.8154 31.126 11.7114 31.1481 11.5697L31.998 6.20212C32.0149 6.09617 31.9327 6.00037 31.8255 6.00037H30.8551C30.7694 6.00063 30.6957 6.06315 30.6825 6.1479Z" fill="#469BDB"/></g><rect x=".25" y=".25" width="36.5" height="19.5" rx="2.75" stroke="#959393" stroke-width=".5"/><defs><clipPath id="clip0_601_4434"><path fill="#fff" transform="translate(5 6)" d="M0 0H27V7.172H0z"/></clipPath></defs></svg>