<svg width="34" height="34" viewBox="0 0 34 34" fill="none" xmlns="http://www.w3.org/2000/svg"><path fill-rule="evenodd" clip-rule="evenodd" d="M21.5106 12.4894C22.8286 13.8075 24.9657 13.8075 26.2839 12.4894C27.6019 11.1713 27.6019 9.03423 26.2839 7.71612C24.9657 6.39801 22.8286 6.39801 21.5106 7.71612C20.1924 9.03423 20.1924 11.1713 21.5106 12.4894ZM22.7039 11.2961C23.3629 11.9551 24.4315 11.9551 25.0906 11.2961C25.7496 10.637 25.7496 9.56849 25.0906 8.90945C24.4315 8.2504 23.3629 8.2504 22.7039 8.90945C22.0448 9.56849 22.0448 10.637 22.7039 11.2961Z" fill="#085ED0"/><path d="M18.0304 21.5111C18.2069 21.9424 18.6818 22.1832 19.124 22.0359C19.5661 21.8886 19.8075 21.409 19.6345 20.9762C18.3794 17.8368 16.1631 15.6206 13.0236 14.3653C12.5909 14.1924 12.1114 14.4339 11.9641 14.8759C11.8167 15.318 12.0575 15.7929 12.4889 15.9694C15.1188 17.0454 16.9544 18.8811 18.0304 21.5111Z" fill="#085ED0"/><path fill-rule="evenodd" clip-rule="evenodd" d="M24.0005 2.52266C26.2879 2.01212 28.4424 1.9698 29.7687 2.01261C30.9896 2.05202 31.9481 3.01063 31.9874 4.23141C32.0303 5.55759 31.9879 7.71224 31.4774 9.99961C30.9681 12.2817 29.9777 14.7623 28.074 16.6659L28.0364 16.7035C26.4978 18.2421 25.2893 19.4506 24.2901 20.3158L24.6912 23.9263C24.7479 24.4358 24.5699 24.9434 24.2074 25.3059L20.6256 28.8875C19.769 29.7443 18.3154 29.446 17.8653 28.321L16.2062 24.1732L10.8815 25.0606C9.73934 25.2509 8.74908 24.2608 8.93945 23.1185L9.82691 17.7937L5.67903 16.1346C4.55414 15.6847 4.25577 14.2312 5.11247 13.3744L8.69414 9.79275C9.05665 9.43023 9.56429 9.25217 10.0738 9.30877L13.6841 9.70994C14.5495 8.71068 15.7579 7.50227 17.2966 5.96353L17.3341 5.92601C19.2377 4.02239 21.7185 3.03201 24.0005 2.52266ZM24.368 4.16975C22.2621 4.63981 20.1225 5.52427 18.5274 7.11934C16.7581 8.88866 15.5077 10.1404 14.6896 11.1345L14.3992 11.4874L9.88745 10.9861L6.3058 14.5677L10.4537 16.2269C11.19 16.5214 11.6219 17.2889 11.4916 18.0711L10.6041 23.3959L15.9288 22.5085C16.7112 22.3781 17.4787 22.81 17.7732 23.5464L19.4323 27.6942L23.0139 24.1126L22.5127 19.601L22.8656 19.3105C23.8597 18.4922 25.1114 17.2419 26.8807 15.4726C28.4759 13.8776 29.3603 11.738 29.8303 9.63197C30.2992 7.53128 30.3408 5.52998 30.3008 4.28586C30.29 3.95439 30.0457 3.71004 29.7142 3.69934C28.4701 3.65918 26.4688 3.70086 24.368 4.16975Z" fill="#085ED0"/><path fill-rule="evenodd" clip-rule="evenodd" d="M10.6004 31.6817C10.2709 31.3523 10.2709 30.818 10.6004 30.4884L14.1803 26.9084C14.5099 26.579 15.0442 26.579 15.3736 26.9084C15.7032 27.238 15.7032 27.7723 15.3736 28.1018L11.7937 31.6817C11.4642 32.0113 10.9299 32.0113 10.6004 31.6817Z" fill="#085ED0"/><path fill-rule="evenodd" clip-rule="evenodd" d="M2.24714 23.3284C1.91762 22.999 1.91762 22.4647 2.24714 22.1351L5.8271 18.5552C6.15664 18.2257 6.6909 18.2257 7.02042 18.5552C7.34994 18.8848 7.34994 19.4191 7.02042 19.7485L3.44047 23.3284C3.11094 23.658 2.57666 23.658 2.24714 23.3284Z" fill="#085ED0"/><path fill-rule="evenodd" clip-rule="evenodd" d="M4.03401 29.8885C3.70448 29.5591 3.70448 29.0248 4.03401 28.6952L7.61397 25.1152C7.94349 24.7858 8.47776 24.7858 8.8073 25.1152C9.13682 25.4448 9.13682 25.9791 8.8073 26.3085L5.22733 29.8885C4.89779 30.2181 4.36353 30.2181 4.03401 29.8885Z" fill="#085ED0"/></svg>