<svg width="34" height="34" viewBox="0 0 34 34" fill="none" xmlns="http://www.w3.org/2000/svg"><path d="M31.7766 11.6517L24.6887 0.310984C24.4292 -0.103661 23.7459 -0.103661 23.4865 0.310984L16.3986 11.6517C16.2625 11.87 16.2548 12.1458 16.3802 12.3712C16.5057 12.5966 16.7417 12.7362 16.9997 12.7362H20.5437V18.4065C20.5437 23.0966 16.7282 26.912 12.0381 26.912C7.34808 26.912 3.53262 23.0966 3.53262 18.4065C3.53262 13.7164 7.34808 9.90097 12.0381 9.90097C12.4294 9.90097 12.747 9.58341 12.747 9.19215C12.747 8.8009 12.4294 8.48334 12.0381 8.48334C6.56624 8.4834 2.11499 12.9346 2.11499 18.4065C2.11499 23.8784 6.56624 28.3296 12.0381 28.3296C17.5099 28.3296 21.9612 23.8784 21.9612 18.4065V12.0274C21.9612 11.6361 21.6437 11.3185 21.2524 11.3185H18.2783L24.0876 2.02412L29.8969 11.3185H26.9228C26.5316 11.3185 26.214 11.6361 26.214 12.0274V31.1648C26.214 31.9466 25.5782 32.5824 24.7964 32.5824H23.3788C23.142 32.5824 21.9612 32.5136 21.9612 31.1648V26.2032C21.9612 25.8112 21.6437 25.4944 21.2524 25.4944C20.8612 25.4944 20.5436 25.8112 20.5436 26.2032V31.1648C20.5436 33.2451 22.2391 34 23.3788 34H24.7964C26.36 34 27.6316 32.7284 27.6316 31.1648V12.7362H31.1755C31.4335 12.7362 31.6702 12.5966 31.7957 12.3712C31.9212 12.1457 31.9134 11.87 31.7766 11.6517Z" fill="#085ED0"/><path d="M14.8733 16.989C15.2645 16.989 15.5821 16.6714 15.5821 16.2802V15.5714C15.5821 14.399 14.6281 13.445 13.4557 13.445H12.7469V12.7362C12.7469 12.3449 12.4293 12.0273 12.0381 12.0273C11.6468 12.0273 11.3293 12.3449 11.3293 12.7362V13.445H10.6205C9.44816 13.445 8.49414 14.399 8.49414 15.5714V16.9889C8.49414 18.1613 9.44816 19.1153 10.6205 19.1153H13.4557C13.8462 19.1153 14.1645 19.4329 14.1645 19.8241V21.2417C14.1645 21.6329 13.8463 21.9505 13.4557 21.9505H10.6205C10.23 21.9505 9.91171 21.6329 9.91171 21.2417V20.5329C9.91171 20.141 9.59415 19.8241 9.20289 19.8241C8.81164 19.8241 8.49414 20.141 8.49414 20.5329V21.2418C8.49414 22.4141 9.44816 23.3681 10.6205 23.3681H11.3293V24.077C11.3293 24.4689 11.6469 24.7858 12.0382 24.7858C12.4294 24.7858 12.747 24.4689 12.747 24.077V23.3681H13.4558C14.6282 23.3681 15.5822 22.4141 15.5822 21.2418V19.8242C15.5822 18.6518 14.6282 17.6978 13.4558 17.6978H10.6205C10.23 17.6978 9.91171 17.3796 9.91171 16.989V15.5714C9.91171 15.1809 10.2299 14.8626 10.6205 14.8626H13.4557C13.8462 14.8626 14.1645 15.1808 14.1645 15.5714V16.2802C14.1645 16.6714 14.482 16.989 14.8733 16.989Z" fill="#085ED0"/></svg>