<svg width="34" height="34" viewBox="0 0 34 34" fill="none" xmlns="http://www.w3.org/2000/svg"><path d="M26.7074 3.94932C26.1777 3.57658 25.4975 3.48468 24.8883 3.70335L16.2084 6.81674C15.8631 6.94052 15.6837 7.32077 15.8075 7.66601C15.9313 8.01126 16.3118 8.19069 16.6567 8.06684L25.3366 4.95339C25.543 4.87954 25.7639 4.90936 25.9431 5.0354C26.1222 5.16144 26.225 5.35939 26.225 5.57847V24.7314C26.225 24.9505 26.1222 25.1484 25.9431 25.2745C25.7639 25.4006 25.543 25.4305 25.3366 25.3565L24.8581 25.1848V18.3648C24.8581 17.9981 24.5607 17.7007 24.194 17.7007C23.8273 17.7007 23.5299 17.9981 23.5299 18.3648V24.7084L9.29269 19.6017V10.7083L12.1689 9.67653C12.5142 9.55275 12.6936 9.1725 12.5698 8.82726C12.446 8.48201 12.0656 8.30265 11.7206 8.42643L8.51315 9.57692H3.32031C1.48949 9.57692 0 11.0664 0 12.8972V17.4128C0 19.2436 1.48949 20.7331 3.32031 20.7331H3.38559L6.63193 29.4989C6.83453 30.0458 7.36246 30.4134 7.94571 30.4134H11.2733C11.7315 30.4134 12.1614 30.1888 12.4231 29.8128C12.6849 29.4366 12.7461 28.9556 12.587 28.5259L9.88304 21.2246L24.8882 26.6069C25.1065 26.6852 25.3337 26.7236 25.56 26.7236C25.9654 26.7236 26.3674 26.6 26.7073 26.3608C27.2369 25.9882 27.5529 25.3791 27.5529 24.7316V5.57853C27.5531 4.93094 27.2369 4.32199 26.7074 3.94932ZM3.32031 19.405C2.22182 19.405 1.32812 18.5113 1.32812 17.4128V12.8972C1.32812 11.7987 2.22182 10.905 3.32031 10.905H7.96457V19.405H3.84778H3.32031ZM11.3417 28.9871C11.3449 28.9959 11.3548 29.0228 11.3331 29.0539C11.3114 29.0851 11.2828 29.0851 11.2734 29.0851H7.94577C7.91543 29.0851 7.888 29.066 7.87751 29.0376L4.8019 20.7331H8.28484L11.3417 28.9871Z" fill="#085ED0"/><path d="M14.5896 7.80199C14.4661 7.67781 14.2948 7.60742 14.1201 7.60742C13.9455 7.60742 13.7741 7.67781 13.6506 7.80199C13.5272 7.92551 13.4561 8.09617 13.4561 8.27148C13.4561 8.44613 13.5271 8.6168 13.6506 8.74098C13.7741 8.86449 13.9455 8.93555 14.1201 8.93555C14.2948 8.93555 14.4661 8.86449 14.5896 8.74098C14.7131 8.6168 14.7842 8.44613 14.7842 8.27148C14.7842 8.09617 14.7131 7.92551 14.5896 7.80199Z" fill="#085ED0"/><path d="M30.1454 12.2585C29.886 11.9991 29.4657 11.9991 29.2062 12.2585C28.9469 12.5178 28.9469 12.9383 29.2062 13.1976C29.7291 13.7204 30.0171 14.4156 30.0171 15.155C30.0171 15.8945 29.7291 16.5897 29.2062 17.1125C28.9469 17.3719 28.9469 17.7923 29.2062 18.0517C29.3359 18.1813 29.5058 18.2462 29.6758 18.2462C29.8457 18.2462 30.0156 18.1813 30.1453 18.0517C30.919 17.278 31.3452 16.2493 31.3452 15.1551C31.3453 14.0608 30.9192 13.0321 30.1454 12.2585Z" fill="#085ED0"/><path d="M32.0223 10.3808C31.763 10.1215 31.3426 10.1215 31.0832 10.3808C30.8238 10.6401 30.8238 11.0606 31.0832 11.3199C32.1076 12.3443 32.6717 13.7063 32.6717 15.155C32.6717 16.6037 32.1076 17.9658 31.0832 18.9901C30.8238 19.2494 30.8238 19.6699 31.0832 19.9293C31.2129 20.0589 31.3828 20.1238 31.5527 20.1238C31.7227 20.1238 31.8926 20.0589 32.0223 19.9293C33.2975 18.654 33.9999 16.9585 33.9999 15.155C33.9999 13.3515 33.2976 11.6561 32.0223 10.3808Z" fill="#085ED0"/><path d="M24.2355 9.04932H22.7475C22.3808 9.04932 22.0835 9.34662 22.0835 9.71338C22.0835 10.0438 22.3251 10.317 22.641 10.3681L17.922 15.0872L15.6429 12.808C15.3835 12.5487 14.9631 12.5487 14.7037 12.808L10.838 16.6736C10.5787 16.9329 10.5787 17.3534 10.838 17.6128C10.9677 17.7424 11.1377 17.8073 11.3076 17.8073C11.4775 17.8073 11.6475 17.7424 11.7772 17.6128L15.1732 14.2168L17.4523 16.4959C17.7117 16.7552 18.132 16.7552 18.3915 16.4959L23.5806 11.3068C23.6312 11.6234 23.9047 11.8654 24.2355 11.8654C24.6022 11.8654 24.8996 11.5681 24.8996 11.2013V9.71338C24.8996 9.34668 24.6022 9.04932 24.2355 9.04932Z" fill="#085ED0"/><path d="M24.6628 15.1445C24.5393 15.021 24.3687 14.95 24.1934 14.95C24.0187 14.95 23.8474 15.021 23.7239 15.1445C23.6004 15.268 23.5293 15.4394 23.5293 15.614C23.5293 15.7893 23.6003 15.96 23.7239 16.0835C23.8474 16.207 24.0187 16.2781 24.1934 16.2781C24.368 16.2781 24.5393 16.207 24.6628 16.0835C24.7863 15.96 24.8574 15.7887 24.8574 15.614C24.8574 15.4394 24.7864 15.268 24.6628 15.1445Z" fill="#085ED0"/></svg>