<svg width="34" height="34" viewBox="0 0 34 34" fill="none" xmlns="http://www.w3.org/2000/svg"><path d="M26.3347 18.6743V15.3258L24.171 14.9137C24.0165 14.3883 23.8104 13.8834 23.5477 13.4095L24.7841 11.5858L22.4144 9.21613L20.5907 10.4525C20.1065 10.1846 19.6016 9.97856 19.0813 9.82401L18.6692 7.66553H15.3207L14.9086 9.82917C14.3831 9.98371 13.8783 10.1898 13.4043 10.4525L11.5807 9.21613L9.21101 11.5858L10.4474 13.4095C10.1846 13.8834 9.97858 14.3883 9.82404 14.9137L7.6604 15.3258V18.6743L9.81889 19.0864C9.96828 19.6067 10.1795 20.1116 10.4474 20.5958L9.21101 22.4195L11.5807 24.7892L13.4043 23.5528C13.8834 23.8155 14.3831 24.0268 14.9086 24.1761L15.3207 26.3398H18.6692L19.0813 24.1813C19.6016 24.0319 20.1065 23.8207 20.5907 23.5528L22.4144 24.7892L24.7841 22.4195L23.5477 20.5958C23.8156 20.1116 24.0216 19.6067 24.1762 19.0864L26.3347 18.6743ZM23.455 22.2958L22.2907 23.4601L20.6319 22.3319L20.3486 22.5071C19.7716 22.8574 19.1586 23.1149 18.5198 23.2643L18.1953 23.3416L17.8192 25.3095H16.1759L15.7998 23.3416L15.4804 23.2643C14.8313 23.1046 14.2183 22.8522 13.6568 22.5071L13.3734 22.3319L11.7146 23.4601L10.5504 22.2958L11.6786 20.6371L11.5034 20.3537C11.1531 19.7767 10.8956 19.1637 10.7462 18.5249L10.6689 18.2004L8.70101 17.8243V16.1758L10.6689 15.7998L10.7462 15.4804C10.9059 14.8313 11.1583 14.2183 11.5034 13.6567L11.6786 13.3734L10.5504 11.7146L11.7146 10.5504L13.3734 11.6786L13.6568 11.5034C14.2183 11.1583 14.8365 10.9058 15.4804 10.7461L15.7998 10.6689L16.1759 8.70098H17.8192L18.1953 10.6689L18.5198 10.7461C19.1586 10.8955 19.7716 11.1531 20.3486 11.5034L20.6319 11.6786L22.2907 10.5504L23.455 11.7146L22.3268 13.3734L22.5019 13.6567C22.8471 14.2183 23.0995 14.8364 23.2592 15.4804L23.3365 15.7998L25.3044 16.1758V17.8192L23.3365 18.1952L23.2592 18.5198C23.1098 19.1586 22.8522 19.7716 22.5019 20.3486L22.3268 20.6319L23.455 22.2958Z" fill="#085ED0"/><path d="M17 13.4197C15.0218 13.4197 13.4146 15.027 13.4146 17.0051C13.4146 18.9833 15.0218 20.5906 17 20.5906C18.9782 20.5906 20.5854 18.9833 20.5854 17.0051C20.5854 15.027 18.9782 13.4197 17 13.4197ZM17 19.5551C15.5936 19.5551 14.4449 18.4115 14.4449 17C14.4449 15.5885 15.5885 14.4448 17 14.4448C18.4064 14.4448 19.5551 15.5885 19.5551 17C19.5551 18.4115 18.4064 19.5551 17 19.5551Z" fill="#085ED0"/><path d="M1.53003 17.1392C1.53003 25.6752 8.46913 32.6143 17 32.6143C17.7728 32.6143 18.5403 32.5577 19.2873 32.4443L19.3955 33.0368C19.4316 33.2274 19.5603 33.3819 19.7406 33.4489L20.0446 33.5468L24.4491 30.2343C24.6191 30.1107 24.6964 29.9098 24.6655 29.7037L24.5882 29.3637L19.2616 27.8183C19.0761 27.7668 18.8803 27.808 18.7361 27.9368L18.5094 28.1634L18.7103 29.2762C18.1437 29.3534 17.5719 29.3946 17 29.3946C10.2464 29.3946 4.74973 23.898 4.74973 17.1392C4.74973 16.8095 4.76518 16.4746 4.79094 16.1501L3.76064 16.0677C3.73488 16.418 3.71942 16.7786 3.71942 17.1392C3.71942 24.4646 9.67973 30.4249 17 30.4249C17.7985 30.4249 18.6073 30.3528 19.4006 30.2086L19.9106 30.1158L19.7097 29.0186L23.0582 29.9871L20.2713 32.0837L20.1219 31.244L19.6119 31.3368C18.767 31.4965 17.8913 31.5737 17.0052 31.5737C9.04094 31.5737 2.56548 25.0931 2.56548 17.1289C2.56548 16.7992 2.57579 16.4643 2.60155 16.1346L1.57124 16.0625C1.54033 16.4231 1.53003 16.7837 1.53003 17.1392Z" fill="#085ED0"/><path d="M2.94165 10.6688L3.87923 11.1015C4.16771 10.473 4.50771 9.85484 4.88892 9.27272L4.02347 8.70605C3.6165 9.33454 3.25589 9.99394 2.94165 10.6688Z" fill="#085ED0"/><path d="M1.77222 14.4037L2.78707 14.584C2.9107 13.8988 3.0807 13.2188 3.30222 12.5594L2.32343 12.2349C2.08646 12.9406 1.901 13.667 1.77222 14.4037Z" fill="#085ED0"/><path d="M5.81607 8.00034C6.02213 7.74791 6.24364 7.49549 6.47031 7.25337L5.71819 6.54761C5.47606 6.80518 5.23909 7.07821 5.01758 7.34609L5.81607 8.00034Z" fill="#085ED0"/><path d="M7.41814 9.49936C7.6242 9.24179 7.84057 8.98936 8.06723 8.75239L7.31511 8.04663C7.07299 8.30421 6.83602 8.57724 6.6145 8.85542L7.41814 9.49936Z" fill="#085ED0"/><path d="M5.85723 12.034C6.0942 11.5188 6.36723 11.014 6.67632 10.5349L5.81086 9.97852C5.47602 10.4988 5.18238 11.0449 4.9248 11.6012L5.85723 12.034Z" fill="#085ED0"/><path d="M3.94092 14.687L4.95577 14.8776C5.0588 14.3212 5.20304 13.7649 5.38334 13.2291L4.40455 12.8994C4.21395 13.4815 4.05425 14.0843 3.94092 14.687Z" fill="#085ED0"/><path d="M32.47 17.1391C32.47 8.60824 25.5309 1.664 17 1.664C16.4797 1.664 15.9594 1.68976 15.4494 1.74127L15.3515 0.994303C15.3258 0.803697 15.2073 0.644 15.027 0.561576L14.7282 0.448242L10.1742 3.534C9.99909 3.65248 9.90637 3.85339 9.93728 4.06461L10.0042 4.40976L15.2279 6.21279C15.4082 6.27461 15.6091 6.2437 15.7585 6.12006L15.9955 5.9037L15.8667 4.92491C16.2427 4.88885 16.6188 4.87339 16.9949 4.87339C23.7485 4.87339 29.2452 10.3701 29.2452 17.1237C29.2452 17.371 29.24 17.6182 29.2245 17.8655L30.2549 17.9273C30.2703 17.6595 30.2755 17.3916 30.2755 17.1237C30.2806 9.8137 24.3255 3.85339 17 3.85339C16.4076 3.85339 15.81 3.89461 15.2227 3.97188L14.7179 4.03885L14.8415 4.99188L11.5445 3.85339L14.4345 1.89582L14.5633 2.88491L15.0785 2.81794C15.707 2.73551 16.3561 2.68915 17.0052 2.68915C24.9694 2.68915 31.4449 9.16976 31.4449 17.1288C31.4449 17.4637 31.4345 17.7985 31.4139 18.1231L32.4442 18.1901C32.4597 17.8501 32.47 17.4946 32.47 17.1391Z" fill="#085ED0"/><path d="M31.3827 22.8624L30.4245 22.4812C30.203 23.0324 29.9454 23.5785 29.6621 24.0988L30.5636 24.5985C30.8727 24.037 31.1509 23.4497 31.3827 22.8624Z" fill="#085ED0"/><path d="M32.2745 19.6324L31.2597 19.4675C31.167 20.0548 31.033 20.6421 30.8682 21.2139L31.8572 21.5024C32.0324 20.8894 32.1715 20.2609 32.2745 19.6324Z" fill="#085ED0"/><path d="M29.812 25.8194L28.9569 25.2424C28.7714 25.5155 28.5757 25.7885 28.3696 26.0461L29.1784 26.6797C29.3999 26.4015 29.6111 26.113 29.812 25.8194Z" fill="#085ED0"/><path d="M26.6489 24.6913L27.4577 25.325C27.6226 25.1138 27.7823 24.8974 27.9368 24.681L27.092 24.0938C26.9477 24.2998 26.8035 24.4956 26.6489 24.6913Z" fill="#085ED0"/><path d="M29.3119 22.1515L28.3589 21.7651C28.1941 22.1721 28.0035 22.5791 27.7871 22.9654L28.6938 23.46C28.9204 23.0324 29.1316 22.5894 29.3119 22.1515Z" fill="#085ED0"/><path d="M30.1005 19.3748L29.0856 19.2048C29.0135 19.6427 28.9156 20.0806 28.792 20.503L29.7811 20.7812C29.9099 20.3227 30.0181 19.8539 30.1005 19.3748Z" fill="#085ED0"/></svg>