<svg width="37" height="20" viewBox="0 0 37 20" fill="none" xmlns="http://www.w3.org/2000/svg"><g clip-path="url(#clip0_601_4455)" fill-rule="evenodd" clip-rule="evenodd" fill="#7A6E67"><path d="M24.8169 7.89135C24.7384 7.57747 24.6338 7.28974 24.5292 7.00201C24.4769 6.89738 24.4507 6.81891 24.3984 6.74044C24.2676 6.45272 23.9799 5.98189 23.7968 5.74648C23.7445 5.66801 23.6922 5.58954 23.6137 5.51107L23.3521 5.19718C23.2213 5.04024 22.8028 4.64789 22.6197 4.49095C22.4628 4.36016 22.332 4.25553 22.175 4.15091C21.2857 3.5493 20.3441 3.1831 19.2716 3.05231C19.0624 3.02616 18.8793 3 18.6962 3H18.1207C18.0161 3.02616 17.8592 3.02616 17.7545 3.02616C17.2052 3.07847 16.6559 3.23541 16.159 3.41851C15.9235 3.52314 15.662 3.62777 15.4789 3.73239C15.4266 3.78471 15.4004 3.78471 15.3481 3.81087C15.2958 3.83702 15.2696 3.86318 15.2173 3.88934C15.165 3.91549 15.1388 3.94165 15.0865 3.96781C14.7988 4.15091 14.6942 4.22938 14.3803 4.46479C14.2233 4.59557 14.0926 4.72636 13.9618 4.85714L13.674 5.14487C13.6217 5.19718 13.6217 5.22334 13.5694 5.2495C13.5171 5.32797 13.4648 5.40644 13.3863 5.48491C13.334 5.56338 13.2817 5.61569 13.2294 5.69416L12.9155 6.16499L12.7062 6.55734C12.6016 6.7666 12.4708 7.05433 12.3924 7.26358C12.34 7.47284 12.2616 7.65594 12.2093 7.86519C12.1569 8.07445 12.1046 8.2837 12.0785 8.51911C12.0262 8.78068 12 9.04225 12 9.30382C12 9.77465 12 9.95775 12.0523 10.4547C12.1569 11.1871 12.3924 11.8934 12.7324 12.5211C13.2032 13.4366 13.9095 14.2475 14.7465 14.8229C15.008 15.006 15.4266 15.2676 15.7404 15.3984C16.499 15.7384 17.4145 16 18.2777 16C19.0101 16 19.3763 16 20.0825 15.8169C20.6579 15.6861 21.1026 15.4769 21.6258 15.2153C21.8873 15.0845 22.3581 14.7706 22.5674 14.5875C22.9336 14.2736 23.1429 14.0905 23.4567 13.6982C23.5875 13.5412 23.6922 13.4105 23.7968 13.2535L24.0322 12.9135C24.0583 12.8612 24.0845 12.835 24.1107 12.7827C24.3461 12.3903 24.4507 12.1288 24.6076 11.7103C24.6861 11.5272 24.7384 11.3179 24.7907 11.1087C25.0785 10.0362 25.0785 8.96378 24.8169 7.89135ZM23.4829 5.82495C23.5875 5.98189 23.6922 6.11268 23.7706 6.26962C23.8752 6.42656 23.9537 6.5835 24.0322 6.74044C24.0583 6.79276 24.0583 6.81891 24.0845 6.87123L24.1891 7.1328C24.2153 7.18511 24.2153 7.23742 24.2414 7.26358H21.8873C21.8612 7.21127 21.835 7.05433 21.835 7.00201C21.8089 6.92354 21.7827 6.84507 21.7565 6.74044L21.5996 6.26962C21.495 5.98189 21.3642 5.72032 21.2072 5.45875L21.1811 5.40644H23.169C23.169 5.45875 23.4567 5.79879 23.4829 5.82495ZM19.5332 3.39235C19.9256 3.44467 20.3441 3.57545 20.7103 3.70624L21.2857 3.96781C21.4427 4.04628 21.5734 4.12475 21.7042 4.20322C22.0966 4.43863 22.332 4.62173 22.6459 4.93561C22.7243 4.98793 22.8028 5.04024 22.8551 5.09256H20.9718C20.841 4.85714 20.2656 4.20322 20.0302 3.99396L19.9779 3.94165L19.7425 3.73239C19.6901 3.70624 19.664 3.68008 19.6117 3.62777C19.5594 3.60161 19.5332 3.57545 19.4809 3.52314L19.2193 3.34004C19.3239 3.3662 19.4286 3.39235 19.5332 3.39235ZM18.67 3.34004C18.6962 3.34004 18.9054 3.47082 18.9577 3.52314C19.0624 3.57545 19.507 3.94165 19.6117 4.02012L19.7425 4.12475C19.8209 4.20322 19.8994 4.25553 19.9779 4.334L20.5795 5.09256H18.67V3.34004ZM18.67 5.4326H20.8149C20.8149 5.48491 20.841 5.48491 20.8672 5.53722L21.1549 6.06036C21.2334 6.2173 21.2857 6.34809 21.3642 6.53119C21.4165 6.66197 21.5734 7.18511 21.5734 7.28974H18.67V5.4326ZM18.3561 3.34004V5.09256H16.4467C16.5513 4.90946 16.7344 4.75252 16.8652 4.59557L17.5714 3.94165C17.7545 3.81087 17.9115 3.65392 18.0946 3.5493C18.1207 3.49698 18.3038 3.3662 18.3561 3.34004ZM18.3561 5.4326V7.26358H15.4527C15.4527 7.15895 15.5573 6.84507 15.5835 6.74044C15.6358 6.55734 15.6881 6.42656 15.7666 6.26962C15.8712 6.00805 15.9497 5.85111 16.0805 5.61569C16.1066 5.58954 16.1851 5.45875 16.1851 5.4326H18.3561ZM14.2495 5.01408L14.328 4.93561C14.9557 4.334 15.8451 3.86318 16.6821 3.57545C16.9175 3.49698 17.2314 3.44467 17.493 3.39235C17.5976 3.3662 17.7022 3.3662 17.8068 3.3662C17.7022 3.44467 17.4668 3.60161 17.3099 3.73239C17.2837 3.75855 17.2575 3.75855 17.2314 3.78471C17.1006 3.88934 16.6821 4.28169 16.6036 4.38632L16.4467 4.56942C16.3682 4.64789 16.0805 5.01408 16.0282 5.14487H14.171C14.1972 5.0664 14.2233 5.04024 14.2495 5.01408ZM12.9678 6.74044C12.994 6.71429 12.994 6.68813 13.0201 6.63581C13.0463 6.55734 13.0724 6.50503 13.1247 6.42656L13.3602 6.03421C13.4125 6.00805 13.7525 5.51107 13.831 5.4326C13.8571 5.40644 13.8833 5.40644 13.9618 5.40644H15.8189C15.8189 5.4326 15.7928 5.48491 15.7666 5.51107C15.6358 5.74648 15.505 6.00805 15.4004 6.26962C15.3481 6.42656 15.2696 6.5835 15.2435 6.74044C15.2173 6.84507 15.1127 7.15895 15.1127 7.26358H12.7324C12.7847 7.1328 12.8893 6.89738 12.9678 6.74044ZM13.831 13.5674C13.831 13.5412 13.5433 13.2012 13.5171 13.1489L12.9678 12.2334C12.8893 12.0765 12.8109 11.841 12.7324 11.7103H15.1127C15.1127 11.841 15.1911 12.1026 15.2435 12.2334C15.4266 12.835 15.8189 13.5674 15.8189 13.5674H13.831ZM17.2052 15.5553C16.5252 15.3984 15.8974 15.163 15.2958 14.7968C15.165 14.7183 15.008 14.6137 14.9034 14.5352C14.8511 14.4829 14.7726 14.4306 14.7203 14.3783C14.6942 14.3521 14.668 14.326 14.6157 14.2998C14.5895 14.2736 14.5895 14.2736 14.5634 14.2736L14.5111 14.2213L14.4326 14.1429L14.3541 14.0644C14.3018 14.0121 14.2233 13.9598 14.1972 13.9074H16.0805C16.1851 14.0905 16.3944 14.326 16.5513 14.5091C16.5775 14.5614 16.6298 14.5875 16.6559 14.6137C16.8129 14.8229 17.336 15.2676 17.5714 15.4507L17.833 15.6338C17.6237 15.6338 17.336 15.5815 17.2052 15.5553ZM18.3561 15.6338C18.2254 15.6076 17.7022 15.163 17.5453 15.0583L17.4145 14.9537C17.2837 14.8229 17.0744 14.666 16.9437 14.5091L16.5252 14.0121C16.499 13.9598 16.4728 13.9336 16.4205 13.8813H18.33L18.3561 15.6338ZM18.3561 13.5674H16.1851C16.1851 13.5412 16.159 13.5151 16.1328 13.4628C16.1066 13.4366 16.0805 13.3843 16.0805 13.3581L15.8451 12.9396C15.6881 12.6519 15.4789 12.0241 15.4266 11.7103H18.33L18.3561 13.5674ZM20.5795 13.9074C20.4487 14.1167 20.1348 14.4567 19.9517 14.6398C19.8994 14.6922 19.8732 14.7183 19.8471 14.7706L19.4809 15.0845C19.3501 15.1891 18.7746 15.6338 18.67 15.66V13.9074H20.5795ZM18.67 13.5674V11.7364H21.5734C21.5734 11.8672 21.4165 12.338 21.3642 12.495C21.338 12.5734 21.3119 12.6519 21.2596 12.7304C21.1811 12.9135 20.998 13.2797 20.8672 13.4889C20.841 13.5151 20.8149 13.5412 20.8149 13.5936H18.67V13.5674ZM22.4889 14.2213L22.3058 14.3783C22.2535 14.4306 22.175 14.4829 22.1227 14.5352C21.338 15.0845 20.4748 15.4769 19.5332 15.6338C19.4286 15.66 19.3239 15.66 19.2193 15.66L19.8471 15.1891C19.9779 15.0845 20.4487 14.6137 20.6056 14.4044L20.8934 14.0382L20.9457 13.9859C20.9718 13.9598 20.9718 13.9598 20.998 13.9074H22.8813C22.8028 13.9598 22.5936 14.1429 22.4889 14.2213ZM24.2153 11.8672L24.1107 12.1288C23.9799 12.4165 23.6922 12.9135 23.4829 13.1751L23.169 13.5936H21.1811C21.495 13.0181 21.5734 12.9135 21.7565 12.2596L21.8873 11.7364H24.2414C24.2676 11.7626 24.2414 11.8149 24.2153 11.8672ZM24.503 10.9779C24.4769 11.0563 24.4769 11.1348 24.4507 11.2133C24.4245 11.2656 24.3984 11.3964 24.3984 11.4225H12.6278L12.497 10.9779C12.4708 10.8209 12.4185 10.664 12.3924 10.507C12.3662 10.3501 12.34 10.1932 12.34 10.0101C12.34 9.93159 12.3139 9.82696 12.3139 9.74849V9.48692C12.3139 8.93763 12.3924 8.30986 12.5493 7.78672C12.5755 7.70825 12.6016 7.62978 12.6016 7.57746H24.3722C24.3984 7.62978 24.4245 7.70825 24.4245 7.78672C24.5292 8.12676 24.6076 8.59759 24.6338 8.96378V9.48692C24.6861 9.9839 24.6338 10.507 24.503 10.9779Z"/><path d="M15.4784 10.8469C15.7923 10.8469 15.7138 10.8992 15.8446 10.6638L16.08 10.2191C16.1062 10.1668 16.1062 10.1406 16.1323 10.1145C16.2893 9.85289 16.4724 9.43438 16.6293 9.17281L16.6555 9.14665C16.6555 9.22512 16.6816 9.32975 16.6816 9.38207C16.6816 9.48669 16.6816 9.53901 16.7078 9.61748L16.8124 10.7161C16.8124 10.8469 16.7601 10.8207 17.1263 10.8207C17.1525 10.7684 17.571 9.9052 17.6494 9.80058C17.6756 9.74826 17.7017 9.69595 17.7279 9.61748L18.1726 8.7543L18.251 8.59736C18.3034 8.51889 18.4341 8.25732 18.4865 8.205C18.5388 8.15269 18.5388 8.205 18.5388 8.12653H18.0156C18.0156 8.30963 18.1203 8.205 17.8848 8.72814C17.8587 8.80661 17.8325 8.85893 17.7802 8.9374L17.3617 9.74826C17.3356 9.80058 17.2832 9.93136 17.2571 9.93136C17.2571 9.72211 17.1525 8.88508 17.1525 8.62351C17.1525 8.46657 17.1263 8.33579 17.1263 8.17885H16.8909L16.1062 9.61748C16.08 9.66979 15.9492 9.93136 15.9231 9.93136C15.9231 9.59132 15.7923 8.85893 15.7923 8.46657C15.7923 8.41426 15.7923 8.33579 15.8184 8.28347C15.8446 8.205 15.8969 8.205 15.8969 8.12653H15.1122C15.1122 8.23116 15.1645 8.17885 15.2168 8.41426L15.2953 9.09434C15.3215 9.38207 15.4784 10.7161 15.4784 10.8469ZM13.6997 8.72814C13.6997 9.25128 14.7199 9.30359 14.7199 10.0098C14.7199 10.1929 14.6937 10.2976 14.6414 10.4022C14.5891 10.5068 14.5368 10.5853 14.4583 10.6638C14.3798 10.7422 14.2752 10.7945 14.1706 10.8207C13.8828 10.9253 13.5166 10.8992 13.2028 10.8207C13.1504 10.7945 13.072 10.7684 13.0197 10.7684C12.7842 10.6638 12.8889 10.6638 12.9673 10.2452C12.9935 10.1929 12.9673 10.1668 13.0197 10.1406C13.0197 10.2976 13.0981 10.4545 13.1766 10.533C13.3074 10.6899 13.4905 10.6899 13.6997 10.6899C13.9351 10.6899 14.1182 10.533 14.1706 10.3499C14.249 9.95752 13.909 9.80058 13.6997 9.61748C13.4643 9.43438 13.2028 9.25128 13.2028 8.88508C13.2028 8.70199 13.2812 8.49273 13.3859 8.41426C13.4905 8.30963 13.6213 8.205 13.7782 8.15269C13.909 8.10038 14.0398 8.10038 14.1967 8.07422C14.3275 8.07422 14.7199 8.12653 14.8506 8.205C14.8506 8.28347 14.746 8.62351 14.746 8.67583H14.6937C14.6937 8.5712 14.6152 8.44042 14.5368 8.36195C14.4844 8.33579 14.4583 8.30963 14.3798 8.28347C14.0659 8.205 13.6997 8.33579 13.6997 8.72814ZM20.4744 8.28347C20.4744 8.44042 20.1867 9.40822 20.1343 9.59132C20.0559 9.87905 19.9512 10.2714 19.8466 10.5591C19.8205 10.6638 19.7681 10.7684 19.6635 10.7945V10.8469H20.4744C20.4744 10.6899 20.3436 10.8207 20.579 10.1145L20.736 9.56516H21.1806C21.3114 9.59132 21.416 9.61748 21.4422 9.74826C21.5207 9.74826 21.4945 9.69595 21.5468 9.51285C21.573 9.43438 21.5991 9.32975 21.6253 9.25128C21.5468 9.25128 21.573 9.3036 21.4683 9.32975C21.3637 9.35591 20.9191 9.35591 20.7883 9.35591L21.0237 8.51889C21.076 8.28347 21.1283 8.33579 21.5468 8.33579C21.6514 8.33579 21.7561 8.3881 21.8084 8.44042C21.9653 8.59736 21.8869 8.62351 21.9915 8.62351C21.9915 8.5712 22.0438 8.44042 22.07 8.36195C22.0961 8.30963 22.0961 8.28347 22.1223 8.23116C22.1484 8.17885 22.1746 8.12653 22.1223 8.12653H20.5005C20.4221 8.205 20.4744 8.23116 20.4744 8.28347ZM22.0961 8.62351C22.2007 8.62351 22.1484 8.51889 22.3838 8.3881C22.5408 8.30963 22.6716 8.33579 22.8808 8.33579L22.3315 10.2452C22.2792 10.4022 22.2007 10.7684 22.07 10.7945V10.8469H22.8547C22.8547 10.6899 22.75 10.8469 22.8808 10.376C22.907 10.2714 22.9331 10.1929 22.9593 10.0883L23.1162 9.51285C23.2209 9.17281 23.3255 8.78046 23.4301 8.41426C23.4563 8.33579 23.4301 8.36195 23.6917 8.36195C23.8748 8.36195 24.0317 8.49273 24.084 8.64967C24.1625 8.64967 24.1364 8.5712 24.1887 8.44042C24.2148 8.3881 24.2671 8.23116 24.2671 8.17885H22.3054C22.2531 8.17885 22.2269 8.30963 22.2007 8.41426C22.1484 8.44042 22.0961 8.54504 22.0961 8.62351ZM18.9834 8.25732C18.9834 8.41426 18.9834 8.36195 18.9573 8.51889L18.8265 8.98971C18.7742 9.19897 18.3818 10.6114 18.2772 10.7161C18.2249 10.7945 18.1987 10.7684 18.1726 10.8207H18.9834C18.9834 10.6638 18.8788 10.7945 19.0096 10.3237L19.0881 10.0098C19.1404 9.80058 19.2189 9.59132 19.2712 9.38207C19.3496 9.09434 19.4543 8.70199 19.5589 8.41426C19.585 8.30963 19.6374 8.205 19.742 8.17885V8.12653C18.6696 8.12653 18.9834 8.10038 18.9834 8.25732Z"/></g><rect x=".25" y=".25" width="36.5" height="19.5" rx="2.75" stroke="#959393" stroke-width=".5"/><defs><clipPath id="clip0_601_4455"><path fill="#fff" transform="translate(12 3)" d="M0 0H13V13H0z"/></clipPath></defs></svg>