<svg width="178" height="76" viewBox="0 0 178 76" fill="none" xmlns="http://www.w3.org/2000/svg"><path fill-rule="evenodd" clip-rule="evenodd" d="M96.9244 37.0787C96.9244 37.0787 95.3302 36.0164 94.3444 35.6053C94.3444 35.6053 91.2929 34.0813 90.6875 33.3561C90.6875 33.3561 89.4982 32.1483 90.1946 30.7455C90.1946 30.7455 90.486 29.8275 91.7428 29.8275C91.7428 29.8275 93.379 29.9245 93.379 31.3736V33.4179H99.2427L99.2325 30.4072C99.2325 30.4072 99.6834 25.4768 92.3257 25.2597C92.3257 25.2597 86.5387 24.8497 84.879 28.2087C84.879 28.2087 84.2276 28.958 84.2276 31.5676V33.4531C84.2276 33.4531 84.1611 35.6285 85.1919 37.0302C85.1919 37.0302 85.7748 37.9493 87.2106 38.9631C87.2106 38.9631 90.1261 40.6547 91.8758 41.6234C91.8758 41.6234 93.6418 42.71 93.4097 44.439C93.4097 44.439 93.2655 46.2143 91.5598 46.1416C91.5598 46.1416 90.0003 46.0667 90.0003 44.3255V42.2824H83.7521V45.2501C83.7521 45.2501 83.5772 50.9254 91.6058 50.9254C91.6058 50.9254 99.2775 51.0929 99.6354 45.1013V42.6846C99.6343 42.6846 99.9064 39.0127 96.9244 37.0787V37.0787ZM66.9045 25.9661L64.9411 39.2254H64.4819L62.6064 26.0851H52.8118L52.321 50.0967H58.1202L58.1898 32.0051H58.6459L61.7198 50.0934H67.8208L70.8569 32.0117H71.2608L71.4009 50.0967H77.2309L76.603 25.9661H66.9045V25.9661ZM32.383 26.0664L28.5247 50.0692H34.7678L37.0533 31.4585H37.5667L39.8512 50.0692H46.0932L42.2359 26.0664H32.383V26.0664ZM163.382 36.7481V40.2889H164.984V44.0897C164.984 45.9477 163.51 45.9818 163.51 45.9818C161.718 45.9818 161.786 44.2164 161.786 44.2164V31.0695C161.786 29.7151 163.376 29.6424 163.376 29.6424C164.902 29.6424 164.912 31.2579 164.912 31.2579V33.257H170.79C170.982 29.3548 170.26 28.4103 170.26 28.4103C168.802 24.8817 163.286 25.0746 163.286 25.0746C154.81 25.0746 155.75 32.0833 155.75 32.0833V44.795C155.932 51.3684 164.285 50.7006 164.426 50.6951C168.141 50.2521 169.263 48.9793 169.263 48.9793C170.296 48.1528 170.562 47.0078 170.562 47.0078C170.857 46.3411 170.931 44.2164 170.931 44.2164V36.7481H163.382V36.7481ZM143.898 40.6547H143.643L137.678 25.9727H130.541V50.0989H136.349L136.002 35.4191H136.261L142.441 50.0989H149.361V25.9705H143.479L143.898 40.6547V40.6547ZM116.362 44.0875C116.362 44.0875 116.446 46.0678 114.742 46.0678C114.742 46.0678 112.951 46.1714 112.951 44.1371L112.932 25.987H106.562V43.9927C106.562 43.9927 105.908 50.8075 114.832 50.8075C114.832 50.8075 122.588 50.9067 122.588 44.3057V25.9881H116.362V44.0875V44.0875ZM20.2374 37.0787C20.2374 37.0787 18.6452 36.0164 17.6584 35.6064C17.6584 35.6064 14.6089 34.0835 14.0036 33.3572C14.0036 33.3572 12.8143 32.1472 13.5117 30.7477C13.5117 30.7477 13.8021 29.8297 15.0579 29.8297C15.0579 29.8297 16.6951 29.9256 16.6951 31.3747V33.419H22.5608L22.5496 30.4072C22.5496 30.4072 22.9975 25.4768 15.6428 25.2608C15.6428 25.2608 15.0886 25.2222 14.2756 25.2663C14.2756 25.2663 9.82004 25.5242 8.2268 28.158C8.2176 28.1778 8.2043 28.1921 8.1951 28.2098C8.1951 28.2098 7.54472 28.958 7.54472 31.5687V33.4542C7.54472 33.4542 7.47722 35.6296 8.50904 37.0313C8.50904 37.0313 9.09193 37.9504 10.5277 38.9642C10.5277 38.9642 13.4421 40.6558 15.1918 41.6245C15.1918 41.6245 16.9599 42.7089 16.7258 44.4401C16.7258 44.4401 16.5816 46.2154 14.8769 46.1427C14.8769 46.1427 13.3174 46.0678 13.3174 44.3266V42.2824H7.06818V45.2523C7.06818 45.2523 6.89331 50.9276 14.9219 50.9276C14.9219 50.9276 22.5915 51.0951 22.9525 45.1035V42.689C22.9525 42.6868 23.2204 39.0127 20.2374 37.0787V37.0787Z" fill="#000"/></svg>