<svg width="67" height="58" viewBox="0 0 67 58" fill="none" xmlns="http://www.w3.org/2000/svg"><g clip-path="url(#clip0_1154_18935)"><path d="M47.616 4.36093C53.2822 4.36093 57.8784 28.2662 57.8784 57.789H66.1468C66.1468 26.0045 57.8055 0.275391 47.5916 0.275391C41.7552 0.275391 36.5996 7.98441 33.195 20.0951C29.7904 7.98441 24.6348 0.275391 18.847 0.275391C8.63314 0.275391 0.316162 25.9802 0.316162 57.7647H8.58451C8.58451 28.2419 13.1321 4.36093 18.7983 4.36093C24.4646 4.36093 29.0608 26.4423 29.0608 53.6792H37.2805C37.2805 26.4423 41.9011 4.36093 47.5673 4.36093" fill="#FC0"/></g><defs><clipPath id="clip0_1154_18935"><path fill="#fff" d="M0 0H66.317V58H0z"/></clipPath></defs></svg>