<svg width="178" height="76" viewBox="0 0 178 76" fill="none" xmlns="http://www.w3.org/2000/svg"><rect width="178" height="76" rx="3" fill="#9084AC"/><path fill-rule="evenodd" clip-rule="evenodd" d="M34.081 15.3979C40.0152 15.3979 45.9475 16.1084 45.9475 16.1084C45.9475 16.1084 48.0796 19.4925 50.3099 21.0254C52.5402 22.5583 55.59 22.7357 55.59 22.7357C55.59 22.7357 55.59 34.1577 51.7588 44.6815C47.9276 55.2053 34.081 60.6024 34.081 60.6024C34.081 60.6024 20.0915 54.6678 16.1707 44.6815C12.25 34.6951 12.25 22.7357 12.25 22.7357C12.25 22.7357 16.0155 22.6045 18.0964 21.0254C20.1774 19.4463 20.9834 16.1084 20.9834 16.1084C20.9834 16.1084 28.1468 15.3979 34.081 15.3979Z" fill="url(#paint0_linear_1072_14805)"/><mask id="mask0_1072_14805" style="mask-type:alpha" maskUnits="userSpaceOnUse" x="12" y="15" width="44" height="46"><path fill-rule="evenodd" clip-rule="evenodd" d="M34.081 15.3979C40.0152 15.3979 45.9475 16.1084 45.9475 16.1084C45.9475 16.1084 48.0796 19.4925 50.3099 21.0254C52.5402 22.5583 55.59 22.7357 55.59 22.7357C55.59 22.7357 55.59 34.1577 51.7588 44.6815C47.9276 55.2053 34.081 60.6024 34.081 60.6024C34.081 60.6024 20.0915 54.6678 16.1707 44.6815C12.25 34.6951 12.25 22.7357 12.25 22.7357C12.25 22.7357 16.0155 22.6045 18.0964 21.0254C20.1774 19.4463 20.9834 16.1084 20.9834 16.1084C20.9834 16.1084 28.1468 15.3979 34.081 15.3979Z" fill="#fff"/></mask><path fill-rule="evenodd" clip-rule="evenodd" d="M43.8168 19.4956C43.7134 20.0889 42.8338 21.0967 42.2081 21.7506C41.9058 22.0677 41.3796 21.9743 41.2029 21.573C40.8377 20.7441 40.3546 19.4943 40.4581 18.9009C40.6217 17.9681 41.5065 17.3458 42.4333 17.5102C43.3613 17.6747 43.9805 18.5641 43.8168 19.4956ZM38.7422 23.5866C37.7029 24.0484 36.1348 24.6602 35.39 24.5287C34.2198 24.3208 33.4396 23.1998 33.6451 22.025C33.852 20.8488 34.9672 20.0633 36.1374 20.2712C36.8822 20.4041 38.1467 21.5184 38.9661 22.3105C39.364 22.6946 39.2475 23.3617 38.7422 23.5866ZM42.7612 15.651C41.053 15.3484 39.4233 16.4943 39.1223 18.2126C39.0202 18.7967 39.2283 19.7269 39.5451 20.6992C38.2649 19.5901 36.8512 18.5507 35.8996 18.381C33.7451 17.9995 31.69 19.4454 31.3104 21.6109C30.9295 23.7765 32.368 25.8421 34.5226 26.2237C35.2556 26.3539 36.4193 26.0921 37.6366 25.6908L43.5426 22.1412C44.3935 21.1399 45.1788 20.0493 45.3084 19.3085C45.6095 17.5916 44.4694 15.9536 42.7612 15.651Z" fill="#fff"/><path fill-rule="evenodd" clip-rule="evenodd" d="M48.6767 23.0785C49.0681 22.843 49.1964 22.3299 48.9621 21.9365L47.8835 20.1235C47.6505 19.7314 47.1387 19.6012 46.7486 19.8367L43.2498 21.9391L37.3437 25.4901L33.68 27.6912C33.2899 27.9267 33.1616 28.4398 33.3946 28.8332L34.4732 30.6462C34.7075 31.0382 35.218 31.1685 35.6094 30.933L48.6767 23.0785Z" fill="#FCB813"/><path fill-rule="evenodd" clip-rule="evenodd" d="M53.5929 32.8238L48.861 24.8706C48.6502 24.5153 48.1908 24.3996 47.8387 24.6127L37.3657 30.9397C37.0135 31.1515 36.8997 31.6107 37.1104 31.9646L41.8279 39.8954C42.0622 40.2875 42.5727 40.4178 42.9641 40.1823L53.3075 33.9658C53.6976 33.7302 53.8272 33.2171 53.5929 32.8238Z" fill="#FCB813"/><path fill-rule="evenodd" clip-rule="evenodd" d="M49.7901 36.0921L46.5425 38.0537L40.9402 28.7717L44.189 26.8101L49.7901 36.0921Z" fill="#fff"/><path fill-rule="evenodd" clip-rule="evenodd" d="M24.9273 32.233L27.9144 29.8806C28.5597 29.3727 29.493 29.4859 29.9995 30.1345L32.8413 33.7815C33.611 34.7683 33.4382 36.1958 32.4565 36.9681L30.6867 38.3627C29.705 39.135 28.2861 38.9626 27.5164 37.9759L24.6747 34.3288C24.1681 33.6802 24.282 32.7408 24.9273 32.233Z" fill="#fff"/><path fill-rule="evenodd" clip-rule="evenodd" d="M29.8733 27.6657L28.5199 29.4261C27.6782 28.7722 26.4674 28.9288 25.8169 29.776L24.7291 31.1917C23.6963 32.535 23.9424 34.4637 25.2789 35.5018L26.0669 36.1136L28.8563 32.485L30.5199 30.3181C31.1404 29.5116 31.0972 28.3999 30.4728 27.6473C30.3171 27.4592 30.0225 27.4723 29.8733 27.6657Z" fill="#FCB813"/><path fill-rule="evenodd" clip-rule="evenodd" d="M43.4486 34.3296C43.014 33.5731 42.0533 33.3152 41.3006 33.7507L32.4114 38.8633C31.2059 39.562 30.4624 40.8566 30.4624 42.2564V56.0985C30.4624 58.097 32.075 59.7179 34.0634 59.7179H34.1746C36.1629 59.7179 37.7756 58.097 37.7756 56.0985V44.3996C37.7756 43.0011 38.5191 41.7078 39.7246 41.0079L42.0114 39.7211C43.8897 38.6318 44.5324 36.2175 43.4486 34.3296Z" fill="#fff"/><path fill-rule="evenodd" clip-rule="evenodd" d="M85.1001 56.8681C83.0752 55.0222 82.0764 52.6619 82.0764 49.7582C82.0764 46.8532 83.1026 44.4653 85.1276 42.6471C87.1526 40.8025 89.7168 39.8789 92.823 39.8789C93.6594 39.8789 94.4422 39.9328 95.1176 40.0697C95.793 40.2052 96.3323 40.3407 96.6831 40.4762C97.5745 40.7959 98.1688 41.6445 98.1688 42.5944V43.1944C98.1688 44.6587 96.814 45.7126 95.3912 45.3994C91.3583 44.5127 87.9105 46.3164 88.0427 49.8385C88.0427 51.3317 88.4759 52.4711 89.366 53.3131C90.2574 54.1538 91.3098 54.5617 92.5795 54.5617C93.5508 54.5617 94.3074 54.3709 94.8205 54.0183V51.1147C94.8205 49.4964 96.1255 48.1834 97.7368 48.1834C99.3469 48.1834 100.652 49.4964 100.652 51.1147V55.7984C100.652 56.4431 100.367 57.0601 99.8547 57.4469C99.1924 57.9482 98.3507 58.4034 97.3311 58.7955C95.8467 59.3652 94.2799 59.6362 92.5795 59.6362C89.6095 59.6362 87.1251 58.7139 85.1001 56.8681Z" fill="#fff"/><path fill-rule="evenodd" clip-rule="evenodd" d="M103.001 56.3398V43.1779C103.001 41.5662 104.301 40.2598 105.903 40.2598C107.506 40.2598 108.806 41.5662 108.806 43.1779V56.3398C108.806 57.9515 107.506 59.2566 105.903 59.2566C104.301 59.2566 103.001 57.9515 103.001 56.3398Z" fill="#fff"/><path fill-rule="evenodd" clip-rule="evenodd" d="M116.836 56.7897L111.868 44.191C111.125 42.3056 112.507 40.2598 114.527 40.2598H114.743C115.958 40.2598 117.04 41.0307 117.442 42.1833L120.713 51.5758L124.01 42.1767C124.413 41.0281 125.493 40.2598 126.705 40.2598C128.726 40.2598 130.109 42.3083 129.363 44.1949L124.377 56.7937C123.763 58.3462 122.269 59.3645 120.607 59.3645C118.943 59.3645 117.448 58.3449 116.836 56.7897Z" fill="#fff"/><path fill-rule="evenodd" clip-rule="evenodd" d="M132.349 57.066V42.4503C132.349 41.2399 133.325 40.2598 134.529 40.2598H144.675C146.054 40.2598 147.172 41.3833 147.172 42.77C147.172 44.1554 146.054 45.2803 144.675 45.2803H138.155V46.9631H142.934C144.201 46.9631 145.228 47.9959 145.228 49.2694C145.228 50.543 144.201 51.5758 142.934 51.5758H138.155V54.236H144.837C146.217 54.236 147.334 55.3596 147.334 56.7463C147.334 58.133 146.217 59.2566 144.837 59.2566H134.529C133.325 59.2566 132.349 58.2764 132.349 57.066Z" fill="#fff"/><path fill-rule="evenodd" clip-rule="evenodd" d="M157.974 48.2129C159.054 48.2129 159.783 47.6156 159.783 46.6657C159.783 45.7158 159.054 45.1461 157.974 45.1461H155.329V48.2129H157.974ZM162.509 59.2566C161.659 59.2566 160.861 58.854 160.353 58.1686L156.137 52.4717H155.328V56.3398C155.328 57.9502 154.028 59.2566 152.425 59.2566C150.821 59.2566 149.523 57.9502 149.523 56.3398V42.4503C149.523 41.2412 150.498 40.2598 151.702 40.2598H158.649C160.781 40.2598 162.509 40.8294 163.805 41.9964C165.102 43.1371 165.75 44.6015 165.75 46.3658C165.75 48.7537 164.454 50.7351 162.293 51.8205L164.645 54.9189C165.993 56.6963 164.733 59.2566 162.509 59.2566Z" fill="#fff"/><path fill-rule="evenodd" clip-rule="evenodd" d="M50.1232 54.3172C51.338 54.3172 52.3367 53.8831 53.1208 53.0424C53.9035 52.1727 54.308 51.0873 54.308 49.7585C54.308 48.4283 53.9035 47.3429 53.1208 46.5009C52.3367 45.6325 51.338 45.1984 50.1232 45.1984C48.9085 45.1984 47.9098 45.6325 47.1257 46.5009C46.343 47.3429 45.9385 48.4283 45.9385 49.7585C45.9385 51.0873 46.343 52.1727 47.1257 53.0424C47.9098 53.8831 48.9085 54.3172 50.1232 54.3172ZM42.8594 42.7826C44.7771 40.8564 47.2065 39.8789 50.1229 39.8789C53.0392 39.8789 55.4425 40.8564 57.3588 42.7826C59.2764 44.71 60.2215 47.0164 60.2215 49.7582C60.2215 52.4987 59.2764 54.8327 57.3588 56.7602C55.4425 58.6863 53.0392 59.6362 50.1229 59.6362C47.2065 59.6362 44.7771 58.6587 42.8594 56.7325C40.9431 54.8051 39.998 52.4711 39.998 49.7582C39.998 47.0164 40.9431 44.71 42.8594 42.7826Z" fill="#fff"/><path fill-rule="evenodd" clip-rule="evenodd" d="M65.2565 40.2598C66.8599 40.2598 68.1584 41.5662 68.1584 43.1766V51.414C68.1584 53.4493 69.4006 54.3452 70.9936 54.3452C72.5866 54.3452 73.8027 53.4493 73.8027 51.414V43.1766C73.8027 41.5662 75.1012 40.2598 76.7046 40.2598C78.3081 40.2598 79.6079 41.5662 79.6079 43.1766V51.3863C79.6079 54.019 78.7977 56.0543 77.1497 57.4923C75.5305 58.9316 73.478 59.6368 70.9936 59.6368C68.5105 59.6368 66.4581 58.9316 64.8114 57.4923C63.1634 56.0543 62.3545 54.019 62.3545 51.3863V43.1766C62.3545 41.5662 63.653 40.2598 65.2565 40.2598Z" fill="#fff"/><defs><linearGradient id="paint0_linear_1072_14805" x1="41.477" y1="5.298" x2="5.096" y2="28.458" gradientUnits="userSpaceOnUse"><stop stop-color="#ACB1F9"/><stop offset=".63" stop-color="#D7BAF0"/><stop offset="1" stop-color="#FFC2E8"/></linearGradient></defs></svg>