<svg width="178" height="76" viewBox="0 0 178 76" fill="none" xmlns="http://www.w3.org/2000/svg"><g clip-path="url(#clip0_1121_40175)" fill-rule="evenodd" clip-rule="evenodd"><path d="M11.5 21.3555H24.0728V26.4808H29.2455V21.3555H41.8183V34.3621H11.5V21.3555ZM41.8183 39.5384V39.7061C41.8093 43.2766 40.5449 46.7302 38.2464 49.4626C35.9479 52.1949 32.7618 54.0319 29.2455 54.652V49.4027H24.0728V54.6447C20.5581 54.0241 17.3733 52.188 15.0751 49.4574C12.7769 46.7267 11.5115 43.2752 11.5 39.7061V39.5384H41.8183Z" fill="#CE000C"/><path d="M83.6778 27.9683H89.5687V31.9781H83.6778V27.9683ZM96.5094 27.9683H102.364V31.9781H96.4912V27.9683H96.5094ZM102.364 33.9612V41.8279C102.364 43.1329 102.036 44.417 101.412 45.5632C100.788 46.7093 99.8873 47.681 98.7914 48.3895C96.1485 50.1101 90.2103 50.1684 87.4908 48.5426C86.3289 47.8485 85.3669 46.8651 84.6986 45.6882C84.0303 44.5113 83.6786 43.1812 83.6778 41.8279V33.9612H89.5687V41.3576C89.5716 42.2771 89.9381 43.1581 90.5883 43.8083C91.2385 44.4585 92.1195 44.8251 93.039 44.828V44.828C93.9585 44.8251 94.8396 44.4585 95.4898 43.8083C96.14 43.1581 96.5065 42.2771 96.5094 41.3576V33.9612H102.364ZM50.6218 27.9683H56.5455L59.4618 42.1851L63.0634 27.9683H68.597L72.2642 42.4549L75.2352 27.9683H81.1005L75.7382 49.155H69.461L65.8594 35.5032L62.2505 49.155H55.9732L50.6218 27.9683ZM106.789 27.9683H118.648C120.437 27.974 122.152 28.6875 123.418 29.9531C124.683 31.2186 125.397 32.9334 125.402 34.7231V34.7231C125.397 36.0428 125.006 37.3323 124.279 38.4331C123.551 39.534 122.517 40.3984 121.305 40.9202L125.982 49.1477H119.457L115.392 41.7076H112.476V49.155H106.789V27.9683ZM112.476 37.5227H117.142C117.829 37.5208 118.487 37.2471 118.973 36.7614C119.458 36.2758 119.732 35.6177 119.734 34.9309V34.9309C119.732 34.2441 119.458 33.5859 118.973 33.1003C118.487 32.6146 117.829 32.341 117.142 32.339H112.476V37.5227ZM127.542 27.9683H144.424V32.6161H138.956V49.155H133.014V32.6161H127.546V27.9683H127.542ZM147.592 27.9683H153.472V35.6235H160.624V27.9683H166.5V49.155H160.62V40.3114H153.468V49.155H147.588V27.9683H147.592Z" fill="#000"/></g><defs><clipPath id="clip0_1121_40175"><path fill="#fff" transform="translate(11.5 21.355)" d="M0 0H155V33.289H0z"/></clipPath></defs></svg>