<svg width="178" height="76" viewBox="0 0 178 76" fill="none" xmlns="http://www.w3.org/2000/svg"><path fill-rule="evenodd" clip-rule="evenodd" d="M7.5061 49.9432V45.0249C10.3136 45.906 12.7979 46.3465 14.9589 46.3465C17.9426 46.3465 19.4346 45.5601 19.4346 43.9885C19.4346 43.4026 19.2175 42.9102 18.7823 42.5116C18.3372 42.0887 17.1972 41.5025 15.3653 40.7514C12.0784 39.4038 9.93511 38.2546 8.93815 37.3041C7.646 36.0494 7 34.4671 7 32.5551C7 30.0927 7.94136 28.216 9.82277 26.9263C11.6833 25.6479 14.1061 25.0093 17.0949 25.0093C18.7416 25.0093 21.125 25.3115 24.2425 25.9167V30.6479C21.9229 29.724 19.7697 29.263 17.7804 29.263C14.9791 29.263 13.5785 30.03 13.5785 31.5672C13.5785 32.1418 13.8606 32.6105 14.4256 32.9738C14.8955 33.2679 16.1901 33.8889 18.3067 34.839C21.3543 36.1885 23.3831 37.3616 24.394 38.3594C25.5935 39.543 26.1944 41.0746 26.1944 42.9518C26.1944 45.6501 25.0174 47.7083 22.665 49.1265C20.7591 50.2766 18.2878 50.8492 15.2525 50.8492C12.6892 50.8492 10.1065 50.5482 7.5061 49.9432Z" fill="#099"/><path fill-rule="evenodd" clip-rule="evenodd" d="M30.1343 25.4421H37.1108V50.3461H30.1343V25.4421Z" fill="#099"/><path fill-rule="evenodd" clip-rule="evenodd" d="M43.5088 50.3461V25.4421H61.402V29.9465H50.2328V35.5699H59.955V39.6785H50.2328V45.5884H61.6898V50.3461H43.5088Z" fill="#099"/><path fill-rule="evenodd" clip-rule="evenodd" d="M66.2446 50.3461V25.4421H75.29L81.5744 41.3546L88.0163 25.4421H96.6081V50.3461H89.9933V32.7135L82.6684 50.5989H78.3439L71.16 32.7135V50.3461H66.2446Z" fill="#099"/><path fill-rule="evenodd" clip-rule="evenodd" d="M103.007 50.3461V25.4421H120.9V29.9465H109.732V35.5699H119.454V39.6785H109.732V45.5884H121.19V50.3461H103.007Z" fill="#099"/><path fill-rule="evenodd" clip-rule="evenodd" d="M125.78 50.3461V25.4421H133.866L142.445 42.1134V25.4421H147.359V50.3461H139.502L130.696 33.4505V50.3461H125.78Z" fill="#099"/><path fill-rule="evenodd" clip-rule="evenodd" d="M152.312 49.9432V45.0249C155.095 45.906 157.579 46.3465 159.766 46.3465C162.75 46.3465 164.24 45.5601 164.24 43.9885C164.24 43.4026 164.029 42.9102 163.608 42.5116C163.161 42.0887 162.016 41.5025 160.173 40.7514C156.896 39.415 154.751 38.2662 153.744 37.304C152.453 36.0605 151.808 34.4723 151.808 32.538C151.808 30.0863 152.747 28.2158 154.631 26.9261C156.488 25.6477 158.914 25.0092 161.903 25.0092C163.583 25.0092 165.761 25.2752 168.432 25.8098L169.049 25.9165V30.6477C166.729 29.7238 164.569 29.2629 162.569 29.2629C159.779 29.2629 158.387 30.0298 158.387 31.567C158.387 32.1417 158.667 32.6103 159.231 32.9737C159.679 33.2564 160.978 33.8778 163.131 34.8388C166.155 36.1883 168.18 37.3614 169.199 38.3593C170.401 39.5428 171 41.0744 171 42.9516C171 45.6499 169.83 47.7081 167.489 49.1264C165.572 50.2764 163.095 50.8491 160.06 50.8491C157.494 50.8492 154.91 50.5482 152.312 49.9432Z" fill="#099"/></svg>