<svg width="178" height="76" viewBox="0 0 178 76" fill="none" xmlns="http://www.w3.org/2000/svg"><path fill-rule="evenodd" clip-rule="evenodd" d="M15.0299 40.3695C12.7208 39.4679 10.7266 38.6893 10.7266 36.8926C10.7266 34.8176 12.6161 34.0767 14.3854 34.0767C17.4445 34.0767 19.0696 35.7679 19.0861 35.7844L19.2422 35.9515L20.6111 33.6535L20.5276 33.5589C20.4486 33.4708 18.5518 31.394 14.4625 31.394C11.2059 31.394 7.70144 33.1145 7.70144 36.8935C7.70144 40.4659 10.9277 41.7439 13.772 42.8714C16.0848 43.7877 18.0808 44.5791 18.0808 46.3593C18.0808 48.3581 16.2253 49.2523 14.3854 49.2523C10.9075 49.2523 8.78758 46.9937 8.76646 46.9708L8.62599 46.8193L7 48.9741L7.09181 49.0797C7.11936 49.1082 7.73725 49.8078 8.94641 50.5129C10.0555 51.162 11.8936 51.936 14.3468 51.936C18.2644 51.936 21.1078 49.5902 21.1078 46.3593C21.1078 42.7419 17.8779 41.4804 15.0299 40.3695ZM41.9253 41.5695C41.9253 45.8782 38.7027 49.2523 34.5895 49.2523C30.4781 49.2523 27.2556 45.8782 27.2556 41.5704C27.2556 37.3884 30.4781 34.1153 34.5904 34.1153C38.7036 34.1153 41.9262 37.3884 41.9262 41.5704L41.9253 41.5695ZM34.5895 31.3949C28.7815 31.3949 24.2303 35.8643 24.2303 41.5713C24.2303 47.383 28.7815 51.9369 34.5904 51.9369C40.4003 51.9369 44.9514 47.383 44.9514 41.5713C44.9514 35.8643 40.4003 31.3949 34.5904 31.3949H34.5895ZM57.7665 24.1261C57.3642 24.0694 56.9581 24.0433 56.5518 24.0481C54.4989 24.0481 49.7238 24.7615 49.7238 31.3765V32.123H47.1007V34.6496H49.7238V51.4907H52.6691V34.6496H57.604V32.122H52.6691V31.3756C52.6691 29.6394 53.2099 26.7253 56.819 26.7253C57.3295 26.7253 57.7013 26.7988 57.705 26.7988L57.9097 26.8401V24.1509L57.7665 24.1252V24.1261ZM71.6723 49.0999L71.4593 49.1458C71.176 49.199 70.8882 49.224 70.6 49.2202C69.019 49.2202 66.3665 48.5683 66.3665 44.2045V34.7038H71.283V32.1285H66.3656V26.4664H63.4001V32.1275H60.7862V34.7029H63.3606V44.4763C63.3606 50.9811 67.7492 51.9525 70.3658 51.9525C71.0755 51.9525 71.5098 51.8754 71.5273 51.8717L71.6723 51.846V49.099V49.0999ZM77.6649 45.6432C77.6649 45.6432 79.8179 47.798 83.0084 47.798C84.3938 47.798 85.5837 47.1829 85.5837 46.0288C85.5837 43.1046 76.0499 43.4893 76.0499 37.1809C76.0499 33.5268 79.3184 31.4096 83.5464 31.4096C87.968 31.4096 90.1201 33.6406 90.1201 33.6406L88.3142 37.258C88.3142 37.258 86.5073 35.565 83.5087 35.565C82.2399 35.565 81.0096 36.103 81.0096 37.3342C81.0096 40.1042 90.5443 39.758 90.5443 46.0655C90.5443 49.3359 87.699 51.9507 83.0478 51.9507C78.1644 51.9507 75.4339 49.0659 75.4339 49.0659L77.6649 45.6432ZM107.47 39.2586C107.393 36.6034 105.739 35.1794 103.586 35.1794C101.089 35.1794 99.3573 36.7191 98.8955 39.2586H107.47ZM103.702 31.4096C109.354 31.4096 112.391 35.5255 112.391 40.7193C112.391 41.2959 112.276 42.6051 112.276 42.6051H98.7431C99.0497 46.0297 101.704 47.798 104.625 47.798C107.777 47.798 110.276 45.6432 110.276 45.6432L112.16 49.1449C112.16 49.1449 109.161 51.9516 104.278 51.9516C97.7809 51.9516 93.7439 47.26 93.7439 41.6815C93.7439 35.6421 97.8589 31.4096 103.702 31.4096ZM117.305 31.8723H121.996V35.2574C121.996 35.9873 121.919 36.6419 121.919 36.6419H121.995C122.88 33.8343 125.225 31.6024 128.224 31.6024C128.686 31.6024 129.108 31.6795 129.108 31.6795V36.4886C129.108 36.4886 128.609 36.4115 127.955 36.4115C125.878 36.4115 123.533 37.6032 122.611 40.5274C122.304 41.4887 122.189 42.5656 122.189 43.7197V51.4907H117.305V31.8723ZM131.234 31.8723H136.386L140.462 44.0273C140.847 45.1823 141.116 46.486 141.152 46.486H141.231C141.269 46.486 141.538 45.1823 141.922 44.0273L145.999 31.8714H151.149L144.114 51.4907H138.347L131.234 31.8723ZM166.078 39.2586C166.002 36.6034 164.348 35.1794 162.195 35.1794C159.696 35.1794 157.965 36.7191 157.505 39.2586H166.078ZM162.311 31.4096C167.963 31.4096 171 35.5255 171 40.7193C171 41.2959 170.884 42.6051 170.884 42.6051H157.351C157.659 46.0297 160.311 47.798 163.234 47.798C166.386 47.798 168.885 45.6432 168.885 45.6432L170.77 49.1449C170.77 49.1449 167.77 51.9516 162.887 51.9516C156.391 51.9516 152.353 47.26 152.353 41.6815C152.353 35.6421 156.467 31.4096 162.311 31.4096Z" fill="#000"/></svg>