<svg width="178" height="76" viewBox="0 0 178 76" fill="none" xmlns="http://www.w3.org/2000/svg"><path d="M113.426 33.0283C110.661 30.6188 107.323 29.4412 103.463 29.4412C99.6563 29.4412 96.3183 30.6208 93.5509 33.0283C90.7856 35.3853 89.3802 38.6664 89.3802 42.8694C89.3802 47.0723 90.7856 50.3515 93.5509 52.7608C96.3162 55.1181 99.6563 56.2975 103.463 56.2975C107.323 56.2975 110.661 55.1181 113.426 52.7608C116.244 50.3515 117.65 47.0723 117.65 42.8693C117.65 38.6663 116.243 35.3855 113.426 33.0283ZM98.2491 48.25C96.7906 46.8671 96.0564 45.0716 96.0564 42.8694C96.0564 40.6653 96.7848 38.8717 98.2491 37.5391C99.7075 36.1563 101.432 35.4898 103.461 35.4898C105.492 35.4898 107.267 36.1563 108.728 37.5391C110.238 38.8717 110.972 40.6653 110.972 42.8694C110.972 45.0735 110.243 46.8671 108.728 48.25C107.269 49.5823 105.494 50.2487 103.461 50.2487C101.432 50.2487 99.7114 49.5824 98.2491 48.25ZM127.513 55.5782V20.409H120.941V55.5782H127.513ZM148.726 30.1574V44.1898C148.726 47.5715 146.866 49.8124 143.325 49.8124C139.725 49.8124 137.914 47.5734 137.914 44.1898V30.1574H131.331V45.2667C131.331 51.1198 135.086 56.2951 143.325 56.2951H143.375C151.565 56.2951 155.313 51.0056 155.313 45.2667V30.1574H148.726ZM82.3842 30.1574L75.8123 47.3778L69.2404 30.1574H62.2512L72.738 55.5785H78.8946L89.3792 30.1574H82.3842ZM62.2851 42.1508C62.2851 38.4611 61.0866 35.4376 58.7386 33.0283C56.3903 30.6188 53.3691 29.4412 49.6649 29.4412C45.8584 29.4412 42.6226 30.7234 39.9615 33.2335C37.3517 35.7457 36.0508 38.922 36.0508 42.8694C36.0508 46.8167 37.3536 50.0454 39.9104 52.5556C42.5203 55.0676 45.6497 56.2975 49.3519 56.2975C55.0401 56.2975 59.0553 53.8378 61.5018 48.8659L56.6009 46.0981C54.987 49.2242 52.637 50.7619 49.4563 50.7619C45.5455 50.7619 42.7801 48.3023 42.3628 44.4072H62.2834V42.1508H62.2851ZM49.4524 34.3608C53.1547 34.3608 55.6089 36.41 56.2328 39.6911H42.3589C43.3528 36.6676 46.0612 34.3608 49.4524 34.3608ZM36.0509 55.5786L27.2333 40.4093C32.8112 38.4105 35.5765 34.9261 35.5765 29.8515C35.5826 23.6497 30.5714 19.7025 22.5924 19.7025H7V55.5786H13.8849V41.0233H19.7285L28.176 55.5786H36.0509ZM22.5924 25.6466C26.6607 25.6466 28.6959 27.2348 28.6959 30.361C28.6959 33.487 26.6587 35.0752 22.5924 35.0752H13.8849V25.6466H22.5924ZM166.454 56.2953C162.225 56.2953 158.794 52.9232 158.794 48.7608V23.2897H165.365V30.1673H171V35.3948H165.365V48.3465C165.365 49.5667 166.371 50.5544 167.615 50.5544H171V56.2953H166.454Z" fill="#000"/></svg>