<svg width="178" height="76" viewBox="0 0 178 76" fill="none" xmlns="http://www.w3.org/2000/svg"><g clip-path="url(#clip0_1119_23631)"><path d="M84.9627 23.3721H89.351L82.9734 42.5636H77.9414L73.2021 28.1114L68.4627 42.6221H63.5478L57.1702 23.3721H61.617L66.1808 37.9997L70.8617 23.3721H75.601L80.3989 38.0582L84.9627 23.3721Z" fill="#000"/><path d="M108.075 34.5478H93.9149C94.032 35.5425 94.4415 36.4787 94.9681 37.2978C95.4947 38 96.1969 38.5851 96.9575 38.9361C97.7766 39.2872 98.6543 39.4627 99.532 39.4627C100.527 39.4627 101.521 39.2872 102.457 38.9361C103.394 38.5851 104.33 38.0585 105.09 37.4149L107.197 40.3989C106.144 41.3351 104.915 42.0372 103.569 42.4468C102.165 42.8564 100.761 43.0904 99.2979 43.0904C97.5426 43.1489 95.7873 42.6808 94.2075 41.8617C92.7447 41.0425 91.516 39.8138 90.7554 38.2925C89.9362 36.7713 89.5266 35.0159 89.5266 32.9681C89.4681 31.1542 89.9362 29.3404 90.7554 27.7021C91.516 26.2393 92.6862 25.0106 94.149 24.133C95.6703 23.2553 97.3671 22.8457 99.1224 22.8457C100.761 22.7872 102.399 23.2553 103.862 24.133C105.266 25.0106 106.378 26.2393 107.08 27.7021C107.899 29.3404 108.25 31.1542 108.25 32.9681C108.133 33.3776 108.133 33.9042 108.075 34.5478ZM103.862 31.3298C103.628 29.8085 103.101 28.6968 102.223 27.8191C101.404 27 100.293 26.5904 99.0054 26.5904C97.6011 26.5904 96.4309 27 95.5532 27.8776C94.6756 28.7553 94.149 29.867 93.9149 31.3298H103.862Z" fill="#000"/><path d="M125.979 24.1914C127.442 25.069 128.612 26.2978 129.431 27.819C130.309 29.3988 130.718 31.2127 130.718 33.0265C130.718 34.8403 130.309 36.6542 129.431 38.2339C128.612 39.7552 127.442 40.9839 125.979 41.8616C124.516 42.7393 122.819 43.2073 121.122 43.1488C119.952 43.1488 118.723 42.9148 117.67 42.4467C116.676 41.9786 115.798 41.2765 115.096 40.3988V42.6808H110.883V15.2393H115.096V25.7127C115.798 24.835 116.676 24.1329 117.67 23.6648C118.782 23.1382 119.952 22.9042 121.122 22.9627C122.819 22.9042 124.516 23.3137 125.979 24.1914ZM123.697 38.351C124.575 37.8244 125.277 37.0637 125.745 36.1276C126.213 35.1329 126.447 34.0797 126.447 33.0265C126.447 31.9733 126.213 30.8616 125.745 29.9254C125.277 28.9893 124.575 28.2286 123.697 27.702C122.761 27.1169 121.708 26.8829 120.654 26.8829C119.601 26.8829 118.548 27.1169 117.612 27.702C116.734 28.2286 116.032 28.9893 115.564 29.9254C115.096 30.9201 114.803 31.9733 114.862 33.085C114.862 34.1967 115.096 35.2499 115.564 36.2446C116.032 37.1807 116.734 37.9414 117.612 38.468C118.548 38.9946 119.543 39.2871 120.654 39.2871C121.708 39.1701 122.761 38.8776 123.697 38.351Z" fill="#000"/><path d="M151.489 34.5478H137.33C137.447 35.5425 137.856 36.4787 138.383 37.2978C138.91 38 139.612 38.5851 140.372 38.9361C141.191 39.2872 142.069 39.4627 142.947 39.4627C143.941 39.4627 144.936 39.2872 145.872 38.9361C146.808 38.5851 147.745 38.0585 148.505 37.4149L150.612 40.3989C149.558 41.3351 148.33 42.0372 146.984 42.4468C145.58 42.8564 144.175 43.0904 142.713 43.0904C140.957 43.1489 139.202 42.6808 137.622 41.8617C136.16 41.0425 134.931 39.8138 134.17 38.2925C133.351 36.7713 132.941 35.0159 132.941 32.9681C132.883 31.1542 133.351 29.3404 134.17 27.7021C134.931 26.2393 136.101 25.0106 137.564 24.133C139.085 23.2553 140.782 22.8457 142.537 22.8457C144.175 22.7872 145.814 23.2553 147.277 24.133C148.681 25.0106 149.792 26.2393 150.495 27.7021C151.314 29.3404 151.665 31.1542 151.665 32.9681C151.606 33.3776 151.548 33.9042 151.489 34.5478ZM147.277 31.3298C147.042 29.8085 146.516 28.6968 145.638 27.8191C144.819 27 143.707 26.5904 142.362 26.5904C140.957 26.5904 139.787 27 138.91 27.8776C138.032 28.6968 137.505 29.867 137.271 31.3298H147.277Z" fill="#000"/><path d="M171.5 42.6221H166.351L161.495 35.9519L156.697 42.6221H151.782L159.037 32.7923L151.84 23.3721H156.989L161.67 29.8082L166.351 23.3721H171.325L164.245 32.7338L171.5 42.6221Z" fill="#000"/><path d="M121.005 58.4788H120.128V50.7554H121.181V53.6809C121.415 53.3884 121.649 53.1543 122 52.9788C122.351 52.8032 122.702 52.7447 123.053 52.7447C123.404 52.7447 123.755 52.8032 124.106 52.9203C124.457 53.0958 124.692 53.2713 124.926 53.5639C125.335 54.0905 125.511 54.7926 125.511 55.6118C125.511 56.6064 125.218 57.3671 124.692 57.9522C124.457 58.1862 124.165 58.3618 123.872 58.4788C123.58 58.5958 123.229 58.6543 122.936 58.6543C122.585 58.6543 122.234 58.5958 121.883 58.4203C121.59 58.2447 121.298 58.0107 121.064 57.7181L121.005 58.4788ZM124.457 55.6118C124.457 54.9096 124.282 54.383 123.931 54.032C123.814 53.9149 123.638 53.7979 123.404 53.6809C123.229 53.6224 122.995 53.5639 122.819 53.5639C122.585 53.5639 122.351 53.6224 122.117 53.6809C121.883 53.7979 121.707 53.9149 121.59 54.0905C121.298 54.5001 121.122 55.0266 121.181 55.5532C121.181 56.2554 121.356 56.8405 121.707 57.1915C121.824 57.3671 122.059 57.4841 122.234 57.5426C122.41 57.6011 122.644 57.6596 122.878 57.6596C123.112 57.6596 123.346 57.6011 123.58 57.5426C123.814 57.4256 123.989 57.3086 124.106 57.0745C124.34 56.8405 124.457 56.3139 124.457 55.6118Z" fill="#000"/><path d="M131.069 52.9198L129.138 58.5954C128.904 59.356 128.612 59.8826 128.378 60.1167C128.261 60.2922 128.085 60.4092 127.91 60.4677C127.734 60.5262 127.5 60.5847 127.325 60.5847C127.09 60.5847 126.856 60.5262 126.681 60.4677V59.6486C126.856 59.7071 127.032 59.7071 127.207 59.7071C127.325 59.7071 127.383 59.7071 127.5 59.6486C127.617 59.5901 127.676 59.5315 127.734 59.473C127.91 59.1805 128.085 58.8294 128.202 58.4784H127.851L125.803 52.8613H126.915L128.495 57.6007L130.074 52.8613L131.069 52.9198Z" fill="#000"/><path d="M145.229 50.7554H143.298V58.5373H145.229V50.7554Z" fill="#000"/><path d="M161.027 52.9785C160.5 52.686 159.973 52.569 159.388 52.569C158.101 52.569 157.223 53.4466 157.223 54.6168C157.223 55.787 158.042 56.6647 159.388 56.6647C159.973 56.6647 160.5 56.5477 161.027 56.2551V58.3615C160.441 58.537 159.856 58.6541 159.271 58.6541C157.048 58.6541 155.117 57.1328 155.117 54.6168C155.117 52.2764 156.872 50.5796 159.271 50.5796C159.856 50.5796 160.5 50.6966 161.027 50.8721V52.9785Z" fill="#000"/><path d="M140.606 52.9785C140.08 52.686 139.553 52.569 138.968 52.569C137.681 52.569 136.803 53.4466 136.803 54.6168C136.803 55.787 137.622 56.6647 138.968 56.6647C139.553 56.6647 140.08 56.5477 140.606 56.2551V58.3615C140.021 58.537 139.436 58.6541 138.792 58.6541C136.569 58.6541 134.638 57.1328 134.638 54.6168C134.638 52.2764 136.394 50.5796 138.792 50.5796C139.378 50.5796 140.021 50.6966 140.606 50.8721V52.9785Z" fill="#000"/><path d="M167.17 52.6275C166.878 52.6275 166.644 52.686 166.41 52.803C166.176 52.92 165.941 53.037 165.766 53.2711C165.59 53.4466 165.415 53.6807 165.356 53.9147C165.239 54.1487 165.181 54.4413 165.239 54.6753C165.239 54.9679 165.298 55.2019 165.356 55.436C165.473 55.67 165.59 55.9041 165.766 56.0796C165.941 56.2551 166.176 56.4307 166.41 56.5477C166.644 56.6647 166.936 56.7232 167.17 56.7232C167.463 56.7232 167.697 56.6647 167.931 56.5477C168.165 56.4307 168.399 56.3136 168.574 56.0796C168.75 55.9041 168.926 55.67 168.984 55.436C169.101 55.2019 169.16 54.9094 169.101 54.6753C169.101 54.3828 169.043 54.1487 168.984 53.9147C168.867 53.6807 168.75 53.4466 168.574 53.2711C168.399 53.0955 168.165 52.92 167.931 52.803C167.697 52.6275 167.463 52.6275 167.17 52.6275ZM171.266 54.6168C171.266 56.8402 169.569 58.6541 167.17 58.6541C164.771 58.6541 163.074 56.8402 163.074 54.6168C163.074 52.3934 164.771 50.5796 167.17 50.5796C169.569 50.6381 171.266 52.4519 171.266 54.6168Z" fill="#000"/><path d="M152.66 52.5105C152.133 52.3935 151.665 52.2765 151.138 52.2765C150.378 52.2765 149.91 52.5105 149.91 52.9201C149.91 53.3882 150.495 53.5637 150.787 53.6807L151.314 53.8563C152.601 54.2658 153.186 55.1435 153.186 56.0797C153.186 58.0105 151.489 58.6541 149.968 58.6541C149.266 58.6541 148.564 58.5956 147.862 58.4201V56.6063C148.447 56.7818 149.091 56.8988 149.734 56.8988C150.729 56.8988 151.138 56.6063 151.138 56.1967C151.138 55.7871 150.729 55.5531 150.261 55.4361L149.851 55.319C148.798 54.968 147.862 54.3244 147.862 53.0371C147.862 51.5744 148.915 50.6382 150.729 50.6382C151.372 50.6382 152.016 50.7552 152.66 50.8722V52.5105Z" fill="#000"/><path d="M15.9202 30.1009C16.3883 31.6807 16.9734 33.2605 17.7926 34.7232C18.1436 35.3668 18.4947 36.0105 19.1383 36.42C19.2553 36.4785 19.3723 36.537 19.4894 36.5956C20.4255 36.7711 20.9521 36.0105 21.3032 35.3668C21.7713 34.2551 22.1809 33.1434 22.5319 31.9732C22.5904 31.7392 22.6489 31.5636 22.7074 31.3296C22.8245 30.92 22.9415 30.5105 23 30.1009L27.1543 18.9839C28.0319 17.8136 29.1436 16.8775 30.4309 16.2339C31.6596 15.5317 33.0638 15.1807 34.5266 15.1807C36.5745 15.1807 38.6223 15.8828 40.2606 17.17C43.0106 19.2179 44.5904 23.3136 44.5904 23.3136C44.8245 23.8402 44.9415 24.4253 44.9415 25.0105C44.9415 25.537 44.8245 26.0636 44.6489 26.5902C44.4149 27.0583 44.1223 27.5264 43.7713 27.936C43.4202 28.287 42.9521 28.6381 42.4255 28.8136C41.9574 28.9892 41.3723 29.1062 40.8457 29.1062C40.2606 29.1062 39.6755 28.9892 39.1489 28.6966C38.6223 28.4626 38.1543 28.053 37.7447 27.6434C37.7447 27.6434 37.7447 27.5849 37.6862 27.5849C37.4521 27.2339 37.2181 26.8243 37.0426 26.4147C36.8085 25.8881 36.5745 25.42 36.2819 24.9519C36.1064 24.7179 35.9894 24.4839 35.8138 24.2498C35.6968 24.0158 35.5213 23.8402 35.2872 23.6647C34.8777 23.3722 34.4096 23.2551 34 23.4892L33.9415 23.5477C33.4734 23.8402 33.1809 24.4839 32.9468 25.0105C32.3032 26.4147 31.9521 27.819 31.5426 29.3402C31.484 29.6328 31.4255 29.9253 31.367 30.2179L29.6117 35.8349L27.2128 41.1594C26.3351 42.2711 25.2234 43.2073 23.9362 43.7924C22.6489 44.436 21.2447 44.7285 19.8404 44.787C13.9309 44.9041 11.1809 39.5796 11.1809 39.5796C7.84574 34.0796 6.85106 26.8243 6.61702 24.4839C6.5 23.9573 6.5 23.6647 6.5 23.6647C6.5 22.9626 6.67553 22.2019 7.08511 21.6168C7.43617 20.9732 7.96277 20.4466 8.60638 20.0956C9.30851 19.7445 10.0106 19.6275 10.7713 19.6275C11.4734 19.6275 12.117 19.8615 12.7606 20.2126C13.2287 20.5051 13.6383 20.8562 13.9309 21.2658C14.4574 22.0264 14.633 23.0211 14.6915 23.9573C14.9255 26.0636 15.3351 28.1115 15.9202 30.1009Z" fill="url(#paint0_linear_1119_23631)"/><path d="M15.9202 30.1009C16.3883 31.6807 16.9734 33.2605 17.7926 34.7232C18.1436 35.3668 18.4947 36.0105 19.1383 36.42C19.2553 36.4785 19.3723 36.537 19.4894 36.5956C20.4255 36.7711 20.9521 36.0105 21.3032 35.3668C21.7713 34.2551 22.1809 33.1434 22.5319 31.9732C22.5904 31.7392 22.6489 31.5636 22.7074 31.3296C22.8245 30.92 22.9415 30.5105 23 30.1009L27.1543 18.9839C28.0319 17.8136 29.1436 16.8775 30.4309 16.2339C31.6596 15.5317 33.0638 15.1807 34.5266 15.1807C36.5745 15.1807 38.6223 15.8828 40.2606 17.17C43.0106 19.2179 44.5904 23.3136 44.5904 23.3136C44.8245 23.8402 44.9415 24.4253 44.9415 25.0105C44.9415 25.537 44.8245 26.0636 44.6489 26.5902C44.4149 27.0583 44.1223 27.5264 43.7713 27.936C43.4202 28.287 42.9521 28.6381 42.4255 28.8136C41.9574 28.9892 41.3723 29.1062 40.8457 29.1062C40.2606 29.1062 39.6755 28.9892 39.1489 28.6966C38.6223 28.4626 38.1543 28.053 37.7447 27.6434C37.7447 27.6434 37.7447 27.5849 37.6862 27.5849C37.4521 27.2339 37.2181 26.8243 37.0426 26.4147C36.8085 25.8881 36.5745 25.42 36.2819 24.9519C36.1064 24.7179 35.9894 24.4839 35.8138 24.2498C35.6968 24.0158 35.5213 23.8402 35.2872 23.6647C34.8777 23.3722 34.4096 23.2551 34 23.4892L33.9415 23.5477C33.4734 23.8402 33.1809 24.4839 32.9468 25.0105C32.3032 26.4147 31.9521 27.819 31.5426 29.3402C31.484 29.6328 31.4255 29.9253 31.367 30.2179L29.6117 35.8349L27.2128 41.1594C26.3351 42.2711 25.2234 43.2073 23.9362 43.7924C22.6489 44.436 21.2447 44.7285 19.8404 44.787C13.9309 44.9041 11.1809 39.5796 11.1809 39.5796C7.84574 34.0796 6.85106 26.8243 6.61702 24.4839C6.5 23.9573 6.5 23.6647 6.5 23.6647C6.5 22.9626 6.67553 22.2019 7.08511 21.6168C7.43617 20.9732 7.96277 20.4466 8.60638 20.0956C9.30851 19.7445 10.0106 19.6275 10.7713 19.6275C11.4734 19.6275 12.117 19.8615 12.7606 20.2126C13.2287 20.5051 13.6383 20.8562 13.9309 21.2658C14.4574 22.0264 14.633 23.0211 14.6915 23.9573C14.9255 26.0636 15.3351 28.1115 15.9202 30.1009Z" fill="url(#paint1_radial_1119_23631)"/><path d="M15.9202 30.1009C16.3883 31.6807 16.9734 33.2605 17.7926 34.7232C18.1436 35.3668 18.4947 36.0105 19.1383 36.42C19.2553 36.4785 19.3723 36.537 19.4894 36.5956C20.4255 36.7711 20.9521 36.0105 21.3032 35.3668C21.7713 34.2551 22.1809 33.1434 22.5319 31.9732C22.5904 31.7392 22.6489 31.5636 22.7074 31.3296C22.8245 30.92 22.9415 30.5105 23 30.1009L27.1543 18.9839C28.0319 17.8136 29.1436 16.8775 30.4309 16.2339C31.6596 15.5317 33.0638 15.1807 34.5266 15.1807C36.5745 15.1807 38.6223 15.8828 40.2606 17.17C43.0106 19.2179 44.5904 23.3136 44.5904 23.3136C44.8245 23.8402 44.9415 24.4253 44.9415 25.0105C44.9415 25.537 44.8245 26.0636 44.6489 26.5902C44.4149 27.0583 44.1223 27.5264 43.7713 27.936C43.4202 28.287 42.9521 28.6381 42.4255 28.8136C41.9574 28.9892 41.3723 29.1062 40.8457 29.1062C40.2606 29.1062 39.6755 28.9892 39.1489 28.6966C38.6223 28.4626 38.1543 28.053 37.7447 27.6434C37.7447 27.6434 37.7447 27.5849 37.6862 27.5849C37.4521 27.2339 37.2181 26.8243 37.0426 26.4147C36.8085 25.8881 36.5745 25.42 36.2819 24.9519C36.1064 24.7179 35.9894 24.4839 35.8138 24.2498C35.6968 24.0158 35.5213 23.8402 35.2872 23.6647C34.8777 23.3722 34.4096 23.2551 34 23.4892L33.9415 23.5477C33.4734 23.8402 33.1809 24.4839 32.9468 25.0105C32.3032 26.4147 31.9521 27.819 31.5426 29.3402C31.484 29.6328 31.4255 29.9253 31.367 30.2179L29.6117 35.8349L27.2128 41.1594C26.3351 42.2711 25.2234 43.2073 23.9362 43.7924C22.6489 44.436 21.2447 44.7285 19.8404 44.787C13.9309 44.9041 11.1809 39.5796 11.1809 39.5796C7.84574 34.0796 6.85106 26.8243 6.61702 24.4839C6.5 23.9573 6.5 23.6647 6.5 23.6647C6.5 22.9626 6.67553 22.2019 7.08511 21.6168C7.43617 20.9732 7.96277 20.4466 8.60638 20.0956C9.30851 19.7445 10.0106 19.6275 10.7713 19.6275C11.4734 19.6275 12.117 19.8615 12.7606 20.2126C13.2287 20.5051 13.6383 20.8562 13.9309 21.2658C14.4574 22.0264 14.633 23.0211 14.6915 23.9573C14.9255 26.0636 15.3351 28.1115 15.9202 30.1009Z" fill="url(#paint2_radial_1119_23631)"/><path d="M15.9202 30.1009C16.3883 31.6807 16.9734 33.2605 17.7926 34.7232C18.1436 35.3668 18.4947 36.0105 19.1383 36.42C19.2553 36.4785 19.3723 36.537 19.4894 36.5956C20.4255 36.7711 20.9521 36.0105 21.3032 35.3668C21.7713 34.2551 22.1809 33.1434 22.5319 31.9732C22.5904 31.7392 22.6489 31.5636 22.7074 31.3296C22.8245 30.92 22.9415 30.5105 23 30.1009L27.1543 18.9839C28.0319 17.8136 29.1436 16.8775 30.4309 16.2339C31.6596 15.5317 33.0638 15.1807 34.5266 15.1807C36.5745 15.1807 38.6223 15.8828 40.2606 17.17C43.0106 19.2179 44.5904 23.3136 44.5904 23.3136C44.8245 23.8402 44.9415 24.4253 44.9415 25.0105C44.9415 25.537 44.8245 26.0636 44.6489 26.5902C44.4149 27.0583 44.1223 27.5264 43.7713 27.936C43.4202 28.287 42.9521 28.6381 42.4255 28.8136C41.9574 28.9892 41.3723 29.1062 40.8457 29.1062C40.2606 29.1062 39.6755 28.9892 39.1489 28.6966C38.6223 28.4626 38.1543 28.053 37.7447 27.6434C37.7447 27.6434 37.7447 27.5849 37.6862 27.5849C37.4521 27.2339 37.2181 26.8243 37.0426 26.4147C36.8085 25.8881 36.5745 25.42 36.2819 24.9519C36.1064 24.7179 35.9894 24.4839 35.8138 24.2498C35.6968 24.0158 35.5213 23.8402 35.2872 23.6647C34.8777 23.3722 34.4096 23.2551 34 23.4892L33.9415 23.5477C33.4734 23.8402 33.1809 24.4839 32.9468 25.0105C32.3032 26.4147 31.9521 27.819 31.5426 29.3402C31.484 29.6328 31.4255 29.9253 31.367 30.2179L29.6117 35.8349L27.2128 41.1594C26.3351 42.2711 25.2234 43.2073 23.9362 43.7924C22.6489 44.436 21.2447 44.7285 19.8404 44.787C13.9309 44.9041 11.1809 39.5796 11.1809 39.5796C7.84574 34.0796 6.85106 26.8243 6.61702 24.4839C6.5 23.9573 6.5 23.6647 6.5 23.6647C6.5 22.9626 6.67553 22.2019 7.08511 21.6168C7.43617 20.9732 7.96277 20.4466 8.60638 20.0956C9.30851 19.7445 10.0106 19.6275 10.7713 19.6275C11.4734 19.6275 12.117 19.8615 12.7606 20.2126C13.2287 20.5051 13.6383 20.8562 13.9309 21.2658C14.4574 22.0264 14.633 23.0211 14.6915 23.9573C14.9255 26.0636 15.3351 28.1115 15.9202 30.1009Z" fill="url(#paint3_radial_1119_23631)"/><path d="M15.9202 30.1009C16.3883 31.6807 16.9734 33.2605 17.7926 34.7232C18.1436 35.3668 18.4947 36.0105 19.1383 36.42C19.2553 36.4785 19.3723 36.537 19.4894 36.5956C20.4255 36.7711 20.9521 36.0105 21.3032 35.3668C21.7713 34.2551 22.1809 33.1434 22.5319 31.9732C22.5904 31.7392 22.6489 31.5636 22.7074 31.3296C22.8245 30.92 22.9415 30.5105 23 30.1009L27.1543 18.9839C28.0319 17.8136 29.1436 16.8775 30.4309 16.2339C31.6596 15.5317 33.0638 15.1807 34.5266 15.1807C36.5745 15.1807 38.6223 15.8828 40.2606 17.17C43.0106 19.2179 44.5904 23.3136 44.5904 23.3136C44.8245 23.8402 44.9415 24.4253 44.9415 25.0105C44.9415 25.537 44.8245 26.0636 44.6489 26.5902C44.4149 27.0583 44.1223 27.5264 43.7713 27.936C43.4202 28.287 42.9521 28.6381 42.4255 28.8136C41.9574 28.9892 41.3723 29.1062 40.8457 29.1062C40.2606 29.1062 39.6755 28.9892 39.1489 28.6966C38.6223 28.4626 38.1543 28.053 37.7447 27.6434C37.7447 27.6434 37.7447 27.5849 37.6862 27.5849C37.4521 27.2339 37.2181 26.8243 37.0426 26.4147C36.8085 25.8881 36.5745 25.42 36.2819 24.9519C36.1064 24.7179 35.9894 24.4839 35.8138 24.2498C35.6968 24.0158 35.5213 23.8402 35.2872 23.6647C34.8777 23.3722 34.4096 23.2551 34 23.4892L33.9415 23.5477C33.4734 23.8402 33.1809 24.4839 32.9468 25.0105C32.3032 26.4147 31.9521 27.819 31.5426 29.3402C31.484 29.6328 31.4255 29.9253 31.367 30.2179L29.6117 35.8349L27.2128 41.1594C26.3351 42.2711 25.2234 43.2073 23.9362 43.7924C22.6489 44.436 21.2447 44.7285 19.8404 44.787C13.9309 44.9041 11.1809 39.5796 11.1809 39.5796C7.84574 34.0796 6.85106 26.8243 6.61702 24.4839C6.5 23.9573 6.5 23.6647 6.5 23.6647C6.5 22.9626 6.67553 22.2019 7.08511 21.6168C7.43617 20.9732 7.96277 20.4466 8.60638 20.0956C9.30851 19.7445 10.0106 19.6275 10.7713 19.6275C11.4734 19.6275 12.117 19.8615 12.7606 20.2126C13.2287 20.5051 13.6383 20.8562 13.9309 21.2658C14.4574 22.0264 14.633 23.0211 14.6915 23.9573C14.9255 26.0636 15.3351 28.1115 15.9202 30.1009Z" fill="url(#paint4_radial_1119_23631)"/><path d="M15.9202 30.1009C16.3883 31.6807 16.9734 33.2605 17.7926 34.7232C18.1436 35.3668 18.4947 36.0105 19.1383 36.42C19.2553 36.4785 19.3723 36.537 19.4894 36.5956C20.4255 36.7711 20.9521 36.0105 21.3032 35.3668C21.7713 34.2551 22.1809 33.1434 22.5319 31.9732C22.5904 31.7392 22.6489 31.5636 22.7074 31.3296C22.8245 30.92 22.9415 30.5105 23 30.1009L27.1543 18.9839C28.0319 17.8136 29.1436 16.8775 30.4309 16.2339C31.6596 15.5317 33.0638 15.1807 34.5266 15.1807C36.5745 15.1807 38.6223 15.8828 40.2606 17.17C43.0106 19.2179 44.5904 23.3136 44.5904 23.3136C44.8245 23.8402 44.9415 24.4253 44.9415 25.0105C44.9415 25.537 44.8245 26.0636 44.6489 26.5902C44.4149 27.0583 44.1223 27.5264 43.7713 27.936C43.4202 28.287 42.9521 28.6381 42.4255 28.8136C41.9574 28.9892 41.3723 29.1062 40.8457 29.1062C40.2606 29.1062 39.6755 28.9892 39.1489 28.6966C38.6223 28.4626 38.1543 28.053 37.7447 27.6434C37.7447 27.6434 37.7447 27.5849 37.6862 27.5849C37.4521 27.2339 37.2181 26.8243 37.0426 26.4147C36.8085 25.8881 36.5745 25.42 36.2819 24.9519C36.1064 24.7179 35.9894 24.4839 35.8138 24.2498C35.6968 24.0158 35.5213 23.8402 35.2872 23.6647C34.8777 23.3722 34.4096 23.2551 34 23.4892L33.9415 23.5477C33.4734 23.8402 33.1809 24.4839 32.9468 25.0105C32.3032 26.4147 31.9521 27.819 31.5426 29.3402C31.484 29.6328 31.4255 29.9253 31.367 30.2179L29.6117 35.8349L27.2128 41.1594C26.3351 42.2711 25.2234 43.2073 23.9362 43.7924C22.6489 44.436 21.2447 44.7285 19.8404 44.787C13.9309 44.9041 11.1809 39.5796 11.1809 39.5796C7.84574 34.0796 6.85106 26.8243 6.61702 24.4839C6.5 23.9573 6.5 23.6647 6.5 23.6647C6.5 22.9626 6.67553 22.2019 7.08511 21.6168C7.43617 20.9732 7.96277 20.4466 8.60638 20.0956C9.30851 19.7445 10.0106 19.6275 10.7713 19.6275C11.4734 19.6275 12.117 19.8615 12.7606 20.2126C13.2287 20.5051 13.6383 20.8562 13.9309 21.2658C14.4574 22.0264 14.633 23.0211 14.6915 23.9573C14.9255 26.0636 15.3351 28.1115 15.9202 30.1009Z" fill="url(#paint5_radial_1119_23631)"/><path d="M15.9202 30.1009C16.3883 31.6807 16.9734 33.2605 17.7926 34.7232C18.1436 35.3668 18.4947 36.0105 19.1383 36.42C19.2553 36.4785 19.3723 36.537 19.4894 36.5956C20.4255 36.7711 20.9521 36.0105 21.3032 35.3668C21.7713 34.2551 22.1809 33.1434 22.5319 31.9732C22.5904 31.7392 22.6489 31.5636 22.7074 31.3296C22.8245 30.92 22.9415 30.5105 23 30.1009L27.1543 18.9839C28.0319 17.8136 29.1436 16.8775 30.4309 16.2339C31.6596 15.5317 33.0638 15.1807 34.5266 15.1807C36.5745 15.1807 38.6223 15.8828 40.2606 17.17C43.0106 19.2179 44.5904 23.3136 44.5904 23.3136C44.8245 23.8402 44.9415 24.4253 44.9415 25.0105C44.9415 25.537 44.8245 26.0636 44.6489 26.5902C44.4149 27.0583 44.1223 27.5264 43.7713 27.936C43.4202 28.287 42.9521 28.6381 42.4255 28.8136C41.9574 28.9892 41.3723 29.1062 40.8457 29.1062C40.2606 29.1062 39.6755 28.9892 39.1489 28.6966C38.6223 28.4626 38.1543 28.053 37.7447 27.6434C37.7447 27.6434 37.7447 27.5849 37.6862 27.5849C37.4521 27.2339 37.2181 26.8243 37.0426 26.4147C36.8085 25.8881 36.5745 25.42 36.2819 24.9519C36.1064 24.7179 35.9894 24.4839 35.8138 24.2498C35.6968 24.0158 35.5213 23.8402 35.2872 23.6647C34.8777 23.3722 34.4096 23.2551 34 23.4892L33.9415 23.5477C33.4734 23.8402 33.1809 24.4839 32.9468 25.0105C32.3032 26.4147 31.9521 27.819 31.5426 29.3402C31.484 29.6328 31.4255 29.9253 31.367 30.2179L29.6117 35.8349L27.2128 41.1594C26.3351 42.2711 25.2234 43.2073 23.9362 43.7924C22.6489 44.436 21.2447 44.7285 19.8404 44.787C13.9309 44.9041 11.1809 39.5796 11.1809 39.5796C7.84574 34.0796 6.85106 26.8243 6.61702 24.4839C6.5 23.9573 6.5 23.6647 6.5 23.6647C6.5 22.9626 6.67553 22.2019 7.08511 21.6168C7.43617 20.9732 7.96277 20.4466 8.60638 20.0956C9.30851 19.7445 10.0106 19.6275 10.7713 19.6275C11.4734 19.6275 12.117 19.8615 12.7606 20.2126C13.2287 20.5051 13.6383 20.8562 13.9309 21.2658C14.4574 22.0264 14.633 23.0211 14.6915 23.9573C14.9255 26.0636 15.3351 28.1115 15.9202 30.1009Z" fill="url(#paint6_radial_1119_23631)"/><path d="M15.9202 30.1009C16.3883 31.6807 16.9734 33.2605 17.7926 34.7232C18.1436 35.3668 18.4947 36.0105 19.1383 36.42C19.2553 36.4785 19.3723 36.537 19.4894 36.5956C20.4255 36.7711 20.9521 36.0105 21.3032 35.3668C21.7713 34.2551 22.1809 33.1434 22.5319 31.9732C22.5904 31.7392 22.6489 31.5636 22.7074 31.3296C22.8245 30.92 22.9415 30.5105 23 30.1009L27.1543 18.9839C28.0319 17.8136 29.1436 16.8775 30.4309 16.2339C31.6596 15.5317 33.0638 15.1807 34.5266 15.1807C36.5745 15.1807 38.6223 15.8828 40.2606 17.17C43.0106 19.2179 44.5904 23.3136 44.5904 23.3136C44.8245 23.8402 44.9415 24.4253 44.9415 25.0105C44.9415 25.537 44.8245 26.0636 44.6489 26.5902C44.4149 27.0583 44.1223 27.5264 43.7713 27.936C43.4202 28.287 42.9521 28.6381 42.4255 28.8136C41.9574 28.9892 41.3723 29.1062 40.8457 29.1062C40.2606 29.1062 39.6755 28.9892 39.1489 28.6966C38.6223 28.4626 38.1543 28.053 37.7447 27.6434C37.7447 27.6434 37.7447 27.5849 37.6862 27.5849C37.4521 27.2339 37.2181 26.8243 37.0426 26.4147C36.8085 25.8881 36.5745 25.42 36.2819 24.9519C36.1064 24.7179 35.9894 24.4839 35.8138 24.2498C35.6968 24.0158 35.5213 23.8402 35.2872 23.6647C34.8777 23.3722 34.4096 23.2551 34 23.4892L33.9415 23.5477C33.4734 23.8402 33.1809 24.4839 32.9468 25.0105C32.3032 26.4147 31.9521 27.819 31.5426 29.3402C31.484 29.6328 31.4255 29.9253 31.367 30.2179L29.6117 35.8349L27.2128 41.1594C26.3351 42.2711 25.2234 43.2073 23.9362 43.7924C22.6489 44.436 21.2447 44.7285 19.8404 44.787C13.9309 44.9041 11.1809 39.5796 11.1809 39.5796C7.84574 34.0796 6.85106 26.8243 6.61702 24.4839C6.5 23.9573 6.5 23.6647 6.5 23.6647C6.5 22.9626 6.67553 22.2019 7.08511 21.6168C7.43617 20.9732 7.96277 20.4466 8.60638 20.0956C9.30851 19.7445 10.0106 19.6275 10.7713 19.6275C11.4734 19.6275 12.117 19.8615 12.7606 20.2126C13.2287 20.5051 13.6383 20.8562 13.9309 21.2658C14.4574 22.0264 14.633 23.0211 14.6915 23.9573C14.9255 26.0636 15.3351 28.1115 15.9202 30.1009Z" fill="url(#paint7_radial_1119_23631)"/><path d="M15.9202 30.1009C16.3883 31.6807 16.9734 33.2605 17.7926 34.7232C18.1436 35.3668 18.4947 36.0105 19.1383 36.42C19.2553 36.4785 19.3723 36.537 19.4894 36.5956C20.4255 36.7711 20.9521 36.0105 21.3032 35.3668C21.7713 34.2551 22.1809 33.1434 22.5319 31.9732C22.5904 31.7392 22.6489 31.5636 22.7074 31.3296C22.8245 30.92 22.9415 30.5105 23 30.1009L27.1543 18.9839C28.0319 17.8136 29.1436 16.8775 30.4309 16.2339C31.6596 15.5317 33.0638 15.1807 34.5266 15.1807C36.5745 15.1807 38.6223 15.8828 40.2606 17.17C43.0106 19.2179 44.5904 23.3136 44.5904 23.3136C44.8245 23.8402 44.9415 24.4253 44.9415 25.0105C44.9415 25.537 44.8245 26.0636 44.6489 26.5902C44.4149 27.0583 44.1223 27.5264 43.7713 27.936C43.4202 28.287 42.9521 28.6381 42.4255 28.8136C41.9574 28.9892 41.3723 29.1062 40.8457 29.1062C40.2606 29.1062 39.6755 28.9892 39.1489 28.6966C38.6223 28.4626 38.1543 28.053 37.7447 27.6434C37.7447 27.6434 37.7447 27.5849 37.6862 27.5849C37.4521 27.2339 37.2181 26.8243 37.0426 26.4147C36.8085 25.8881 36.5745 25.42 36.2819 24.9519C36.1064 24.7179 35.9894 24.4839 35.8138 24.2498C35.6968 24.0158 35.5213 23.8402 35.2872 23.6647C34.8777 23.3722 34.4096 23.2551 34 23.4892L33.9415 23.5477C33.4734 23.8402 33.1809 24.4839 32.9468 25.0105C32.3032 26.4147 31.9521 27.819 31.5426 29.3402C31.484 29.6328 31.4255 29.9253 31.367 30.2179L29.6117 35.8349L27.2128 41.1594C26.3351 42.2711 25.2234 43.2073 23.9362 43.7924C22.6489 44.436 21.2447 44.7285 19.8404 44.787C13.9309 44.9041 11.1809 39.5796 11.1809 39.5796C7.84574 34.0796 6.85106 26.8243 6.61702 24.4839C6.5 23.9573 6.5 23.6647 6.5 23.6647C6.5 22.9626 6.67553 22.2019 7.08511 21.6168C7.43617 20.9732 7.96277 20.4466 8.60638 20.0956C9.30851 19.7445 10.0106 19.6275 10.7713 19.6275C11.4734 19.6275 12.117 19.8615 12.7606 20.2126C13.2287 20.5051 13.6383 20.8562 13.9309 21.2658C14.4574 22.0264 14.633 23.0211 14.6915 23.9573C14.9255 26.0636 15.3351 28.1115 15.9202 30.1009Z" fill="url(#paint8_radial_1119_23631)"/><path d="M15.9202 30.1009C16.3883 31.6807 16.9734 33.2605 17.7926 34.7232C18.1436 35.3668 18.4947 36.0105 19.1383 36.42C19.2553 36.4785 19.3723 36.537 19.4894 36.5956C20.4255 36.7711 20.9521 36.0105 21.3032 35.3668C21.7713 34.2551 22.1809 33.1434 22.5319 31.9732C22.5904 31.7392 22.6489 31.5636 22.7074 31.3296C22.8245 30.92 22.9415 30.5105 23 30.1009L27.1543 18.9839C28.0319 17.8136 29.1436 16.8775 30.4309 16.2339C31.6596 15.5317 33.0638 15.1807 34.5266 15.1807C36.5745 15.1807 38.6223 15.8828 40.2606 17.17C43.0106 19.2179 44.5904 23.3136 44.5904 23.3136C44.8245 23.8402 44.9415 24.4253 44.9415 25.0105C44.9415 25.537 44.8245 26.0636 44.6489 26.5902C44.4149 27.0583 44.1223 27.5264 43.7713 27.936C43.4202 28.287 42.9521 28.6381 42.4255 28.8136C41.9574 28.9892 41.3723 29.1062 40.8457 29.1062C40.2606 29.1062 39.6755 28.9892 39.1489 28.6966C38.6223 28.4626 38.1543 28.053 37.7447 27.6434C37.7447 27.6434 37.7447 27.5849 37.6862 27.5849C37.4521 27.2339 37.2181 26.8243 37.0426 26.4147C36.8085 25.8881 36.5745 25.42 36.2819 24.9519C36.1064 24.7179 35.9894 24.4839 35.8138 24.2498C35.6968 24.0158 35.5213 23.8402 35.2872 23.6647C34.8777 23.3722 34.4096 23.2551 34 23.4892L33.9415 23.5477C33.4734 23.8402 33.1809 24.4839 32.9468 25.0105C32.3032 26.4147 31.9521 27.819 31.5426 29.3402C31.484 29.6328 31.4255 29.9253 31.367 30.2179L29.6117 35.8349L27.2128 41.1594C26.3351 42.2711 25.2234 43.2073 23.9362 43.7924C22.6489 44.436 21.2447 44.7285 19.8404 44.787C13.9309 44.9041 11.1809 39.5796 11.1809 39.5796C7.84574 34.0796 6.85106 26.8243 6.61702 24.4839C6.5 23.9573 6.5 23.6647 6.5 23.6647C6.5 22.9626 6.67553 22.2019 7.08511 21.6168C7.43617 20.9732 7.96277 20.4466 8.60638 20.0956C9.30851 19.7445 10.0106 19.6275 10.7713 19.6275C11.4734 19.6275 12.117 19.8615 12.7606 20.2126C13.2287 20.5051 13.6383 20.8562 13.9309 21.2658C14.4574 22.0264 14.633 23.0211 14.6915 23.9573C14.9255 26.0636 15.3351 28.1115 15.9202 30.1009Z" fill="url(#paint9_radial_1119_23631)"/><path d="M15.9202 30.1009C16.3883 31.6807 16.9734 33.2605 17.7926 34.7232C18.1436 35.3668 18.4947 36.0105 19.1383 36.42C19.2553 36.4785 19.3723 36.537 19.4894 36.5956C20.4255 36.7711 20.9521 36.0105 21.3032 35.3668C21.7713 34.2551 22.1809 33.1434 22.5319 31.9732C22.5904 31.7392 22.6489 31.5636 22.7074 31.3296C22.8245 30.92 22.9415 30.5105 23 30.1009L27.1543 18.9839C28.0319 17.8136 29.1436 16.8775 30.4309 16.2339C31.6596 15.5317 33.0638 15.1807 34.5266 15.1807C36.5745 15.1807 38.6223 15.8828 40.2606 17.17C43.0106 19.2179 44.5904 23.3136 44.5904 23.3136C44.8245 23.8402 44.9415 24.4253 44.9415 25.0105C44.9415 25.537 44.8245 26.0636 44.6489 26.5902C44.4149 27.0583 44.1223 27.5264 43.7713 27.936C43.4202 28.287 42.9521 28.6381 42.4255 28.8136C41.9574 28.9892 41.3723 29.1062 40.8457 29.1062C40.2606 29.1062 39.6755 28.9892 39.1489 28.6966C38.6223 28.4626 38.1543 28.053 37.7447 27.6434C37.7447 27.6434 37.7447 27.5849 37.6862 27.5849C37.4521 27.2339 37.2181 26.8243 37.0426 26.4147C36.8085 25.8881 36.5745 25.42 36.2819 24.9519C36.1064 24.7179 35.9894 24.4839 35.8138 24.2498C35.6968 24.0158 35.5213 23.8402 35.2872 23.6647C34.8777 23.3722 34.4096 23.2551 34 23.4892L33.9415 23.5477C33.4734 23.8402 33.1809 24.4839 32.9468 25.0105C32.3032 26.4147 31.9521 27.819 31.5426 29.3402C31.484 29.6328 31.4255 29.9253 31.367 30.2179L29.6117 35.8349L27.2128 41.1594C26.3351 42.2711 25.2234 43.2073 23.9362 43.7924C22.6489 44.436 21.2447 44.7285 19.8404 44.787C13.9309 44.9041 11.1809 39.5796 11.1809 39.5796C7.84574 34.0796 6.85106 26.8243 6.61702 24.4839C6.5 23.9573 6.5 23.6647 6.5 23.6647C6.5 22.9626 6.67553 22.2019 7.08511 21.6168C7.43617 20.9732 7.96277 20.4466 8.60638 20.0956C9.30851 19.7445 10.0106 19.6275 10.7713 19.6275C11.4734 19.6275 12.117 19.8615 12.7606 20.2126C13.2287 20.5051 13.6383 20.8562 13.9309 21.2658C14.4574 22.0264 14.633 23.0211 14.6915 23.9573C14.9255 26.0636 15.3351 28.1115 15.9202 30.1009Z" fill="url(#paint10_radial_1119_23631)"/><path d="M15.9202 30.1009C16.3883 31.6807 16.9734 33.2605 17.7926 34.7232C18.1436 35.3668 18.4947 36.0105 19.1383 36.42C19.2553 36.4785 19.3723 36.537 19.4894 36.5956C20.4255 36.7711 20.9521 36.0105 21.3032 35.3668C21.7713 34.2551 22.1809 33.1434 22.5319 31.9732C22.5904 31.7392 22.6489 31.5636 22.7074 31.3296C22.8245 30.92 22.9415 30.5105 23 30.1009L27.1543 18.9839C28.0319 17.8136 29.1436 16.8775 30.4309 16.2339C31.6596 15.5317 33.0638 15.1807 34.5266 15.1807C36.5745 15.1807 38.6223 15.8828 40.2606 17.17C43.0106 19.2179 44.5904 23.3136 44.5904 23.3136C44.8245 23.8402 44.9415 24.4253 44.9415 25.0105C44.9415 25.537 44.8245 26.0636 44.6489 26.5902C44.4149 27.0583 44.1223 27.5264 43.7713 27.936C43.4202 28.287 42.9521 28.6381 42.4255 28.8136C41.9574 28.9892 41.3723 29.1062 40.8457 29.1062C40.2606 29.1062 39.6755 28.9892 39.1489 28.6966C38.6223 28.4626 38.1543 28.053 37.7447 27.6434C37.7447 27.6434 37.7447 27.5849 37.6862 27.5849C37.4521 27.2339 37.2181 26.8243 37.0426 26.4147C36.8085 25.8881 36.5745 25.42 36.2819 24.9519C36.1064 24.7179 35.9894 24.4839 35.8138 24.2498C35.6968 24.0158 35.5213 23.8402 35.2872 23.6647C34.8777 23.3722 34.4096 23.2551 34 23.4892L33.9415 23.5477C33.4734 23.8402 33.1809 24.4839 32.9468 25.0105C32.3032 26.4147 31.9521 27.819 31.5426 29.3402C31.484 29.6328 31.4255 29.9253 31.367 30.2179L29.6117 35.8349L27.2128 41.1594C26.3351 42.2711 25.2234 43.2073 23.9362 43.7924C22.6489 44.436 21.2447 44.7285 19.8404 44.787C13.9309 44.9041 11.1809 39.5796 11.1809 39.5796C7.84574 34.0796 6.85106 26.8243 6.61702 24.4839C6.5 23.9573 6.5 23.6647 6.5 23.6647C6.5 22.9626 6.67553 22.2019 7.08511 21.6168C7.43617 20.9732 7.96277 20.4466 8.60638 20.0956C9.30851 19.7445 10.0106 19.6275 10.7713 19.6275C11.4734 19.6275 12.117 19.8615 12.7606 20.2126C13.2287 20.5051 13.6383 20.8562 13.9309 21.2658C14.4574 22.0264 14.633 23.0211 14.6915 23.9573C14.9255 26.0636 15.3351 28.1115 15.9202 30.1009Z" fill="url(#paint11_radial_1119_23631)"/><path d="M15.9202 30.1009C16.3883 31.6807 16.9734 33.2605 17.7926 34.7232C18.1436 35.3668 18.4947 36.0105 19.1383 36.42C19.2553 36.4785 19.3723 36.537 19.4894 36.5956C20.4255 36.7711 20.9521 36.0105 21.3032 35.3668C21.7713 34.2551 22.1809 33.1434 22.5319 31.9732C22.5904 31.7392 22.6489 31.5636 22.7074 31.3296C22.8245 30.92 22.9415 30.5105 23 30.1009L27.1543 18.9839C28.0319 17.8136 29.1436 16.8775 30.4309 16.2339C31.6596 15.5317 33.0638 15.1807 34.5266 15.1807C36.5745 15.1807 38.6223 15.8828 40.2606 17.17C43.0106 19.2179 44.5904 23.3136 44.5904 23.3136C44.8245 23.8402 44.9415 24.4253 44.9415 25.0105C44.9415 25.537 44.8245 26.0636 44.6489 26.5902C44.4149 27.0583 44.1223 27.5264 43.7713 27.936C43.4202 28.287 42.9521 28.6381 42.4255 28.8136C41.9574 28.9892 41.3723 29.1062 40.8457 29.1062C40.2606 29.1062 39.6755 28.9892 39.1489 28.6966C38.6223 28.4626 38.1543 28.053 37.7447 27.6434C37.7447 27.6434 37.7447 27.5849 37.6862 27.5849C37.4521 27.2339 37.2181 26.8243 37.0426 26.4147C36.8085 25.8881 36.5745 25.42 36.2819 24.9519C36.1064 24.7179 35.9894 24.4839 35.8138 24.2498C35.6968 24.0158 35.5213 23.8402 35.2872 23.6647C34.8777 23.3722 34.4096 23.2551 34 23.4892L33.9415 23.5477C33.4734 23.8402 33.1809 24.4839 32.9468 25.0105C32.3032 26.4147 31.9521 27.819 31.5426 29.3402C31.484 29.6328 31.4255 29.9253 31.367 30.2179L29.6117 35.8349L27.2128 41.1594C26.3351 42.2711 25.2234 43.2073 23.9362 43.7924C22.6489 44.436 21.2447 44.7285 19.8404 44.787C13.9309 44.9041 11.1809 39.5796 11.1809 39.5796C7.84574 34.0796 6.85106 26.8243 6.61702 24.4839C6.5 23.9573 6.5 23.6647 6.5 23.6647C6.5 22.9626 6.67553 22.2019 7.08511 21.6168C7.43617 20.9732 7.96277 20.4466 8.60638 20.0956C9.30851 19.7445 10.0106 19.6275 10.7713 19.6275C11.4734 19.6275 12.117 19.8615 12.7606 20.2126C13.2287 20.5051 13.6383 20.8562 13.9309 21.2658C14.4574 22.0264 14.633 23.0211 14.6915 23.9573C14.9255 26.0636 15.3351 28.1115 15.9202 30.1009Z" fill="url(#paint12_radial_1119_23631)"/><path d="M15.9202 30.1009C16.3883 31.6807 16.9734 33.2605 17.7926 34.7232C18.1436 35.3668 18.4947 36.0105 19.1383 36.42C19.2553 36.4785 19.3723 36.537 19.4894 36.5956C20.4255 36.7711 20.9521 36.0105 21.3032 35.3668C21.7713 34.2551 22.1809 33.1434 22.5319 31.9732C22.5904 31.7392 22.6489 31.5636 22.7074 31.3296C22.8245 30.92 22.9415 30.5105 23 30.1009L27.1543 18.9839C28.0319 17.8136 29.1436 16.8775 30.4309 16.2339C31.6596 15.5317 33.0638 15.1807 34.5266 15.1807C36.5745 15.1807 38.6223 15.8828 40.2606 17.17C43.0106 19.2179 44.5904 23.3136 44.5904 23.3136C44.8245 23.8402 44.9415 24.4253 44.9415 25.0105C44.9415 25.537 44.8245 26.0636 44.6489 26.5902C44.4149 27.0583 44.1223 27.5264 43.7713 27.936C43.4202 28.287 42.9521 28.6381 42.4255 28.8136C41.9574 28.9892 41.3723 29.1062 40.8457 29.1062C40.2606 29.1062 39.6755 28.9892 39.1489 28.6966C38.6223 28.4626 38.1543 28.053 37.7447 27.6434C37.7447 27.6434 37.7447 27.5849 37.6862 27.5849C37.4521 27.2339 37.2181 26.8243 37.0426 26.4147C36.8085 25.8881 36.5745 25.42 36.2819 24.9519C36.1064 24.7179 35.9894 24.4839 35.8138 24.2498C35.6968 24.0158 35.5213 23.8402 35.2872 23.6647C34.8777 23.3722 34.4096 23.2551 34 23.4892L33.9415 23.5477C33.4734 23.8402 33.1809 24.4839 32.9468 25.0105C32.3032 26.4147 31.9521 27.819 31.5426 29.3402C31.484 29.6328 31.4255 29.9253 31.367 30.2179L29.6117 35.8349L27.2128 41.1594C26.3351 42.2711 25.2234 43.2073 23.9362 43.7924C22.6489 44.436 21.2447 44.7285 19.8404 44.787C13.9309 44.9041 11.1809 39.5796 11.1809 39.5796C7.84574 34.0796 6.85106 26.8243 6.61702 24.4839C6.5 23.9573 6.5 23.6647 6.5 23.6647C6.5 22.9626 6.67553 22.2019 7.08511 21.6168C7.43617 20.9732 7.96277 20.4466 8.60638 20.0956C9.30851 19.7445 10.0106 19.6275 10.7713 19.6275C11.4734 19.6275 12.117 19.8615 12.7606 20.2126C13.2287 20.5051 13.6383 20.8562 13.9309 21.2658C14.4574 22.0264 14.633 23.0211 14.6915 23.9573C14.9255 26.0636 15.3351 28.1115 15.9202 30.1009Z" fill="url(#paint13_radial_1119_23631)"/><path d="M15.9202 30.1009C16.3883 31.6807 16.9734 33.2605 17.7926 34.7232C18.1436 35.3668 18.4947 36.0105 19.1383 36.42C19.2553 36.4785 19.3723 36.537 19.4894 36.5956C20.4255 36.7711 20.9521 36.0105 21.3032 35.3668C21.7713 34.2551 22.1809 33.1434 22.5319 31.9732C22.5904 31.7392 22.6489 31.5636 22.7074 31.3296C22.8245 30.92 22.9415 30.5105 23 30.1009L27.1543 18.9839C28.0319 17.8136 29.1436 16.8775 30.4309 16.2339C31.6596 15.5317 33.0638 15.1807 34.5266 15.1807C36.5745 15.1807 38.6223 15.8828 40.2606 17.17C43.0106 19.2179 44.5904 23.3136 44.5904 23.3136C44.8245 23.8402 44.9415 24.4253 44.9415 25.0105C44.9415 25.537 44.8245 26.0636 44.6489 26.5902C44.4149 27.0583 44.1223 27.5264 43.7713 27.936C43.4202 28.287 42.9521 28.6381 42.4255 28.8136C41.9574 28.9892 41.3723 29.1062 40.8457 29.1062C40.2606 29.1062 39.6755 28.9892 39.1489 28.6966C38.6223 28.4626 38.1543 28.053 37.7447 27.6434C37.7447 27.6434 37.7447 27.5849 37.6862 27.5849C37.4521 27.2339 37.2181 26.8243 37.0426 26.4147C36.8085 25.8881 36.5745 25.42 36.2819 24.9519C36.1064 24.7179 35.9894 24.4839 35.8138 24.2498C35.6968 24.0158 35.5213 23.8402 35.2872 23.6647C34.8777 23.3722 34.4096 23.2551 34 23.4892L33.9415 23.5477C33.4734 23.8402 33.1809 24.4839 32.9468 25.0105C32.3032 26.4147 31.9521 27.819 31.5426 29.3402C31.484 29.6328 31.4255 29.9253 31.367 30.2179L29.6117 35.8349L27.2128 41.1594C26.3351 42.2711 25.2234 43.2073 23.9362 43.7924C22.6489 44.436 21.2447 44.7285 19.8404 44.787C13.9309 44.9041 11.1809 39.5796 11.1809 39.5796C7.84574 34.0796 6.85106 26.8243 6.61702 24.4839C6.5 23.9573 6.5 23.6647 6.5 23.6647C6.5 22.9626 6.67553 22.2019 7.08511 21.6168C7.43617 20.9732 7.96277 20.4466 8.60638 20.0956C9.30851 19.7445 10.0106 19.6275 10.7713 19.6275C11.4734 19.6275 12.117 19.8615 12.7606 20.2126C13.2287 20.5051 13.6383 20.8562 13.9309 21.2658C14.4574 22.0264 14.633 23.0211 14.6915 23.9573C14.9255 26.0636 15.3351 28.1115 15.9202 30.1009Z" fill="url(#paint14_radial_1119_23631)"/><path d="M15.9202 30.1009C16.3883 31.6807 16.9734 33.2605 17.7926 34.7232C18.1436 35.3668 18.4947 36.0105 19.1383 36.42C19.2553 36.4785 19.3723 36.537 19.4894 36.5956C20.4255 36.7711 20.9521 36.0105 21.3032 35.3668C21.7713 34.2551 22.1809 33.1434 22.5319 31.9732C22.5904 31.7392 22.6489 31.5636 22.7074 31.3296C22.8245 30.92 22.9415 30.5105 23 30.1009L27.1543 18.9839C28.0319 17.8136 29.1436 16.8775 30.4309 16.2339C31.6596 15.5317 33.0638 15.1807 34.5266 15.1807C36.5745 15.1807 38.6223 15.8828 40.2606 17.17C43.0106 19.2179 44.5904 23.3136 44.5904 23.3136C44.8245 23.8402 44.9415 24.4253 44.9415 25.0105C44.9415 25.537 44.8245 26.0636 44.6489 26.5902C44.4149 27.0583 44.1223 27.5264 43.7713 27.936C43.4202 28.287 42.9521 28.6381 42.4255 28.8136C41.9574 28.9892 41.3723 29.1062 40.8457 29.1062C40.2606 29.1062 39.6755 28.9892 39.1489 28.6966C38.6223 28.4626 38.1543 28.053 37.7447 27.6434C37.7447 27.6434 37.7447 27.5849 37.6862 27.5849C37.4521 27.2339 37.2181 26.8243 37.0426 26.4147C36.8085 25.8881 36.5745 25.42 36.2819 24.9519C36.1064 24.7179 35.9894 24.4839 35.8138 24.2498C35.6968 24.0158 35.5213 23.8402 35.2872 23.6647C34.8777 23.3722 34.4096 23.2551 34 23.4892L33.9415 23.5477C33.4734 23.8402 33.1809 24.4839 32.9468 25.0105C32.3032 26.4147 31.9521 27.819 31.5426 29.3402C31.484 29.6328 31.4255 29.9253 31.367 30.2179L29.6117 35.8349L27.2128 41.1594C26.3351 42.2711 25.2234 43.2073 23.9362 43.7924C22.6489 44.436 21.2447 44.7285 19.8404 44.787C13.9309 44.9041 11.1809 39.5796 11.1809 39.5796C7.84574 34.0796 6.85106 26.8243 6.61702 24.4839C6.5 23.9573 6.5 23.6647 6.5 23.6647C6.5 22.9626 6.67553 22.2019 7.08511 21.6168C7.43617 20.9732 7.96277 20.4466 8.60638 20.0956C9.30851 19.7445 10.0106 19.6275 10.7713 19.6275C11.4734 19.6275 12.117 19.8615 12.7606 20.2126C13.2287 20.5051 13.6383 20.8562 13.9309 21.2658C14.4574 22.0264 14.633 23.0211 14.6915 23.9573C14.9255 26.0636 15.3351 28.1115 15.9202 30.1009Z" fill="url(#paint15_radial_1119_23631)"/><path d="M15.9202 30.1009C16.3883 31.6807 16.9734 33.2605 17.7926 34.7232C18.1436 35.3668 18.4947 36.0105 19.1383 36.42C19.2553 36.4785 19.3723 36.537 19.4894 36.5956C20.4255 36.7711 20.9521 36.0105 21.3032 35.3668C21.7713 34.2551 22.1809 33.1434 22.5319 31.9732C22.5904 31.7392 22.6489 31.5636 22.7074 31.3296C22.8245 30.92 22.9415 30.5105 23 30.1009L27.1543 18.9839C28.0319 17.8136 29.1436 16.8775 30.4309 16.2339C31.6596 15.5317 33.0638 15.1807 34.5266 15.1807C36.5745 15.1807 38.6223 15.8828 40.2606 17.17C43.0106 19.2179 44.5904 23.3136 44.5904 23.3136C44.8245 23.8402 44.9415 24.4253 44.9415 25.0105C44.9415 25.537 44.8245 26.0636 44.6489 26.5902C44.4149 27.0583 44.1223 27.5264 43.7713 27.936C43.4202 28.287 42.9521 28.6381 42.4255 28.8136C41.9574 28.9892 41.3723 29.1062 40.8457 29.1062C40.2606 29.1062 39.6755 28.9892 39.1489 28.6966C38.6223 28.4626 38.1543 28.053 37.7447 27.6434C37.7447 27.6434 37.7447 27.5849 37.6862 27.5849C37.4521 27.2339 37.2181 26.8243 37.0426 26.4147C36.8085 25.8881 36.5745 25.42 36.2819 24.9519C36.1064 24.7179 35.9894 24.4839 35.8138 24.2498C35.6968 24.0158 35.5213 23.8402 35.2872 23.6647C34.8777 23.3722 34.4096 23.2551 34 23.4892L33.9415 23.5477C33.4734 23.8402 33.1809 24.4839 32.9468 25.0105C32.3032 26.4147 31.9521 27.819 31.5426 29.3402C31.484 29.6328 31.4255 29.9253 31.367 30.2179L29.6117 35.8349L27.2128 41.1594C26.3351 42.2711 25.2234 43.2073 23.9362 43.7924C22.6489 44.436 21.2447 44.7285 19.8404 44.787C13.9309 44.9041 11.1809 39.5796 11.1809 39.5796C7.84574 34.0796 6.85106 26.8243 6.61702 24.4839C6.5 23.9573 6.5 23.6647 6.5 23.6647C6.5 22.9626 6.67553 22.2019 7.08511 21.6168C7.43617 20.9732 7.96277 20.4466 8.60638 20.0956C9.30851 19.7445 10.0106 19.6275 10.7713 19.6275C11.4734 19.6275 12.117 19.8615 12.7606 20.2126C13.2287 20.5051 13.6383 20.8562 13.9309 21.2658C14.4574 22.0264 14.633 23.0211 14.6915 23.9573C14.9255 26.0636 15.3351 28.1115 15.9202 30.1009Z" fill="url(#paint16_linear_1119_23631)"/><path d="M15.9202 30.1009C16.3883 31.6807 16.9734 33.2605 17.7926 34.7232C18.1436 35.3668 18.4947 36.0105 19.1383 36.42C19.2553 36.4785 19.3723 36.537 19.4894 36.5956C20.4255 36.7711 20.9521 36.0105 21.3032 35.3668C21.7713 34.2551 22.1809 33.1434 22.5319 31.9732C22.5904 31.7392 22.6489 31.5636 22.7074 31.3296C22.8245 30.92 22.9415 30.5105 23 30.1009L27.1543 18.9839C28.0319 17.8136 29.1436 16.8775 30.4309 16.2339C31.6596 15.5317 33.0638 15.1807 34.5266 15.1807C36.5745 15.1807 38.6223 15.8828 40.2606 17.17C43.0106 19.2179 44.5904 23.3136 44.5904 23.3136C44.8245 23.8402 44.9415 24.4253 44.9415 25.0105C44.9415 25.537 44.8245 26.0636 44.6489 26.5902C44.4149 27.0583 44.1223 27.5264 43.7713 27.936C43.4202 28.287 42.9521 28.6381 42.4255 28.8136C41.9574 28.9892 41.3723 29.1062 40.8457 29.1062C40.2606 29.1062 39.6755 28.9892 39.1489 28.6966C38.6223 28.4626 38.1543 28.053 37.7447 27.6434C37.7447 27.6434 37.7447 27.5849 37.6862 27.5849C37.4521 27.2339 37.2181 26.8243 37.0426 26.4147C36.8085 25.8881 36.5745 25.42 36.2819 24.9519C36.1064 24.7179 35.9894 24.4839 35.8138 24.2498C35.6968 24.0158 35.5213 23.8402 35.2872 23.6647C34.8777 23.3722 34.4096 23.2551 34 23.4892L33.9415 23.5477C33.4734 23.8402 33.1809 24.4839 32.9468 25.0105C32.3032 26.4147 31.9521 27.819 31.5426 29.3402C31.484 29.6328 31.4255 29.9253 31.367 30.2179L29.6117 35.8349L27.2128 41.1594C26.3351 42.2711 25.2234 43.2073 23.9362 43.7924C22.6489 44.436 21.2447 44.7285 19.8404 44.787C13.9309 44.9041 11.1809 39.5796 11.1809 39.5796C7.84574 34.0796 6.85106 26.8243 6.61702 24.4839C6.5 23.9573 6.5 23.6647 6.5 23.6647C6.5 22.9626 6.67553 22.2019 7.08511 21.6168C7.43617 20.9732 7.96277 20.4466 8.60638 20.0956C9.30851 19.7445 10.0106 19.6275 10.7713 19.6275C11.4734 19.6275 12.117 19.8615 12.7606 20.2126C13.2287 20.5051 13.6383 20.8562 13.9309 21.2658C14.4574 22.0264 14.633 23.0211 14.6915 23.9573C14.9255 26.0636 15.3351 28.1115 15.9202 30.1009Z" fill="url(#paint17_linear_1119_23631)"/><path d="M15.9202 30.1009C16.3883 31.6807 16.9734 33.2605 17.7926 34.7232C18.1436 35.3668 18.4947 36.0105 19.1383 36.42C19.2553 36.4785 19.3723 36.537 19.4894 36.5956C20.4255 36.7711 20.9521 36.0105 21.3032 35.3668C21.7713 34.2551 22.1809 33.1434 22.5319 31.9732C22.5904 31.7392 22.6489 31.5636 22.7074 31.3296C22.8245 30.92 22.9415 30.5105 23 30.1009L27.1543 18.9839C28.0319 17.8136 29.1436 16.8775 30.4309 16.2339C31.6596 15.5317 33.0638 15.1807 34.5266 15.1807C36.5745 15.1807 38.6223 15.8828 40.2606 17.17C43.0106 19.2179 44.5904 23.3136 44.5904 23.3136C44.8245 23.8402 44.9415 24.4253 44.9415 25.0105C44.9415 25.537 44.8245 26.0636 44.6489 26.5902C44.4149 27.0583 44.1223 27.5264 43.7713 27.936C43.4202 28.287 42.9521 28.6381 42.4255 28.8136C41.9574 28.9892 41.3723 29.1062 40.8457 29.1062C40.2606 29.1062 39.6755 28.9892 39.1489 28.6966C38.6223 28.4626 38.1543 28.053 37.7447 27.6434C37.7447 27.6434 37.7447 27.5849 37.6862 27.5849C37.4521 27.2339 37.2181 26.8243 37.0426 26.4147C36.8085 25.8881 36.5745 25.42 36.2819 24.9519C36.1064 24.7179 35.9894 24.4839 35.8138 24.2498C35.6968 24.0158 35.5213 23.8402 35.2872 23.6647C34.8777 23.3722 34.4096 23.2551 34 23.4892L33.9415 23.5477C33.4734 23.8402 33.1809 24.4839 32.9468 25.0105C32.3032 26.4147 31.9521 27.819 31.5426 29.3402C31.484 29.6328 31.4255 29.9253 31.367 30.2179L29.6117 35.8349L27.2128 41.1594C26.3351 42.2711 25.2234 43.2073 23.9362 43.7924C22.6489 44.436 21.2447 44.7285 19.8404 44.787C13.9309 44.9041 11.1809 39.5796 11.1809 39.5796C7.84574 34.0796 6.85106 26.8243 6.61702 24.4839C6.5 23.9573 6.5 23.6647 6.5 23.6647C6.5 22.9626 6.67553 22.2019 7.08511 21.6168C7.43617 20.9732 7.96277 20.4466 8.60638 20.0956C9.30851 19.7445 10.0106 19.6275 10.7713 19.6275C11.4734 19.6275 12.117 19.8615 12.7606 20.2126C13.2287 20.5051 13.6383 20.8562 13.9309 21.2658C14.4574 22.0264 14.633 23.0211 14.6915 23.9573C14.9255 26.0636 15.3351 28.1115 15.9202 30.1009Z" fill="url(#paint18_linear_1119_23631)"/><path d="M15.9202 30.1009C16.3883 31.6807 16.9734 33.2605 17.7926 34.7232C18.1436 35.3668 18.4947 36.0105 19.1383 36.42C19.2553 36.4785 19.3723 36.537 19.4894 36.5956C20.4255 36.7711 20.9521 36.0105 21.3032 35.3668C21.7713 34.2551 22.1809 33.1434 22.5319 31.9732C22.5904 31.7392 22.6489 31.5636 22.7074 31.3296C22.8245 30.92 22.9415 30.5105 23 30.1009L27.1543 18.9839C28.0319 17.8136 29.1436 16.8775 30.4309 16.2339C31.6596 15.5317 33.0638 15.1807 34.5266 15.1807C36.5745 15.1807 38.6223 15.8828 40.2606 17.17C43.0106 19.2179 44.5904 23.3136 44.5904 23.3136C44.8245 23.8402 44.9415 24.4253 44.9415 25.0105C44.9415 25.537 44.8245 26.0636 44.6489 26.5902C44.4149 27.0583 44.1223 27.5264 43.7713 27.936C43.4202 28.287 42.9521 28.6381 42.4255 28.8136C41.9574 28.9892 41.3723 29.1062 40.8457 29.1062C40.2606 29.1062 39.6755 28.9892 39.1489 28.6966C38.6223 28.4626 38.1543 28.053 37.7447 27.6434C37.7447 27.6434 37.7447 27.5849 37.6862 27.5849C37.4521 27.2339 37.2181 26.8243 37.0426 26.4147C36.8085 25.8881 36.5745 25.42 36.2819 24.9519C36.1064 24.7179 35.9894 24.4839 35.8138 24.2498C35.6968 24.0158 35.5213 23.8402 35.2872 23.6647C34.8777 23.3722 34.4096 23.2551 34 23.4892L33.9415 23.5477C33.4734 23.8402 33.1809 24.4839 32.9468 25.0105C32.3032 26.4147 31.9521 27.819 31.5426 29.3402C31.484 29.6328 31.4255 29.9253 31.367 30.2179L29.6117 35.8349L27.2128 41.1594C26.3351 42.2711 25.2234 43.2073 23.9362 43.7924C22.6489 44.436 21.2447 44.7285 19.8404 44.787C13.9309 44.9041 11.1809 39.5796 11.1809 39.5796C7.84574 34.0796 6.85106 26.8243 6.61702 24.4839C6.5 23.9573 6.5 23.6647 6.5 23.6647C6.5 22.9626 6.67553 22.2019 7.08511 21.6168C7.43617 20.9732 7.96277 20.4466 8.60638 20.0956C9.30851 19.7445 10.0106 19.6275 10.7713 19.6275C11.4734 19.6275 12.117 19.8615 12.7606 20.2126C13.2287 20.5051 13.6383 20.8562 13.9309 21.2658C14.4574 22.0264 14.633 23.0211 14.6915 23.9573C14.9255 26.0636 15.3351 28.1115 15.9202 30.1009Z" fill="url(#paint19_linear_1119_23631)"/><path d="M24.4629 25.9466L27.0959 18.8668C27.9735 17.6966 29.0852 16.7605 30.3725 16.1168C31.6597 15.5317 33.064 15.1807 34.5267 15.1807C36.5746 15.1807 38.6225 15.8828 40.2608 17.17C43.0108 19.2179 44.5905 23.3136 44.5905 23.3136C44.8246 23.8402 44.9416 24.4253 44.9416 25.0104C44.9416 25.537 44.8246 26.0636 44.6491 26.5902C44.415 27.0583 44.1225 27.5264 43.7714 27.936C43.4203 28.287 42.9523 28.6381 42.4257 28.8136C41.9576 28.9892 41.3725 29.1062 40.8459 29.1062C40.2608 29.1062 39.6757 28.9892 39.1491 28.6966C38.6225 28.4626 38.1544 28.053 37.7448 27.6434C37.7448 27.6434 37.7448 27.5849 37.6863 27.5849C37.4522 27.2339 37.2182 26.8243 37.0427 26.4147C36.8086 25.8881 36.5746 25.42 36.282 24.9519C36.1065 24.7179 35.9895 24.4839 35.814 24.2498C35.6969 24.0158 35.5214 23.8402 35.2874 23.6647C34.8778 23.3722 34.4097 23.2551 34.0001 23.4892L33.9416 23.5477C33.4735 23.8402 33.181 24.4839 32.9469 25.0104C32.3033 26.4147 31.9523 27.819 31.5427 29.3402C31.4842 29.6328 31.4257 29.9253 31.3671 30.2179L29.6118 35.8349L24.4629 25.9466Z" fill="url(#paint20_linear_1119_23631)"/><path d="M43.6542 19.6275C43.3032 19.6275 42.9521 19.686 42.6596 19.7445C43.4202 20.8562 44.0638 22.0264 44.5904 23.2551C44.8245 23.7817 44.9415 24.3668 44.9415 24.952C44.9415 25.4785 44.8245 26.0051 44.6489 26.5317C44.4149 26.9998 44.1223 27.4679 43.7713 27.8775C43.4202 28.2871 42.9521 28.5796 42.4255 28.7551C41.9574 28.9307 41.3723 29.0477 40.8457 29.0477C40.1436 29.0477 39.383 28.8722 38.7979 28.4626L38.3883 30.0424C37.6276 32.6168 37.1011 33.553 37.1011 33.553C36.8085 34.2551 36.4574 34.8988 36.0479 35.5424C35.7553 35.952 35.4042 36.3615 34.9362 36.5371C34.7606 36.5956 34.5851 36.5956 34.4096 36.5956C34.234 36.5956 34.0585 36.5371 33.883 36.42C33.5904 36.186 33.2979 35.8349 33.1223 35.4839C32.8883 35.0743 32.7128 34.6647 32.5372 34.2551C32.1862 33.3775 31.6011 31.2126 31.6011 31.2126L31.0159 28.9307L30.4308 26.6488L30.0213 25.1275C28.9681 21.2073 27.4468 19.2764 27.4468 19.2764C26.2766 17.5796 24.5798 16.3509 22.6489 15.6488C20.4255 14.8296 18.0851 15.2977 18.0851 15.2977C14.3989 15.9998 12.4681 18.5158 11.6489 19.7445C12.0585 19.8615 12.4096 19.9785 12.7606 20.2126C13.2287 20.5051 13.6383 20.8562 13.9308 21.2658C14.4574 22.0264 14.633 23.0211 14.6915 23.9573C14.9255 26.0051 15.3351 27.9945 15.8617 29.9839C17.0904 25.8296 18.6117 23.8988 18.6117 23.8988C18.7872 23.6647 18.9628 23.4892 19.1968 23.3722C19.3138 23.3137 19.4308 23.2551 19.6064 23.2551C19.8404 23.2551 20.133 23.3137 20.3085 23.4307C20.367 23.4307 20.367 23.4892 20.4255 23.4892C20.6011 23.6647 20.7766 23.8402 20.9521 24.0743C21.2447 24.6594 21.5372 25.186 21.7713 25.8296C22.2394 27.1168 22.6489 28.7551 22.6489 28.7551L23.8191 33.436C24.6968 36.6541 25.3989 38.1754 25.3989 38.1754C27.2128 42.3296 29.9628 43.4998 29.9628 43.4998C31.3085 44.202 32.8298 44.6115 34.3511 44.67C35.8138 44.7286 37.2766 44.436 38.5638 43.7924C39.9681 43.0903 41.2553 42.0371 42.25 40.8083C42.8936 40.0477 43.8883 38.1754 43.8883 38.1754C45 36.0105 45.8191 33.7285 46.4042 31.3881C46.8138 29.9254 47.1064 28.4626 47.3404 26.9413C47.4574 26.1807 47.5745 25.4785 47.633 24.7179C47.75 24.0158 47.75 23.3137 47.5745 22.6115C47.5159 22.4945 47.5159 22.3775 47.4574 22.2605C47.1064 21.3828 46.4628 20.6807 45.6436 20.2126C45.0585 19.803 44.3564 19.6275 43.6542 19.6275Z" fill="url(#paint21_linear_1119_23631)"/><path d="M43.6542 19.6275C43.3032 19.6275 42.9521 19.686 42.6596 19.7445C43.4202 20.8562 44.0638 22.0264 44.5904 23.2551C44.8245 23.7817 44.9415 24.3668 44.9415 24.952C44.9415 25.4785 44.8245 26.0051 44.6489 26.5317C44.4149 26.9998 44.1223 27.4679 43.7713 27.8775C43.4202 28.2871 42.9521 28.5796 42.4255 28.7551C41.9574 28.9307 41.3723 29.0477 40.8457 29.0477C40.1436 29.0477 39.383 28.8722 38.7979 28.4626L38.3883 30.0424C37.6276 32.6168 37.1011 33.553 37.1011 33.553C36.8085 34.2551 36.4574 34.8988 36.0479 35.5424C35.7553 35.952 35.4042 36.3615 34.9362 36.5371C34.7606 36.5956 34.5851 36.5956 34.4096 36.5956C34.234 36.5956 34.0585 36.5371 33.883 36.42C33.5904 36.186 33.2979 35.8349 33.1223 35.4839C32.8883 35.0743 32.7128 34.6647 32.5372 34.2551C32.1862 33.3775 31.6011 31.2126 31.6011 31.2126L31.0159 28.9307L30.4308 26.6488L30.0213 25.1275C28.9681 21.2073 27.4468 19.2764 27.4468 19.2764C26.2766 17.5796 24.5798 16.3509 22.6489 15.6488C20.4255 14.8296 18.0851 15.2977 18.0851 15.2977C14.3989 15.9998 12.4681 18.5158 11.6489 19.7445C12.0585 19.8615 12.4096 19.9785 12.7606 20.2126C13.2287 20.5051 13.6383 20.8562 13.9308 21.2658C14.4574 22.0264 14.633 23.0211 14.6915 23.9573C14.9255 26.0051 15.3351 27.9945 15.8617 29.9839C17.0904 25.8296 18.6117 23.8988 18.6117 23.8988C18.7872 23.6647 18.9628 23.4892 19.1968 23.3722C19.3138 23.3137 19.4308 23.2551 19.6064 23.2551C19.8404 23.2551 20.133 23.3137 20.3085 23.4307C20.367 23.4307 20.367 23.4892 20.4255 23.4892C20.6011 23.6647 20.7766 23.8402 20.9521 24.0743C21.2447 24.6594 21.5372 25.186 21.7713 25.8296C22.2394 27.1168 22.6489 28.7551 22.6489 28.7551L23.8191 33.436C24.6968 36.6541 25.3989 38.1754 25.3989 38.1754C27.2128 42.3296 29.9628 43.4998 29.9628 43.4998C31.3085 44.202 32.8298 44.6115 34.3511 44.67C35.8138 44.7286 37.2766 44.436 38.5638 43.7924C39.9681 43.0903 41.2553 42.0371 42.25 40.8083C42.8936 40.0477 43.8883 38.1754 43.8883 38.1754C45 36.0105 45.8191 33.7285 46.4042 31.3881C46.8138 29.9254 47.1064 28.4626 47.3404 26.9413C47.4574 26.1807 47.5745 25.4785 47.633 24.7179C47.75 24.0158 47.75 23.3137 47.5745 22.6115C47.5159 22.4945 47.5159 22.3775 47.4574 22.2605C47.1064 21.3828 46.4628 20.6807 45.6436 20.2126C45.0585 19.803 44.3564 19.6275 43.6542 19.6275Z" fill="url(#paint22_radial_1119_23631)"/><path d="M43.6542 19.6275C43.3032 19.6275 42.9521 19.686 42.6596 19.7445C43.4202 20.8562 44.0638 22.0264 44.5904 23.2551C44.8245 23.7817 44.9415 24.3668 44.9415 24.952C44.9415 25.4785 44.8245 26.0051 44.6489 26.5317C44.4149 26.9998 44.1223 27.4679 43.7713 27.8775C43.4202 28.2871 42.9521 28.5796 42.4255 28.7551C41.9574 28.9307 41.3723 29.0477 40.8457 29.0477C40.1436 29.0477 39.383 28.8722 38.7979 28.4626L38.3883 30.0424C37.6276 32.6168 37.1011 33.553 37.1011 33.553C36.8085 34.2551 36.4574 34.8988 36.0479 35.5424C35.7553 35.952 35.4042 36.3615 34.9362 36.5371C34.7606 36.5956 34.5851 36.5956 34.4096 36.5956C34.234 36.5956 34.0585 36.5371 33.883 36.42C33.5904 36.186 33.2979 35.8349 33.1223 35.4839C32.8883 35.0743 32.7128 34.6647 32.5372 34.2551C32.1862 33.3775 31.6011 31.2126 31.6011 31.2126L31.0159 28.9307L30.4308 26.6488L30.0213 25.1275C28.9681 21.2073 27.4468 19.2764 27.4468 19.2764C26.2766 17.5796 24.5798 16.3509 22.6489 15.6488C20.4255 14.8296 18.0851 15.2977 18.0851 15.2977C14.3989 15.9998 12.4681 18.5158 11.6489 19.7445C12.0585 19.8615 12.4096 19.9785 12.7606 20.2126C13.2287 20.5051 13.6383 20.8562 13.9308 21.2658C14.4574 22.0264 14.633 23.0211 14.6915 23.9573C14.9255 26.0051 15.3351 27.9945 15.8617 29.9839C17.0904 25.8296 18.6117 23.8988 18.6117 23.8988C18.7872 23.6647 18.9628 23.4892 19.1968 23.3722C19.3138 23.3137 19.4308 23.2551 19.6064 23.2551C19.8404 23.2551 20.133 23.3137 20.3085 23.4307C20.367 23.4307 20.367 23.4892 20.4255 23.4892C20.6011 23.6647 20.7766 23.8402 20.9521 24.0743C21.2447 24.6594 21.5372 25.186 21.7713 25.8296C22.2394 27.1168 22.6489 28.7551 22.6489 28.7551L23.8191 33.436C24.6968 36.6541 25.3989 38.1754 25.3989 38.1754C27.2128 42.3296 29.9628 43.4998 29.9628 43.4998C31.3085 44.202 32.8298 44.6115 34.3511 44.67C35.8138 44.7286 37.2766 44.436 38.5638 43.7924C39.9681 43.0903 41.2553 42.0371 42.25 40.8083C42.8936 40.0477 43.8883 38.1754 43.8883 38.1754C45 36.0105 45.8191 33.7285 46.4042 31.3881C46.8138 29.9254 47.1064 28.4626 47.3404 26.9413C47.4574 26.1807 47.5745 25.4785 47.633 24.7179C47.75 24.0158 47.75 23.3137 47.5745 22.6115C47.5159 22.4945 47.5159 22.3775 47.4574 22.2605C47.1064 21.3828 46.4628 20.6807 45.6436 20.2126C45.0585 19.803 44.3564 19.6275 43.6542 19.6275Z" fill="url(#paint23_radial_1119_23631)"/><path d="M43.6542 19.6275C43.3032 19.6275 42.9521 19.686 42.6596 19.7445C43.4202 20.8562 44.0638 22.0264 44.5904 23.2551C44.8245 23.7817 44.9415 24.3668 44.9415 24.952C44.9415 25.4785 44.8245 26.0051 44.6489 26.5317C44.4149 26.9998 44.1223 27.4679 43.7713 27.8775C43.4202 28.2871 42.9521 28.5796 42.4255 28.7551C41.9574 28.9307 41.3723 29.0477 40.8457 29.0477C40.1436 29.0477 39.383 28.8722 38.7979 28.4626L38.3883 30.0424C37.6276 32.6168 37.1011 33.553 37.1011 33.553C36.8085 34.2551 36.4574 34.8988 36.0479 35.5424C35.7553 35.952 35.4042 36.3615 34.9362 36.5371C34.7606 36.5956 34.5851 36.5956 34.4096 36.5956C34.234 36.5956 34.0585 36.5371 33.883 36.42C33.5904 36.186 33.2979 35.8349 33.1223 35.4839C32.8883 35.0743 32.7128 34.6647 32.5372 34.2551C32.1862 33.3775 31.6011 31.2126 31.6011 31.2126L31.0159 28.9307L30.4308 26.6488L30.0213 25.1275C28.9681 21.2073 27.4468 19.2764 27.4468 19.2764C26.2766 17.5796 24.5798 16.3509 22.6489 15.6488C20.4255 14.8296 18.0851 15.2977 18.0851 15.2977C14.3989 15.9998 12.4681 18.5158 11.6489 19.7445C12.0585 19.8615 12.4096 19.9785 12.7606 20.2126C13.2287 20.5051 13.6383 20.8562 13.9308 21.2658C14.4574 22.0264 14.633 23.0211 14.6915 23.9573C14.9255 26.0051 15.3351 27.9945 15.8617 29.9839C17.0904 25.8296 18.6117 23.8988 18.6117 23.8988C18.7872 23.6647 18.9628 23.4892 19.1968 23.3722C19.3138 23.3137 19.4308 23.2551 19.6064 23.2551C19.8404 23.2551 20.133 23.3137 20.3085 23.4307C20.367 23.4307 20.367 23.4892 20.4255 23.4892C20.6011 23.6647 20.7766 23.8402 20.9521 24.0743C21.2447 24.6594 21.5372 25.186 21.7713 25.8296C22.2394 27.1168 22.6489 28.7551 22.6489 28.7551L23.8191 33.436C24.6968 36.6541 25.3989 38.1754 25.3989 38.1754C27.2128 42.3296 29.9628 43.4998 29.9628 43.4998C31.3085 44.202 32.8298 44.6115 34.3511 44.67C35.8138 44.7286 37.2766 44.436 38.5638 43.7924C39.9681 43.0903 41.2553 42.0371 42.25 40.8083C42.8936 40.0477 43.8883 38.1754 43.8883 38.1754C45 36.0105 45.8191 33.7285 46.4042 31.3881C46.8138 29.9254 47.1064 28.4626 47.3404 26.9413C47.4574 26.1807 47.5745 25.4785 47.633 24.7179C47.75 24.0158 47.75 23.3137 47.5745 22.6115C47.5159 22.4945 47.5159 22.3775 47.4574 22.2605C47.1064 21.3828 46.4628 20.6807 45.6436 20.2126C45.0585 19.803 44.3564 19.6275 43.6542 19.6275Z" fill="url(#paint24_radial_1119_23631)"/><path d="M43.6542 19.6275C43.3032 19.6275 42.9521 19.686 42.6596 19.7445C43.4202 20.8562 44.0638 22.0264 44.5904 23.2551C44.8245 23.7817 44.9415 24.3668 44.9415 24.952C44.9415 25.4785 44.8245 26.0051 44.6489 26.5317C44.4149 26.9998 44.1223 27.4679 43.7713 27.8775C43.4202 28.2871 42.9521 28.5796 42.4255 28.7551C41.9574 28.9307 41.3723 29.0477 40.8457 29.0477C40.1436 29.0477 39.383 28.8722 38.7979 28.4626L38.3883 30.0424C37.6276 32.6168 37.1011 33.553 37.1011 33.553C36.8085 34.2551 36.4574 34.8988 36.0479 35.5424C35.7553 35.952 35.4042 36.3615 34.9362 36.5371C34.7606 36.5956 34.5851 36.5956 34.4096 36.5956C34.234 36.5956 34.0585 36.5371 33.883 36.42C33.5904 36.186 33.2979 35.8349 33.1223 35.4839C32.8883 35.0743 32.7128 34.6647 32.5372 34.2551C32.1862 33.3775 31.6011 31.2126 31.6011 31.2126L31.0159 28.9307L30.4308 26.6488L30.0213 25.1275C28.9681 21.2073 27.4468 19.2764 27.4468 19.2764C26.2766 17.5796 24.5798 16.3509 22.6489 15.6488C20.4255 14.8296 18.0851 15.2977 18.0851 15.2977C14.3989 15.9998 12.4681 18.5158 11.6489 19.7445C12.0585 19.8615 12.4096 19.9785 12.7606 20.2126C13.2287 20.5051 13.6383 20.8562 13.9308 21.2658C14.4574 22.0264 14.633 23.0211 14.6915 23.9573C14.9255 26.0051 15.3351 27.9945 15.8617 29.9839C17.0904 25.8296 18.6117 23.8988 18.6117 23.8988C18.7872 23.6647 18.9628 23.4892 19.1968 23.3722C19.3138 23.3137 19.4308 23.2551 19.6064 23.2551C19.8404 23.2551 20.133 23.3137 20.3085 23.4307C20.367 23.4307 20.367 23.4892 20.4255 23.4892C20.6011 23.6647 20.7766 23.8402 20.9521 24.0743C21.2447 24.6594 21.5372 25.186 21.7713 25.8296C22.2394 27.1168 22.6489 28.7551 22.6489 28.7551L23.8191 33.436C24.6968 36.6541 25.3989 38.1754 25.3989 38.1754C27.2128 42.3296 29.9628 43.4998 29.9628 43.4998C31.3085 44.202 32.8298 44.6115 34.3511 44.67C35.8138 44.7286 37.2766 44.436 38.5638 43.7924C39.9681 43.0903 41.2553 42.0371 42.25 40.8083C42.8936 40.0477 43.8883 38.1754 43.8883 38.1754C45 36.0105 45.8191 33.7285 46.4042 31.3881C46.8138 29.9254 47.1064 28.4626 47.3404 26.9413C47.4574 26.1807 47.5745 25.4785 47.633 24.7179C47.75 24.0158 47.75 23.3137 47.5745 22.6115C47.5159 22.4945 47.5159 22.3775 47.4574 22.2605C47.1064 21.3828 46.4628 20.6807 45.6436 20.2126C45.0585 19.803 44.3564 19.6275 43.6542 19.6275Z" fill="url(#paint25_radial_1119_23631)"/><path d="M43.6542 19.6275C43.3032 19.6275 42.9521 19.686 42.6596 19.7445C43.4202 20.8562 44.0638 22.0264 44.5904 23.2551C44.8245 23.7817 44.9415 24.3668 44.9415 24.952C44.9415 25.4785 44.8245 26.0051 44.6489 26.5317C44.4149 26.9998 44.1223 27.4679 43.7713 27.8775C43.4202 28.2871 42.9521 28.5796 42.4255 28.7551C41.9574 28.9307 41.3723 29.0477 40.8457 29.0477C40.1436 29.0477 39.383 28.8722 38.7979 28.4626L38.3883 30.0424C37.6276 32.6168 37.1011 33.553 37.1011 33.553C36.8085 34.2551 36.4574 34.8988 36.0479 35.5424C35.7553 35.952 35.4042 36.3615 34.9362 36.5371C34.7606 36.5956 34.5851 36.5956 34.4096 36.5956C34.234 36.5956 34.0585 36.5371 33.883 36.42C33.5904 36.186 33.2979 35.8349 33.1223 35.4839C32.8883 35.0743 32.7128 34.6647 32.5372 34.2551C32.1862 33.3775 31.6011 31.2126 31.6011 31.2126L31.0159 28.9307L30.4308 26.6488L30.0213 25.1275C28.9681 21.2073 27.4468 19.2764 27.4468 19.2764C26.2766 17.5796 24.5798 16.3509 22.6489 15.6488C20.4255 14.8296 18.0851 15.2977 18.0851 15.2977C14.3989 15.9998 12.4681 18.5158 11.6489 19.7445C12.0585 19.8615 12.4096 19.9785 12.7606 20.2126C13.2287 20.5051 13.6383 20.8562 13.9308 21.2658C14.4574 22.0264 14.633 23.0211 14.6915 23.9573C14.9255 26.0051 15.3351 27.9945 15.8617 29.9839C17.0904 25.8296 18.6117 23.8988 18.6117 23.8988C18.7872 23.6647 18.9628 23.4892 19.1968 23.3722C19.3138 23.3137 19.4308 23.2551 19.6064 23.2551C19.8404 23.2551 20.133 23.3137 20.3085 23.4307C20.367 23.4307 20.367 23.4892 20.4255 23.4892C20.6011 23.6647 20.7766 23.8402 20.9521 24.0743C21.2447 24.6594 21.5372 25.186 21.7713 25.8296C22.2394 27.1168 22.6489 28.7551 22.6489 28.7551L23.8191 33.436C24.6968 36.6541 25.3989 38.1754 25.3989 38.1754C27.2128 42.3296 29.9628 43.4998 29.9628 43.4998C31.3085 44.202 32.8298 44.6115 34.3511 44.67C35.8138 44.7286 37.2766 44.436 38.5638 43.7924C39.9681 43.0903 41.2553 42.0371 42.25 40.8083C42.8936 40.0477 43.8883 38.1754 43.8883 38.1754C45 36.0105 45.8191 33.7285 46.4042 31.3881C46.8138 29.9254 47.1064 28.4626 47.3404 26.9413C47.4574 26.1807 47.5745 25.4785 47.633 24.7179C47.75 24.0158 47.75 23.3137 47.5745 22.6115C47.5159 22.4945 47.5159 22.3775 47.4574 22.2605C47.1064 21.3828 46.4628 20.6807 45.6436 20.2126C45.0585 19.803 44.3564 19.6275 43.6542 19.6275Z" fill="url(#paint26_radial_1119_23631)"/><path d="M43.6542 19.6275C43.3032 19.6275 42.9521 19.686 42.6596 19.7445C43.4202 20.8562 44.0638 22.0264 44.5904 23.2551C44.8245 23.7817 44.9415 24.3668 44.9415 24.952C44.9415 25.4785 44.8245 26.0051 44.6489 26.5317C44.4149 26.9998 44.1223 27.4679 43.7713 27.8775C43.4202 28.2871 42.9521 28.5796 42.4255 28.7551C41.9574 28.9307 41.3723 29.0477 40.8457 29.0477C40.1436 29.0477 39.383 28.8722 38.7979 28.4626L38.3883 30.0424C37.6276 32.6168 37.1011 33.553 37.1011 33.553C36.8085 34.2551 36.4574 34.8988 36.0479 35.5424C35.7553 35.952 35.4042 36.3615 34.9362 36.5371C34.7606 36.5956 34.5851 36.5956 34.4096 36.5956C34.234 36.5956 34.0585 36.5371 33.883 36.42C33.5904 36.186 33.2979 35.8349 33.1223 35.4839C32.8883 35.0743 32.7128 34.6647 32.5372 34.2551C32.1862 33.3775 31.6011 31.2126 31.6011 31.2126L31.0159 28.9307L30.4308 26.6488L30.0213 25.1275C28.9681 21.2073 27.4468 19.2764 27.4468 19.2764C26.2766 17.5796 24.5798 16.3509 22.6489 15.6488C20.4255 14.8296 18.0851 15.2977 18.0851 15.2977C14.3989 15.9998 12.4681 18.5158 11.6489 19.7445C12.0585 19.8615 12.4096 19.9785 12.7606 20.2126C13.2287 20.5051 13.6383 20.8562 13.9308 21.2658C14.4574 22.0264 14.633 23.0211 14.6915 23.9573C14.9255 26.0051 15.3351 27.9945 15.8617 29.9839C17.0904 25.8296 18.6117 23.8988 18.6117 23.8988C18.7872 23.6647 18.9628 23.4892 19.1968 23.3722C19.3138 23.3137 19.4308 23.2551 19.6064 23.2551C19.8404 23.2551 20.133 23.3137 20.3085 23.4307C20.367 23.4307 20.367 23.4892 20.4255 23.4892C20.6011 23.6647 20.7766 23.8402 20.9521 24.0743C21.2447 24.6594 21.5372 25.186 21.7713 25.8296C22.2394 27.1168 22.6489 28.7551 22.6489 28.7551L23.8191 33.436C24.6968 36.6541 25.3989 38.1754 25.3989 38.1754C27.2128 42.3296 29.9628 43.4998 29.9628 43.4998C31.3085 44.202 32.8298 44.6115 34.3511 44.67C35.8138 44.7286 37.2766 44.436 38.5638 43.7924C39.9681 43.0903 41.2553 42.0371 42.25 40.8083C42.8936 40.0477 43.8883 38.1754 43.8883 38.1754C45 36.0105 45.8191 33.7285 46.4042 31.3881C46.8138 29.9254 47.1064 28.4626 47.3404 26.9413C47.4574 26.1807 47.5745 25.4785 47.633 24.7179C47.75 24.0158 47.75 23.3137 47.5745 22.6115C47.5159 22.4945 47.5159 22.3775 47.4574 22.2605C47.1064 21.3828 46.4628 20.6807 45.6436 20.2126C45.0585 19.803 44.3564 19.6275 43.6542 19.6275Z" fill="url(#paint27_radial_1119_23631)"/><path d="M43.6542 19.6275C43.3032 19.6275 42.9521 19.686 42.6596 19.7445C43.4202 20.8562 44.0638 22.0264 44.5904 23.2551C44.8245 23.7817 44.9415 24.3668 44.9415 24.952C44.9415 25.4785 44.8245 26.0051 44.6489 26.5317C44.4149 26.9998 44.1223 27.4679 43.7713 27.8775C43.4202 28.2871 42.9521 28.5796 42.4255 28.7551C41.9574 28.9307 41.3723 29.0477 40.8457 29.0477C40.1436 29.0477 39.383 28.8722 38.7979 28.4626L38.3883 30.0424C37.6276 32.6168 37.1011 33.553 37.1011 33.553C36.8085 34.2551 36.4574 34.8988 36.0479 35.5424C35.7553 35.952 35.4042 36.3615 34.9362 36.5371C34.7606 36.5956 34.5851 36.5956 34.4096 36.5956C34.234 36.5956 34.0585 36.5371 33.883 36.42C33.5904 36.186 33.2979 35.8349 33.1223 35.4839C32.8883 35.0743 32.7128 34.6647 32.5372 34.2551C32.1862 33.3775 31.6011 31.2126 31.6011 31.2126L31.0159 28.9307L30.4308 26.6488L30.0213 25.1275C28.9681 21.2073 27.4468 19.2764 27.4468 19.2764C26.2766 17.5796 24.5798 16.3509 22.6489 15.6488C20.4255 14.8296 18.0851 15.2977 18.0851 15.2977C14.3989 15.9998 12.4681 18.5158 11.6489 19.7445C12.0585 19.8615 12.4096 19.9785 12.7606 20.2126C13.2287 20.5051 13.6383 20.8562 13.9308 21.2658C14.4574 22.0264 14.633 23.0211 14.6915 23.9573C14.9255 26.0051 15.3351 27.9945 15.8617 29.9839C17.0904 25.8296 18.6117 23.8988 18.6117 23.8988C18.7872 23.6647 18.9628 23.4892 19.1968 23.3722C19.3138 23.3137 19.4308 23.2551 19.6064 23.2551C19.8404 23.2551 20.133 23.3137 20.3085 23.4307C20.367 23.4307 20.367 23.4892 20.4255 23.4892C20.6011 23.6647 20.7766 23.8402 20.9521 24.0743C21.2447 24.6594 21.5372 25.186 21.7713 25.8296C22.2394 27.1168 22.6489 28.7551 22.6489 28.7551L23.8191 33.436C24.6968 36.6541 25.3989 38.1754 25.3989 38.1754C27.2128 42.3296 29.9628 43.4998 29.9628 43.4998C31.3085 44.202 32.8298 44.6115 34.3511 44.67C35.8138 44.7286 37.2766 44.436 38.5638 43.7924C39.9681 43.0903 41.2553 42.0371 42.25 40.8083C42.8936 40.0477 43.8883 38.1754 43.8883 38.1754C45 36.0105 45.8191 33.7285 46.4042 31.3881C46.8138 29.9254 47.1064 28.4626 47.3404 26.9413C47.4574 26.1807 47.5745 25.4785 47.633 24.7179C47.75 24.0158 47.75 23.3137 47.5745 22.6115C47.5159 22.4945 47.5159 22.3775 47.4574 22.2605C47.1064 21.3828 46.4628 20.6807 45.6436 20.2126C45.0585 19.803 44.3564 19.6275 43.6542 19.6275Z" fill="url(#paint28_radial_1119_23631)"/><path d="M43.6542 19.6275C43.3032 19.6275 42.9521 19.686 42.6596 19.7445C43.4202 20.8562 44.0638 22.0264 44.5904 23.2551C44.8245 23.7817 44.9415 24.3668 44.9415 24.952C44.9415 25.4785 44.8245 26.0051 44.6489 26.5317C44.4149 26.9998 44.1223 27.4679 43.7713 27.8775C43.4202 28.2871 42.9521 28.5796 42.4255 28.7551C41.9574 28.9307 41.3723 29.0477 40.8457 29.0477C40.1436 29.0477 39.383 28.8722 38.7979 28.4626L38.3883 30.0424C37.6276 32.6168 37.1011 33.553 37.1011 33.553C36.8085 34.2551 36.4574 34.8988 36.0479 35.5424C35.7553 35.952 35.4042 36.3615 34.9362 36.5371C34.7606 36.5956 34.5851 36.5956 34.4096 36.5956C34.234 36.5956 34.0585 36.5371 33.883 36.42C33.5904 36.186 33.2979 35.8349 33.1223 35.4839C32.8883 35.0743 32.7128 34.6647 32.5372 34.2551C32.1862 33.3775 31.6011 31.2126 31.6011 31.2126L31.0159 28.9307L30.4308 26.6488L30.0213 25.1275C28.9681 21.2073 27.4468 19.2764 27.4468 19.2764C26.2766 17.5796 24.5798 16.3509 22.6489 15.6488C20.4255 14.8296 18.0851 15.2977 18.0851 15.2977C14.3989 15.9998 12.4681 18.5158 11.6489 19.7445C12.0585 19.8615 12.4096 19.9785 12.7606 20.2126C13.2287 20.5051 13.6383 20.8562 13.9308 21.2658C14.4574 22.0264 14.633 23.0211 14.6915 23.9573C14.9255 26.0051 15.3351 27.9945 15.8617 29.9839C17.0904 25.8296 18.6117 23.8988 18.6117 23.8988C18.7872 23.6647 18.9628 23.4892 19.1968 23.3722C19.3138 23.3137 19.4308 23.2551 19.6064 23.2551C19.8404 23.2551 20.133 23.3137 20.3085 23.4307C20.367 23.4307 20.367 23.4892 20.4255 23.4892C20.6011 23.6647 20.7766 23.8402 20.9521 24.0743C21.2447 24.6594 21.5372 25.186 21.7713 25.8296C22.2394 27.1168 22.6489 28.7551 22.6489 28.7551L23.8191 33.436C24.6968 36.6541 25.3989 38.1754 25.3989 38.1754C27.2128 42.3296 29.9628 43.4998 29.9628 43.4998C31.3085 44.202 32.8298 44.6115 34.3511 44.67C35.8138 44.7286 37.2766 44.436 38.5638 43.7924C39.9681 43.0903 41.2553 42.0371 42.25 40.8083C42.8936 40.0477 43.8883 38.1754 43.8883 38.1754C45 36.0105 45.8191 33.7285 46.4042 31.3881C46.8138 29.9254 47.1064 28.4626 47.3404 26.9413C47.4574 26.1807 47.5745 25.4785 47.633 24.7179C47.75 24.0158 47.75 23.3137 47.5745 22.6115C47.5159 22.4945 47.5159 22.3775 47.4574 22.2605C47.1064 21.3828 46.4628 20.6807 45.6436 20.2126C45.0585 19.803 44.3564 19.6275 43.6542 19.6275Z" fill="url(#paint29_radial_1119_23631)"/><path d="M43.6542 19.6275C43.3032 19.6275 42.9521 19.686 42.6596 19.7445C43.4202 20.8562 44.0638 22.0264 44.5904 23.2551C44.8245 23.7817 44.9415 24.3668 44.9415 24.952C44.9415 25.4785 44.8245 26.0051 44.6489 26.5317C44.4149 26.9998 44.1223 27.4679 43.7713 27.8775C43.4202 28.2871 42.9521 28.5796 42.4255 28.7551C41.9574 28.9307 41.3723 29.0477 40.8457 29.0477C40.1436 29.0477 39.383 28.8722 38.7979 28.4626L38.3883 30.0424C37.6276 32.6168 37.1011 33.553 37.1011 33.553C36.8085 34.2551 36.4574 34.8988 36.0479 35.5424C35.7553 35.952 35.4042 36.3615 34.9362 36.5371C34.7606 36.5956 34.5851 36.5956 34.4096 36.5956C34.234 36.5956 34.0585 36.5371 33.883 36.42C33.5904 36.186 33.2979 35.8349 33.1223 35.4839C32.8883 35.0743 32.7128 34.6647 32.5372 34.2551C32.1862 33.3775 31.6011 31.2126 31.6011 31.2126L31.0159 28.9307L30.4308 26.6488L30.0213 25.1275C28.9681 21.2073 27.4468 19.2764 27.4468 19.2764C26.2766 17.5796 24.5798 16.3509 22.6489 15.6488C20.4255 14.8296 18.0851 15.2977 18.0851 15.2977C14.3989 15.9998 12.4681 18.5158 11.6489 19.7445C12.0585 19.8615 12.4096 19.9785 12.7606 20.2126C13.2287 20.5051 13.6383 20.8562 13.9308 21.2658C14.4574 22.0264 14.633 23.0211 14.6915 23.9573C14.9255 26.0051 15.3351 27.9945 15.8617 29.9839C17.0904 25.8296 18.6117 23.8988 18.6117 23.8988C18.7872 23.6647 18.9628 23.4892 19.1968 23.3722C19.3138 23.3137 19.4308 23.2551 19.6064 23.2551C19.8404 23.2551 20.133 23.3137 20.3085 23.4307C20.367 23.4307 20.367 23.4892 20.4255 23.4892C20.6011 23.6647 20.7766 23.8402 20.9521 24.0743C21.2447 24.6594 21.5372 25.186 21.7713 25.8296C22.2394 27.1168 22.6489 28.7551 22.6489 28.7551L23.8191 33.436C24.6968 36.6541 25.3989 38.1754 25.3989 38.1754C27.2128 42.3296 29.9628 43.4998 29.9628 43.4998C31.3085 44.202 32.8298 44.6115 34.3511 44.67C35.8138 44.7286 37.2766 44.436 38.5638 43.7924C39.9681 43.0903 41.2553 42.0371 42.25 40.8083C42.8936 40.0477 43.8883 38.1754 43.8883 38.1754C45 36.0105 45.8191 33.7285 46.4042 31.3881C46.8138 29.9254 47.1064 28.4626 47.3404 26.9413C47.4574 26.1807 47.5745 25.4785 47.633 24.7179C47.75 24.0158 47.75 23.3137 47.5745 22.6115C47.5159 22.4945 47.5159 22.3775 47.4574 22.2605C47.1064 21.3828 46.4628 20.6807 45.6436 20.2126C45.0585 19.803 44.3564 19.6275 43.6542 19.6275Z" fill="url(#paint30_radial_1119_23631)"/><path d="M43.6542 19.6275C43.3032 19.6275 42.9521 19.686 42.6596 19.7445C43.4202 20.8562 44.0638 22.0264 44.5904 23.2551C44.8245 23.7817 44.9415 24.3668 44.9415 24.952C44.9415 25.4785 44.8245 26.0051 44.6489 26.5317C44.4149 26.9998 44.1223 27.4679 43.7713 27.8775C43.4202 28.2871 42.9521 28.5796 42.4255 28.7551C41.9574 28.9307 41.3723 29.0477 40.8457 29.0477C40.1436 29.0477 39.383 28.8722 38.7979 28.4626L38.3883 30.0424C37.6276 32.6168 37.1011 33.553 37.1011 33.553C36.8085 34.2551 36.4574 34.8988 36.0479 35.5424C35.7553 35.952 35.4042 36.3615 34.9362 36.5371C34.7606 36.5956 34.5851 36.5956 34.4096 36.5956C34.234 36.5956 34.0585 36.5371 33.883 36.42C33.5904 36.186 33.2979 35.8349 33.1223 35.4839C32.8883 35.0743 32.7128 34.6647 32.5372 34.2551C32.1862 33.3775 31.6011 31.2126 31.6011 31.2126L31.0159 28.9307L30.4308 26.6488L30.0213 25.1275C28.9681 21.2073 27.4468 19.2764 27.4468 19.2764C26.2766 17.5796 24.5798 16.3509 22.6489 15.6488C20.4255 14.8296 18.0851 15.2977 18.0851 15.2977C14.3989 15.9998 12.4681 18.5158 11.6489 19.7445C12.0585 19.8615 12.4096 19.9785 12.7606 20.2126C13.2287 20.5051 13.6383 20.8562 13.9308 21.2658C14.4574 22.0264 14.633 23.0211 14.6915 23.9573C14.9255 26.0051 15.3351 27.9945 15.8617 29.9839C17.0904 25.8296 18.6117 23.8988 18.6117 23.8988C18.7872 23.6647 18.9628 23.4892 19.1968 23.3722C19.3138 23.3137 19.4308 23.2551 19.6064 23.2551C19.8404 23.2551 20.133 23.3137 20.3085 23.4307C20.367 23.4307 20.367 23.4892 20.4255 23.4892C20.6011 23.6647 20.7766 23.8402 20.9521 24.0743C21.2447 24.6594 21.5372 25.186 21.7713 25.8296C22.2394 27.1168 22.6489 28.7551 22.6489 28.7551L23.8191 33.436C24.6968 36.6541 25.3989 38.1754 25.3989 38.1754C27.2128 42.3296 29.9628 43.4998 29.9628 43.4998C31.3085 44.202 32.8298 44.6115 34.3511 44.67C35.8138 44.7286 37.2766 44.436 38.5638 43.7924C39.9681 43.0903 41.2553 42.0371 42.25 40.8083C42.8936 40.0477 43.8883 38.1754 43.8883 38.1754C45 36.0105 45.8191 33.7285 46.4042 31.3881C46.8138 29.9254 47.1064 28.4626 47.3404 26.9413C47.4574 26.1807 47.5745 25.4785 47.633 24.7179C47.75 24.0158 47.75 23.3137 47.5745 22.6115C47.5159 22.4945 47.5159 22.3775 47.4574 22.2605C47.1064 21.3828 46.4628 20.6807 45.6436 20.2126C45.0585 19.803 44.3564 19.6275 43.6542 19.6275Z" fill="url(#paint31_radial_1119_23631)"/><path d="M43.6542 19.6275C43.3032 19.6275 42.9521 19.686 42.6596 19.7445C43.4202 20.8562 44.0638 22.0264 44.5904 23.2551C44.8245 23.7817 44.9415 24.3668 44.9415 24.952C44.9415 25.4785 44.8245 26.0051 44.6489 26.5317C44.4149 26.9998 44.1223 27.4679 43.7713 27.8775C43.4202 28.2871 42.9521 28.5796 42.4255 28.7551C41.9574 28.9307 41.3723 29.0477 40.8457 29.0477C40.1436 29.0477 39.383 28.8722 38.7979 28.4626L38.3883 30.0424C37.6276 32.6168 37.1011 33.553 37.1011 33.553C36.8085 34.2551 36.4574 34.8988 36.0479 35.5424C35.7553 35.952 35.4042 36.3615 34.9362 36.5371C34.7606 36.5956 34.5851 36.5956 34.4096 36.5956C34.234 36.5956 34.0585 36.5371 33.883 36.42C33.5904 36.186 33.2979 35.8349 33.1223 35.4839C32.8883 35.0743 32.7128 34.6647 32.5372 34.2551C32.1862 33.3775 31.6011 31.2126 31.6011 31.2126L31.0159 28.9307L30.4308 26.6488L30.0213 25.1275C28.9681 21.2073 27.4468 19.2764 27.4468 19.2764C26.2766 17.5796 24.5798 16.3509 22.6489 15.6488C20.4255 14.8296 18.0851 15.2977 18.0851 15.2977C14.3989 15.9998 12.4681 18.5158 11.6489 19.7445C12.0585 19.8615 12.4096 19.9785 12.7606 20.2126C13.2287 20.5051 13.6383 20.8562 13.9308 21.2658C14.4574 22.0264 14.633 23.0211 14.6915 23.9573C14.9255 26.0051 15.3351 27.9945 15.8617 29.9839C17.0904 25.8296 18.6117 23.8988 18.6117 23.8988C18.7872 23.6647 18.9628 23.4892 19.1968 23.3722C19.3138 23.3137 19.4308 23.2551 19.6064 23.2551C19.8404 23.2551 20.133 23.3137 20.3085 23.4307C20.367 23.4307 20.367 23.4892 20.4255 23.4892C20.6011 23.6647 20.7766 23.8402 20.9521 24.0743C21.2447 24.6594 21.5372 25.186 21.7713 25.8296C22.2394 27.1168 22.6489 28.7551 22.6489 28.7551L23.8191 33.436C24.6968 36.6541 25.3989 38.1754 25.3989 38.1754C27.2128 42.3296 29.9628 43.4998 29.9628 43.4998C31.3085 44.202 32.8298 44.6115 34.3511 44.67C35.8138 44.7286 37.2766 44.436 38.5638 43.7924C39.9681 43.0903 41.2553 42.0371 42.25 40.8083C42.8936 40.0477 43.8883 38.1754 43.8883 38.1754C45 36.0105 45.8191 33.7285 46.4042 31.3881C46.8138 29.9254 47.1064 28.4626 47.3404 26.9413C47.4574 26.1807 47.5745 25.4785 47.633 24.7179C47.75 24.0158 47.75 23.3137 47.5745 22.6115C47.5159 22.4945 47.5159 22.3775 47.4574 22.2605C47.1064 21.3828 46.4628 20.6807 45.6436 20.2126C45.0585 19.803 44.3564 19.6275 43.6542 19.6275Z" fill="url(#paint32_radial_1119_23631)"/><path d="M43.6542 19.6275C43.3032 19.6275 42.9521 19.686 42.6596 19.7445C43.4202 20.8562 44.0638 22.0264 44.5904 23.2551C44.8245 23.7817 44.9415 24.3668 44.9415 24.952C44.9415 25.4785 44.8245 26.0051 44.6489 26.5317C44.4149 26.9998 44.1223 27.4679 43.7713 27.8775C43.4202 28.2871 42.9521 28.5796 42.4255 28.7551C41.9574 28.9307 41.3723 29.0477 40.8457 29.0477C40.1436 29.0477 39.383 28.8722 38.7979 28.4626L38.3883 30.0424C37.6276 32.6168 37.1011 33.553 37.1011 33.553C36.8085 34.2551 36.4574 34.8988 36.0479 35.5424C35.7553 35.952 35.4042 36.3615 34.9362 36.5371C34.7606 36.5956 34.5851 36.5956 34.4096 36.5956C34.234 36.5956 34.0585 36.5371 33.883 36.42C33.5904 36.186 33.2979 35.8349 33.1223 35.4839C32.8883 35.0743 32.7128 34.6647 32.5372 34.2551C32.1862 33.3775 31.6011 31.2126 31.6011 31.2126L31.0159 28.9307L30.4308 26.6488L30.0213 25.1275C28.9681 21.2073 27.4468 19.2764 27.4468 19.2764C26.2766 17.5796 24.5798 16.3509 22.6489 15.6488C20.4255 14.8296 18.0851 15.2977 18.0851 15.2977C14.3989 15.9998 12.4681 18.5158 11.6489 19.7445C12.0585 19.8615 12.4096 19.9785 12.7606 20.2126C13.2287 20.5051 13.6383 20.8562 13.9308 21.2658C14.4574 22.0264 14.633 23.0211 14.6915 23.9573C14.9255 26.0051 15.3351 27.9945 15.8617 29.9839C17.0904 25.8296 18.6117 23.8988 18.6117 23.8988C18.7872 23.6647 18.9628 23.4892 19.1968 23.3722C19.3138 23.3137 19.4308 23.2551 19.6064 23.2551C19.8404 23.2551 20.133 23.3137 20.3085 23.4307C20.367 23.4307 20.367 23.4892 20.4255 23.4892C20.6011 23.6647 20.7766 23.8402 20.9521 24.0743C21.2447 24.6594 21.5372 25.186 21.7713 25.8296C22.2394 27.1168 22.6489 28.7551 22.6489 28.7551L23.8191 33.436C24.6968 36.6541 25.3989 38.1754 25.3989 38.1754C27.2128 42.3296 29.9628 43.4998 29.9628 43.4998C31.3085 44.202 32.8298 44.6115 34.3511 44.67C35.8138 44.7286 37.2766 44.436 38.5638 43.7924C39.9681 43.0903 41.2553 42.0371 42.25 40.8083C42.8936 40.0477 43.8883 38.1754 43.8883 38.1754C45 36.0105 45.8191 33.7285 46.4042 31.3881C46.8138 29.9254 47.1064 28.4626 47.3404 26.9413C47.4574 26.1807 47.5745 25.4785 47.633 24.7179C47.75 24.0158 47.75 23.3137 47.5745 22.6115C47.5159 22.4945 47.5159 22.3775 47.4574 22.2605C47.1064 21.3828 46.4628 20.6807 45.6436 20.2126C45.0585 19.803 44.3564 19.6275 43.6542 19.6275Z" fill="url(#paint33_radial_1119_23631)"/><path d="M43.6542 19.6275C43.3032 19.6275 42.9521 19.686 42.6596 19.7445C43.4202 20.8562 44.0638 22.0264 44.5904 23.2551C44.8245 23.7817 44.9415 24.3668 44.9415 24.952C44.9415 25.4785 44.8245 26.0051 44.6489 26.5317C44.4149 26.9998 44.1223 27.4679 43.7713 27.8775C43.4202 28.2871 42.9521 28.5796 42.4255 28.7551C41.9574 28.9307 41.3723 29.0477 40.8457 29.0477C40.1436 29.0477 39.383 28.8722 38.7979 28.4626L38.3883 30.0424C37.6276 32.6168 37.1011 33.553 37.1011 33.553C36.8085 34.2551 36.4574 34.8988 36.0479 35.5424C35.7553 35.952 35.4042 36.3615 34.9362 36.5371C34.7606 36.5956 34.5851 36.5956 34.4096 36.5956C34.234 36.5956 34.0585 36.5371 33.883 36.42C33.5904 36.186 33.2979 35.8349 33.1223 35.4839C32.8883 35.0743 32.7128 34.6647 32.5372 34.2551C32.1862 33.3775 31.6011 31.2126 31.6011 31.2126L31.0159 28.9307L30.4308 26.6488L30.0213 25.1275C28.9681 21.2073 27.4468 19.2764 27.4468 19.2764C26.2766 17.5796 24.5798 16.3509 22.6489 15.6488C20.4255 14.8296 18.0851 15.2977 18.0851 15.2977C14.3989 15.9998 12.4681 18.5158 11.6489 19.7445C12.0585 19.8615 12.4096 19.9785 12.7606 20.2126C13.2287 20.5051 13.6383 20.8562 13.9308 21.2658C14.4574 22.0264 14.633 23.0211 14.6915 23.9573C14.9255 26.0051 15.3351 27.9945 15.8617 29.9839C17.0904 25.8296 18.6117 23.8988 18.6117 23.8988C18.7872 23.6647 18.9628 23.4892 19.1968 23.3722C19.3138 23.3137 19.4308 23.2551 19.6064 23.2551C19.8404 23.2551 20.133 23.3137 20.3085 23.4307C20.367 23.4307 20.367 23.4892 20.4255 23.4892C20.6011 23.6647 20.7766 23.8402 20.9521 24.0743C21.2447 24.6594 21.5372 25.186 21.7713 25.8296C22.2394 27.1168 22.6489 28.7551 22.6489 28.7551L23.8191 33.436C24.6968 36.6541 25.3989 38.1754 25.3989 38.1754C27.2128 42.3296 29.9628 43.4998 29.9628 43.4998C31.3085 44.202 32.8298 44.6115 34.3511 44.67C35.8138 44.7286 37.2766 44.436 38.5638 43.7924C39.9681 43.0903 41.2553 42.0371 42.25 40.8083C42.8936 40.0477 43.8883 38.1754 43.8883 38.1754C45 36.0105 45.8191 33.7285 46.4042 31.3881C46.8138 29.9254 47.1064 28.4626 47.3404 26.9413C47.4574 26.1807 47.5745 25.4785 47.633 24.7179C47.75 24.0158 47.75 23.3137 47.5745 22.6115C47.5159 22.4945 47.5159 22.3775 47.4574 22.2605C47.1064 21.3828 46.4628 20.6807 45.6436 20.2126C45.0585 19.803 44.3564 19.6275 43.6542 19.6275Z" fill="url(#paint34_linear_1119_23631)"/></g><defs><radialGradient id="paint1_radial_1119_23631" cx="0" cy="0" r="1" gradientUnits="userSpaceOnUse" gradientTransform="matrix(4.1432 14.7598 -11.21743 3.14883 29.73 27.484)"><stop stop-color="#227B60"/><stop offset=".14" stop-color="#227B60" stop-opacity=".81"/><stop offset=".58" stop-color="#227B60" stop-opacity=".23"/><stop offset=".78" stop-color="#227B60" stop-opacity="0"/></radialGradient><radialGradient id="paint2_radial_1119_23631" cx="0" cy="0" r="1" gradientUnits="userSpaceOnUse" gradientTransform="rotate(91.146 3.08 28.883) scale(10.3665 7.87746)"><stop stop-color="#227B60"/><stop offset=".25" stop-color="#227B60" stop-opacity=".7"/><stop offset=".71" stop-color="#227B60" stop-opacity=".2"/><stop offset=".92" stop-color="#227B60" stop-opacity="0"/></radialGradient><radialGradient id="paint3_radial_1119_23631" cx="0" cy="0" r="1" gradientUnits="userSpaceOnUse" gradientTransform="matrix(.2361 9.66052 -6.85891 .16763 31.527 26.812)"><stop stop-color="#227B60"/><stop offset=".07" stop-color="#227B60" stop-opacity=".9"/><stop offset=".34" stop-color="#227B60" stop-opacity=".51"/><stop offset=".59" stop-color="#227B60" stop-opacity=".23"/><stop offset=".79" stop-color="#227B60" stop-opacity=".06"/><stop offset=".92" stop-color="#227B60" stop-opacity="0"/></radialGradient><radialGradient id="paint4_radial_1119_23631" cx="0" cy="0" r="1" gradientUnits="userSpaceOnUse" gradientTransform="matrix(.19063 7.80017 -5.53815 .13535 31.694 26.38)"><stop stop-color="#227B60"/><stop offset=".36" stop-color="#227B60" stop-opacity=".63"/><stop offset=".92" stop-color="#227B60" stop-opacity="0"/></radialGradient><radialGradient id="paint5_radial_1119_23631" cx="0" cy="0" r="1" gradientUnits="userSpaceOnUse" gradientTransform="rotate(88.6 2.278 29.818) scale(6.22294 3.98272)"><stop stop-color="#20735A"/><stop offset=".15" stop-color="#20745A" stop-opacity=".93"/><stop offset=".38" stop-color="#21755C" stop-opacity=".74"/><stop offset=".67" stop-color="#21785D" stop-opacity=".43"/><stop offset="1" stop-color="#227B60" stop-opacity="0"/></radialGradient><radialGradient id="paint6_radial_1119_23631" cx="0" cy="0" r="1" gradientUnits="userSpaceOnUse" gradientTransform="matrix(9.16231 4.04106 -3.0308 6.87172 32.862 27.819)"><stop stop-color="#227A61"/><stop offset=".36" stop-color="#227A61" stop-opacity=".56"/><stop offset=".72" stop-color="#227A61" stop-opacity=".16"/><stop offset=".9" stop-color="#227A61" stop-opacity="0"/></radialGradient><radialGradient id="paint7_radial_1119_23631" cx="0" cy="0" r="1" gradientUnits="userSpaceOnUse" gradientTransform="matrix(10.90299 7.71186 -7.05142 9.96925 29.414 11.546)"><stop stop-color="#3CD9C3"/><stop offset=".07" stop-color="#3BD7C1" stop-opacity=".9"/><stop offset=".41" stop-color="#38CEB9" stop-opacity=".42"/><stop offset=".65" stop-color="#36C8B4" stop-opacity=".12"/><stop offset=".76" stop-color="#35C6B2" stop-opacity="0"/></radialGradient><radialGradient id="paint8_radial_1119_23631" cx="0" cy="0" r="1" gradientUnits="userSpaceOnUse" gradientTransform="matrix(1937.02966 1370.07277 -961.45144 1359.31462 -21893.464 -29743.397)"><stop stop-color="#3CD9C3"/><stop offset=".07" stop-color="#3BD7C1" stop-opacity=".9"/><stop offset=".41" stop-color="#38CEB9" stop-opacity=".42"/><stop offset=".65" stop-color="#36C8B4" stop-opacity=".12"/><stop offset=".76" stop-color="#35C6B2" stop-opacity="0"/></radialGradient><radialGradient id="paint9_radial_1119_23631" cx="0" cy="0" r="1" gradientUnits="userSpaceOnUse" gradientTransform="rotate(100.972 4.86 29.522) scale(11.7783 14.5548)"><stop stop-color="#237F66" stop-opacity=".8"/><stop offset=".06" stop-color="#2C8C70" stop-opacity=".65"/><stop offset=".21" stop-color="#3DA785" stop-opacity=".37"/><stop offset=".35" stop-color="#4ABA93" stop-opacity=".17"/><stop offset=".47" stop-color="#51C59C" stop-opacity=".04"/><stop offset=".56" stop-color="#54C99F" stop-opacity="0"/></radialGradient><radialGradient id="paint10_radial_1119_23631" cx="0" cy="0" r="1" gradientUnits="userSpaceOnUse" gradientTransform="matrix(9.72327 -11.93041 12.88487 10.50116 28.235 30.952)"><stop stop-color="#167C8A"/><stop offset=".04" stop-color="#167C8A" stop-opacity=".93"/><stop offset=".33" stop-color="#177F8D" stop-opacity=".43"/><stop offset=".54" stop-color="#17818F" stop-opacity=".12"/><stop offset=".65" stop-color="#178290" stop-opacity="0"/></radialGradient><radialGradient id="paint11_radial_1119_23631" cx="0" cy="0" r="1" gradientUnits="userSpaceOnUse" gradientTransform="matrix(12.77994 -7.8807 6.22576 10.09617 27.302 32.484)"><stop offset=".05" stop-color="#177D87"/><stop offset=".11" stop-color="#177E89" stop-opacity=".8"/><stop offset=".21" stop-color="#177F8B" stop-opacity=".52"/><stop offset=".32" stop-color="#17818D" stop-opacity=".29"/><stop offset=".42" stop-color="#17818F" stop-opacity=".13"/><stop offset=".51" stop-color="#178290" stop-opacity=".03"/><stop offset=".6" stop-color="#178290" stop-opacity="0"/></radialGradient><radialGradient id="paint12_radial_1119_23631" cx="0" cy="0" r="1" gradientUnits="userSpaceOnUse" gradientTransform="rotate(-130.539 19.53 10.578) scale(8.94548 7.04379)"><stop offset=".26" stop-color="#177F8A"/><stop offset=".27" stop-color="#177F8A" stop-opacity=".98"/><stop offset=".38" stop-color="#17808C" stop-opacity=".68"/><stop offset=".5" stop-color="#17818D" stop-opacity=".43"/><stop offset=".62" stop-color="#17818F" stop-opacity=".24"/><stop offset=".74" stop-color="#17828F" stop-opacity=".11"/><stop offset=".86" stop-color="#178290" stop-opacity=".03"/><stop offset="1" stop-color="#178290" stop-opacity="0"/></radialGradient><radialGradient id="paint13_radial_1119_23631" cx="0" cy="0" r="1" gradientUnits="userSpaceOnUse" gradientTransform="rotate(-173.11 12.047 16.806) scale(8.39105)"><stop stop-color="#13656E"/><stop offset=".11" stop-color="#13646E" stop-opacity=".73"/><stop offset=".27" stop-color="#12646E" stop-opacity=".41"/><stop offset=".42" stop-color="#12636E" stop-opacity=".18"/><stop offset=".55" stop-color="#12636E" stop-opacity=".05"/><stop offset=".66" stop-color="#12636E" stop-opacity="0"/></radialGradient><radialGradient id="paint14_radial_1119_23631" cx="0" cy="0" r="1" gradientUnits="userSpaceOnUse" gradientTransform="matrix(-2.87355 -5.11642 4.29779 -2.41378 21.774 36.212)"><stop offset=".13" stop-color="#146A73"/><stop offset=".24" stop-color="#156F79" stop-opacity=".79"/><stop offset=".45" stop-color="#167783" stop-opacity=".45"/><stop offset=".65" stop-color="#167D8A" stop-opacity=".2"/><stop offset=".82" stop-color="#17818E" stop-opacity=".05"/><stop offset=".95" stop-color="#178290" stop-opacity="0"/></radialGradient><radialGradient id="paint15_radial_1119_23631" cx="0" cy="0" r="1" gradientUnits="userSpaceOnUse" gradientTransform="matrix(3.08744 -4.576 3.6252 2.44593 20.466 33.54)"><stop stop-color="#198E9C"/><stop offset=".1" stop-color="#198E9C" stop-opacity=".87"/><stop offset=".41" stop-color="#198E9C" stop-opacity=".5"/><stop offset=".67" stop-color="#198E9C" stop-opacity=".23"/><stop offset=".88" stop-color="#198E9C" stop-opacity=".06"/><stop offset="1" stop-color="#198E9C" stop-opacity="0"/></radialGradient><radialGradient id="paint22_radial_1119_23631" cx="0" cy="0" r="1" gradientUnits="userSpaceOnUse" gradientTransform="rotate(98.69 6.35 30.628) scale(18.4482 12.1758)"><stop stop-color="#1A3D9C"/><stop offset=".4" stop-color="#1A3D9C" stop-opacity=".42"/><stop offset=".7" stop-color="#1A3D9C" stop-opacity="0"/></radialGradient><radialGradient id="paint23_radial_1119_23631" cx="0" cy="0" r="1" gradientUnits="userSpaceOnUse" gradientTransform="matrix(-342.89488 2243.44676 -1209.65226 -184.88674 11233.3 -28955.5)"><stop stop-color="#1A3D9C"/><stop offset=".4" stop-color="#1A3D9C" stop-opacity=".42"/><stop offset=".7" stop-color="#1A3D9C" stop-opacity="0"/></radialGradient><radialGradient id="paint24_radial_1119_23631" cx="0" cy="0" r="1" gradientUnits="userSpaceOnUse" gradientTransform="matrix(-404.90072 2672.35993 -1104.00976 -167.27326 9864.08 -29405.2)"><stop stop-color="#1A3D9C"/><stop offset=".4" stop-color="#1A3D9C" stop-opacity=".42"/><stop offset=".7" stop-color="#1A3D9C" stop-opacity="0"/></radialGradient><radialGradient id="paint25_radial_1119_23631" cx="0" cy="0" r="1" gradientUnits="userSpaceOnUse" gradientTransform="matrix(1.94039 16.00803 -11.16944 1.35389 35.28 28.286)"><stop stop-color="#1A3D9C"/><stop offset=".16" stop-color="#1A3D9C" stop-opacity=".69"/><stop offset=".33" stop-color="#1A3D9C" stop-opacity=".4"/><stop offset=".49" stop-color="#1A3D9C" stop-opacity=".18"/><stop offset=".61" stop-color="#1A3D9C" stop-opacity=".05"/><stop offset=".7" stop-color="#1A3D9C" stop-opacity="0"/></radialGradient><radialGradient id="paint26_radial_1119_23631" cx="0" cy="0" r="1" gradientUnits="userSpaceOnUse" gradientTransform="matrix(4.10487 14.94336 -10.1615 2.79131 38.19 30.745)"><stop stop-color="#18388F"/><stop offset=".37" stop-color="#193B96" stop-opacity=".45"/><stop offset=".7" stop-color="#1A3D9C" stop-opacity="0"/></radialGradient><radialGradient id="paint27_radial_1119_23631" cx="0" cy="0" r="1" gradientUnits="userSpaceOnUse" gradientTransform="rotate(74.64 -4.56 41.474) scale(7.20533 6.84503)"><stop stop-color="#18388F"/><stop offset=".09" stop-color="#183992" stop-opacity=".78"/><stop offset=".22" stop-color="#193B96" stop-opacity=".5"/><stop offset=".35" stop-color="#193C98" stop-opacity=".28"/><stop offset=".47" stop-color="#1A3C9A" stop-opacity=".13"/><stop offset=".59" stop-color="#1A3D9C" stop-opacity=".03"/><stop offset=".7" stop-color="#1A3D9C" stop-opacity="0"/></radialGradient><radialGradient id="paint28_radial_1119_23631" cx="0" cy="0" r="1" gradientUnits="userSpaceOnUse" gradientTransform="rotate(74.64 -5.279 42.202) scale(7.20533 6.84503)"><stop stop-color="#1A3D9C" stop-opacity=".8"/><stop offset=".01" stop-color="#1A3D9C" stop-opacity=".78"/><stop offset=".24" stop-color="#1A3D9C" stop-opacity=".45"/><stop offset=".44" stop-color="#1A3D9C" stop-opacity=".2"/><stop offset=".6" stop-color="#1A3D9C" stop-opacity=".05"/><stop offset=".7" stop-color="#1A3D9C" stop-opacity="0"/></radialGradient><radialGradient id="paint29_radial_1119_23631" cx="0" cy="0" r="1" gradientUnits="userSpaceOnUse" gradientTransform="rotate(67.027 -14.45 30.177) scale(17.1955 11.4109)"><stop stop-color="#1A3D9C"/><stop offset=".4" stop-color="#1A3D9C" stop-opacity=".56"/><stop offset=".48" stop-color="#1A3D9C" stop-opacity=".43"/><stop offset=".69" stop-color="#1A3D9C" stop-opacity=".12"/><stop offset=".79" stop-color="#1A3D9C" stop-opacity="0"/></radialGradient><radialGradient id="paint30_radial_1119_23631" cx="0" cy="0" r="1" gradientUnits="userSpaceOnUse" gradientTransform="matrix(3.06332 12.38107 -8.17389 2.02238 17.878 27.81)"><stop stop-color="#1A3D9C"/><stop offset=".06" stop-color="#1A3D9C" stop-opacity=".88"/><stop offset=".21" stop-color="#1A3D9C" stop-opacity=".61"/><stop offset=".36" stop-color="#1A3D9C" stop-opacity=".39"/><stop offset=".51" stop-color="#1A3D9C" stop-opacity=".22"/><stop offset=".67" stop-color="#1A3D9C" stop-opacity=".1"/><stop offset=".83" stop-color="#1A3D9C" stop-opacity=".02"/><stop offset="1" stop-color="#1A3D9C" stop-opacity="0"/></radialGradient><radialGradient id="paint31_radial_1119_23631" cx="0" cy="0" r="1" gradientUnits="userSpaceOnUse" gradientTransform="matrix(3.06332 12.38107 -8.17389 2.02238 17.878 27.81)"><stop stop-color="#1B3E9E"/><stop offset=".06" stop-color="#1B3E9E" stop-opacity=".87"/><stop offset=".21" stop-color="#1B3E9D" stop-opacity=".61"/><stop offset=".36" stop-color="#1A3D9D" stop-opacity=".39"/><stop offset=".52" stop-color="#1A3D9C" stop-opacity=".22"/><stop offset=".67" stop-color="#1A3D9C" stop-opacity=".1"/><stop offset=".83" stop-color="#1A3D9C" stop-opacity=".02"/><stop offset="1" stop-color="#1A3D9C" stop-opacity="0"/></radialGradient><radialGradient id="paint32_radial_1119_23631" cx="0" cy="0" r="1" gradientUnits="userSpaceOnUse" gradientTransform="matrix(2.34357 9.47205 -6.2534 1.54721 18.37 26.562)"><stop stop-color="#183991"/><stop offset=".03" stop-color="#183992" stop-opacity=".95"/><stop offset=".18" stop-color="#193A95" stop-opacity=".66"/><stop offset=".34" stop-color="#193B97" stop-opacity=".42"/><stop offset=".5" stop-color="#1A3C99" stop-opacity=".24"/><stop offset=".66" stop-color="#1A3D9B" stop-opacity=".1"/><stop offset=".82" stop-color="#1A3D9C" stop-opacity=".03"/><stop offset="1" stop-color="#1A3D9C" stop-opacity="0"/></radialGradient><radialGradient id="paint33_radial_1119_23631" cx="0" cy="0" r="1" gradientUnits="userSpaceOnUse" gradientTransform="matrix(.38499 7.70088 -6.77904 .3389 20.091 27.553)"><stop offset=".04" stop-color="#2453D6" stop-opacity=".6"/><stop offset=".2" stop-color="#2453D6" stop-opacity=".49"/><stop offset=".52" stop-color="#2453D6" stop-opacity=".2"/><stop offset=".73" stop-color="#2453D6" stop-opacity="0"/></radialGradient><linearGradient id="paint0_linear_1119_23631" x1="8.354" y1="35.116" x2="40.43" y2="22.151" gradientUnits="userSpaceOnUse"><stop offset=".13" stop-color="#1CBBF3"/><stop offset=".34" stop-color="#1F99A5"/><stop offset=".45" stop-color="#209CA6"/><stop offset=".51" stop-color="#24A4AA"/><stop offset=".57" stop-color="#2BB3B0"/><stop offset=".6" stop-color="#30BDB4"/><stop offset=".79" stop-color="#38BA90"/><stop offset="1" stop-color="#60F05A"/></linearGradient><linearGradient id="paint16_linear_1119_23631" x1="10.418" y1="14.511" x2="24.571" y2="27.608" gradientUnits="userSpaceOnUse"><stop offset=".13" stop-color="#2BF9FF"/><stop offset=".27" stop-color="#29F9FF" stop-opacity=".64"/><stop offset=".4" stop-color="#27FAFF" stop-opacity=".3"/><stop offset=".49" stop-color="#26FAFF" stop-opacity=".08"/><stop offset=".54" stop-color="#26FAFF" stop-opacity="0"/></linearGradient><linearGradient id="paint17_linear_1119_23631" x1="2.405" y1="35.882" x2="18.937" y2="31.195" gradientUnits="userSpaceOnUse"><stop stop-color="#26FAFF"/><stop offset=".06" stop-color="#26FAFF" stop-opacity=".88"/><stop offset=".24" stop-color="#26FAFF" stop-opacity=".51"/><stop offset=".39" stop-color="#26FAFF" stop-opacity=".23"/><stop offset=".5" stop-color="#26FAFF" stop-opacity=".06"/><stop offset=".55" stop-color="#26FAFF" stop-opacity="0"/></linearGradient><linearGradient id="paint18_linear_1119_23631" x1="6.785" y1="35.307" x2="25.415" y2="28.667" gradientUnits="userSpaceOnUse"><stop stop-color="#21DEFF"/><stop offset=".04" stop-color="#21DEFF" stop-opacity=".88"/><stop offset=".17" stop-color="#21DEFF" stop-opacity=".51"/><stop offset=".27" stop-color="#21DEFF" stop-opacity=".23"/><stop offset=".34" stop-color="#21DEFF" stop-opacity=".06"/><stop offset=".38" stop-color="#21DEFF" stop-opacity="0"/></linearGradient><linearGradient id="paint19_linear_1119_23631" x1="24.488" y1="25.697" x2="34.909" y2="42.694" gradientUnits="userSpaceOnUse"><stop offset=".62" stop-color="#21DEFF" stop-opacity="0"/><stop offset=".66" stop-color="#21DEFF" stop-opacity=".06"/><stop offset=".73" stop-color="#21DEFF" stop-opacity=".23"/><stop offset=".83" stop-color="#21DEFF" stop-opacity=".51"/><stop offset=".96" stop-color="#21DEFF" stop-opacity=".88"/><stop offset="1" stop-color="#21DEFF"/></linearGradient><linearGradient id="paint20_linear_1119_23631" x1="36.085" y1="32.047" x2="34.447" y2="24.052" gradientUnits="userSpaceOnUse"><stop stop-color="#44B044"/><stop offset=".11" stop-color="#44B044" stop-opacity=".8"/><stop offset=".27" stop-color="#44B044" stop-opacity=".52"/><stop offset=".43" stop-color="#44B044" stop-opacity=".29"/><stop offset=".58" stop-color="#44B044" stop-opacity=".13"/><stop offset=".7" stop-color="#44B044" stop-opacity=".03"/><stop offset=".8" stop-color="#44B044" stop-opacity="0"/></linearGradient><linearGradient id="paint21_linear_1119_23631" x1="13.221" y1="23.75" x2="47.718" y2="35.171" gradientUnits="userSpaceOnUse"><stop stop-color="#3066FB"/><stop offset=".38" stop-color="#2F64F7"/><stop offset=".74" stop-color="#2857D9"/><stop offset="1" stop-color="#3C7EFF"/></linearGradient><linearGradient id="paint34_linear_1119_23631" x1="35.626" y1="9.671" x2="26.912" y2="31.209" gradientUnits="userSpaceOnUse"><stop stop-color="#3774FF"/><stop offset=".05" stop-color="#3774FF" stop-opacity=".91"/><stop offset=".16" stop-color="#3774FF" stop-opacity=".66"/><stop offset=".32" stop-color="#3774FF" stop-opacity=".28"/><stop offset=".43" stop-color="#3774FF" stop-opacity="0"/></linearGradient><clipPath id="clip0_1119_23631"><path fill="#fff" transform="translate(6.5 15.18)" d="M0 0H165V45.638H0z"/></clipPath></defs></svg>