<svg width="178" height="86" viewBox="0 0 178 86" fill="none" xmlns="http://www.w3.org/2000/svg"><path d="M50.6376 81.2817C71.3833 81.2817 88.201 64.4175 88.201 43.6145C88.201 22.8115 71.3833 5.94733 50.6376 5.94733C29.8919 5.94733 13.0742 22.8115 13.0742 43.6145C13.0742 64.4175 29.8919 81.2817 50.6376 81.2817Z" fill="url(#paint0_linear_834_14686)"/><path fill-rule="evenodd" clip-rule="evenodd" d="M84.7388 59.4311C77.8713 66.9497 68.0004 71.6644 57.0314 71.6644C36.2857 71.6644 19.468 54.8002 19.468 33.9973C19.468 28.3483 20.7081 22.9899 22.9301 18.1805C16.8092 24.8819 13.0742 33.8108 13.0742 43.6144C13.0742 64.4174 29.8919 81.2815 50.6376 81.2815C65.7499 81.2815 78.7778 72.3326 84.7388 59.4311Z" fill="#fff" fill-opacity=".15"/><path fill-rule="evenodd" clip-rule="evenodd" d="M84.7351 59.4383C78.7726 72.336 65.7467 81.2815 50.6372 81.2815C46.188 81.2815 41.9193 80.5058 37.9585 79.0819C43.921 66.1843 56.9469 57.2386 72.0563 57.2386C76.5057 57.2386 80.7743 58.0143 84.7351 59.4383Z" fill="#fff" fill-opacity=".15"/><path d="M38.3291 27.7248H43.3185C45.4503 27.7248 47.2042 28.1166 48.5801 28.9002C49.956 29.6696 50.9539 30.6741 51.5738 31.9136C52.2088 33.139 52.5263 34.4568 52.5263 35.8674C52.5263 37.3776 52.1483 38.7098 51.3923 39.8638C50.6364 41.0179 49.6158 41.9084 48.3307 42.5352C47.0606 43.1479 45.662 43.4542 44.135 43.4542H38.3291V27.7248ZM43.568 40.4622C45.2765 40.4622 46.6297 40.049 47.6276 39.2226C48.6255 38.3963 49.1245 37.2066 49.1245 35.6537C49.1245 34.3999 48.8447 33.4025 48.2853 32.6616C47.741 31.9208 47.0984 31.4078 46.3575 31.1229C45.6319 30.8379 44.9439 30.6954 44.2937 30.6954H41.6176V40.4622H43.568Z" fill="#fff"/><path d="M75.4257 40.3767H69.8919L68.5312 43.4542H65.2881L72.8176 27.105H72.999L80.5286 43.4542H76.7184L75.4257 40.3767ZM74.3371 37.7694L72.7269 33.9438L71.0486 37.7694H74.3371Z" fill="#fff"/><path d="M104.555 43.6008L101.041 38.5134H98.8413V43.6008H95.5537V27.5995H100.61C102.681 27.5995 104.283 28.085 105.416 29.0561C106.565 30.0128 107.14 31.3245 107.14 32.9912C107.14 33.9768 106.92 34.9045 106.482 35.7741C106.059 36.6292 105.401 37.3032 104.51 37.796L108.387 43.6008H104.555ZM98.8413 35.4697H101.177C102.068 35.4697 102.718 35.2233 103.126 34.7306C103.535 34.2232 103.739 33.6797 103.739 33.0999C103.739 32.5202 103.565 31.9695 103.217 31.4477C102.87 30.9114 102.197 30.6433 101.199 30.6433H98.8413V35.4697Z" fill="#4B4B4B"/><path d="M121.971 35.6219C121.971 34.1726 122.348 32.8174 123.105 31.5564C123.875 30.2955 124.911 29.2954 126.21 28.5562C127.525 27.8025 128.946 27.4257 130.472 27.4257C131.999 27.4257 133.412 27.8025 134.713 28.5562C136.027 29.2954 137.071 30.2955 137.841 31.5564C138.628 32.8174 139.021 34.1726 139.021 35.6219C139.021 37.1004 138.628 38.4628 137.841 39.7093C137.071 40.9557 136.027 41.9486 134.713 42.6877C133.412 43.4124 131.999 43.7748 130.472 43.7748C128.931 43.7748 127.51 43.4124 126.21 42.6877C124.911 41.9486 123.875 40.9557 123.105 39.7093C122.348 38.4628 121.971 37.1004 121.971 35.6219ZM125.371 35.6219C125.371 36.5496 125.598 37.4047 126.051 38.1874C126.52 38.9701 127.148 39.5933 127.933 40.0571C128.734 40.5064 129.619 40.731 130.586 40.731C131.523 40.731 132.378 40.5064 133.148 40.0571C133.919 39.5933 134.524 38.9773 134.962 38.2091C135.4 37.4264 135.619 36.5641 135.619 35.6219C135.619 34.6654 135.392 33.7958 134.939 33.0131C134.486 32.2304 133.866 31.6144 133.08 31.165C132.31 30.7013 131.447 30.4694 130.496 30.4694C129.543 30.4694 128.674 30.7013 127.888 31.165C127.117 31.6144 126.505 32.2304 126.051 33.0131C125.598 33.7958 125.371 34.6654 125.371 35.6219Z" fill="#4B4B4B"/><path d="M163.679 31.4695C162.228 30.7013 160.966 30.3172 159.893 30.3172C159.167 30.3172 158.6 30.4548 158.192 30.7302C157.799 31.0056 157.603 31.4187 157.603 31.9695C157.603 32.4768 157.89 32.9261 158.464 33.3174C159.054 33.6942 159.832 34.0567 160.8 34.4044C161.585 34.6798 162.259 34.9987 162.817 35.361C163.377 35.7089 163.838 36.1944 164.2 36.8177C164.579 37.4409 164.767 38.2308 164.767 39.1875C164.767 40.0136 164.54 40.7818 164.087 41.492C163.649 42.1877 162.999 42.7457 162.137 43.166C161.276 43.5719 160.248 43.7748 159.054 43.7748C158.056 43.7748 157.066 43.6371 156.083 43.3617C155.101 43.0718 154.187 42.637 153.34 42.0573L154.792 39.6005C155.366 40.0064 156.024 40.3397 156.764 40.6006C157.505 40.8615 158.17 40.9919 158.759 40.9919C159.454 40.9919 160.059 40.8542 160.573 40.5788C161.087 40.289 161.343 39.8252 161.343 39.1875C161.343 38.3613 160.536 37.6439 158.918 37.0351C157.965 36.6728 157.172 36.3249 156.537 35.9915C155.902 35.6581 155.35 35.1799 154.882 34.5566C154.428 33.9334 154.202 33.1507 154.202 32.2086C154.202 30.8317 154.67 29.7229 155.608 28.8823C156.56 28.0416 157.822 27.5851 159.394 27.5126C160.634 27.5126 161.668 27.6503 162.501 27.9257C163.332 28.1866 164.141 28.5634 164.926 29.0562L163.679 31.4695Z" fill="#4B4B4B"/><path d="M100.901 54.9948H100.044V52.1835H96.6918V54.9948H95.834V48.5829H96.6918V51.3588H100.044V48.5829H100.901V54.9948Z" fill="#808186"/><path d="M107.784 48.5829V49.4078H104.485V51.3588H107.43V52.1835H104.485V54.1612H107.908V54.9948H103.627V48.5829H107.784Z" fill="#808186"/><path d="M113.642 53.3098H111.183L110.502 54.9948H109.653L112.448 48.3169H112.501L115.296 54.9948H114.305L113.642 53.3098ZM113.35 52.5649L112.439 50.2236L111.493 52.5649H113.35Z" fill="#808186"/><path d="M118.233 48.5829V54.1612H121.488V54.9948H117.375V48.5829H118.233Z" fill="#808186"/><path d="M124.619 48.5829V54.9948H123.761V48.5829H124.619Z" fill="#808186"/><path d="M132.912 48.5829V55.2075H132.885L128.189 50.4275L128.207 54.9947H127.341V48.3878H127.384L132.072 53.2211L132.054 48.5829H132.912Z" fill="#808186"/><path d="M140.649 54.4448C140.454 54.5985 140.148 54.7404 139.73 54.8706C139.317 55.0006 138.934 55.0656 138.58 55.0656C137.913 55.0656 137.327 54.9296 136.82 54.6577C136.313 54.3798 135.921 54.0014 135.644 53.5226C135.372 53.0436 135.237 52.5057 135.237 51.9085C135.237 51.2109 135.385 50.6078 135.679 50.0994C135.974 49.585 136.372 49.1918 136.873 48.9199C137.374 48.6479 137.923 48.5119 138.518 48.5119C138.877 48.5119 139.216 48.5563 139.535 48.645C139.853 48.7277 140.14 48.8401 140.393 48.9819L140.109 49.7713C139.921 49.6648 139.682 49.5731 139.394 49.4963C139.11 49.4136 138.854 49.3721 138.624 49.3721C138.129 49.3721 137.69 49.4726 137.306 49.6737C136.928 49.8747 136.637 50.1614 136.43 50.5339C136.224 50.9064 136.122 51.3409 136.122 51.8375C136.122 52.2987 136.224 52.7096 136.43 53.0702C136.637 53.4309 136.928 53.7117 137.306 53.9128C137.684 54.1079 138.114 54.2054 138.598 54.2054C138.822 54.2054 139.039 54.1847 139.252 54.1433C139.464 54.096 139.641 54.0309 139.782 53.9482V52.6801H138.509V51.8553H140.649V54.4448Z" fill="#808186"/><path d="M100.53 63.4918C100.324 63.6279 100.061 63.755 99.7431 63.8732C99.4306 63.9855 99.0886 64.0417 98.7172 64.0417C98.0627 64.0417 97.4849 63.8969 96.9837 63.6072C96.4885 63.3174 96.1053 62.9272 95.8341 62.4365C95.5688 61.9458 95.436 61.4048 95.436 60.8136C95.436 60.181 95.5717 59.6135 95.8429 59.1109C96.1141 58.6025 96.4885 58.2064 96.9661 57.9226C97.4495 57.6328 97.9949 57.488 98.6022 57.488C98.9618 57.488 99.2979 57.5353 99.6103 57.6299C99.9229 57.7245 100.203 57.8487 100.451 58.0023L100.106 58.8094C99.6163 58.4783 99.124 58.3128 98.6287 58.3128C98.216 58.3128 97.8328 58.4221 97.4791 58.6409C97.1311 58.8596 96.8511 59.1582 96.6388 59.5366C96.4325 59.9091 96.3293 60.3199 96.3293 60.7693C96.3293 61.2304 96.4237 61.6472 96.6123 62.0197C96.8069 62.3922 97.081 62.6848 97.4348 62.8977C97.7944 63.1046 98.2071 63.2081 98.6729 63.2081C99.2448 63.2081 99.7431 63.0455 100.168 62.7203L100.53 63.4918Z" fill="#808186"/><path d="M107.015 57.5588V58.3836H103.717V60.3346H106.662V61.1595H103.717V63.1371H107.139V63.9707H102.859V57.5588H107.015Z" fill="#808186"/><path d="M115.093 57.5589V64.1836H115.066L110.37 59.4036L110.388 63.9708H109.521V57.3638H109.566L114.253 62.1971L114.235 57.5589H115.093Z" fill="#808186"/><path d="M121.592 57.5588V58.3836H119.877V63.9707H119.018V58.3836H117.347V57.5588H121.592Z" fill="#808186"/><path d="M128.004 57.5588V58.3836H124.705V60.3346H127.65V61.1595H124.705V63.1371H128.128V63.9707H123.848V57.5588H128.004Z" fill="#808186"/><path d="M134.03 63.9707L132.526 61.6029C132.479 61.6088 132.408 61.6117 132.314 61.6117H131.368V63.9707H130.51V57.5588H132.217C132.653 57.5588 133.042 57.6357 133.384 57.7895C133.726 57.9432 133.995 58.1708 134.189 58.4723C134.383 58.7679 134.481 59.1256 134.481 59.5454C134.481 59.9415 134.393 60.3051 134.215 60.6361C134.044 60.9673 133.779 61.2185 133.42 61.39L135.029 63.9707H134.03ZM132.296 60.7781C132.757 60.7781 133.087 60.6569 133.287 60.4144C133.494 60.172 133.596 59.8942 133.596 59.5808C133.596 59.3917 133.552 59.2054 133.463 59.0222C133.381 58.8388 133.246 58.6881 133.057 58.5698C132.874 58.4457 132.641 58.3836 132.358 58.3836H131.368V60.7781H132.296Z" fill="#808186"/><defs><linearGradient id="paint0_linear_834_14686" x1="71.098" y1="14.923" x2="32.906" y2="74.454" gradientUnits="userSpaceOnUse"><stop stop-color="#2691B7"/><stop offset="1" stop-color="#ACDBB2"/></linearGradient></defs></svg>