<svg width="37" height="20" viewBox="0 0 37 20" fill="none" xmlns="http://www.w3.org/2000/svg"><g clip-path="url(#clip0_601_4406)"><path d="M22.5822 6.01367C20.667 6.01367 18.9555 7.0091 18.9555 8.84822C18.9555 10.9573 21.9909 11.103 21.9909 12.1626C21.9909 12.6087 21.481 13.0081 20.6102 13.0081C19.3743 13.0081 18.4506 12.4501 18.4506 12.4501L18.0554 14.3059C18.0554 14.3059 19.1195 14.7773 20.5322 14.7773C22.6261 14.7773 24.2738 13.733 24.2738 11.8624C24.2738 9.63376 21.2257 9.49241 21.2257 8.50896C21.2257 8.15947 21.6443 7.77654 22.5126 7.77654C23.4924 7.77654 24.2917 8.18238 24.2917 8.18238L24.6785 6.38992C24.6785 6.38992 23.8087 6.01367 22.5822 6.01367ZM5.06005 6.14895L5.01367 6.41951C5.01367 6.41951 5.81939 6.56738 6.54508 6.86234C7.47946 7.20058 7.54602 7.39748 7.70338 8.00906L9.41818 14.6378H11.7169L15.2582 6.14895H12.9648L10.6893 11.9206L9.76072 7.02827C9.67556 6.46836 9.24422 6.14895 8.71624 6.14895H5.06005ZM16.1804 6.14895L14.3813 14.6378H16.5683L18.361 6.14895H16.1804ZM28.3779 6.14895C27.8505 6.14895 27.5711 6.43207 27.3661 6.92681L24.1621 14.6378H26.4555L26.8992 13.3526H29.6933L29.9631 14.6378H31.9867L30.2213 6.14895H28.3779ZM28.6762 8.44237L29.356 11.6278H27.5347L28.6762 8.44237Z" fill="#1434CB"/></g><rect x=".25" y=".25" width="36.5" height="19.5" rx="2.75" stroke="#959393" stroke-width=".5"/><defs><clipPath id="clip0_601_4406"><path fill="#fff" transform="translate(5 6)" d="M0 0H27V8.791H0z"/></clipPath></defs></svg>