<svg width="70" height="31" viewBox="0 0 70 31" fill="none" xmlns="http://www.w3.org/2000/svg"><path d="M28.4775 15.6197C28.4775 19.4029 28.4775 23.186 28.4775 26.9691C28.4775 28.2218 27.81 29.1613 26.7142 29.4745C25.1776 29.9129 23.6788 28.8607 23.5781 27.2572C23.5781 27.2322 23.5781 27.2071 23.5781 27.1821C23.5151 26.9566 23.4521 26.7311 23.3766 26.5181C23.175 26.6309 22.9483 26.7186 22.772 26.8564C21.185 28.0339 19.4343 28.8481 17.5199 29.3242C9.7362 31.2157 1.77617 26.1423 0.264774 18.313C-1.19624 10.7844 3.52687 3.50629 11.0335 1.81516C15.2024 0.875644 19.0565 1.68989 22.5579 4.15769C22.709 4.27043 22.8476 4.40822 22.9987 4.52097C23.3136 4.75898 23.4899 4.68382 23.5529 4.30801C23.5781 4.12011 23.5655 3.91968 23.5907 3.73177C23.7922 2.41645 24.8628 1.50199 26.1223 1.57715C27.4573 1.65231 28.4523 2.67951 28.4649 4.04494C28.4775 5.05962 28.4649 6.06174 28.4649 7.07644C28.4775 9.92004 28.4775 12.7761 28.4775 15.6197ZM23.5151 15.5696C23.5151 10.4461 19.3336 6.29974 14.1948 6.29974C9.06867 6.29974 4.88713 10.4712 4.88713 15.5822C4.89973 20.6806 9.06867 24.8521 14.1696 24.8521C19.3462 24.8646 23.5277 20.7057 23.5151 15.5696Z" fill="#2B323F"/><path d="M44 15.507C44 11.6988 44 7.89064 44 4.06999C44 2.71709 44.8817 1.72746 46.2293 1.56461C46.7835 1.50198 47.2873 1.66483 47.7785 1.92789C54.5294 5.64834 61.2803 9.35634 68.0312 13.0893C68.4217 13.3023 68.8247 13.5277 69.1522 13.8159C70.2605 14.818 70.0716 16.6595 68.7617 17.5238C68.0942 17.9623 67.3637 18.3255 66.6584 18.7139C60.3735 22.1838 54.076 25.6538 47.7911 29.1237C45.9648 30.1259 44.0126 29.011 44.0126 26.9315C44 23.1359 44 19.3277 44 15.507ZM48.8869 15.5446C48.8869 17.5614 48.8869 19.5908 48.8869 21.6076C48.8869 21.808 48.912 22.021 48.9624 22.2089C49.0254 22.4469 49.2017 22.5471 49.4284 22.497C49.5922 22.4594 49.7433 22.3968 49.8945 22.3216C53.7107 20.2672 57.527 18.2253 61.3433 16.1584C61.5952 16.0206 61.9101 15.7826 61.9479 15.5446C62.0108 15.1938 61.6204 15.0435 61.3307 14.8932C57.4766 12.8262 53.6226 10.7468 49.7685 8.67984C49.2269 8.39174 48.9246 8.55464 48.8743 9.18094C48.8617 9.30624 48.8743 9.43154 48.8743 9.56924C48.8869 11.561 48.8869 13.5528 48.8869 15.5446Z" fill="#2B323F"/><path d="M38.8558 15.5071C38.8558 19.3027 38.8558 23.0984 38.8558 26.9065C38.8558 28.2469 38.0497 29.1989 36.7776 29.4119C35.3796 29.6499 34.0319 28.5601 33.9689 27.132C33.9689 27.0694 33.9689 27.0067 33.9689 26.9441C33.9689 19.3278 33.9689 11.6989 33.9689 4.08259C33.9689 2.79232 34.8002 1.81522 36.0471 1.61479C37.4452 1.38931 38.7676 2.44156 38.8432 3.8571C38.8684 4.42081 38.8558 4.98452 38.8558 5.54823C38.8558 8.85534 38.8558 12.1874 38.8558 15.5071Z" fill="#2B323F"/><path d="M62.7864 24.6266C64.1592 24.6266 65.2676 25.7164 65.2676 27.0693C65.2676 28.4097 64.1718 29.4996 62.8241 29.5121C61.4639 29.5246 60.3429 28.4097 60.3555 27.0568C60.3429 25.7164 61.4261 24.6391 62.7864 24.6266Z" fill="#2B323F"/></svg>