<svg width="178" height="76" viewBox="0 0 178 76" fill="none" xmlns="http://www.w3.org/2000/svg"><g clip-path="url(#clip0_1123_40243)"><path d="M17.2173 19.4856V43.3018H32.7V39.4992H21.7634V19.4856H17.2173Z" fill="#CBA965"/><path d="M47.1586 23.8745C45.8833 23.8745 45.0071 22.8464 45.0071 21.6815C45.0071 20.4569 45.9289 19.4895 47.2093 19.4895C48.4491 19.4895 49.3557 20.4417 49.3557 21.6815C49.3557 22.8464 48.4795 23.8745 47.1941 23.8745H47.1586ZM46.3635 34.9378C42.7615 34.876 39.7338 35.6033 39.7338 38.0982C39.7338 39.6966 40.8622 40.5211 42.4181 40.5211C44.4176 40.5211 45.782 39.2408 46.2318 38.003C46.3331 37.69 46.3635 37.3365 46.3635 37.0336V34.9378V34.9378ZM39.9495 23.8745C38.6743 23.8745 37.7575 22.8464 37.7575 21.6815C37.7575 20.4569 38.7198 19.4895 40.0002 19.4895C41.1995 19.4895 42.1061 20.4417 42.1061 21.6815C42.1061 22.8464 41.2299 23.8745 39.985 23.8745H39.9495ZM50.7687 39.0797C50.7687 40.7217 50.8599 42.2654 51.0524 43.3017H46.9489L46.6258 41.3305H46.5144C45.4103 42.6979 43.4361 43.7261 40.9706 43.7261C37.1386 43.7261 35.1816 41.0904 35.1816 38.5966C35.1816 34.2835 39.0926 31.976 46.2429 32.0216V31.7937C46.2429 30.883 45.8793 28.7964 42.4434 28.8126C40.6069 28.8126 38.5993 29.4173 37.3463 30.2054L36.4387 27.3003C37.8892 26.4251 40.2554 25.6745 43.1676 25.6745C49.0478 25.6745 50.7687 29.3018 50.7687 33.1135V39.0797V39.0797Z" fill="#CBA965"/><path d="M67.876 33.46C67.876 33.1064 67.8456 32.6557 67.7645 32.3022C67.3047 30.5285 65.6971 29.0982 63.4616 29.0982C60.359 29.0982 58.5174 31.4888 58.5174 34.715C58.5174 37.7862 60.3012 40.119 63.4261 40.119C65.5594 40.119 67.3189 38.6219 67.7443 36.7014C67.8456 36.282 67.876 35.8424 67.876 35.3774V33.46ZM72.422 18.0015V38.4152C72.422 40.2983 72.4777 42.1844 72.5638 43.3017H68.4807L68.2943 40.35H68.2234C67.0525 42.5116 64.7217 43.7261 61.9726 43.7261C57.6048 43.7261 53.8914 40.2699 53.8914 34.9469C53.8559 29.2735 57.7922 25.6745 62.3808 25.6745C65.0499 25.6745 66.9623 26.7432 67.8061 28.0397H67.876V18.0015H72.422V18.0015Z" fill="#CBA965"/><path d="M88.3088 32.8177C88.324 31.6144 87.702 28.6961 84.2641 28.6961C81.2405 28.6961 80.0017 31.1434 79.7687 32.8177H88.3088ZM79.7829 35.9649C79.9237 38.8407 82.5462 40.3104 85.588 40.3104C87.8368 40.3104 89.3916 39.9863 90.8867 39.4495L91.5684 42.5399C89.9619 43.2034 87.7942 43.7261 84.9904 43.7261C79.0212 43.7261 75.4536 40.196 75.4536 34.9419C75.4536 30.5103 78.384 25.6745 84.5356 25.6745C90.7844 25.6745 92.6047 30.7139 92.6047 34.2014C92.6047 34.953 92.5226 35.6226 92.4325 35.9649H79.7829V35.9649Z" fill="#CBA965"/><path d="M96.216 31.8561C96.216 29.3146 96.1816 27.6544 96.0752 26.0985H99.9963L100.148 29.5922H100.275C101.182 26.9433 103.383 25.6741 105.388 25.6741C105.831 25.6741 106.094 25.6893 106.482 25.7805V29.9842C106.063 29.893 105.639 29.8322 105.05 29.8322C102.723 29.8322 101.243 31.2291 100.858 33.2357C100.793 33.6095 100.763 34.0298 100.763 34.434V43.3013H96.216V31.8561Z" fill="#CBA965"/><path d="M118.945 34.9378C115.343 34.876 112.315 35.6033 112.315 38.0982C112.315 39.6966 113.443 40.5222 115 40.5222C116.998 40.5222 118.362 39.2408 118.813 38.003C118.914 37.69 118.945 37.3365 118.945 37.0336V34.9378ZM123.351 39.0807C123.351 40.7217 123.441 42.2654 123.634 43.3017H119.53L119.206 41.3305H119.096C117.992 42.6979 116.016 43.7261 113.551 43.7261C109.721 43.7261 107.764 41.0904 107.764 38.5966C107.764 34.2835 111.674 31.976 118.824 32.0216V31.7937C118.824 30.884 118.462 28.7974 115.025 28.8126C113.187 28.8126 111.18 29.4173 109.929 30.2054L109.021 27.3003C110.472 26.4251 112.837 25.6745 115.749 25.6745C121.629 25.6745 123.351 29.3018 123.351 33.1135V39.0807V39.0807Z" fill="#CBA965"/><path d="M141.502 42.7304C140.479 43.2034 138.449 43.7261 135.994 43.7261C130.166 43.7261 126.436 40.12 126.436 34.8852C126.436 29.7354 130.178 25.6745 136.726 25.6745C138.53 25.6745 140.333 26.0594 141.502 26.5537L140.665 29.9167C139.857 29.5135 138.676 29.1489 136.886 29.1489C133.281 29.1489 131.083 31.505 131.103 34.6532C131.103 38.1853 133.72 40.1696 136.905 40.1696C138.659 40.1696 139.896 39.7827 140.845 39.3988L141.502 42.7304Z" fill="#CBA965"/><path d="M143.958 18.0011H148.505V28.6208H148.575C149.166 27.7415 149.983 26.9778 150.969 26.4885C151.903 25.978 153.024 25.6741 154.161 25.6741C157.153 25.6741 160.768 27.5065 160.768 33.417V43.3013H156.221V34.0106C156.221 31.3081 155.15 29.345 152.477 29.345C150.534 29.345 149.217 30.6497 148.707 31.8895C148.535 32.2795 148.505 32.713 148.505 33.2094V43.3013H143.958V18.0011Z" fill="#CBA965"/><path d="M64.6242 52.2692V54.2799H64.3557C64.1369 53.2193 63.6862 52.7078 62.9427 52.7078C62.029 52.7078 61.4921 53.6954 61.4921 55.4387C61.4921 57.1444 61.9682 58.0085 62.9062 58.0085C63.6619 58.0085 64.1126 57.4726 64.2585 56.3999H64.7589C64.5998 57.7046 63.905 58.4116 62.809 58.4116C61.3949 58.4116 60.4326 57.2174 60.4326 55.4387C60.4326 53.6214 61.4071 52.3786 62.8454 52.3786C63.3691 52.3786 63.6983 52.5123 64.0883 52.8901L64.4165 52.2692H64.6242Z" fill="#231F20"/><path d="M65.978 50.5498V50.3432C66.6354 50.2824 67.1844 50.1851 67.8063 50.015V53.2189C68.1963 52.683 68.7078 52.4156 69.3531 52.4156C70.0844 52.4156 70.7307 52.8056 70.9626 53.3901C71.0842 53.6828 71.146 54.0363 71.146 54.4871V57.4135C71.146 57.9361 71.2675 58.0334 72.011 58.0709V58.314C71.3769 58.2522 71.1207 58.241 70.6821 58.241C70.2435 58.241 69.9872 58.2522 69.3531 58.314V58.0709C70.0115 58.0465 70.1705 57.925 70.1705 57.4368V54.4506C70.1705 53.3901 69.8535 52.9636 69.0857 52.9636C68.2449 52.9636 67.8063 53.4883 67.8063 54.4871V57.4368C67.8063 57.925 67.9643 58.0465 68.5984 58.0709V58.314C67.9643 58.2522 67.7212 58.241 67.2938 58.241C66.8552 58.241 66.5989 58.2522 65.9658 58.314V58.0709C66.7083 58.0334 66.8309 57.9361 66.8309 57.4135V51.27C66.8309 50.6359 66.7336 50.5498 65.978 50.5498Z" fill="#231F20"/><path d="M77.215 55.4128C77.215 53.5976 76.7754 52.6951 75.8982 52.6951C74.9967 52.6951 74.5216 53.6341 74.5216 55.4007C74.5216 57.1936 74.9602 58.0951 75.8496 58.0951C76.7511 58.0951 77.215 57.1804 77.215 55.4128ZM78.2391 55.3774C78.2391 57.1561 77.2515 58.4111 75.8618 58.4111C74.4599 58.4111 73.4976 57.1804 73.4976 55.4007C73.4976 53.622 74.4852 52.3781 75.9225 52.3781C77.288 52.3781 78.2391 53.5976 78.2391 55.3774" fill="#231F20"/><path d="M84.1493 52.2692V54.2799H83.8809C83.6611 53.2193 83.2114 52.7078 82.4679 52.7078C81.5532 52.7078 81.0173 53.6954 81.0173 55.4387C81.0173 57.1444 81.4924 58.0085 82.4314 58.0085C83.186 58.0085 83.6378 57.4726 83.7837 56.3999H84.283C84.125 57.7046 83.4301 58.4116 82.3331 58.4116C80.9191 58.4116 79.9568 57.2174 79.9568 55.4387C79.9568 53.6214 80.9322 52.3786 82.3696 52.3786C82.8943 52.3786 83.2225 52.5123 83.6125 52.8901L83.9417 52.2692H84.1493Z" fill="#231F20"/><path d="M89.707 55.4128C89.707 53.5976 89.2684 52.6951 88.3902 52.6951C87.4886 52.6951 87.0136 53.6341 87.0136 55.4007C87.0136 57.1936 87.4522 58.0951 88.3415 58.0951C89.2441 58.0951 89.707 57.1804 89.707 55.4128ZM90.73 55.3774C90.73 57.1561 89.7434 58.4111 88.3537 58.4111C86.9528 58.4111 85.9895 57.1804 85.9895 55.4007C85.9895 53.622 86.9771 52.3781 88.4155 52.3781C89.7789 52.3781 90.73 53.5976 90.73 55.3774" fill="#231F20"/><path d="M94.1419 50.0145V57.413C94.1419 57.9357 94.2635 58.0339 95.007 58.0704V58.3135C94.3253 58.2527 94.0578 58.2405 93.6547 58.2405C93.2404 58.2405 92.972 58.2527 92.2903 58.3135V58.0704C93.0328 58.0339 93.1665 57.9357 93.1665 57.413V51.2695C93.1665 50.6354 93.0702 50.5493 92.3024 50.5493V50.3427C92.9598 50.2829 93.521 50.1847 94.1419 50.0145Z" fill="#231F20"/><path d="M99.663 54.9979C98.1274 55.2785 97.469 55.8032 97.469 56.7544C97.469 57.4361 97.8478 57.8625 98.4809 57.8625C99.3095 57.8625 99.663 57.3145 99.663 56.0595V54.9979ZM101.431 57.9608V58.2768C101.126 58.3386 100.955 58.3629 100.76 58.3629C100.151 58.3629 99.8818 58.058 99.8099 57.3145C99.3703 58.1066 98.9438 58.3872 98.1639 58.3872C97.1773 58.3872 96.4692 57.742 96.4692 56.8151C96.4692 55.705 97.6027 54.9503 99.663 54.6819V53.9627C99.663 53.0977 99.3703 52.7441 98.6643 52.7441C98.0666 52.7441 97.6523 53.0369 97.6523 53.4633V53.5616V53.7318C97.6523 54.0964 97.4943 54.2798 97.1651 54.2798C96.8967 54.2798 96.763 54.1339 96.763 53.8665C96.763 53.0855 97.6767 52.4149 98.7483 52.4149C99.5415 52.4149 100.249 52.7806 100.479 53.3418C100.589 53.6092 100.637 53.9141 100.637 54.4266V56.9124C100.637 57.742 100.748 57.9982 101.126 57.9982C101.212 57.9982 101.273 57.9851 101.431 57.9608" fill="#231F20"/><path d="M106.049 57.6559L106.037 58.0094C105.586 58.29 105.282 58.3872 104.854 58.3872C103.88 58.3872 103.502 57.8878 103.502 56.6196V56.3765L103.551 52.9761H102.759L102.771 52.5851C103.575 52.5375 103.989 52.0259 104.221 50.7821H104.538L104.526 52.5243H105.938V52.9761H104.526V56.5224C104.526 57.5819 104.697 57.9121 105.245 57.9121C105.488 57.9121 105.635 57.8625 106.049 57.6559" fill="#231F20"/><path d="M108.584 51.4772C108.231 51.4772 107.938 51.1844 107.938 50.8066C107.938 50.4288 108.219 50.1239 108.584 50.1239C108.95 50.1239 109.242 50.4288 109.242 50.8066C109.242 51.1844 108.95 51.4772 108.584 51.4772ZM109.12 52.3057V57.413C109.12 57.9367 109.242 58.0339 109.998 58.0704V58.3135C109.303 58.2527 109.048 58.2405 108.632 58.2405C108.219 58.2405 107.963 58.2527 107.281 58.3135V58.0704C108.022 58.0339 108.146 57.9367 108.146 57.413V53.5618C108.146 52.9267 108.06 52.8548 107.281 52.8416V52.6349C107.963 52.5742 108.512 52.4759 109.12 52.3057" fill="#231F20"/><path d="M115.166 54.8162C115.093 53.3778 114.69 52.6951 113.898 52.6951C113.117 52.6951 112.655 53.4153 112.532 54.8162H115.166ZM115.665 56.4126H116.152C115.994 57.6686 115.214 58.4111 114.019 58.4111C112.447 58.4111 111.533 57.3141 111.533 55.4392C111.533 53.5612 112.447 52.3791 113.91 52.3791C115.348 52.3791 116.117 53.3778 116.14 55.2558H112.508C112.52 57.1561 113.008 58.009 114.117 58.009C114.982 58.009 115.518 57.4478 115.665 56.4126" fill="#231F20"/><path d="M117.724 52.8304V52.6096C118.419 52.5488 118.833 52.4769 119.333 52.33C119.394 52.7808 119.419 52.9763 119.443 53.3419V53.4756C119.712 52.7808 120.234 52.3786 120.868 52.3786C121.478 52.3786 121.929 52.7808 121.929 53.3652C121.929 53.7198 121.721 53.9507 121.417 53.9507C121.138 53.9507 120.918 53.7805 120.918 53.5364C120.918 53.5121 120.93 53.4635 120.941 53.4159L120.967 53.2933V53.1839C120.967 53.0127 120.82 52.8902 120.601 52.8902C119.967 52.8902 119.565 53.659 119.565 54.8654V57.4129C119.565 57.9366 119.687 58.0339 120.431 58.0703V58.3145C119.759 58.2527 119.505 58.2415 119.077 58.2415C118.639 58.2415 118.383 58.2527 117.713 58.3145V58.0703C118.457 58.0339 118.59 57.9366 118.59 57.4129V53.6215V53.427C118.577 52.9033 118.517 52.8416 117.882 52.8304H117.724Z" fill="#231F20"/><path d="M127.134 58.4238V56.3878L127.401 56.3767C127.621 57.4858 128.133 58.0217 128.986 58.0217C129.705 58.0217 130.241 57.5456 130.241 56.9247C130.241 56.5104 130.011 56.2298 129.412 55.9634L128.949 55.7547L128.389 55.4985C127.499 55.0842 127.218 54.7438 127.218 54.0368C127.218 53.0735 127.976 52.4151 129.046 52.4151C129.523 52.4151 129.876 52.5245 130.289 52.8051L130.498 52.3057H130.716V54.1948H130.435C130.327 53.2193 129.925 52.7564 129.156 52.7564C128.511 52.7564 128.011 53.195 128.011 53.7673C128.011 54.2556 128.194 54.4136 129.302 54.9018L129.814 55.1206C130.741 55.5228 131.07 55.9128 131.07 56.633C131.07 57.656 130.254 58.3874 129.107 58.3874C128.547 58.3874 128.108 58.2415 127.646 57.8748L127.353 58.4238H127.134Z" fill="#231F20"/><path d="M132.605 52.8414V52.6347C133.276 52.574 133.8 52.4767 134.433 52.3065V56.3765C134.433 57.4239 134.75 57.8261 135.543 57.8261C136.396 57.8261 136.798 57.3034 136.798 56.2064V53.5616C136.798 52.9275 136.712 52.8545 135.932 52.8414V52.6347C136.615 52.574 137.139 52.4767 137.773 52.3065V57.2659C137.773 57.7784 137.859 57.8504 138.515 57.8635H138.676V58.0823C137.955 58.1553 137.529 58.2414 136.992 58.4004C136.957 58.1066 136.932 57.8028 136.92 57.2892C136.53 58.058 136.03 58.3751 135.25 58.3751C134.532 58.3751 133.91 58.0337 133.654 57.4857C133.52 57.194 133.458 56.8516 133.458 56.3522V53.5616C133.458 52.9275 133.372 52.8545 132.605 52.8414Z" fill="#231F20"/><path d="M141.368 51.4772C141.015 51.4772 140.722 51.1844 140.722 50.8066C140.722 50.4288 141.003 50.1239 141.368 50.1239C141.735 50.1239 142.027 50.4288 142.027 50.8066C142.027 51.1844 141.735 51.4772 141.368 51.4772ZM141.905 52.3057V57.413C141.905 57.9367 142.027 58.0339 142.782 58.0704V58.3135C142.087 58.2527 141.831 58.2405 141.417 58.2405C141.003 58.2405 140.747 58.2527 140.064 58.3135V58.0704C140.807 58.0339 140.929 57.9367 140.929 57.413V53.5618C140.929 52.9267 140.844 52.8548 140.064 52.8416V52.6349C140.747 52.5742 141.296 52.4759 141.905 52.3057" fill="#231F20"/><path d="M144.476 58.4238V56.3878L144.745 56.3767C144.963 57.4858 145.476 58.0217 146.329 58.0217C147.047 58.0217 147.584 57.5456 147.584 56.9247C147.584 56.5104 147.353 56.2298 146.755 55.9634L146.291 55.7547L145.731 55.4985C144.842 55.0842 144.562 54.7438 144.562 54.0368C144.562 53.0735 145.317 52.4151 146.39 52.4151C146.865 52.4151 147.219 52.5245 147.632 52.8051L147.84 52.3057H148.059V54.1948H147.779C147.669 53.2193 147.267 52.7564 146.499 52.7564C145.854 52.7564 145.354 53.195 145.354 53.7673C145.354 54.2556 145.537 54.4136 146.647 54.9018L147.158 55.1206C148.083 55.5228 148.413 55.9128 148.413 56.633C148.413 57.656 147.596 58.3874 146.45 58.3874C145.89 58.3874 145.451 58.2415 144.989 57.8748L144.696 58.4238H144.476Z" fill="#231F20"/><path d="M150.398 58.4238V56.3878L150.667 56.3767C150.887 57.4858 151.399 58.0217 152.252 58.0217C152.971 58.0217 153.507 57.5456 153.507 56.9247C153.507 56.5104 153.275 56.2298 152.68 55.9634L152.215 55.7547L151.654 55.4985C150.765 55.0842 150.485 54.7438 150.485 54.0368C150.485 53.0735 151.24 52.4151 152.313 52.4151C152.788 52.4151 153.141 52.5245 153.557 52.8051L153.763 52.3057H153.983V54.1948H153.702C153.592 53.2193 153.19 52.7564 152.421 52.7564C151.776 52.7564 151.278 53.195 151.278 53.7673C151.278 54.2556 151.46 54.4136 152.569 54.9018L153.081 55.1206C154.005 55.5228 154.335 55.9128 154.335 56.633C154.335 57.656 153.519 58.3874 152.374 58.3874C151.814 58.3874 151.374 58.2415 150.911 57.8748L150.619 58.4238H150.398Z" fill="#231F20"/><path d="M159.796 54.8162C159.722 53.3778 159.32 52.6951 158.529 52.6951C157.747 52.6951 157.285 53.4153 157.164 54.8162H159.796ZM160.296 56.4126H160.783C160.624 57.6686 159.845 58.4111 158.651 58.4111C157.078 58.4111 156.164 57.3141 156.164 55.4392C156.164 53.5612 157.078 52.3791 158.54 52.3791C159.979 52.3791 160.746 53.3778 160.771 55.2558H157.138C157.15 57.1561 157.638 58.009 158.747 58.009C159.613 58.009 160.149 57.4478 160.296 56.4126" fill="#231F20"/></g><defs><clipPath id="clip0_1123_40243"><path fill="#fff" transform="translate(16.5 17.114)" d="M0 0H145V41.773H0z"/></clipPath></defs></svg>