<svg width="90" height="73" viewBox="0 0 90 73" fill="none" xmlns="http://www.w3.org/2000/svg"><g clip-path="url(#clip0_1156_18955)" fill="#C5281C"><path d="M17.1 64.0114V57.9114C20.9 57.9114 22.3 57.7114 23 62.4114H23.4V57.2114H12.9V57.9114H14.7V71.4114H12.7V72.1114H23.5V66.6114H23C22.5 70.8114 21.4 71.4114 18.4 71.4114H17V64.9114H17.8C19.1 64.9114 19.9 65.7114 20.2 68.0114H20.7V61.2114H20.2C20.2 61.2114 20.1 64.1114 17.8 64.1114H17.1V64.0114Z"/><path d="M12.8 64.2115H6.9V64.9115H8.9V69.7115C8.6 70.9115 6.7 71.4115 6.2 71.4115C2.4 71.4115 2.7 65.9115 2.7 64.4115C2.7 63.1115 2.6 57.4115 6.2 57.4115C8.8 57.4115 10.1 59.9115 10.6 62.2115H11C11 61.3115 11 56.8115 11 56.8115C11 56.8115 9.2 58.1115 9.2 58.0115C9.2 58.0115 8.4 56.8115 6.1 56.8115C1.7 56.8115 0 61.2115 0 64.3115C0 67.1115 1.3 72.0115 6.1 72.0115C7.6 72.0115 8.6 71.2115 9.2 70.4115L11.1 71.9115V64.8115H12.7V64.2115H12.8Z"/><path d="M81.6999 66.5115C81.1999 70.7115 80.0999 71.3115 77.0999 71.3115H76.8999V57.9115H78.7999V57.2115H72.5999V57.9115H74.4999V71.4115H72.9999L67.4999 56.8115H66.6999C66.6999 56.8115 62.0999 70.0115 62.0999 70.1115C62.0999 70.1115 61.7999 71.2115 60.9999 71.4115C60.2999 71.4115 60.3999 71.1115 60.3999 70.9115V68.3115C60.3999 67.6115 60.2999 66.1115 59.6999 65.4115C58.8999 64.6115 57.5999 64.6115 57.5999 64.5115C57.5999 64.5115 60.9999 63.8115 60.9999 60.6115C60.9999 58.3115 59.3999 57.2115 56.7999 57.1115H49.3999V57.8115H51.2999V71.3115H49.3999V72.0115H55.4999V71.3115H53.5999V64.8115H56.0999C60.4999 65.2115 55.2999 72.0115 61.0999 72.0115H64.6999V71.3115C64.4999 71.3115 63.1999 71.3115 63.0999 70.4115C62.9999 69.7115 63.9999 67.3115 63.9999 67.3115H68.9999C68.9999 67.3115 70.4999 71.3115 70.5999 71.3115H68.8999V72.0115H82.3999V66.5115H81.6999ZM55.9999 64.1115H53.5999V57.9115H56.6999C58.4999 58.2115 58.5999 60.3115 58.5999 60.9115C58.5999 62.5115 57.8999 64.1115 55.9999 64.1115ZM64.3999 66.7115L66.5999 60.3115L68.8999 66.7115H64.3999Z"/><path d="M41.9999 57.8113C45.7999 57.8113 47.2999 57.6113 47.8999 62.3113H48.2999V57.1113H33.0999V57.8113H33.4999C33.9999 57.8113 35.2999 57.8113 35.3999 59.0113V67.6113L28.2999 57.1113H24.3999V57.8113H24.9999C25.7999 57.8113 26.7999 57.8113 26.8999 59.0113V70.0113C26.8999 71.1113 25.2999 71.5113 24.5999 71.5113V72.0113H29.8999V71.5113C29.1999 71.5113 27.5999 71.1113 27.5999 70.0113V60.3113C30.3999 64.3113 35.6999 72.0113 35.7999 72.0113H36.0999V59.0113C36.1999 57.9113 37.3999 57.8113 37.9999 57.8113H39.6999V71.3113H37.6999V72.0113H48.4999V66.5113H47.9999C47.4999 70.7113 46.3999 71.3113 43.3999 71.3113H41.9999V64.8113H42.7999C44.0999 64.8113 44.8999 65.6113 45.1999 67.9113H45.6999V61.1113H45.1999C45.1999 61.1113 45.0999 64.0113 42.7999 64.0113H42.0999V57.8113H41.9999Z"/><path d="M83 57.1113V57.9113H84.9V71.3113H83V72.0113H89.1V71.3113H87.1V57.9113H89.1V57.1113H83Z"/><path d="M73 47.9114L74.8999 47.2114C77.5999 46.1114 77.9999 45.4114 77.7999 43.6114V36.4114C79.7999 41.6114 81.8 45.2114 85.7 45.2114C86.2 45.2114 86.7999 45.1114 87.3999 45.0114L88.8999 44.7114L87.7999 43.5114C87.0999 42.8114 86.7999 42.2114 86.3999 41.5114C86.1999 41.2114 86.0999 40.9114 85.8999 40.6114C84.9999 39.1114 82.8 38.6114 81 39.4114C80.2 37.8114 79.3999 35.7114 78.3999 33.1114L78.2 32.6114C78 32.2114 77.9 31.8114 77.7 31.4114V31.3114C77.1 29.9114 76.4 28.6114 75.7 27.3114C75 26.1114 74.3 25.1114 73.5 24.2114C71.4 21.8114 68.6999 20.3114 65.3999 19.7114C63.0999 19.3114 61.5 19.2114 59.4 19.1114C59 19.1114 58.5 19.1114 58.1 19.0114C57.2 18.9114 55.3 18.8114 53.4 18.6114C52.1 18.5114 50.9 18.4114 49.9 18.3114C50 18.0114 50 17.7114 50 17.4114C50 17.0114 50 16.6114 49.9 16.3114H63.1C66.5 16.3114 68.9999 14.8114 70.3999 11.8114C73.7999 11.8114 76.2 10.2114 77.7 7.3114H78.2C81.7 7.3114 84.2 5.7114 85.7 2.5114L86.2 1.6114H41.6C38.7 1.6114 36.2 3.5114 35.2 6.5114V6.6114C34.4 4.5114 33.1 2.7114 31.3 1.6114C28.8 0.111403 26 -0.388597 23.8 0.311403C23.1 0.511403 22.3 0.811403 21.7 1.2114C21.2 1.6114 20.4 2.1114 19.9 2.8114C19.3 3.5114 18.8 4.4114 18.4 5.2114C18.1 5.4114 17.9 5.6114 17.8 5.8114L17.3 6.8114V6.9114C16.7 8.3114 15.9 9.3114 15.3 10.1114C14.7 10.8114 14.7 11.5114 14.7 11.9114C14.8 12.4114 15 12.8114 15.3 13.1114C15.1 13.4114 15 13.8114 15 14.1114C15 15.3114 16 16.2114 17.3 16.2114C18.2 16.2114 19 15.8114 19.8 15.2114C20.1 15.0114 21 14.4114 21.3 14.4114C21.7 14.4114 22 14.7114 22 15.1114C22 16.1114 20.8 16.6114 19.9 16.6114L18.1 16.8114C16.8 16.9114 16.2 17.6114 16.2 18.2114C16.2 18.8114 16.5 19.2114 16.7 19.4114L16.8 19.5114L17.3 19.9114L15.2 23.1114C13.8 21.8114 12.2 21.1114 10.8 21.0114C9.89995 21.0114 9.09995 21.2114 8.49995 21.8114C8.29995 22.0114 8.19995 22.1114 8.09995 22.3114C6.59995 22.3114 5.39995 23.1114 4.79995 24.0114C4.09995 25.0114 4.39995 26.7114 5.19995 28.0114L0.199951 29.4114V52.6114H89.2V48.0114H73V47.9114ZM84.5 41.6114C84.7 41.9114 84.8 42.2114 85 42.4114C85.2 42.7114 85.4 43.0114 85.6 43.4114C84.2 43.3114 83.1 42.5114 82.2 41.1114C83 40.7114 84.1 41.0114 84.5 41.6114ZM65.2 21.8114C68.1 22.3114 70.4 23.6114 72.2 25.6114C72.6 26.0114 72.8999 26.5114 73.2999 27.0114C68.4999 26.4114 66.8 25.7114 64.1 21.6114C64.5 21.6114 64.8 21.7114 65.2 21.8114V21.8114ZM63.1 14.8114H54C54.8 14.1114 55.4 13.2114 55.9 12.2114H68.2C67.2 14.0114 65.5 14.8114 63.1 14.8114V14.8114ZM70.2999 10.4114H61.2C62 9.7114 62.7 8.8114 63.2 7.7114H75.5C74.5 9.5114 72.7999 10.4114 70.2999 10.4114V10.4114ZM71 3.5114H83.2C82 5.1114 80.4 5.9114 78.1 5.9114H69C69.8 5.2114 70.5 4.4114 71 3.5114V3.5114ZM21.4 3.9114C21.7 3.5114 22.2 3.1114 22.7 2.7114C23.1 2.4114 23.7 2.1114 24.3 2.0114C25.2 1.8114 26.2 1.8114 27.2 2.0114L23.9 4.0114C23.5 4.0114 23.1 3.9114 22.7 3.9114C22.1 3.9114 21.6 3.9114 21.2 4.0114C21.3 4.0114 21.3 4.0114 21.4 3.9114V3.9114ZM17.6 18.3114C17.6 18.2114 17.7 18.1114 17.8 18.1114L19.4 18.2114C21.3 18.1114 23.3 17.3114 23.5 15.3114C23.5 13.9114 22.5 12.6114 21.2 12.6114C20.5 12.6114 19.6 13.1114 18.7 13.7114C18.1 14.1114 17.6 14.4114 17.3 14.4114C17.1 14.4114 16.9 14.2114 16.9 14.1114C16.9 14.1114 16.9 14.1114 16.9 14.0114L17.9 12.6114L17 12.0114C16.8 11.9114 16.5 11.6114 16.5 11.5114C16.5 11.4114 16.6 11.3114 16.6 11.2114C17 10.8114 17.4 10.3114 17.8 9.6114C18.1 9.2114 18.2 9.0114 18.6 9.0114C19 9.0114 19.4 9.3114 19.4 9.8114C19.4 10.1114 19.7 10.3114 20.1 10.3114C20.5 10.3114 20.7 10.0114 20.9 9.8114C20.9 9.8114 21.8 9.0114 21.3 8.6114C20.8 8.2114 18.6 9.1114 19.2 7.1114L19.4 6.8114C19.6 6.5114 20.7 5.7114 22.8 5.7114C23.2 5.7114 23.6 5.7114 24.1 5.8114H24.4L29 3.0114C29 3.1114 29.1 3.2114 29.1 3.2114C29.3 4.6114 28.5 6.2114 27.1 7.0114L26.5 7.3114L26.9 9.4114C25.7 9.8114 24.9 10.7114 24.9 11.8114C24.9 12.2114 25 12.7114 25.1 13.2114C25.2 13.9114 25.4 14.6114 25.4 15.3114C25.4 17.5114 22.4 18.9114 19.9 18.8114H19.8C19.7 18.8114 18.1 18.7114 17.7 18.4114C17.6 18.5114 17.6 18.4114 17.6 18.3114V18.3114ZM6.19995 25.1114C6.59995 24.5114 7.39995 24.1114 8.39995 24.2114L9.19995 24.3114L9.49995 23.6114C9.59995 23.4114 9.69995 23.2114 9.79995 23.1114C9.99995 22.9114 10.4 22.8114 10.8 22.8114C11.9 22.8114 13.3 23.6114 14.4 24.8114C14.8 25.2114 15.2 25.8114 15.5 26.3114C15.6 26.4114 15.6 26.5114 15.7 26.6114C15.8 26.7114 15.9 26.9114 15.9 26.9114C15.9 27.0114 16.5 27.8114 16.5 27.9114C16.9 27.4114 17.3 26.8114 17.6 26.3114V26.2114C17.5 26.0114 17.3 25.7114 17.2 25.5114L17.1 25.4114C17.1 25.4114 17 25.3114 17 25.2114C16.9 25.0114 16.7 24.7114 16.6 24.6114L19 20.8114C19.6 20.9114 20.1 20.9114 20.4 20.9114H20.5C23.9 20.9114 27.4 18.9114 27.4 15.7114V15.6114C27.4 14.7114 27.2 13.9114 27.1 13.2114C27 12.7114 26.9 12.3114 26.9 12.1114C26.9 11.7114 27.4 11.3114 28.1 11.3114H29.2L28.7 8.5114C30.2 7.4114 31.2 5.5114 31.1 3.8114C32.8 5.1114 33.9 7.3114 34.1 9.6114C34.2 10.3114 33.9999 11.2114 33.7999 12.2114L33.7 12.6114C33.3 14.2114 32.7 15.9114 32.4 16.7114L32.1 17.4114L32.7999 17.8114C33.9999 18.5114 34.7999 19.0114 34.7999 20.6114C34.7999 22.5114 33.1 23.9114 31.5 24.2114L29.2 24.6114L31.1 25.9114C31.7 26.3114 32.1 27.0114 32.1 27.7114C32.1 28.9114 31.1 29.8114 29.9 29.8114H29.2L29 30.4114C28.3 32.6114 27.6 33.7114 25.2 34.0114C25.2 33.3114 25.2 32.6114 25.2 31.7114C25.2 31.5114 25.2 30.9114 25.2 30.7114L25.1 28.6114L23.6 30.1114C23.1 30.6114 22.2 31.0114 21.2 31.2114V29.4114L10.7 26.6114L6.99995 27.6114C6.19995 26.8114 5.99995 25.4114 6.19995 25.1114ZM3.19995 47.9114L10.8 45.9114L18.4 47.9114H3.19995ZM19.4 46.3114L10.7 44.0114L1.99995 46.3114V30.8114L10.7 28.5114L19.4 30.8114V46.3114ZM23.5 43.3114C22.7 44.4114 22.6 46.0114 23.2 47.9114H21.3V33.1114C22 33.0114 22.7 32.8114 23.4 32.5114C23.4 33.1114 23.3 33.7114 23.2 34.3114C23.2 34.5114 23.1 34.6114 23.1 34.8114L22.9 35.9114H24C25.6 35.9114 26.8 35.6114 27.8 35.2114V41.4114C27.8 41.6114 27.7 41.7114 27.5 41.7114H27.2C25.6 41.6114 24.2 42.2114 23.5 43.3114V43.3114ZM43.5 43.7114C42.8 44.5114 42.2 45.8114 42.6 47.9114H31.3C32.5 47.8114 33.4 47.5114 34 46.9114C34.7 46.1114 34.7999 45.1114 34.7999 44.3114C34.7999 44.2114 34.9 44.0114 35.5 43.7114L36.5 43.3114L35.9 42.4114C34.9 40.9114 35.4 37.7114 35.7 35.9114H35.7999C39.5999 35.9114 42.1 35.1114 44.7 34.3114C45.4 34.1114 46.0999 33.9114 46.7999 33.6114C46.7999 33.6114 47.6 33.4114 48.6 33.1114L52.2999 39.2114V39.3114C52.6999 39.8114 52.7 40.2114 52 40.9114L50.2 42.9114L47.2 42.3114C45.9 42.1114 44.4 42.7114 43.5 43.7114V43.7114ZM44.5 47.9114C44.2 46.6114 44.3 45.6114 44.9 44.9114C45.5 44.2114 46.3 44.1114 47 44.1114L50.5 44.7114H50.6H51.1L53.6 42.0114C54 41.5114 55.3 40.0114 54 38.1114L50.7 32.7114C51.2 32.6114 51.7999 32.6114 52.2999 32.6114C52.2999 32.6114 53.9999 32.6114 55.7999 33.6114C55.9999 34.1114 56.4 34.8114 56.7 35.6114C57.4 37.0114 58.3 38.8114 58.5 39.5114C58.6 39.7114 58.8 40.4114 58 41.3114L51.7 48.0114H44.5V47.9114ZM66.1 47.9114H54.1L59.2 42.5114C60.2 41.4114 60.6 40.1114 60.1 38.9114C59.9 38.2114 59.2 36.8114 58.5 35.3114C60.5 36.2114 63.5999 37.1114 69.8999 37.6114C70.6999 37.7114 70.9 37.9114 71 38.6114L71.2999 41.3114L68 42.0114C66.9 42.2114 66 42.9114 65.6 44.0114C65.2 45.2114 65.4 46.6114 66.1 47.9114V47.9114ZM67.3999 44.7114C67.5999 44.2114 67.8999 43.9114 68.3999 43.8114L73.2999 42.7114L72.8999 38.3114V38.2114C72.7999 37.6114 72.4 35.9114 70.1 35.7114C61.3 35.0114 59.3 33.7114 57.1 32.3114L57 32.2114C54.7 30.7114 52.4 30.7114 52.2 30.7114C49.7 30.7114 46.5999 31.7114 46.2999 31.8114C45.4999 32.0114 44.8 32.3114 44.1 32.5114C41.3 33.4114 39 34.2114 35 34.0114H34.2999L34.1 34.7114C34 35.2114 32.8 39.7114 33.9 42.5114C32.9 43.3114 32.9 44.1114 32.9 44.3114C32.9 45.3114 32.7 45.5114 32.6 45.6114C32.1 46.1114 30.6 46.1114 29.3 46.1114H28.8L28.5 46.5114C27.7 47.6114 26 47.9114 24.9 47.6114C24.4 46.1114 24.4 45.0114 24.9 44.3114C25.5 43.5114 26.6 43.4114 27.1 43.4114H27.4C28.6 43.4114 29.5 42.4114 29.5 41.3114V33.4114C29.9 32.9114 30.1 32.2114 30.4 31.5114C32.3 31.2114 33.7999 29.6114 33.7999 27.6114C33.7999 26.8114 33.6 26.1114 33.2 25.5114C35 24.6114 36.5 22.9114 36.5 20.6114C36.5 18.3114 35.3 17.2114 34.2 16.6114C34.5 15.7114 35 14.2114 35.4 12.6114L36.9 7.1114C37.6 4.9114 39.4 3.5114 41.5 3.5114H68.7C67.5 5.1114 65.9 5.9114 63.6 5.9114H47.2999L46.4 7.7114H61.2C60 9.5114 58.3 10.4114 55.9 10.4114H45.2L44.2999 12.2114H53.7999C52.5999 14.0114 51 14.8114 48.6 14.8114H42.7999L41.9 16.6114H48C48.1 16.7114 48.2 17.0114 48.2 17.7114C48.2 18.9114 47.2 19.8114 46 19.8114C45.6 19.8114 45.2 19.7114 44.6 19.4114C44.3 19.3114 44.0999 19.2114 43.7999 19.1114L42.4 20.4114C42.7 20.5114 42.9 20.6114 43.2 20.7114C44.4 21.2114 45.1 21.5114 46 21.5114C47.1 21.5114 48.1 21.0114 48.9 20.3114C49.9 20.4114 51.5999 20.5114 53.2999 20.6114C55.2999 20.8114 57.1 20.9114 58.1 21.0114C58.6 21.0114 59 21.0114 59.5 21.1114C60.3 21.1114 61.0999 21.2114 61.7999 21.2114C65.4999 27.2114 67.4 28.0114 74.6 28.9114C75.1 29.8114 75.6 30.8114 76 31.8114V43.5114V43.6114C76 44.1114 76 44.3114 76 44.4114C75.7 44.7114 74.5999 45.2114 74.2999 45.3114L68.2 47.8114C67.4 46.7114 67.0999 45.6114 67.3999 44.7114"/><path d="M11.7 33.6114L17.5 35.1114V33.2114L11.7 31.7114V33.6114Z"/><path d="M9.8 31.7114L4 33.2114V35.1114L9.8 33.6114V31.7114Z"/><path d="M9.8 35.5112L4 37.0112V38.9112L9.8 37.4112V35.5112Z"/><path d="M11.7 37.4112L17.5 38.9112V37.0112L11.7 35.5112V37.4112Z"/><path d="M11.7 41.2115L17.5 42.7115V40.8115L11.7 39.3115V41.2115Z"/><path d="M9.8 39.3115L4 40.8115V42.7115L9.8 41.2115V39.3115Z"/></g><defs><clipPath id="clip0_1156_18955"><path fill="#fff" d="M0 0H89.2V72.111H0z"/></clipPath></defs></svg>