<svg version="1.1" id="Layer_1" xmlns="http://www.w3.org/2000/svg" xmlns:xlink="http://www.w3.org/1999/xlink" x="0" y="0" viewBox="0 0 153 51" xml:space="preserve"><style>.st2{fill:#f15d22}.st2,.st3,.st4,.st5{clip-path:url(#SVGID_2_)}.st3{fill:#002d62}.st4{fill:#b2bce0}.st5{fill:#005cab}</style><defs><path id="SVGID_1_" d="M2.7 2.6H150.2V48.4H2.7z"/></defs><clipPath id="SVGID_2_"><use xlink:href="#SVGID_1_" overflow="visible"/></clipPath><path d="M26.9,9.9c1.1,0,1.9,0,2.3,0.1c0.9,0.1,1.1,0.4,1.2,1l0,2.9c2.4,0,4.9,0,7.3,0.1c-0.2-3.6-0.7-6.8-1.1-8.5 c-3.3-1.8-7.1-2.9-11.1-2.9c-3.8,0-7.4,0.9-10.5,2.6C14.5,6,14,8.6,13.9,10.6c2.8-0.4,6.3-0.7,10-0.8C24.9,9.8,25.9,9.8,26.9,9.9" clip-path="url(#SVGID_2_)" fill="#6cb33f"/><path d="M11,42.5c0-0.1-0.1-0.2-0.1-0.4c0-0.1,0-0.1-0.1-0.2c0-0.1-0.1-0.2-0.1-0.3c0-0.1,0-0.1-0.1-0.2 c0-0.1,0-0.2-0.1-0.3c0-0.1,0-0.1-0.1-0.2c0-0.1,0-0.2-0.1-0.3c0-0.1,0-0.1,0-0.2c0-0.1,0-0.2-0.1-0.3c0-0.1,0-0.1,0-0.2 c0-0.1,0-0.2-0.1-0.3c0,0,0-0.1,0-0.1c0-0.1-0.1-0.2-0.1-0.4c0,0,0-0.1,0-0.1c0-0.1,0-0.1,0-0.2c0-0.1,0-0.1,0-0.2 c0-0.1,0-0.1,0-0.2c0-0.1,0-0.1,0-0.2c0-0.1,0-0.1,0-0.2c0-0.1,0-0.1,0-0.2c0,0,0-0.1,0-0.1c0-0.1,0-0.1,0-0.1c0,0,0-0.1,0-0.1 c0,0,0-0.1,0-0.1c0,0,0-0.1,0-0.1c0,0,0-0.1,0-0.1c0,0,0-0.1,0-0.1c0-0.1,0-0.2,0-0.3c0,0,0,0,0,0c0,0,0-0.1,0-0.1c0,0,0,0,0-0.1 c0,0,0-0.1,0-0.1c0,0,0,0,0-0.1c0,0,0-0.1,0-0.1c0,0,0,0,0-0.1c0,0,0-0.1,0-0.1c0,0,0,0,0,0c0,0,0-0.1,0-0.1c0,0,0,0,0,0 c0,0,0-0.1,0-0.1c0,0,0,0,0,0c0.1-0.1,0.1-0.3,0.2-0.4c0,0,0,0,0,0c0,0,0,0,0.1-0.1c0,0,0,0,0,0c0,0,0,0,0.1,0c0,0,0,0,0,0 c0,0,0,0,0.1,0c0,0,0,0,0,0c0,0,0.1,0,0.1,0c0.1-0.1,0.3-0.1,0.4-0.1c0.2,0,0.3,0,0.5,0c0.1,0,0.3,0,0.4,0c0.3,0,1,0.1,2.1,0.2 c0.1,0,0.2,0,0.3,0c0,0,0,0,0,0c0-1.9,0.1-3.2,0.1-3.2s-6.2-0.2-10.8-1c1.3,4.7,4,8.8,7.7,11.8c-0.1-0.2-0.1-0.4-0.2-0.6 C11,42.6,11,42.6,11,42.5" clip-path="url(#SVGID_2_)" fill="#fbaf34"/><path class="st2" d="M18,41.5c-1.8,0-1.8-1-1.8-1.5c0-0.2,0-1.9-0.1-4.2c-0.7-0.1-1.3-0.1-1.9-0.2c0,0,0,0,0,0 c-1.3-0.1-2.1-0.2-2.4-0.2c0,0,0,0,0.1,0c0,0,0,0-0.1,0c-0.2,0-0.3,0-0.4,0c-0.2,0-0.3,0-0.5,0c-0.2,0-0.3,0-0.4,0.1v0 c0,0-0.1,0-0.1,0c0,0,0,0,0,0c0,0,0,0-0.1,0c0,0,0,0,0,0c0,0,0,0-0.1,0c0,0,0,0,0,0c0,0,0,0-0.1,0.1c0,0,0,0,0,0 C10.1,35.8,10,35.9,10,36c0,0,0,0,0,0c0,0,0,0.1,0,0.1c0,0,0,0,0,0c0,0,0,0.1,0,0.1c0,0,0,0,0,0c0,0,0,0.1,0,0.1c0,0,0,0,0,0.1 c0,0,0,0.1,0,0.1c0,0,0,0,0,0.1c0,0,0,0.1,0,0.1c0,0,0,0,0,0.1c0,0,0,0.1,0,0.1c0,0,0,0,0,0c0,0.1,0,0.2,0,0.3c0,0,0,0.1,0,0.1 c0,0,0,0.1,0,0.1c0,0,0,0.1,0,0.1c0,0,0,0.1,0,0.1c0,0,0,0.1,0,0.1c0,0,0,0.1,0,0.1c0,0,0,0.1,0,0.1c0,0,0,0.1,0,0.2 c0,0,0,0.1,0,0.2c0,0.1,0,0.1,0,0.2c0,0.1,0,0.1,0,0.2c0,0.1,0,0.1,0,0.2c0,0.1,0,0.1,0,0.2c0,0,0,0.1,0,0.1c0,0.1,0.1,0.2,0.1,0.4 c0,0,0,0.1,0,0.1c0,0.1,0,0.2,0.1,0.3c0,0.1,0,0.1,0,0.2c0,0.1,0,0.2,0.1,0.2c0,0.1,0,0.1,0.1,0.2c0,0.1,0,0.2,0.1,0.3 c0,0.1,0,0.1,0.1,0.2c0,0.1,0,0.2,0.1,0.3c0,0.1,0,0.1,0.1,0.2c0,0.1,0.1,0.2,0.1,0.3c0,0.1,0,0.1,0.1,0.2c0,0.1,0.1,0.2,0.1,0.4 c0,0.1,0,0.1,0.1,0.2c0.1,0.2,0.1,0.4,0.2,0.6c0,0,0,0,0,0c3.9,3.2,8.9,5.1,14.4,5.1c7.1,0,13.4-3.2,17.6-8.2 C39.5,41,32,42.2,18,41.5 M12,35.4C12,35.4,11.9,35.4,12,35.4C11.9,35.4,12,35.4,12,35.4 M12.7,35.5C12.7,35.5,12.7,35.5,12.7,35.5 C12.7,35.5,12.7,35.5,12.7,35.5 M12.6,35.4C12.6,35.4,12.6,35.4,12.6,35.4C12.6,35.4,12.6,35.4,12.6,35.4 M12.5,35.4 C12.5,35.4,12.5,35.4,12.5,35.4C12.5,35.4,12.5,35.4,12.5,35.4 M12.4,35.4C12.3,35.4,12.3,35.4,12.4,35.4 C12.3,35.4,12.3,35.4,12.4,35.4 M12.3,35.4C12.2,35.4,12.2,35.4,12.3,35.4C12.2,35.4,12.2,35.4,12.3,35.4 M12.2,35.4 C12.1,35.4,12.1,35.4,12.2,35.4C12.1,35.4,12.1,35.4,12.2,35.4 M12.1,35.4C12,35.4,12,35.4,12.1,35.4C12,35.4,12,35.4,12.1,35.4"/><path class="st2" d="M14.3,35.6L14.3,35.6C14.3,35.6,14.3,35.6,14.3,35.6C14.3,35.6,14.3,35.6,14.3,35.6"/><path class="st3" d="M30.5 13.9L30.5 13.9 30.4 11z"/><path class="st3" d="M30.5,13.9L30.5,13.9l0-2.9c0-0.6-0.3-0.9-1.2-1c-0.5-0.1-1.3-0.1-2.3-0.1c-1,0-2,0-3,0 c-3.7,0.1-7.1,0.4-10,0.8c-3.1,0.4-5.4,0.9-6.6,1.1c-2.9,3.8-4.6,8.6-4.6,13.7c0,1.6,0.2,3.1,0.5,4.6c3.1,0.2,8.1,0.4,12.8,0.5 c-0.1-4.3-0.1-8.1-0.1-8.1s-0.2-1.4,1.2-1.6c0,0,0.1,0,0.1,0c0.1,0,0.1,0,0.2,0c0.9,0,6.5-0.1,13.2-0.1L30.5,13.9z"/><path class="st4" d="M17.4,20.8c0.9,0,6.5-0.1,13.2-0.1C23.8,20.7,18.3,20.8,17.4,20.8"/><path class="st4" d="M30.6,29l-0.1-8.2c-6.7,0-12.3,0.1-13.2,0.1c-0.1,0-0.1,0-0.2,0c0,0-0.1,0-0.1,0c-1.4,0.2-1.2,1.6-1.2,1.6 s0.1,3.8,0.1,8.1c5.7,0.1,11,0.1,12.3,0.1C30.9,30.6,30.6,29,30.6,29"/><path class="st5" d="M48.1,21.3c-5.2-0.4-11.8-0.5-17.6-0.5l0.1,8.2c0,0,0.2,1.7-2.3,1.7c-1.3,0-6.6,0-12.3-0.1 c0.1,4.5,0.2,9.1,0.2,9.4c0,0.5-0.1,1.5,1.8,1.5c14,0.7,21.6-0.5,25.2-1.4c0,0,0,0,0,0c3.3-4,5.3-9.1,5.3-14.7 C48.5,24.1,48.4,22.7,48.1,21.3"/><path d="M18,41.5c14,0.7,21.6-0.5,25.2-1.4C39.5,41,32,42.2,18,41.5" clip-path="url(#SVGID_2_)" fill="#036cb6"/><path d="M36.7,5.5C36.7,5.5,36.7,5.5,36.7,5.5L36.7,5.5c0.4,1.7,0.9,4.9,1.1,8.5c0.1,1.1,0.1,2.3,0,3.5 c0,1.8,0.6,1.7,2.3,1.8c1.3,0.1,4.6,0,7.7,0.5C46.2,13.6,42.1,8.5,36.7,5.5" clip-path="url(#SVGID_2_)" fill="#717073"/><path class="st5" d="M54.6 37.8L55.8 37.8 55.8 42.3 58.6 42.3 58.6 43.4 54.6 43.4z"/><path class="st5" d="M60.8,42.6c0.8,0,1-0.6,1-1.3c0-0.6-0.2-1.3-1-1.3c-0.8,0-1,0.7-1,1.3C59.9,42,60.1,42.6,60.8,42.6 M60.8,39.2 c1.3,0,2.1,0.8,2.1,2.1c0,1.3-0.8,2.1-2.1,2.1c-1.3,0-2.1-0.8-2.1-2.1C58.7,40,59.6,39.2,60.8,39.2"/><path class="st5" d="M66,40.7c-0.1-0.5-0.4-0.7-0.8-0.7c-0.7,0-0.9,0.7-0.9,1.3c0,0.6,0.2,1.3,0.9,1.3c0.5,0,0.8-0.3,0.9-0.8h1.1 c-0.1,1.1-0.9,1.7-1.9,1.7c-1.2,0-2-0.9-2-2.1c0-1.3,0.8-2.2,2.1-2.2c1,0,1.8,0.5,1.9,1.5H66z"/><path class="st5" d="M70,41.4c-0.2,0.2-0.6,0.2-0.9,0.2c-0.3,0.1-0.7,0.2-0.7,0.6c0,0.4,0.3,0.5,0.7,0.5c0.9,0,0.9-0.7,0.9-0.9 V41.4z M67.4,40.5c0.1-1,1-1.4,1.9-1.4c0.8,0,1.8,0.2,1.8,1.2v2.1c0,0.4,0,0.7,0.1,0.9h-1.1c0-0.1-0.1-0.3-0.1-0.4 c-0.4,0.4-0.9,0.5-1.4,0.5c-0.8,0-1.4-0.4-1.4-1.2c0-0.9,0.7-1.1,1.4-1.2c0.7-0.1,1.3-0.1,1.3-0.5c0-0.5-0.3-0.5-0.7-0.5 c-0.4,0-0.7,0.2-0.7,0.6H67.4z"/><path class="st5" d="M71.7 37.8H72.8V43.4H71.7z"/><path class="st5" d="M77.2 43.3L76 43.3 74.6 39.3 75.8 39.3 76.6 42.1 76.6 42.1 77.5 39.3 78.6 39.3z"/><path class="st5" d="M80.6,42.6c0.8,0,1-0.6,1-1.3c0-0.6-0.2-1.3-1-1.3c-0.8,0-1,0.7-1,1.3C79.6,42,79.8,42.6,80.6,42.6 M80.6,39.2 c1.3,0,2.1,0.8,2.1,2.1c0,1.3-0.8,2.1-2.1,2.1c-1.3,0-2.1-0.8-2.1-2.1C78.5,40,79.3,39.2,80.6,39.2"/><path class="st5" d="M83,39.3h1.1v4H83V39.3z M84.1,38.7H83v-0.9h1.1V38.7z"/><path class="st5" d="M87.3,40.7C87.3,40.3,87,40,86.5,40c-0.7,0-0.9,0.7-0.9,1.3c0,0.6,0.2,1.3,0.9,1.3c0.5,0,0.8-0.3,0.9-0.8h1.1 c-0.1,1.1-0.9,1.7-1.9,1.7c-1.2,0-2-0.9-2-2.1c0-1.3,0.8-2.2,2.1-2.2c1,0,1.8,0.5,1.9,1.5H87.3z"/><path class="st5" d="M91.5,40.9c-0.1-0.6-0.3-0.9-0.9-0.9c-0.7,0-0.9,0.5-0.9,0.9H91.5z M89.7,41.6c0,0.7,0.4,1,1,1 c0.4,0,0.8-0.3,0.9-0.5h1c-0.3,1-1,1.4-1.9,1.4c-1.3,0-2.1-0.9-2.1-2.1c0-1.2,0.8-2.1,2.1-2.1c1.4,0,2,1.2,2,2.4H89.7z"/><path class="st5" d="M93.9,42c0,0.5,0.4,0.7,0.9,0.7c0.3,0,0.7-0.1,0.7-0.5c0-0.3-0.5-0.5-1.3-0.6c-0.6-0.1-1.3-0.4-1.3-1.1 c0-1,0.9-1.3,1.8-1.3c0.9,0,1.7,0.3,1.8,1.3h-1.1c0-0.4-0.4-0.5-0.8-0.5c-0.3,0-0.6,0-0.6,0.4c0,0.4,0.6,0.5,1.3,0.6 c0.7,0.1,1.3,0.4,1.3,1.1c0,1.1-0.9,1.4-1.8,1.4c-0.9,0-1.9-0.4-1.9-1.4H93.9z"/><path class="st5" d="M96.8 42.1H98V43.300000000000004H96.8z"/><path class="st5" d="M104.1,42.7c-0.4,0.6-1,0.8-1.5,0.8c-1.7,0-2.7-1.3-2.7-2.9c0-1.7,1-3,2.7-3c1.1,0,2.2,0.7,2.4,2h-1.2 c-0.1-0.6-0.6-0.9-1.2-0.9c-1.1,0-1.5,0.9-1.5,1.9c0,0.9,0.4,1.9,1.5,1.9c0.8,0,1.3-0.4,1.3-1.2h-1.2v-0.9h2.3v3h-0.8L104.1,42.7z"/><path class="st5" d="M105.7 37.8H106.8V43.4H105.7z"/><path class="st5" d="M109.2,42.6c0.8,0,1-0.6,1-1.3c0-0.6-0.2-1.3-1-1.3c-0.8,0-1,0.7-1,1.3C108.2,42,108.4,42.6,109.2,42.6 M109.2,39.2c1.3,0,2.1,0.8,2.1,2.1c0,1.3-0.8,2.1-2.1,2.1c-1.3,0-2.1-0.8-2.1-2.1C107.1,40,107.9,39.2,109.2,39.2"/><path class="st5" d="M113.6,40c-0.7,0-0.9,0.6-0.9,1.3c0,0.7,0.3,1.3,0.9,1.3c0.7,0,0.9-0.6,0.9-1.3C114.5,40.7,114.2,40,113.6,40 M111.6,37.8h1.1v2h0c0.3-0.4,0.8-0.6,1.3-0.6c0.8,0,1.7,0.6,1.7,2.1c0,1.5-0.9,2.1-1.7,2.1c-0.6,0-1.1-0.2-1.3-0.6h0v0.5h-1.1 V37.8z"/><path class="st5" d="M118.6,41.4c-0.2,0.2-0.6,0.2-0.9,0.2c-0.3,0.1-0.7,0.2-0.7,0.6c0,0.4,0.3,0.5,0.7,0.5c0.9,0,0.9-0.7,0.9-0.9 V41.4z M116,40.5c0.1-1,1-1.4,1.9-1.4c0.8,0,1.8,0.2,1.8,1.2v2.1c0,0.4,0,0.7,0.1,0.9h-1.1c0-0.1-0.1-0.3-0.1-0.4 c-0.4,0.4-0.9,0.5-1.4,0.5c-0.8,0-1.4-0.4-1.4-1.2c0-0.9,0.7-1.1,1.4-1.2c0.7-0.1,1.3-0.1,1.3-0.5c0-0.5-0.3-0.5-0.7-0.5 c-0.4,0-0.7,0.2-0.7,0.6H116z"/><path class="st5" d="M120.3 37.8H121.39999999999999V43.4H120.3z"/><path class="st5" d="M126.4,40.7c-0.1-0.5-0.4-0.7-0.8-0.7c-0.7,0-0.9,0.7-0.9,1.3c0,0.6,0.2,1.3,0.9,1.3c0.5,0,0.8-0.3,0.9-0.8 h1.1c-0.1,1.1-0.9,1.7-1.9,1.7c-1.2,0-2-0.9-2-2.1c0-1.3,0.8-2.2,2.1-2.2c1,0,1.8,0.5,1.9,1.5H126.4z"/><path class="st5" d="M127.8,37.8h1.1v2.1h0c0.3-0.5,0.8-0.7,1.2-0.7c1.2,0,1.5,0.7,1.5,1.7v2.5h-1.1v-2.3c0-0.7-0.2-1-0.7-1 c-0.6,0-0.9,0.3-0.9,1.2v2.1h-1.1V37.8z"/><path class="st5" d="M134.7,41.4c-0.2,0.2-0.6,0.2-0.9,0.2c-0.3,0.1-0.7,0.2-0.7,0.6c0,0.4,0.3,0.5,0.7,0.5c0.9,0,0.9-0.7,0.9-0.9 V41.4z M132.2,40.5c0.1-1,1-1.4,1.9-1.4c0.8,0,1.8,0.2,1.8,1.2v2.1c0,0.4,0,0.7,0.1,0.9h-1.1c0-0.1-0.1-0.3-0.1-0.4 c-0.4,0.4-0.9,0.5-1.4,0.5c-0.8,0-1.4-0.4-1.4-1.2c0-0.9,0.7-1.1,1.4-1.2c0.7-0.1,1.3-0.1,1.3-0.5c0-0.5-0.3-0.5-0.7-0.5 c-0.4,0-0.7,0.2-0.7,0.6H132.2z"/><path class="st5" d="M136.3,39.3h1.1v0.6h0c0.3-0.5,0.8-0.7,1.2-0.7c1.2,0,1.5,0.7,1.5,1.7v2.5H139v-2.3c0-0.7-0.2-1-0.7-1 c-0.6,0-0.9,0.3-0.9,1.2v2.1h-1.1V39.3z"/><path class="st5" d="M143.3,41.3c0-0.7-0.2-1.2-0.9-1.2c-0.6,0-0.9,0.5-0.9,1.2c0,0.6,0.2,1.2,0.9,1.2 C143,42.4,143.3,41.9,143.3,41.3 M144.4,43.1c0,0.7-0.2,1.8-2.1,1.8c-0.8,0-1.7-0.4-1.8-1.3h1.1c0.1,0.4,0.4,0.6,0.8,0.6 c0.6,0,0.9-0.4,0.9-1v-0.5h0c-0.2,0.4-0.7,0.6-1.2,0.6c-1.2,0-1.7-0.9-1.7-2c0-1,0.6-2,1.7-2c0.5,0,0.9,0.2,1.2,0.6h0v-0.5h1.1 V43.1z"/><path class="st5" d="M147.6,40.9c-0.1-0.6-0.3-0.9-0.9-0.9c-0.7,0-0.9,0.5-0.9,0.9H147.6z M145.8,41.6c0,0.7,0.4,1,1,1 c0.4,0,0.8-0.3,0.9-0.5h1c-0.3,1-1,1.4-1.9,1.4c-1.3,0-2.1-0.9-2.1-2.1c0-1.2,0.8-2.1,2.1-2.1c1.4,0,2,1.2,2,2.4H145.8z"/><path class="st5" d="M149 42.1H150.2V43.300000000000004H149z"/><path class="st3" d="M54.6 17.9H58V33.3H54.6z"/><path class="st3" d="M59.9,22.2h2.9v1.6h0.1c0.8-1.2,2.1-1.9,3.4-1.9c3.3,0,4.1,1.8,4.1,4.6v6.9h-3.1V27c0-1.8-0.5-2.7-2-2.7 c-1.7,0-2.4,0.9-2.4,3.2v5.8h-3.1V22.2z"/><path class="st3" d="M76,22.2h2.2v2H76v5.5c0,1,0.3,1.3,1.3,1.3c0.3,0,0.6,0,0.9-0.1v2.4c-0.5,0.1-1.2,0.1-1.8,0.1 c-1.9,0-3.5-0.4-3.5-2.7v-6.6h-1.9v-2H73v-3.3H76V22.2z"/><path class="st3" d="M87,26.5c-0.3-1.6-0.9-2.4-2.4-2.4c-1.9,0-2.5,1.5-2.5,2.4H87z M82,28.5c0.1,1.9,1,2.8,2.7,2.8 c1.2,0,2.2-0.8,2.4-1.4h2.7c-0.9,2.6-2.7,3.8-5.2,3.8c-3.5,0-5.7-2.4-5.7-5.9c0-3.3,2.3-5.9,5.7-5.9c3.8,0,5.6,3.2,5.4,6.6H82z"/><path class="st3" d="M91.5,22.2h2.9v2.1h0c0.6-1.4,2.1-2.4,3.6-2.4c0.2,0,0.5,0,0.7,0.1v2.8c-0.3-0.1-0.7-0.1-1.1-0.1 c-2.2,0-3,1.6-3,3.6v5h-3.1V22.2z"/><path class="st3" d="M99.8,22.2h2.9v1.6h0.1c0.8-1.2,2.1-1.9,3.4-1.9c3.3,0,4.1,1.8,4.1,4.6v6.9h-3.1v-6.3c0-1.8-0.5-2.7-2-2.7 c-1.7,0-2.4,0.9-2.4,3.2v5.8h-3.1V22.2z"/><path class="st3" d="M119.4,26.5c-0.3-1.6-0.9-2.4-2.4-2.4c-1.9,0-2.5,1.5-2.5,2.4H119.4z M114.5,28.5c0.1,1.9,1,2.8,2.7,2.8 c1.2,0,2.2-0.8,2.4-1.4h2.7c-0.9,2.6-2.7,3.8-5.2,3.8c-3.5,0-5.7-2.4-5.7-5.9c0-3.3,2.3-5.9,5.7-5.9c3.8,0,5.6,3.2,5.4,6.6H114.5z"/><path class="st3" d="M136.3 33.3L133.2 33.3 131.2 25.8 131.1 25.8 129.3 33.3 126.1 33.3 122.5 22.2 125.8 22.2 127.8 29.7 127.9 29.7 129.7 22.2 132.7 22.2 134.6 29.7 134.6 29.7 136.7 22.2 139.8 22.2z"/><path class="st3" d="M142.9,29.7c0,1.3,1.1,1.9,2.3,1.9c0.9,0,2-0.3,2-1.4c0-0.9-1.3-1.2-3.5-1.7c-1.8-0.4-3.5-1-3.5-3 c0-2.8,2.5-3.6,4.8-3.6c2.4,0,4.7,0.8,4.9,3.6h-2.9c-0.1-1.2-1-1.5-2.1-1.5c-0.7,0-1.7,0.1-1.7,1c0,1.1,1.7,1.2,3.5,1.7 c1.8,0.4,3.5,1.1,3.5,3.1c0,2.9-2.5,3.9-5.1,3.9c-2.6,0-5.1-1-5.2-3.9H142.9z"/></svg>