<svg width="72" height="76" viewBox="0 0 72 76" fill="none" xmlns="http://www.w3.org/2000/svg"><path fill-rule="evenodd" clip-rule="evenodd" d="M0.764648 0H70.2184C70.2184 29.1215 70.2184 53.0974 70.2184 76H0.764648V0Z" fill="#D91918"/><path fill-rule="evenodd" clip-rule="evenodd" d="M36.9758 65.0201H43.8127V9.56067H36.9758V65.0201ZM24.2187 62.01C24.2148 63.6665 22.8826 64.9972 21.2396 65.0014H7.76196L7.76622 9.56063H21.2561C22.8826 9.56336 24.2148 10.8951 24.2187 12.5516V31.9847C24.2187 33.5514 22.9342 34.817 21.3686 34.817L21.0697 34.8154C22.8013 34.8154 24.2187 36.2235 24.2187 37.9536V39.1725V62.0099V62.01ZM14.5996 16.4061H17.4061V32.2048H14.5996V16.4061ZM14.5996 38.9935H17.4061V58.1406H14.5996V38.9935ZM63.2205 65.0192V9.55762H56.3821V19.2109H49.7283C48.0999 19.2136 46.7777 20.5458 46.7735 22.2023L46.7654 62.0099C46.7696 63.6664 48.1014 64.9971 49.7445 65.0013L63.2205 65.019V65.0192ZM56.3848 25.986H53.5784V58.1407H56.3848V25.986ZM27.18 16.406H34.0165V9.55993H27.18V16.406ZM27.18 65.0201H34.0165V19.2136H27.18V65.0201Z" fill="#fff"/></svg>