<?xml version="1.0" encoding="UTF-8"?>
<svg xmlns="http://www.w3.org/2000/svg" xmlns:xlink="http://www.w3.org/1999/xlink" width="193pt" height="193pt" viewBox="0 0 193 193" version="1.1">
<g id="surface1">
<path style=" stroke:none;fill-rule:evenodd;fill:rgb(100%,100%,100%);fill-opacity:1;" d="M 0 0.242188 L 192.757813 0.242188 L 192.757813 193 L 0 193 L 0 0.242188 "/>
<path style=" stroke:none;fill-rule:evenodd;fill:rgb(92.89856%,10.998535%,14.099121%);fill-opacity:1;" d="M 61.050781 36.8125 L 130.886719 36.8125 L 130.886719 116.214844 L 61.050781 116.214844 L 61.050781 36.8125 "/>
<path style=" stroke:none;fill-rule:evenodd;fill:rgb(100%,100%,100%);fill-opacity:1;" d="M 95.515625 113.257813 C 92.207031 110.347656 80.402344 98.742188 68.058594 95.238281 C 71.417969 85.65625 71.714844 77.015625 71.8125 73.117188 C 71.910156 69.164063 69.886719 55.238281 67.960938 51.242188 C 73.441406 46.847656 86.722656 40.625 90.179688 40.722656 C 92.304688 40.773438 94.722656 42.550781 95.515625 42.550781 C 96.304688 42.550781 98.671875 40.773438 100.847656 40.722656 C 104.304688 40.625 117.535156 46.847656 123.066406 51.242188 C 121.140625 55.238281 119.117188 69.214844 119.214844 73.117188 C 119.3125 77.015625 119.609375 85.65625 122.96875 95.238281 C 110.574219 98.742188 98.773438 110.347656 95.515625 113.257813 Z M 80.15625 68.523438 L 91.019531 68.523438 L 91.019531 57.164063 L 100.007813 57.164063 L 100.007813 68.523438 L 110.871094 68.523438 L 110.871094 71.929688 L 115.710938 71.929688 L 115.710938 71.585938 L 115.757813 70.992188 L 115.808594 70.351563 L 115.855469 69.660156 L 115.90625 68.96875 L 116.007813 68.226563 L 116.203125 66.648438 L 116.300781 65.855469 L 116.402344 65.015625 L 116.5 64.179688 L 116.648438 63.339844 L 116.746094 62.5 L 116.894531 61.609375 L 117.191406 59.929688 L 117.339844 59.042969 L 117.535156 58.203125 L 117.683594 57.363281 L 117.882813 56.574219 L 118.03125 55.734375 L 118.226563 54.992188 L 118.425781 54.203125 L 118.574219 53.511719 L 118.769531 52.769531 L 118.871094 52.523438 L 118.722656 52.476563 L 118.078125 52.03125 L 117.4375 51.636719 L 116.746094 51.191406 L 116.007813 50.746094 L 115.265625 50.351563 L 114.476563 49.90625 L 113.683594 49.460938 L 112.105469 48.671875 L 111.3125 48.230469 L 110.476563 47.835938 L 109.683594 47.488281 L 108.894531 47.09375 L 108.105469 46.746094 L 107.3125 46.402344 L 106.574219 46.054688 L 105.835938 45.757813 L 105.144531 45.511719 L 104.449219 45.214844 L 103.808594 45.019531 L 103.214844 44.820313 L 102.675781 44.621094 L 102.179688 44.476563 L 101.734375 44.378906 L 101.390625 44.277344 L 101.09375 44.230469 L 100.796875 44.230469 C 99.019531 44.230469 96.898438 46.746094 95.515625 46.796875 C 94.773438 46.796875 92.15625 44.425781 90.328125 44.230469 L 89.933594 44.230469 L 89.636719 44.277344 L 89.292969 44.378906 L 88.847656 44.476563 L 88.351563 44.621094 L 87.761719 44.820313 L 87.167969 45.019531 L 86.527344 45.214844 L 85.886719 45.511719 L 85.144531 45.757813 L 84.453125 46.054688 L 83.664063 46.402344 L 82.921875 46.746094 L 82.132813 47.09375 L 81.34375 47.488281 L 80.503906 47.835938 L 79.710938 48.230469 L 78.921875 48.671875 L 77.34375 49.460938 L 76.550781 49.90625 L 75.761719 50.351563 L 75.023438 50.746094 L 74.28125 51.191406 L 73.589844 51.636719 L 72.898438 52.03125 L 72.257813 52.476563 L 72.15625 52.523438 L 72.207031 52.769531 L 72.40625 53.511719 L 72.601563 54.203125 L 72.800781 54.992188 L 72.996094 55.734375 L 73.144531 56.574219 L 73.34375 57.363281 L 73.488281 58.203125 L 73.640625 59.042969 L 73.789063 59.929688 L 73.933594 60.769531 L 74.082031 61.609375 L 74.230469 62.5 L 74.378906 63.339844 L 74.480469 64.179688 L 74.628906 65.015625 L 74.726563 65.855469 L 74.824219 66.648438 L 74.921875 67.4375 L 75.023438 68.226563 L 75.070313 68.96875 L 75.167969 69.660156 L 75.21875 70.351563 L 75.269531 70.992188 L 75.269531 71.585938 L 75.316406 71.929688 L 80.15625 71.929688 Z M 115.710938 74.449219 L 110.871094 74.449219 L 110.871094 77.855469 L 100.007813 77.855469 L 100.007813 89.210938 L 91.019531 89.210938 L 91.019531 77.855469 L 80.15625 77.855469 L 80.15625 74.449219 L 75.269531 74.449219 L 75.269531 75.386719 L 75.21875 75.929688 L 75.21875 76.472656 L 75.167969 77.066406 L 75.121094 77.65625 L 75.070313 78.300781 L 75.023438 78.941406 L 74.972656 79.632813 L 74.875 80.324219 L 74.824219 81.015625 L 74.726563 81.757813 L 74.628906 82.496094 L 74.527344 83.285156 L 74.429688 84.027344 L 74.28125 84.867188 L 74.132813 85.65625 L 73.835938 87.335938 L 73.640625 88.175781 L 73.488281 89.0625 L 73.242188 89.953125 L 73.046875 90.84375 L 72.800781 91.730469 L 72.554688 92.667969 L 72.453125 93.015625 L 72.800781 93.164063 L 74.035156 93.65625 L 75.269531 94.25 L 76.453125 94.792969 L 77.636719 95.433594 L 78.824219 96.078125 L 79.960938 96.71875 L 81.09375 97.410156 L 82.179688 98.101563 L 83.269531 98.789063 L 84.304688 99.535156 L 85.34375 100.226563 L 86.328125 100.964844 L 87.316406 101.65625 L 88.253906 102.398438 L 89.144531 103.089844 L 90.03125 103.828125 L 90.871094 104.519531 L 91.660156 105.160156 L 92.453125 105.851563 L 93.191406 106.496094 L 93.886719 107.089844 L 94.527344 107.679688 L 95.167969 108.222656 L 95.515625 108.519531 L 95.859375 108.222656 L 96.453125 107.679688 L 97.144531 107.089844 L 97.835938 106.496094 L 98.574219 105.851563 L 99.316406 105.160156 L 100.15625 104.519531 L 100.996094 103.828125 L 101.882813 103.089844 L 102.773438 102.398438 L 103.710938 101.65625 L 104.695313 100.964844 L 105.6875 100.226563 L 106.722656 99.535156 L 107.757813 98.789063 L 108.847656 98.101563 L 109.929688 97.410156 L 111.066406 96.71875 L 112.203125 96.078125 L 113.390625 95.433594 L 114.574219 94.792969 L 115.757813 94.25 L 116.992188 93.65625 L 118.226563 93.164063 L 118.574219 93.015625 L 118.472656 92.667969 L 118.226563 91.730469 L 117.980469 90.84375 L 117.734375 89.953125 L 117.535156 89.0625 L 117.339844 88.175781 L 117.191406 87.335938 L 116.992188 86.496094 L 116.847656 85.65625 L 116.695313 84.867188 L 116.597656 84.027344 L 116.5 83.285156 L 116.351563 82.496094 L 116.300781 81.757813 L 116.203125 81.015625 L 116.105469 80.324219 L 116.054688 79.632813 L 116.007813 78.941406 L 115.957031 78.300781 L 115.90625 77.65625 L 115.855469 77.066406 L 115.808594 76.472656 L 115.808594 75.929688 L 115.757813 75.386719 L 115.757813 74.894531 L 115.710938 74.449219 "/>
<path style=" stroke:none;fill-rule:evenodd;fill:rgb(13.699341%,12.199402%,12.5%);fill-opacity:1;" d="M 12.019531 133.855469 L 17.429688 133.855469 C 17.578125 134.484375 17.847656 134.933594 18.242188 135.210938 C 18.636719 135.484375 19.21875 135.621094 19.992188 135.621094 C 20.640625 135.621094 21.152344 135.507813 21.523438 135.285156 C 21.898438 135.066406 22.082031 134.753906 22.082031 134.359375 C 22.082031 133.734375 21.304688 133.226563 19.746094 132.832031 C 19.433594 132.757813 19.191406 132.695313 19.027344 132.65625 C 17.753906 132.328125 16.734375 132.03125 15.976563 131.757813 C 15.21875 131.488281 14.667969 131.234375 14.324219 131 C 13.660156 130.523438 13.160156 129.949219 12.828125 129.28125 C 12.496094 128.613281 12.324219 127.855469 12.324219 127.003906 C 12.324219 125.285156 12.972656 123.9375 14.265625 122.957031 C 15.5625 121.976563 17.339844 121.488281 19.601563 121.488281 C 21.828125 121.488281 23.582031 121.957031 24.859375 122.890625 C 26.136719 123.832031 26.855469 125.171875 27.023438 126.921875 L 21.746094 126.921875 C 21.660156 126.414063 21.433594 126.03125 21.070313 125.78125 C 20.707031 125.527344 20.183594 125.402344 19.507813 125.402344 C 18.914063 125.402344 18.472656 125.5 18.179688 125.699219 C 17.890625 125.894531 17.746094 126.191406 17.746094 126.59375 C 17.746094 127.164063 18.507813 127.644531 20.027344 128.023438 C 20.164063 128.066406 20.265625 128.09375 20.332031 128.109375 C 20.550781 128.160156 20.886719 128.246094 21.332031 128.351563 C 23.347656 128.863281 24.664063 129.324219 25.28125 129.742188 C 26.050781 130.253906 26.609375 130.828125 26.960938 131.484375 C 27.316406 132.132813 27.492188 132.902344 27.492188 133.789063 C 27.492188 135.699219 26.824219 137.167969 25.488281 138.195313 C 24.152344 139.222656 22.238281 139.734375 19.746094 139.734375 C 17.445313 139.734375 15.628906 139.222656 14.285156 138.195313 C 12.941406 137.167969 12.1875 135.722656 12.019531 133.855469 "/>
<path style=" stroke:none;fill-rule:evenodd;fill:rgb(13.699341%,12.199402%,12.5%);fill-opacity:1;" d="M 32.75 139.253906 L 28.574219 121.9375 L 33.992188 121.9375 L 35.875 133.117188 L 38.0625 121.9375 L 42.671875 121.9375 L 44.765625 133.117188 L 46.589844 121.9375 L 51.867188 121.9375 L 47.753906 139.253906 L 42.238281 139.253906 L 40.261719 128.871094 L 38.355469 139.253906 L 32.75 139.253906 "/>
<path style=" stroke:none;fill-rule:evenodd;fill:rgb(13.699341%,12.199402%,12.5%);fill-opacity:1;" d="M 53.804688 139.253906 L 53.804688 121.9375 L 59.472656 121.9375 L 59.472656 139.253906 L 53.804688 139.253906 "/>
<path style=" stroke:none;fill-rule:evenodd;fill:rgb(13.699341%,12.199402%,12.5%);fill-opacity:1;" d="M 62.046875 133.855469 L 67.457031 133.855469 C 67.601563 134.484375 67.871094 134.933594 68.265625 135.210938 C 68.660156 135.484375 69.242188 135.621094 70.015625 135.621094 C 70.664063 135.621094 71.175781 135.507813 71.546875 135.285156 C 71.921875 135.066406 72.105469 134.753906 72.105469 134.359375 C 72.105469 133.734375 71.328125 133.226563 69.769531 132.832031 C 69.457031 132.757813 69.21875 132.695313 69.050781 132.65625 C 67.777344 132.328125 66.757813 132.03125 66.003906 131.757813 C 65.242188 131.488281 64.695313 131.234375 64.347656 131 C 63.683594 130.523438 63.183594 129.949219 62.851563 129.28125 C 62.519531 128.613281 62.347656 127.855469 62.347656 127.003906 C 62.347656 125.285156 62.996094 123.9375 64.289063 122.957031 C 65.585938 121.976563 67.363281 121.488281 69.625 121.488281 C 71.855469 121.488281 73.605469 121.957031 74.882813 122.890625 C 76.160156 123.832031 76.882813 125.171875 77.046875 126.921875 L 71.769531 126.921875 C 71.683594 126.414063 71.457031 126.03125 71.09375 125.78125 C 70.730469 125.527344 70.207031 125.402344 69.535156 125.402344 C 68.941406 125.402344 68.5 125.5 68.207031 125.699219 C 67.917969 125.894531 67.773438 126.191406 67.773438 126.59375 C 67.773438 127.164063 68.53125 127.644531 70.050781 128.023438 C 70.1875 128.066406 70.289063 128.09375 70.355469 128.109375 C 70.578125 128.160156 70.910156 128.246094 71.355469 128.351563 C 73.371094 128.863281 74.6875 129.324219 75.304688 129.742188 C 76.074219 130.253906 76.632813 130.828125 76.984375 131.484375 C 77.339844 132.132813 77.515625 132.902344 77.515625 133.789063 C 77.515625 135.699219 76.851563 137.167969 75.515625 138.195313 C 74.175781 139.222656 72.261719 139.734375 69.769531 139.734375 C 67.472656 139.734375 65.652344 139.222656 64.308594 138.195313 C 62.964844 137.167969 62.210938 135.722656 62.046875 133.855469 "/>
<path style=" stroke:none;fill-rule:evenodd;fill:rgb(13.699341%,12.199402%,12.5%);fill-opacity:1;" d="M 79.65625 133.855469 L 85.066406 133.855469 C 85.214844 134.484375 85.480469 134.933594 85.875 135.210938 C 86.269531 135.484375 86.851563 135.621094 87.625 135.621094 C 88.273438 135.621094 88.785156 135.507813 89.15625 135.285156 C 89.53125 135.066406 89.714844 134.753906 89.714844 134.359375 C 89.714844 133.734375 88.9375 133.226563 87.378906 132.832031 C 87.066406 132.757813 86.828125 132.695313 86.660156 132.65625 C 85.386719 132.328125 84.367188 132.03125 83.613281 131.757813 C 82.851563 131.488281 82.304688 131.234375 81.957031 131 C 81.292969 130.523438 80.792969 129.949219 80.460938 129.28125 C 80.128906 128.613281 79.960938 127.855469 79.960938 127.003906 C 79.960938 125.285156 80.605469 123.9375 81.898438 122.957031 C 83.195313 121.976563 84.972656 121.488281 87.234375 121.488281 C 89.464844 121.488281 91.21875 121.957031 92.492188 122.890625 C 93.769531 123.832031 94.492188 125.171875 94.65625 126.921875 L 89.378906 126.921875 C 89.292969 126.414063 89.066406 126.03125 88.703125 125.78125 C 88.339844 125.527344 87.820313 125.402344 87.144531 125.402344 C 86.550781 125.402344 86.109375 125.5 85.816406 125.699219 C 85.527344 125.894531 85.382813 126.191406 85.382813 126.59375 C 85.382813 127.164063 86.140625 127.644531 87.660156 128.023438 C 87.796875 128.066406 87.898438 128.09375 87.964844 128.109375 C 88.1875 128.160156 88.519531 128.246094 88.964844 128.351563 C 90.980469 128.863281 92.296875 129.324219 92.914063 129.742188 C 93.683594 130.253906 94.242188 130.828125 94.597656 131.484375 C 94.949219 132.132813 95.125 132.902344 95.125 133.789063 C 95.125 135.699219 94.460938 137.167969 93.125 138.195313 C 91.785156 139.222656 89.871094 139.734375 87.378906 139.734375 C 85.082031 139.734375 83.261719 139.222656 81.917969 138.195313 C 80.574219 137.167969 79.820313 135.722656 79.65625 133.855469 "/>
<path style=" stroke:none;fill-rule:evenodd;fill:rgb(13.699341%,12.199402%,12.5%);fill-opacity:1;" d="M 111 133.332031 L 114.488281 133.332031 L 112.765625 127.335938 Z M 103.851563 139.253906 L 109.941406 121.9375 L 115.574219 121.9375 L 121.660156 139.253906 L 116.148438 139.253906 L 115.5 136.964844 L 109.984375 136.964844 L 109.316406 139.253906 L 103.851563 139.253906 "/>
<path style=" stroke:none;fill-rule:evenodd;fill:rgb(13.699341%,12.199402%,12.5%);fill-opacity:1;" d="M 128.742188 129.378906 L 131.269531 129.378906 C 132.15625 129.378906 132.765625 129.257813 133.101563 129.019531 C 133.4375 128.777344 133.609375 128.363281 133.609375 127.769531 C 133.609375 127.160156 133.4375 126.734375 133.101563 126.492188 C 132.765625 126.257813 132.105469 126.132813 131.128906 126.132813 L 128.742188 126.132813 Z M 123.25 139.253906 L 123.25 121.9375 L 131.539063 121.9375 C 134.136719 121.9375 135.984375 122.328125 137.097656 123.101563 C 138.203125 123.875 138.757813 125.152344 138.757813 126.921875 C 138.757813 127.980469 138.527344 128.855469 138.074219 129.554688 C 137.621094 130.253906 136.921875 130.804688 135.972656 131.210938 C 136.9375 131.417969 137.636719 131.816406 138.074219 132.421875 C 138.515625 133.019531 138.75 133.898438 138.78125 135.054688 L 138.871094 137.46875 C 138.871094 137.484375 138.878906 137.503906 138.886719 137.523438 C 138.910156 138.214844 139.074219 138.574219 139.378906 138.609375 L 139.378906 139.253906 L 133.773438 139.253906 C 133.671875 138.835938 133.597656 138.476563 133.546875 138.167969 C 133.492188 137.859375 133.46875 137.617188 133.46875 137.445313 L 133.46875 135.714844 C 133.46875 134.824219 133.289063 134.191406 132.9375 133.828125 C 132.585938 133.460938 131.972656 133.28125 131.105469 133.28125 L 128.742188 133.28125 L 128.742188 139.253906 L 123.25 139.253906 "/>
<path style=" stroke:none;fill-rule:evenodd;fill:rgb(13.699341%,12.199402%,12.5%);fill-opacity:1;" d="M 146.660156 139.253906 L 141.628906 139.253906 L 141.628906 121.9375 L 148.398438 121.9375 L 150.796875 130.578125 C 150.828125 130.695313 150.894531 130.964844 150.988281 131.382813 C 151.078125 131.800781 151.214844 132.378906 151.386719 133.117188 C 151.496094 132.535156 151.59375 132.03125 151.691406 131.59375 C 151.785156 131.160156 151.867188 130.835938 151.9375 130.613281 L 154.394531 121.9375 L 161.152344 121.9375 L 161.152344 139.253906 L 156.121094 139.253906 L 156.171875 130.730469 C 156.171875 130.210938 156.171875 129.710938 156.171875 129.222656 C 156.179688 128.730469 156.1875 128.222656 156.195313 127.695313 C 156.007813 128.589844 155.777344 129.566406 155.511719 130.625 L 155.476563 130.777344 L 153.335938 139.253906 L 149.457031 139.253906 L 147.292969 130.96875 C 147.191406 130.589844 147.089844 130.160156 146.988281 129.675781 C 146.890625 129.183594 146.75 128.527344 146.585938 127.695313 C 146.609375 128.441406 146.632813 129.082031 146.644531 129.613281 C 146.65625 130.148438 146.660156 130.574219 146.660156 130.894531 L 146.660156 139.253906 "/>
<path style=" stroke:none;fill-rule:evenodd;fill:rgb(13.699341%,12.199402%,12.5%);fill-opacity:1;" d="M 168.953125 139.253906 L 168.953125 132.84375 L 162.578125 121.9375 L 168.738281 121.9375 L 171.730469 127.839844 L 174.738281 121.9375 L 180.734375 121.9375 L 174.515625 132.84375 L 174.515625 139.253906 L 168.953125 139.253906 "/>
<path style=" stroke:none;fill-rule:evenodd;fill:rgb(13.699341%,12.199402%,12.5%);fill-opacity:1;" d="M 72.203125 152.242188 L 69.070313 145.105469 C 68.800781 144.492188 68.558594 144.078125 68.34375 143.863281 C 68.125 143.652344 67.863281 143.539063 67.554688 143.535156 L 67.554688 143.269531 L 71.269531 143.269531 L 71.261719 143.535156 C 70.832031 143.566406 70.550781 143.613281 70.417969 143.683594 C 70.28125 143.757813 70.214844 143.875 70.214844 144.042969 C 70.214844 144.214844 70.402344 144.746094 70.777344 145.632813 C 71.148438 146.519531 71.8125 147.992188 72.761719 150.046875 L 75.082031 144.902344 C 75.164063 144.71875 75.222656 144.558594 75.269531 144.417969 C 75.3125 144.28125 75.335938 144.175781 75.335938 144.09375 C 75.335938 143.902344 75.261719 143.765625 75.125 143.6875 C 74.984375 143.605469 74.722656 143.554688 74.339844 143.535156 L 74.332031 143.269531 L 76.980469 143.269531 L 76.980469 143.535156 C 76.742188 143.550781 76.539063 143.644531 76.375 143.816406 C 76.210938 143.984375 76.011719 144.332031 75.78125 144.851563 L 72.480469 152.242188 L 72.203125 152.242188 "/>
<path style=" stroke:none;fill-rule:evenodd;fill:rgb(13.699341%,12.199402%,12.5%);fill-opacity:1;" d="M 76.9375 152.039063 L 76.941406 151.796875 C 77.308594 151.785156 77.554688 151.71875 77.671875 151.601563 C 77.792969 151.484375 77.851563 151.21875 77.851563 150.808594 L 77.851563 147.539063 C 77.851563 147.152344 77.8125 146.914063 77.730469 146.835938 C 77.648438 146.753906 77.476563 146.714844 77.21875 146.714844 L 77.011719 146.714844 L 77.011719 146.472656 C 77.242188 146.441406 77.523438 146.375 77.855469 146.273438 C 78.1875 146.179688 78.5625 146.050781 78.980469 145.894531 L 78.980469 150.863281 C 78.980469 151.242188 79.039063 151.492188 79.152344 151.613281 C 79.273438 151.730469 79.5 151.792969 79.839844 151.796875 L 79.839844 152.039063 Z M 77.78125 143.644531 C 77.78125 143.445313 77.847656 143.28125 77.980469 143.144531 C 78.117188 143.007813 78.285156 142.9375 78.488281 142.9375 C 78.683594 142.9375 78.851563 143.011719 78.988281 143.148438 C 79.125 143.285156 79.195313 143.449219 79.195313 143.644531 C 79.195313 143.84375 79.125 144.011719 78.988281 144.148438 C 78.851563 144.289063 78.683594 144.355469 78.488281 144.355469 C 78.289063 144.355469 78.125 144.289063 77.984375 144.148438 C 77.847656 144.011719 77.78125 143.84375 77.78125 143.644531 "/>
<path style=" stroke:none;fill-rule:evenodd;fill:rgb(13.699341%,12.199402%,12.5%);fill-opacity:1;" d="M 85.367188 149.972656 L 85.574219 150.113281 C 85.21875 150.816406 84.824219 151.34375 84.394531 151.679688 C 83.96875 152.023438 83.484375 152.191406 82.949219 152.191406 C 82.230469 152.191406 81.632813 151.910156 81.160156 151.335938 C 80.683594 150.765625 80.449219 150.042969 80.449219 149.171875 C 80.449219 148.207031 80.722656 147.417969 81.28125 146.800781 C 81.835938 146.1875 82.542969 145.882813 83.40625 145.882813 C 83.96875 145.882813 84.425781 146.003906 84.785156 146.246094 C 85.140625 146.492188 85.320313 146.804688 85.320313 147.183594 C 85.320313 147.371094 85.265625 147.519531 85.152344 147.628906 C 85.039063 147.738281 84.886719 147.792969 84.695313 147.792969 C 84.507813 147.792969 84.367188 147.742188 84.273438 147.644531 C 84.175781 147.546875 84.101563 147.363281 84.046875 147.09375 C 83.996094 146.800781 83.902344 146.59375 83.769531 146.472656 C 83.632813 146.351563 83.4375 146.292969 83.175781 146.292969 C 82.703125 146.292969 82.304688 146.515625 81.988281 146.949219 C 81.671875 147.390625 81.511719 147.953125 81.511719 148.640625 C 81.511719 149.40625 81.695313 150.023438 82.066406 150.5 C 82.433594 150.976563 82.910156 151.214844 83.492188 151.214844 C 83.875 151.214844 84.214844 151.117188 84.503906 150.925781 C 84.796875 150.734375 85.085938 150.414063 85.367188 149.972656 "/>
<path style=" stroke:none;fill-rule:evenodd;fill:rgb(13.699341%,12.199402%,12.5%);fill-opacity:1;" d="M 85.925781 146.527344 L 85.925781 146.355469 C 86.324219 146.121094 86.671875 145.832031 86.96875 145.480469 C 87.261719 145.132813 87.507813 144.730469 87.703125 144.273438 L 87.941406 144.273438 L 87.941406 146.078125 L 89.359375 146.078125 L 89.359375 146.527344 L 87.941406 146.527344 L 87.941406 150.539063 C 87.941406 150.871094 87.988281 151.101563 88.082031 151.234375 C 88.171875 151.367188 88.328125 151.433594 88.550781 151.433594 C 88.699219 151.433594 88.84375 151.398438 88.988281 151.324219 C 89.132813 151.253906 89.273438 151.144531 89.410156 151 L 89.578125 151.175781 C 89.332031 151.527344 89.082031 151.785156 88.828125 151.941406 C 88.578125 152.101563 88.292969 152.179688 87.980469 152.179688 C 87.578125 152.179688 87.289063 152.070313 87.101563 151.84375 C 86.917969 151.625 86.824219 151.273438 86.824219 150.792969 L 86.824219 146.527344 L 85.925781 146.527344 "/>
<path style=" stroke:none;fill-rule:evenodd;fill:rgb(13.699341%,12.199402%,12.5%);fill-opacity:1;" d="M 91.402344 148.628906 C 91.402344 149.574219 91.582031 150.335938 91.941406 150.925781 C 92.304688 151.515625 92.769531 151.808594 93.339844 151.808594 C 93.902344 151.808594 94.320313 151.617188 94.59375 151.238281 C 94.867188 150.851563 95.003906 150.277344 95.003906 149.5 C 95.003906 148.519531 94.824219 147.726563 94.460938 147.128906 C 94.097656 146.535156 93.625 146.234375 93.046875 146.234375 C 92.527344 146.234375 92.125 146.441406 91.835938 146.859375 C 91.542969 147.28125 91.402344 147.867188 91.402344 148.628906 Z M 93.140625 152.191406 C 92.277344 152.191406 91.566406 151.90625 91.019531 151.324219 C 90.472656 150.742188 90.203125 149.996094 90.203125 149.074219 C 90.203125 148.132813 90.484375 147.367188 91.058594 146.777344 C 91.628906 146.1875 92.371094 145.894531 93.289063 145.894531 C 94.171875 145.894531 94.878906 146.171875 95.410156 146.730469 C 95.941406 147.292969 96.203125 148.035156 96.203125 148.96875 C 96.203125 149.953125 95.925781 150.734375 95.371094 151.320313 C 94.816406 151.902344 94.074219 152.191406 93.140625 152.191406 "/>
<path style=" stroke:none;fill-rule:evenodd;fill:rgb(13.699341%,12.199402%,12.5%);fill-opacity:1;" d="M 96.976563 152.039063 L 96.976563 151.796875 C 97.367188 151.773438 97.628906 151.6875 97.769531 151.539063 C 97.910156 151.394531 97.980469 151.128906 97.980469 150.746094 L 97.980469 147.660156 C 97.980469 147.292969 97.929688 147.054688 97.828125 146.949219 C 97.726563 146.839844 97.523438 146.789063 97.21875 146.789063 L 97.015625 146.789063 L 97.015625 146.550781 C 97.488281 146.414063 97.890625 146.289063 98.226563 146.1875 C 98.558594 146.082031 98.847656 145.984375 99.09375 145.894531 L 99.09375 147.078125 C 99.394531 146.695313 99.667969 146.410156 99.925781 146.222656 C 100.179688 146.035156 100.421875 145.941406 100.65625 145.941406 C 100.863281 145.941406 101.039063 146.003906 101.175781 146.125 C 101.3125 146.246094 101.378906 146.398438 101.378906 146.585938 C 101.378906 146.761719 101.332031 146.90625 101.238281 147.011719 C 101.144531 147.121094 101.023438 147.171875 100.871094 147.171875 C 100.722656 147.171875 100.5625 147.113281 100.386719 146.992188 C 100.210938 146.875 100.089844 146.8125 100.023438 146.8125 C 99.890625 146.8125 99.753906 146.878906 99.613281 147 C 99.46875 147.128906 99.296875 147.335938 99.09375 147.625 L 99.09375 150.863281 C 99.09375 151.21875 99.164063 151.457031 99.3125 151.578125 C 99.457031 151.703125 99.746094 151.777344 100.183594 151.796875 L 100.183594 152.039063 L 96.976563 152.039063 "/>
<path style=" stroke:none;fill-rule:evenodd;fill:rgb(13.699341%,12.199402%,12.5%);fill-opacity:1;" d="M 101.867188 152.039063 L 101.875 151.796875 C 102.242188 151.785156 102.484375 151.71875 102.605469 151.601563 C 102.726563 151.484375 102.785156 151.21875 102.785156 150.808594 L 102.785156 147.539063 C 102.785156 147.152344 102.746094 146.914063 102.664063 146.835938 C 102.578125 146.753906 102.410156 146.714844 102.148438 146.714844 L 101.941406 146.714844 L 101.941406 146.472656 C 102.175781 146.441406 102.457031 146.375 102.789063 146.273438 C 103.121094 146.179688 103.496094 146.050781 103.910156 145.894531 L 103.910156 150.863281 C 103.910156 151.242188 103.972656 151.492188 104.085938 151.613281 C 104.207031 151.730469 104.433594 151.792969 104.773438 151.796875 L 104.773438 152.039063 Z M 102.710938 143.644531 C 102.710938 143.445313 102.78125 143.28125 102.914063 143.144531 C 103.050781 143.007813 103.21875 142.9375 103.421875 142.9375 C 103.617188 142.9375 103.785156 143.011719 103.921875 143.148438 C 104.058594 143.285156 104.128906 143.449219 104.128906 143.644531 C 104.128906 143.84375 104.058594 144.011719 103.921875 144.148438 C 103.785156 144.289063 103.617188 144.355469 103.421875 144.355469 C 103.222656 144.355469 103.054688 144.289063 102.917969 144.148438 C 102.78125 144.011719 102.710938 143.84375 102.710938 143.644531 "/>
<path style=" stroke:none;fill-rule:evenodd;fill:rgb(13.699341%,12.199402%,12.5%);fill-opacity:1;" d="M 105.292969 152.039063 L 105.292969 151.804688 C 105.660156 151.785156 105.902344 151.71875 106.023438 151.601563 C 106.144531 151.484375 106.203125 151.21875 106.203125 150.808594 L 106.203125 147.597656 C 106.203125 147.214844 106.160156 146.984375 106.078125 146.902344 C 105.992188 146.820313 105.808594 146.777344 105.535156 146.777344 L 105.292969 146.777344 L 105.292969 146.535156 C 105.523438 146.503906 105.792969 146.4375 106.097656 146.34375 C 106.402344 146.246094 106.8125 146.097656 107.324219 145.890625 L 107.324219 146.894531 C 107.6875 146.5625 108.03125 146.316406 108.363281 146.160156 C 108.695313 146.007813 109.027344 145.929688 109.359375 145.929688 C 109.914063 145.929688 110.304688 146.101563 110.535156 146.449219 C 110.769531 146.792969 110.882813 147.402344 110.882813 148.285156 L 110.882813 151.011719 C 110.882813 151.304688 110.941406 151.507813 111.058594 151.617188 C 111.175781 151.730469 111.394531 151.789063 111.707031 151.796875 L 111.707031 152.039063 L 108.84375 152.039063 L 108.847656 151.796875 C 109.21875 151.789063 109.464844 151.726563 109.589844 151.613281 C 109.71875 151.496094 109.78125 151.273438 109.78125 150.9375 L 109.78125 148.273438 C 109.78125 147.707031 109.699219 147.296875 109.53125 147.054688 C 109.359375 146.8125 109.085938 146.691406 108.703125 146.691406 C 108.453125 146.691406 108.210938 146.746094 107.976563 146.855469 C 107.742188 146.96875 107.527344 147.136719 107.324219 147.359375 L 107.324219 150.863281 C 107.324219 151.226563 107.382813 151.476563 107.496094 151.597656 C 107.617188 151.722656 107.851563 151.789063 108.195313 151.804688 L 108.195313 152.039063 L 105.292969 152.039063 "/>
<path style=" stroke:none;fill-rule:evenodd;fill:rgb(13.699341%,12.199402%,12.5%);fill-opacity:1;" d="M 113.578125 148.628906 C 113.578125 149.574219 113.757813 150.335938 114.121094 150.925781 C 114.480469 151.515625 114.949219 151.808594 115.515625 151.808594 C 116.078125 151.808594 116.496094 151.617188 116.769531 151.238281 C 117.046875 150.851563 117.183594 150.277344 117.183594 149.5 C 117.183594 148.519531 117 147.726563 116.640625 147.128906 C 116.273438 146.535156 115.804688 146.234375 115.226563 146.234375 C 114.703125 146.234375 114.300781 146.441406 114.011719 146.859375 C 113.722656 147.28125 113.578125 147.867188 113.578125 148.628906 Z M 115.320313 152.191406 C 114.453125 152.191406 113.746094 151.90625 113.199219 151.324219 C 112.652344 150.742188 112.378906 149.996094 112.378906 149.074219 C 112.378906 148.132813 112.664063 147.367188 113.234375 146.777344 C 113.808594 146.1875 114.550781 145.894531 115.46875 145.894531 C 116.351563 145.894531 117.058594 146.171875 117.589844 146.730469 C 118.121094 147.292969 118.382813 148.035156 118.382813 148.96875 C 118.382813 149.953125 118.105469 150.734375 117.550781 151.320313 C 116.996094 151.902344 116.25 152.191406 115.320313 152.191406 "/>
<path style=" stroke:none;fill-rule:evenodd;fill:rgb(13.699341%,12.199402%,12.5%);fill-opacity:1;" d="M 118.675781 152.039063 L 118.675781 151.796875 L 118.753906 151.796875 C 118.914063 151.796875 119.070313 151.738281 119.226563 151.625 C 119.378906 151.515625 119.585938 151.285156 119.84375 150.9375 L 121.148438 149.148438 L 119.738281 146.945313 C 119.59375 146.714844 119.449219 146.554688 119.308594 146.464844 C 119.160156 146.375 118.984375 146.328125 118.769531 146.320313 L 118.769531 146.078125 L 121.601563 146.078125 L 121.601563 146.320313 C 121.347656 146.339844 121.175781 146.363281 121.089844 146.40625 C 121.003906 146.449219 120.957031 146.515625 120.957031 146.613281 C 120.957031 146.671875 120.972656 146.734375 120.992188 146.800781 C 121.015625 146.863281 121.050781 146.933594 121.09375 147.003906 L 121.84375 148.195313 L 122.554688 147.238281 C 122.621094 147.148438 122.675781 147.050781 122.714844 146.957031 C 122.753906 146.863281 122.773438 146.78125 122.773438 146.71875 C 122.773438 146.578125 122.726563 146.472656 122.628906 146.414063 C 122.53125 146.351563 122.371094 146.320313 122.144531 146.320313 L 122.144531 146.078125 L 124.453125 146.078125 L 124.453125 146.320313 C 124.195313 146.328125 123.960938 146.40625 123.742188 146.5625 C 123.523438 146.714844 123.257813 147 122.945313 147.425781 L 122.097656 148.589844 L 123.707031 151.109375 C 123.867188 151.367188 124.007813 151.542969 124.136719 151.644531 C 124.261719 151.746094 124.398438 151.796875 124.539063 151.796875 L 124.570313 151.796875 L 124.570313 152.039063 L 121.792969 152.039063 L 121.792969 151.796875 C 122.074219 151.796875 122.265625 151.777344 122.367188 151.730469 C 122.46875 151.6875 122.515625 151.613281 122.515625 151.507813 C 122.515625 151.457031 122.503906 151.394531 122.476563 151.3125 C 122.453125 151.234375 122.417969 151.15625 122.375 151.085938 L 121.402344 149.542969 L 120.464844 150.863281 C 120.378906 150.980469 120.308594 151.101563 120.257813 151.21875 C 120.210938 151.332031 120.183594 151.429688 120.183594 151.507813 C 120.183594 151.601563 120.226563 151.671875 120.308594 151.722656 C 120.390625 151.773438 120.507813 151.796875 120.667969 151.796875 L 120.765625 151.796875 L 120.765625 152.039063 L 118.675781 152.039063 "/>
</g>
</svg>
