<svg width="150" height="40" viewBox="0 0 150 40" fill="none" xmlns="http://www.w3.org/2000/svg"><path d="M0.0266113 39.6569H149.907V27.5469H0.0266113V39.6569Z" fill="#FE0"/><path d="M13.3683 0.761634L8.43827 8.4183H6.39327V0.761634H0.0266113V21.18H6.39327V13.2033H8.35161L13.3116 21.18H21.0699L14.0216 10.42L20.6933 0.746634H13.3699L13.3683 0.761634ZM39.4133 5.0833H44.1549V0.746634H39.4133V5.0833ZM21.6483 5.0833H26.3899V0.746634H21.6483V5.0833ZM35.1649 13.015H30.4799L32.1916 7.6783L32.8149 5.56163H32.9016L33.4966 7.6783L35.1649 13.015ZM44.8516 21.18L36.5716 0.761634H29.1899L21.0683 21.18H27.8549L28.9433 17.7433H36.6149L37.6733 21.18H44.8366H44.8516ZM141.61 7.76497C141.61 9.6933 140.842 10.1866 138.97 10.1866H136.302V5.53163H138.998C140.957 5.53163 141.608 6.0533 141.608 7.76497H141.61ZM148.282 7.5183C148.282 2.96497 145.092 0.759967 139.102 0.759967H129.922V21.1783H136.288V14.45H138.928L142.38 21.1783H149.892L144.672 13.2316C146.963 12.42 148.268 10.1566 148.268 7.5183H148.282ZM83.8632 1.22497C82.3982 0.731633 80.2949 0.383301 78.3666 0.383301C70.5216 0.383301 67.0399 4.4433 67.0399 10.8966C67.0399 17.8716 70.7383 21.57 77.8149 21.57C79.9182 21.57 82.1949 21.0766 83.9199 20.3083L83.2382 15.6233C81.9332 16.145 80.3516 16.465 78.6549 16.465C74.7682 16.465 73.7532 15.13 73.7532 10.91C73.7532 6.90663 74.6816 5.5733 78.5966 5.5733C80.4232 5.5733 81.9466 5.8483 83.2232 6.19663L83.8466 1.2083L83.8632 1.22497ZM106.327 21.18V0.761634H99.9749V8.3033H93.2016V0.761634H86.8349V21.18H93.2016V13.5083H99.9749V21.18H106.327ZM116.537 16.1483V13.045H124.847V8.5783H116.537V5.85163H126.587L126.47 0.761634H110.155V21.18H126.877L126.993 16.1483H116.537ZM58.5283 7.76497C58.5283 9.6933 57.7599 10.1866 55.8883 10.1866H53.2199V5.53163H55.9166C57.8749 5.53163 58.5266 6.0533 58.5266 7.76497H58.5283ZM65.2133 7.5183C65.2133 2.96497 62.0233 0.759967 56.0333 0.759967H46.8533V21.1783H53.2199V14.45H55.8599L59.3116 21.1783H66.8232L61.6033 13.2316C63.8949 12.42 65.1999 10.1566 65.1999 7.5183" fill="#000"/></svg>