<svg width="25" height="25" viewBox="0 0 25 25" fill="none" xmlns="http://www.w3.org/2000/svg">
<path d="M17.8388 9.2312C16.8853 3.93577 11.3968 6.94928 12.4411 11.2114C13.6818 14.0665 18.2084 12.0194 17.8388 9.2312Z" fill="#94BBED"/>
<path d="M19.0346 2.02427C18.9854 -0.595319 9.60403 -0.893018 10.368 2.44408C10.402 4.07305 19.5581 4.48698 19.0346 2.02427Z" fill="#94BBED"/>
<path d="M9.46093 5.61862C7.06463 2.0373 5.50138 8.48544 5.76469 10.3199C6.28592 11.984 8.6251 11.5053 8.72434 9.84124C8.74309 8.39656 10.4226 6.98699 9.46093 5.61862Z" fill="#94BBED"/>
<path d="M12.5404 17.4796C12.7209 16.0721 11.8277 14.6195 10.7918 13.9338C10.6933 13.8695 9.10191 13.5892 9.57753 13.7395C7.46479 13.0719 6.82267 14.0459 7.97465 15.5367C8.80038 16.6053 12.2976 19.3739 12.5404 17.4796Z" fill="#94BBED"/>
<path d="M21.1399 13.6551C18.2151 12.9356 14.5064 18.2497 18.903 18.2082C20.6481 18.1917 23.7808 14.7278 21.1399 13.6551Z" fill="#94BBED"/>
<path d="M23.323 6.84232C21.9144 0.527942 18.834 7.65673 21.3801 9.46522C23.887 11.2459 25.0716 10.7932 23.323 6.84232Z" fill="#94BBED"/>
<path d="M4.23485 15.5371C3.87032 15.0847 3.33413 15.809 2.9813 15.9833C2.20444 16.5599 1.45604 17.1777 0.735134 17.8224C-0.0409034 18.5324 1.14717 19.6385 1.80051 18.8165C2.37386 18.0737 2.95993 17.3423 3.5819 16.6394C3.77638 16.3119 4.44575 15.9593 4.23485 15.5371Z" fill="#054BA8"/>
<path d="M7.65322 21.5537C7.42478 22.2841 6.92356 22.8966 6.27212 23.2998C5.82423 23.5515 6.22714 24.2482 6.66841 23.9882C7.50114 23.4964 8.33944 22.9293 8.95451 22.1779C10.1187 20.6522 8.3392 20.1877 7.65322 21.5537Z" fill="#054BA8"/>
<path d="M2.91625 20.9841C2.2497 21.8866 3.73178 22.7406 4.17845 21.7123C4.31727 21.3486 4.47702 21.0394 4.70541 20.7225C4.87735 20.3555 5.72518 19.8011 5.55289 19.4222C5.21906 18.6667 3.14697 20.564 2.91625 20.9841Z" fill="#054BA8"/>
<path d="M14.1654 6.64448C12.285 7.18635 11.1842 9.23945 11.8978 11.0903C12.4457 12.6499 14.1018 13.5332 15.6963 13.1223C19.6712 12.1147 18.2666 5.57672 14.1654 6.64448ZM15.3781 11.949C13.8579 12.0575 12.9976 10.7328 13.0691 9.33348C13.0818 8.4944 13.6118 7.70583 14.4119 7.42843C17.3092 6.51576 18.2783 11.5787 15.3781 11.949Z" fill="#054BA8"/>
<path d="M24.4419 9.1403C24.3331 7.17633 23.5683 5.33967 22.3816 3.83549C22.3252 3.66602 22.2077 3.5173 22.0421 3.427C19.866 0.943799 16.5001 -0.494762 13.1373 0.16543C9.76732 0.731975 7.17701 3.40577 5.88878 6.46062C2.30741 14.4721 12.8309 22.8212 19.9979 18.0852C20.8112 17.5647 20.0001 16.3277 19.1994 16.8662C18.5896 17.2853 17.9176 17.5986 17.2144 17.8054C17.4324 16.5878 17.8416 15.2643 18.9633 14.6789C19.5326 14.4471 20.0709 14.5899 20.706 14.6816C21.479 14.8154 22.354 14.8021 23.0415 14.3433C23.4815 14.0524 23.7977 13.6342 23.9882 13.1632C24.0779 13.0943 24.1479 12.9894 24.1785 12.843C24.4391 11.6299 24.5455 10.3794 24.4419 9.1403ZM17.8975 1.55163C16.7061 2.2961 15.5093 3.21304 14.0584 3.01895C12.6941 2.81975 12.0788 2.05761 11.6535 1.62643C13.6736 0.74713 15.9129 0.787299 17.8975 1.55163ZM6.93075 6.70853C7.23525 5.99564 7.58381 5.35599 7.96777 4.78474C8.10027 5.04285 8.22316 5.30548 8.32944 5.57301C8.761 6.61829 9.02941 8.04354 7.98409 8.80292C7.38714 9.17639 6.78975 9.57385 6.28926 10.0716C6.21174 8.95519 6.40239 7.81243 6.93075 6.70853ZM8.0468 14.4729C8.72919 14.3531 9.40978 14.3059 10.0697 14.4751C11.3519 14.8867 11.8705 16.2773 12.1627 17.5496C10.5535 16.9406 9.10494 15.8414 8.0468 14.4729ZM23.2187 12.3123C22.3547 13.5443 21.562 13.27 20.0394 13.2901C17.5354 13.3014 16.5779 15.8742 16.3352 18.0059C15.4488 18.1518 14.5344 18.1373 13.6484 17.9599C13.5302 17.9392 13.4125 17.915 13.2952 17.8889C12.8892 16.937 12.6693 15.9344 12.1689 15.0117C11.2732 13.163 9.03058 12.9856 7.20533 13.1733C6.87101 12.5444 6.61683 11.8805 6.45873 11.1975C6.85357 11.0651 7.21913 10.897 7.59167 10.7133C8.28626 10.3489 9.04889 9.98429 9.43397 9.25498C10.1283 7.96859 9.70689 6.42264 9.11529 5.1841C8.93154 4.79669 8.72438 4.42472 8.50843 4.05343C9.22428 3.1737 10.0356 2.49519 10.902 2.00219C11.2202 2.62163 12.3484 3.38484 12.7178 3.57777C14.7837 4.74627 17.7816 4.17244 18.9262 2.02511C19.7229 2.45536 20.4585 3.00962 21.0971 3.67292C20.8677 3.99622 20.7359 4.47912 20.5821 4.80174C20.2526 5.62193 19.8955 6.44872 19.8141 7.36091C19.6581 9.40594 21.9574 10.2318 23.4348 11.1443C23.3848 11.5262 23.3134 11.9156 23.2187 12.3123ZM23.5085 10.3539C22.7373 9.78888 21.9312 9.26119 21.2889 8.57477C20.6515 7.92731 21.036 7.05913 21.3553 6.33463C21.5748 5.85177 21.8233 5.36969 22.0761 4.89271C23.0634 6.38169 23.6242 8.23627 23.5085 10.3539Z" fill="#054BA8"/>
</svg>
