<svg width="178" height="76" viewBox="0 0 178 76" fill="none" xmlns="http://www.w3.org/2000/svg"><g clip-path="url(#clip0_834_14672)" fill="#A71923"><path d="M63.1622 26.2386H58.2745C57.6365 26.2386 56.9883 26.3621 56.3503 27.9056L47.3569 49.751H59.4372V39.2245C59.4372 38.5865 59.9517 37.9382 60.7235 37.9382C61.3615 37.9382 62.0097 38.4527 62.0097 39.2245V49.7613H74.09L65.0967 27.9056C64.4484 26.3621 63.9339 26.2386 63.1622 26.2386Z"/><path d="M144.658 26.2386H124.603V32.9271H144.658V26.2386Z"/><path d="M90.8006 35.4892L83.4742 27.0104C83.0935 26.4959 82.3218 26.2386 81.6735 26.2386H77.0431C76.0141 26.2386 75.7568 26.6194 75.7568 27.5249V49.7613H82.9495V39.3479L86.2937 43.2066V49.8951H91.8193C96.8305 49.8951 97.9933 47.8371 97.9933 43.9784V26.2386H90.8006V35.4892Z"/><path d="M22.548 26.2386H7V32.9271H17.7941C18.432 32.9271 19.0803 33.4416 19.0803 34.2133C19.0803 34.8513 18.5658 35.4995 17.7941 35.4995H7V49.8951H16.2506V42.3114H22.548C26.4067 42.3114 28.2074 39.2245 28.0737 33.9561C28.0737 28.0394 26.4067 26.2386 22.548 26.2386Z"/><path d="M39.3927 41.1487V26.2386H30.1421V43.9784C30.1421 48.4751 32.3235 49.7613 36.316 49.7613H46.0811V43.3301H41.3272C40.0307 43.2066 39.3927 42.1777 39.3927 41.1487Z"/><path d="M121.907 32.2788C122.288 31.3836 122.288 30.7353 122.288 29.1918C122.288 26.4959 121.773 26.2386 120.106 26.2386H100.823V32.9271H110.331L101.975 41.7969C101.595 42.3114 99.9175 43.5977 99.9175 45.6556C99.9175 46.4274 99.9175 47.1991 99.9175 47.9709C99.9175 49.5143 100.041 49.7716 102.099 49.7716H121.897V43.3404H112.512L120.096 34.8616C120.487 34.203 121.65 32.9271 121.907 32.2788Z"/><path d="M163.808 39.9962C167.409 39.739 168.181 38.072 168.181 32.9271C168.181 27.9159 166.894 26.2386 163.17 26.2386H147.488V32.9271H158.539C159.177 32.9271 159.825 33.4416 159.825 34.2133C159.825 34.8513 159.311 35.4995 158.539 35.4995H147.488V49.8951H156.615V42.188L159.054 45.7894V49.7716H171.01L163.808 39.9962Z"/><path d="M135.654 43.2067C133.596 43.2067 133.73 41.0252 133.73 41.0252H138.618V35.3658H124.613V43.5874C124.613 47.0551 127.309 49.6275 130.787 49.6275H145.306V43.1964L135.654 43.2067Z"/></g><defs><clipPath id="clip0_834_14672"><path fill="#fff" transform="translate(7 26.239)" d="M0 0H164V23.523H0z"/></clipPath></defs></svg>