<svg width="652px" height="284px" version="1.1" id="layer" xmlns="http://www.w3.org/2000/svg" xmlns:xlink="http://www.w3.org/1999/xlink" x="0" y="0" viewBox="0 0 652 284" xml:space="preserve"><style>.st14{fill:#e65820}</style><defs><path id="SVGID_1_" d="M491.7,167.2c-4.7,2.9-9.6,5.5-14.7,7.8c-4.9,2.2-10,4-15.1,5.5c-5.2,1.5-10.4,2.6-15.8,3.4 c-5.3,0.8-10.7,1.2-16.1,1.3c-5,0.1-10-0.2-15-0.7c-4.9-0.5-9.8-1.4-14.6-2.6c-4.8-1.1-9.5-2.6-14.2-4.3 c-4.3-1.6-8.5-3.4-12.6-5.5c3.1,4.8,6.6,9.4,10.4,13.7c3.7,4.2,7.8,8.2,12.1,11.9c4.1,3.5,8.5,6.8,13,9.7 c1.2,0.8,2.5,1.6,3.8,2.3c0.1,0,0.2,0,0.3,0c5.3-0.3,10.6-0.9,15.9-1.9s10.6-2.4,15.8-4.1c5.2-1.7,10.2-3.8,15.1-6.3 c4.9-2.4,9.5-5.2,14-8.2c4.4-3,8.6-6.3,12.6-9.9c3.9-3.6,7.6-7.4,11-11.5c3-3.5,5.7-7.2,8.2-11.1 C501.5,160.7,496.7,164.1,491.7,167.2"/></defs><clipPath id="SVGID_2_"><use xlink:href="#SVGID_1_" overflow="visible"/></clipPath><linearGradient id="SVGID_3_" gradientUnits="userSpaceOnUse" x1="-455.395" y1="-156.867" x2="-450.866" y2="-156.867" gradientTransform="rotate(-28.769 2731.058 -26973.35) scale(27.2286)"><stop offset="0" stop-color="#f7b90b"/><stop offset="1" stop-color="#cb2e18"/></linearGradient><path clip-path="url(#SVGID_2_)" fill="url(#SVGID_3_)" d="M351.3 169.2L475.3 101.1 528.3 197.6 404.3 265.7z"/><defs><path id="SVGID_4_" d="M502.9,164.8c-3.1,4.1-6.6,8.1-10.2,11.8c-3.7,3.7-7.6,7.1-11.7,10.3c-4.2,3.2-8.5,6.2-13.1,8.8 c-4.7,2.8-9.7,5.2-14.7,7.3c-5.1,2.1-10.3,3.8-15.7,5.2c-5.3,1.4-10.7,2.4-16.2,3.1c-5.6,0.7-11.2,0.9-16.8,0.8 c-4-0.1-8.1-0.4-12.1-0.9c4.4,3.3,8.9,6.3,13.7,8.9c4.8,2.7,9.7,5,14.8,7c5,1.9,10.1,3.6,15.3,4.8c1.9,0.5,3.9,0.9,5.8,1.3 c0.1,0,0.2,0,0.2,0c5.4-2.3,10.6-4.9,15.6-7.9c4.8-2.9,9.3-6.1,13.6-9.6c4.2-3.5,8.3-7.3,12-11.3c3.9-4.2,7.5-8.7,10.7-13.4 c2.9-4.2,5.5-8.7,7.8-13.3c2.3-4.6,4.3-9.3,6.1-14.2c1.3-3.8,2.5-7.8,3.4-11.7C509,156.3,506.1,160.6,502.9,164.8"/></defs><clipPath id="SVGID_5_"><use xlink:href="#SVGID_4_" overflow="visible"/></clipPath><linearGradient id="SVGID_6_" gradientUnits="userSpaceOnUse" x1="-457.174" y1="-157.674" x2="-452.644" y2="-157.674" gradientTransform="rotate(-28.769 2946.347 -29154.757) scale(29.3659)"><stop offset="0" stop-color="#f7b90b"/><stop offset="1" stop-color="#b91819"/></linearGradient><path clip-path="url(#SVGID_5_)" fill="url(#SVGID_6_)" d="M358.1 170.6L484 101.5 545.9 214.4 420.1 283.5z"/><defs><path id="SVGID_7_" d="M505.7,206.9L505.7,206.9 M505.7,206.9c0,0,0.2-0.6,0.8-2.1C506.1,205.9,505.7,206.8,505.7,206.9 M506.5,204.7c0.1-0.4,0.3-0.9,0.5-1.4C506.9,203.8,506.7,204.3,506.5,204.7 M507,203.4c0-0.1,0-0.1,0.1-0.2 c0.1-0.2,0.1-0.4,0.2-0.6C507.2,202.9,507.1,203.1,507,203.4 M507.3,202.6c0.3-0.8,0.6-1.5,0.8-2.1 C507.8,201.3,507.5,202,507.3,202.6 M511.3,160.6c-1.6,5-3.5,9.9-5.7,14.7c-2.4,5-5.1,9.9-8.1,14.5c-2.9,4.5-6.2,8.8-9.7,12.9 c-3.5,4-7.2,7.8-11.2,11.4s-8.3,6.9-12.7,9.9c-4.6,3.1-9.5,5.9-14.5,8.4c-5.2,2.6-10.7,4.8-16.2,6.5c-3.2,1-6.4,1.9-9.6,2.6 c5.2,1.6,10.4,2.8,15.8,3.7c5.4,0.9,10.9,1.4,16.4,1.5s11-0.1,16.5-0.7c1.4-0.2,2.7-0.3,4.1-0.5c0.3,0,0.6-0.1,1-0.1 c0.2,0,0.3-0.1,0.5-0.1c0.1,0,0.2,0,0.2,0c0.1-0.1,0.1-0.1,0.2-0.2c0.5-0.4,0.9-0.9,1.4-1.3c1.8-1.8,3.6-3.6,5.4-5.5 c3.4-3.8,6.6-7.7,9.5-11.9c2.9-4.1,5.5-8.5,7.9-13c2.2-4.2,4.2-8.6,5.8-13c0,0.1-0.1,0.2-0.1,0.3c0.1-0.3,0.2-0.6,0.3-0.9 c2-5.3,3.6-10.8,4.8-16.4c1.2-5.3,1.9-10.8,2.3-16.2c0.4-5.7,0.4-11.4,0-17.1c-0.1-1.7-0.3-3.4-0.5-5 C514.2,150.2,512.9,155.4,511.3,160.6"/></defs><clipPath id="SVGID_8_"><use xlink:href="#SVGID_7_" overflow="visible"/></clipPath><linearGradient id="SVGID_9_" gradientUnits="userSpaceOnUse" x1="-455.744" y1="-156.716" x2="-451.215" y2="-156.716" gradientTransform="rotate(-28.769 2821.303 -27754.525) scale(27.9854)"><stop offset="0" stop-color="#f7b90b"/><stop offset="1" stop-color="#cb2e18"/></linearGradient><path clip-path="url(#SVGID_8_)" fill="url(#SVGID_9_)" d="M380.6 168.5L494.6 105.9 559 223.2 445 285.8z"/><defs><path id="SVGID_10_" d="M517.9,154.4c0.2,5.7,0,11.4-0.7,17c-0.6,5.7-1.7,11.4-3.1,16.9c-1.2,4.7-2.7,9.4-4.5,14s-3.8,9-6.2,13.3 c-2.3,4.3-4.9,8.5-7.8,12.5s-6,7.9-9.3,11.5c-3.6,4-7.6,7.7-11.7,11.2c-3.7,3.1-7.5,5.9-11.5,8.5c5.6-0.3,11.1-1,16.6-2 c5.6-1.1,11.1-2.6,16.5-4.5c5.5-1.9,10.9-4.2,16-6.9c1.1-0.6,2.2-1.2,3.3-1.8c5.2-10.1,3.9-7.8,2.2-4.6c1.4-3,2.6-6.1,3.8-9.2 c1.7-4.7,3.1-9.4,4.2-14.3c1.1-4.8,1.9-9.7,2.3-14.6c0.5-5.1,0.7-10.3,0.5-15.5c-0.2-5.7-0.8-11.4-1.8-17s-2.4-11.1-4.2-16.5 c-1.8-5.3-3.9-10.4-6.4-15.3C517.1,142.9,517.7,148.6,517.9,154.4"/></defs><clipPath id="SVGID_11_"><use xlink:href="#SVGID_10_" overflow="visible"/></clipPath><linearGradient id="SVGID_12_" gradientUnits="userSpaceOnUse" x1="-450.105" y1="-153.209" x2="-445.575" y2="-153.209" gradientTransform="rotate(-28.769 2374.086 -22915.984) scale(23.2273)"><stop offset="0" stop-color="#f7b90b"/><stop offset="1" stop-color="#b91819"/></linearGradient><path clip-path="url(#SVGID_11_)" fill="url(#SVGID_12_)" d="M411.6 165.5L513.5 109.6 580.2 231.1 478.3 287z"/><defs><path id="SVGID_13_" d="M547.1,183.2L547.1,183.2L547.1,183.2 M547.1,183.2L547.1,183.2L547.1,183.2 M547.1,183.2L547.1,183.2 L547.1,183.2z M547.1,183.2L547.1,183.2L547.1,183.2 M547.1,183.2c-0.1-0.2-0.4-1.3-0.9-2.5C546.7,182.2,547,183,547.1,183.2 M522.1,145.4c2.1,5.4,3.9,10.9,5.2,16.6c1.3,5.6,2.3,11.4,2.8,17.1c0.4,4.8,0.6,9.7,0.5,14.5c-0.1,4.8-0.6,9.7-1.3,14.4 c-0.7,4.8-1.7,9.6-3,14.2c-1.3,4.7-2.9,9.3-4.8,13.8c-2,4.9-4.4,9.7-7.1,14.3c-2.4,4.2-5.1,8.3-8,12.1c5.4-2.3,10.6-5,15.7-8.1 c4.9-3,9.6-6.4,14.1-10.1c4.3-3.6,8.3-7.4,12-11.5c0.5-0.5,0.9-1,1.4-1.5c0.2-0.2,0.4-0.5,0.6-0.7c0.1-0.1,0.2-0.2,0.2-0.4 c0-0.2,0-0.4,0.1-0.6c0.2-1.3,0.3-2.6,0.4-3.9c0.2-2.6,0.4-5.2,0.4-7.9c0.1-5.2-0.2-10.4-0.8-15.6c-0.6-5.2-1.5-10.3-2.8-15.3 c-0.9-3.6-2-7.1-3.2-10.6c0.2,0.7,0.7,1.9,1.1,3.2c0.1,0.4,0.3,0.8,0.4,1.1c-0.4-1.1-0.9-2.6-1.7-4.7c0-0.1-0.1-0.2,0-0.1 c-2-5.5-4.3-10.9-7.1-16c-2.8-5.2-6-10.2-9.5-15c-3.4-4.6-7.2-8.9-11.2-13c-0.7-0.7-1.5-1.4-2.2-2.1 C517.4,134.7,520,140,522.1,145.4"/></defs><clipPath id="SVGID_14_"><use xlink:href="#SVGID_13_" overflow="visible"/></clipPath><linearGradient id="SVGID_15_" gradientUnits="userSpaceOnUse" x1="-437.633" y1="-145.766" x2="-433.104" y2="-145.766" gradientTransform="rotate(-28.769 1778.099 -16493.077) scale(16.9106)"><stop offset="0" stop-color="#f7b90b"/><stop offset="1" stop-color="#cb2e18"/></linearGradient><path clip-path="url(#SVGID_14_)" fill="url(#SVGID_15_)" d="M450.4 160.5L541 110.7 607.5 231.8 516.9 281.5z"/><defs><path id="SVGID_16_" d="M559.3,162.3c0,0-0.5-0.6-1.9-2.3C558.4,161.2,559.3,162.3,559.3,162.3 M557.4,160 c-0.2-0.2-0.4-0.4-0.5-0.6C557.1,159.6,557.2,159.8,557.4,160 M556.8,159.3l0.1,0.1C556.8,159.3,556.8,159.3,556.8,159.3 L556.8,159.3 M556.8,159.3L556.8,159.3L556.8,159.3 M556.8,159.2C556.8,159.2,556.7,159.2,556.8,159.2 C556.7,159.2,556.8,159.2,556.8,159.2 M510.3,123.2c4.4,3.7,8.6,7.7,12.5,12c3.9,4.4,7.5,9,10.7,13.9s6.1,10.1,8.6,15.4 c2.2,4.7,4.1,9.5,5.7,14.5c1.6,4.9,2.8,10,3.8,15.1c0.9,5.1,1.5,10.3,1.8,15.5c0.3,5.2,0.2,10.5-0.2,15.7 c-0.4,5.5-1.3,11-2.5,16.4c-0.7,3.1-1.5,6.1-2.4,9.1c4.1-3.8,7.9-7.9,11.4-12.2c3.5-4.3,6.7-8.9,9.5-13.6 c2.8-4.6,5.2-9.4,7.4-14.3c0.5-1.2,1-2.4,1.5-3.7c0.1-0.3,0.2-0.6,0.3-0.9c0.1-0.1,0.1-0.3,0.2-0.4c0.1-0.2,0-0.4,0-0.6 c-0.2-0.7-0.3-1.4-0.5-2.1c-0.7-2.8-1.5-5.5-2.4-8.2c-1.8-5.4-3.9-10.7-6.5-15.7c-2.5-5.1-5.4-9.9-8.6-14.6 c-1.8-2.6-3.8-5.2-5.8-7.7c0.5,0.5,1.3,1.5,2.1,2.5c-0.6-0.8-1.4-1.7-2.4-2.9c-0.1-0.1-0.1-0.1-0.1-0.1 c-3.7-4.4-7.7-8.6-11.9-12.4c-4.2-3.8-8.6-7.2-13.3-10.4c-4.7-3.2-9.6-6-14.8-8.4C513,124.4,511.6,123.8,510.3,123.2z"/></defs><clipPath id="SVGID_17_"><use xlink:href="#SVGID_16_" overflow="visible"/></clipPath><linearGradient id="SVGID_18_" gradientUnits="userSpaceOnUse" x1="-416.342" y1="-134.558" x2="-411.812" y2="-134.558" gradientTransform="rotate(-28.768 1283.577 -11189.874) scale(11.6902)"><stop offset="0" stop-color="#f7b90b"/><stop offset="1" stop-color="#b91819"/></linearGradient><path clip-path="url(#SVGID_17_)" fill="url(#SVGID_18_)" d="M456.5 152.7L562.8 94.4 632.4 221.2 526.1 279.6z"/><defs><path id="SVGID_19_" d="M551,131.3L551,131.3L551,131.3L551,131.3 M504.2,118.5c5.4,2,10.7,4.3,15.8,7.1c5,2.7,9.9,5.8,14.5,9.2 c4.7,3.5,9.1,7.2,13.3,11.3c4,3.9,7.7,8.1,11.1,12.6c3.4,4.4,6.5,9.1,9.2,14c2.8,4.9,5.2,10,7.2,15.2c2.1,5.3,3.8,10.8,5.1,16.3 c1.3,5.6,2.2,11.2,2.7,16.9c0.1,1.5,0.2,2.9,0.3,4.4c2.5-4.8,4.6-9.8,6.4-14.9c1.8-5.1,3.2-10.4,4.3-15.7 c1.1-5.3,1.8-10.7,2.1-16.1c0.1-1.3,0.1-2.7,0.2-4c0-0.7,0-1.3,0-2c0-0.2,0-0.3-0.1-0.4c-0.1-0.1-0.2-0.3-0.3-0.4 c-0.2-0.3-0.4-0.6-0.6-0.9c-1.5-2.2-3-4.4-4.7-6.5c-3.2-4.2-6.7-8.2-10.5-11.9c-3.7-3.7-7.7-7.2-11.9-10.3 c-4.2-3.2-8.7-6.1-13.3-8.7c-1.2-0.7-2.4-1.3-3.6-1.9c0,0,0,0-0.1,0c-0.2-0.1-0.3-0.2-0.4-0.2l0,0l0,0l0,0l0,0 c-4.8-2.5-9.8-4.6-14.9-6.4c-5.2-1.8-10.5-3.3-15.9-4.4C514.9,119.5,509.6,118.8,504.2,118.5z"/></defs><clipPath id="SVGID_20_"><use xlink:href="#SVGID_19_" overflow="visible"/></clipPath><linearGradient id="SVGID_21_" gradientUnits="userSpaceOnUse" x1="-416.968" y1="-136.607" x2="-412.438" y2="-136.607" gradientTransform="rotate(-28.769 1318.885 -11641.208) scale(12.123)"><stop offset="0" stop-color="#f7b90b"/><stop offset="1" stop-color="#cb2e18"/></linearGradient><path clip-path="url(#SVGID_20_)" fill="url(#SVGID_21_)" d="M459 143.2L575.1 79.5 641.6 200.6 525.5 264.3z"/><defs><path id="SVGID_22_" d="M518.3,111.9c-5.6,0.6-11.2,1.6-16.7,2.9c-1.6,0.4-3.2,0.9-4.9,1.3c5.7,0,11.5,0.4,17.2,1.2 c5.6,0.8,11.2,2,16.7,3.6s10.9,3.6,16.1,6c4.6,2.1,9.1,4.5,13.5,7.2c4.3,2.7,8.5,5.6,12.4,8.8c4,3.2,7.7,6.7,11.3,10.3 c3.6,3.7,6.9,7.6,9.9,11.8c3.4,4.6,6.4,9.4,9.1,14.4c1.8,3.3,3.4,6.7,4.8,10.1c0.7-5.4,1-10.9,0.9-16.3 c-0.1-5.6-0.6-11.1-1.4-16.7c-0.9-5.6-2.1-11.2-3.8-16.6c-0.4-1.3-0.8-2.7-1.3-4c-0.1-0.2-0.1-0.3-0.2-0.5 c-0.1-0.2-0.1-0.2-0.3-0.3c-0.3-0.2-0.5-0.4-0.8-0.6c-0.5-0.4-1-0.7-1.5-1.1c-2-1.5-4.1-2.9-6.2-4.2c-4.2-2.6-8.6-5-13.1-7.1 s-9.1-3.9-13.8-5.3c-4.5-1.4-9.1-2.6-13.7-3.5c0.7,0.1,1.9,0.4,3.1,0.6c3.8,0.7,7.7,1.4-3.7-0.7l0,0l0,0l0,0l0,0l0,0l0,0 c-5.6-1-11.2-1.6-16.9-1.9c-1.5-0.1-3-0.1-4.5-0.1C526.4,111.3,522.3,111.5,518.3,111.9"/></defs><clipPath id="SVGID_23_"><use xlink:href="#SVGID_22_" overflow="visible"/></clipPath><linearGradient id="SVGID_24_" gradientUnits="userSpaceOnUse" x1="-438.171" y1="-149.046" x2="-433.641" y2="-149.046" gradientTransform="rotate(-28.769 1895.423 -17950.946) scale(18.3166)"><stop offset="0" stop-color="#f7b90b"/><stop offset="1" stop-color="#b91819"/></linearGradient><path clip-path="url(#SVGID_23_)" fill="url(#SVGID_24_)" d="M463.8 129.4L582.9 64 641.8 171.4 522.7 236.8z"/><defs><path id="SVGID_25_" d="M552.3,93.6c-3.9,0.2-7.8,0.7-11.7,1.3c0.7-0.1,1.9-0.3,3-0.5c3.9-0.6,7.7-1.3-3.8,0.6 c-5.8,1-11.5,2.3-17.1,4.1c-5.5,1.8-10.9,4-16.1,6.5c-5.2,2.6-10.1,5.5-14.9,8.8c-1,0.7-1.9,1.4-2.9,2.1c5.4-2,11-3.6,16.7-4.8 c5.6-1.1,11.3-2,17-2.3c5.8-0.4,11.5-0.3,17.3,0.1c4.8,0.4,9.6,1.1,14.3,2c4.7,1,9.4,2.2,14,3.7s9.1,3.3,13.5,5.4s8.7,4.4,12.8,7 c4.5,2.8,8.8,5.9,12.8,9.3c3.9,3.3,7.7,6.8,11.2,10.6c-1.3-5.6-3-11.1-5.1-16.5c-2.1-5.4-4.6-10.7-7.5-15.7 c-2.8-5-6-9.8-9.6-14.3c-0.4-0.6-0.9-1.1-1.3-1.7c-0.2-0.2-0.4-0.6-0.7-0.7c-0.3-0.1-0.6-0.2-0.9-0.3c-1.2-0.4-2.4-0.7-3.7-1 c-2.4-0.6-4.9-1.2-7.4-1.7c-4.9-1-10-1.6-15-1.9c-2.6-0.2-5.3-0.3-7.9-0.3C557.1,93.3,554.7,93.4,552.3,93.6"/></defs><clipPath id="SVGID_26_"><use xlink:href="#SVGID_25_" overflow="visible"/></clipPath><linearGradient id="SVGID_27_" gradientUnits="userSpaceOnUse" x1="-446.387" y1="-154.3" x2="-441.858" y2="-154.3" gradientTransform="rotate(-28.768 2306.072 -22480.597) scale(22.765)"><stop offset="0" stop-color="#f7b90b"/><stop offset="1" stop-color="#cb2e18"/></linearGradient><path clip-path="url(#SVGID_26_)" fill="url(#SVGID_27_)" d="M466.1 105.7L588.5 38.4 641.5 134.9 519 202.1z"/><defs><path id="SVGID_28_" d="M574.5,66.6c-5.3,0.3-10.6,0.9-15.8,1.9c-5.4,1-10.7,2.4-15.8,4.1c-5.2,1.7-10.3,3.8-15.2,6.3 c-5.2,2.6-10.2,5.6-14.9,8.9c-4.7,3.3-9.2,6.9-13.3,10.8c-4.1,3.9-8,8.1-11.5,12.6c-2.1,2.7-4.2,5.5-6.1,8.4 c4.4-3.7,9.1-7.2,14-10.2s10-5.7,15.2-8c5.4-2.4,11-4.3,16.6-5.9c5.3-1.4,10.7-2.5,16.2-3.2s11-1.1,16.5-1 c5.3,0,10.7,0.4,15.9,1.2c5.3,0.7,10.5,1.8,15.6,3.3c5.4,1.5,10.7,3.4,15.8,5.6c2.2,1,4.3,2,6.5,3.1c-3.1-4.8-6.6-9.4-10.4-13.7 c-3.7-4.2-7.8-8.2-12.1-11.9c-4.1-3.5-8.5-6.8-13.1-9.7c-1.2-0.8-2.5-1.6-3.8-2.3C574.7,66.5,574.6,66.6,574.5,66.6"/></defs><clipPath id="SVGID_29_"><use xlink:href="#SVGID_28_" overflow="visible"/></clipPath><linearGradient id="SVGID_30_" gradientUnits="userSpaceOnUse" x1="-451.955" y1="-157.803" x2="-447.425" y2="-157.803" gradientTransform="rotate(-28.769 2714.568 -27024.51) scale(27.229)"><stop offset="0" stop-color="#f7b90b"/><stop offset="1" stop-color="#b91819"/></linearGradient><path clip-path="url(#SVGID_29_)" fill="url(#SVGID_30_)" d="M459.5 78.8L583.5 10.7 636.5 107.2 512.5 175.3z"/><defs><path id="SVGID_31_" d="M518.4,45.1c-2,1.3-3.9,2.7-5.8,4.2c-3.8,2.9-7.4,6-10.9,9.3c-3.4,3.3-6.6,6.8-9.6,10.5 s-5.7,7.5-8.2,11.5s-4.8,8.2-6.8,12.4c-2,4.3-3.8,8.7-5.2,13.2c-1.6,5-3,10.2-3.9,15.4c-1,5.7-1.7,11.4-1.9,17.1 c-0.1,2.9-0.1,5.8,0,8.7c1.8-5.5,3.9-10.8,6.4-16c2.6-5.2,5.5-10.3,8.8-15.1c3.2-4.7,6.7-9.1,10.5-13.3 c3.9-4.3,8.2-8.3,12.7-11.9c4.6-3.7,9.4-7.1,14.5-10.1c4.8-2.9,9.9-5.4,15.1-7.6c5.1-2.1,10.3-3.9,15.6-5.3 c5.3-1.4,10.7-2.5,16.2-3.1c5.5-0.7,11.2-1,16.7-0.9c4.2,0.1,8.5,0.4,12.7,0.9c-4.4-3.3-8.9-6.3-13.7-8.9 c-4.7-2.6-9.5-4.9-14.5-6.8c-4.7-1.8-9.5-3.4-14.4-4.6c-4.8-1.2-9.7-2.1-14.6-2.7c-4.5-0.5-9-0.8-13.4-0.8 C521.9,42.8,519.9,44.1,518.4,45.1"/></defs><clipPath id="SVGID_32_"><use xlink:href="#SVGID_31_" overflow="visible"/></clipPath><linearGradient id="SVGID_33_" gradientUnits="userSpaceOnUse" x1="-461.337" y1="-153.995" x2="-456.807" y2="-153.995" gradientTransform="rotate(-45 -1058.696 -21437.95) scale(33.0428)"><stop offset="0" stop-color="#f7b90b"/><stop offset=".082" stop-color="#f7b90b"/><stop offset=".949" stop-color="#cb2e18"/><stop offset="1" stop-color="#cb2e18"/></linearGradient><path clip-path="url(#SVGID_32_)" fill="url(#SVGID_33_)" d="M412.8 94.4L530.7 -23.5 648.5 94.4 530.7 212.3z"/><defs><path id="SVGID_34_" d="M509.7,21.5c-5.1,0.5-10.3,1.4-15.3,2.7c-5,1.2-10,2.8-14.8,4.7c-1.2,0.5-2.4,1-3.6,1.5 c-0.6,0.3-1.2,0.5-1.8,0.8c-0.6,0.3-1.2,0.5-1.7,0.8c-0.1,0-0.2,0.2-0.2,0.3c-0.1,0.1-0.2,0.2-0.2,0.3c-0.2,0.2-0.3,0.5-0.5,0.7 c-0.3,0.5-0.6,0.9-0.9,1.4c-0.6,0.9-1.2,1.9-1.8,2.9c-2.3,3.8-4.3,7.8-6.1,11.8c-1.8,4-3.4,8.1-4.7,12.3 c-1.3,4.1-2.4,8.4-3.3,12.6c-0.9,4.2-1.5,8.5-1.9,12.9c-0.4,4.3-0.5,8.6-0.4,13c0.1,4.3,0.4,8.7,1,13s1.4,8.6,2.4,12.8 c1.1,4.3,2.3,8.5,3.9,12.6c1.3,3.5,2.7,6.9,4.3,10.3c-0.2-4.2-0.1-8.4,0.1-12.6c0.3-5.8,1.1-11.5,2.2-17.2 c1-4.9,2.3-9.7,3.9-14.4c1.5-4.5,3.3-8.8,5.3-13.1c2-4.2,4.3-8.4,6.8-12.3c2.5-4,5.2-7.8,8.2-11.4c3-3.7,6.1-7.2,9.5-10.4 c3.4-3.3,7-6.4,10.8-9.3c4-3,8.1-5.8,12.4-8.4c5-2.9,10.2-5.5,15.5-7.7s10.8-4,16.4-5.3c0.7-0.2,1.4-0.3,2.1-0.5 c-5.2-1.6-10.4-2.8-15.8-3.7c-5.3-0.9-10.7-1.3-16.1-1.5c-1.1,0-2.2,0-3.3,0C517.9,20.8,513.8,21.1,509.7,21.5"/></defs><clipPath id="SVGID_35_"><use xlink:href="#SVGID_34_" overflow="visible"/></clipPath><linearGradient id="SVGID_36_" gradientUnits="userSpaceOnUse" x1="-444.732" y1="-174.047" x2="-440.2" y2="-174.047" gradientTransform="translate(10746.559 4113.426) scale(23.1471)"><stop offset="0" stop-color="#f7b90b"/><stop offset=".082" stop-color="#f7b90b"/><stop offset=".655" stop-color="#cd3617"/><stop offset=".949" stop-color="#cb2e18"/><stop offset="1" stop-color="#cb2e18"/></linearGradient><path clip-path="url(#SVGID_35_)" fill="url(#SVGID_36_)" d="M452.3 20.8H557.2V148.70000000000002H452.3z"/><path d="M467.8,82.8c-0.5,2.5-1.6,4.4-2.7,4.2c-1-0.2-1.4-2.4-1-4.8c0.5-2.5,1.6-4.4,2.6-4.2 C467.9,78.2,468.3,80.3,467.8,82.8" fill="#fff"/><path d="M467.8,82.8c-0.5,2.5-1.6,4.4-2.7,4.2c-1-0.2-1.4-2.4-1-4.8c0.5-2.5,1.6-4.4,2.6-4.2 C467.9,78.2,468.3,80.3,467.8,82.8z" fill="none" stroke="#fff" stroke-width=".756" stroke-miterlimit="10"/><path class="st14" d="M18.8,78.9h24.6c3.3,0,6.5,0.3,9.5,0.8s5.7,1.5,8.1,2.9c2.3,1.4,4.2,3.3,5.6,5.8c1.4,2.4,2.1,5.5,2.1,9.3 c0,6.6-2.1,11.7-6.3,15.1c-4.2,3.5-10.3,5.2-18.3,5.2H23.9v28.5H19V78.9H18.8z M23.7,113h20.4c3.5,0,6.4-0.3,8.8-1s4.4-1.6,6-2.9 c1.5-1.3,2.7-2.8,3.4-4.7c0.7-1.9,1.1-4,1.1-6.5c0-3-0.5-5.4-1.6-7.3c-1-1.9-2.5-3.3-4.3-4.3s-3.9-1.7-6.2-2 c-2.3-0.3-4.8-0.5-7.4-0.5H23.7V113z"/><path class="st14" d="M134.4,146.5h-5v-33.6H87.7v33.6h-4.9V78.9h4.9v29h41.7v-29h5C134.4,78.9,134.4,146.5,134.4,146.5z"/><path class="st14" d="M180.6,77.6c4.6,0,8.9,0.8,12.8,2.5c3.9,1.6,7.3,4,10.1,7s5,6.7,6.6,11c1.6,4.3,2.4,9.1,2.4,14.3 s-0.8,10-2.3,14.3c-1.6,4.3-3.8,8-6.6,11.1c-2.8,3.1-6.2,5.5-10.1,7.2s-8.2,2.6-12.9,2.6c-4.7,0-9-0.9-12.9-2.6 c-3.9-1.7-7.3-4.1-10.1-7.2c-2.8-3.1-5-6.8-6.6-11.1c-1.6-4.3-2.3-9.1-2.3-14.4c0-5.3,0.8-10.1,2.4-14.4c1.6-4.3,3.8-7.9,6.6-11 c2.8-3,6.2-5.4,10.1-7C171.7,78.5,175.9,77.6,180.6,77.6z M180.5,142.7c3.9,0,7.4-0.7,10.7-2s6.1-3.3,8.5-5.9 c2.4-2.6,4.2-5.8,5.6-9.5c1.3-3.8,2-8.1,2-12.9c0-4.9-0.7-9.1-2-12.8s-3.2-6.8-5.6-9.3c-2.4-2.5-5.2-4.4-8.4-5.7 s-6.8-1.9-10.6-1.9c-3.9,0-7.5,0.7-10.8,2c-3.3,1.3-6.1,3.2-8.5,5.8c-2.4,2.5-4.2,5.6-5.6,9.3c-1.3,3.7-2,8-2,12.8s0.7,9.1,2,12.9 s3.2,6.9,5.5,9.5c2.4,2.6,5.2,4.6,8.5,5.9C173.1,142.1,176.6,142.7,180.5,142.7z"/><path class="st14" d="M275.5,146.5h-48.8V78.9h47.1v4.9h-42.1v25h39.6v4.9h-39.6v27.8h43.9v5H275.5z"/><path class="st14" d="M342.7,146.5h-6.5L295,84.7v61.7h-4.9V78.8h6.8l40.9,61.6V78.8h4.9V146.5L342.7,146.5z"/><path class="st14" d="M366.9,146.5H362V78.9h4.9V146.5z"/><path class="st14" d="M388.8,78.9l21.5,29.7l21.5-29.7h6.1l-24.6,33.8l24.6,33.8h-6l-21.5-29.6l-21.5,29.6h-6l24.6-33.8 l-24.6-33.8H388.8z"/><path class="st14" d="M52,205.6c0,4.2-1.4,7.4-4.2,9.6c-2.8,2.2-7,3.3-12.4,3.3H18.6v-46.1h16.7c4.6,0,8.2,0.9,10.6,2.6 c2.5,1.8,3.7,4.6,3.7,8.4c0,1.1-0.1,2.2-0.3,3.3c-0.2,1.1-0.6,2.2-1.2,3.2s-1.3,1.9-2.3,2.6c-1,0.8-2.2,1.3-3.8,1.7 c2.2,0.2,3.9,0.7,5.2,1.4c1.3,0.7,2.3,1.6,3,2.7s1.2,2.2,1.4,3.5C51.8,203.1,52,204.4,52,205.6z M21.9,192.7h12.4 c4.1,0,7.1-0.7,9-2s2.9-3.5,2.9-6.6c0-2.8-0.9-4.9-2.7-6.3c-1.8-1.4-4.7-2-8.6-2h-13V192.7z M21.9,215.1h13.3c8.7,0,13-3.2,13-9.6 c0-1.7-0.2-3.1-0.7-4.3c-0.4-1.2-1.2-2.2-2.3-3c-1.1-0.8-2.5-1.3-4.3-1.7c-1.8-0.4-4-0.6-6.7-0.6H21.8L21.9,215.1L21.9,215.1z"/><path class="st14" d="M66.9,218.5h-3.4v-46.1h3.4V218.5z"/><path class="st14" d="M99.8,171.6c3.1,0,6,0.6,8.7,1.7s5,2.7,6.9,4.8c1.9,2.1,3.4,4.6,4.5,7.5s1.6,6.2,1.6,9.8 c0,3.6-0.5,6.8-1.6,9.8c-1.1,2.9-2.6,5.5-4.5,7.6s-4.2,3.8-6.9,4.9c-2.7,1.2-5.6,1.7-8.8,1.7c-3.2,0-6.1-0.6-8.8-1.7 c-2.7-1.2-5-2.8-6.9-4.9s-3.4-4.6-4.5-7.6c-1.1-2.9-1.6-6.2-1.6-9.8c0-3.6,0.5-6.9,1.6-9.8s2.6-5.4,4.5-7.5s4.2-3.7,6.9-4.8 S96.6,171.6,99.8,171.6z M99.8,216c2.6,0,5.1-0.5,7.3-1.4s4.2-2.3,5.8-4c1.6-1.8,2.9-3.9,3.8-6.5c0.9-2.6,1.3-5.5,1.3-8.8 s-0.5-6.2-1.4-8.8c-0.9-2.5-2.2-4.7-3.8-6.4c-1.6-1.7-3.5-3-5.7-3.9c-2.2-0.9-4.6-1.3-7.2-1.3c-2.7,0-5.1,0.4-7.3,1.3 c-2.2,0.9-4.2,2.2-5.8,3.9c-1.6,1.7-2.9,3.8-3.8,6.4s-1.4,5.4-1.4,8.7c0,3.3,0.4,6.2,1.3,8.8c0.9,2.6,2.2,4.7,3.8,6.5 c1.6,1.8,3.5,3.1,5.8,4C94.7,215.5,97.1,216,99.8,216z"/><path class="st14" d="M131.2,172.4H148c2.2,0,4.4,0.2,6.5,0.5c2.1,0.4,3.9,1,5.5,2s2.8,2.3,3.8,3.9s1.4,3.8,1.4,6.3 c0,4.5-1.4,8-4.3,10.3c-2.8,2.4-7,3.5-12.5,3.5h-13.8v19.4h-3.4C131.2,218.3,131.2,172.4,131.2,172.4z M134.6,195.7h13.9 c2.4,0,4.4-0.2,6-0.7c1.7-0.4,3-1.1,4.1-2c1.1-0.9,1.8-1.9,2.3-3.2c0.5-1.3,0.7-2.8,0.7-4.4c0-2-0.4-3.7-1.1-5s-1.7-2.2-2.9-2.9 c-1.2-0.7-2.6-1.1-4.2-1.4c-1.6-0.3-3.3-0.3-5-0.3h-13.8C134.6,175.8,134.6,195.7,134.6,195.7z"/><path class="st14" d="M194.4,171.6c3.1,0,6,0.6,8.7,1.7c2.7,1.1,5,2.7,6.9,4.8c1.9,2.1,3.4,4.6,4.5,7.5c1.1,2.9,1.6,6.2,1.6,9.8 c0,3.6-0.5,6.8-1.6,9.8c-1.1,2.9-2.6,5.5-4.5,7.6c-1.9,2.1-4.2,3.8-6.9,4.9c-2.7,1.2-5.6,1.7-8.8,1.7s-6.1-0.6-8.8-1.7 c-2.7-1.2-5-2.8-6.9-4.9s-3.4-4.6-4.5-7.6c-1.1-2.9-1.6-6.2-1.6-9.8c0-3.6,0.5-6.9,1.6-9.8s2.6-5.4,4.5-7.5s4.2-3.7,6.9-4.8 C188.3,172.1,191.2,171.6,194.4,171.6z M194.3,216c2.6,0,5.1-0.5,7.3-1.4c2.2-0.9,4.2-2.3,5.8-4c1.6-1.8,2.9-3.9,3.8-6.5 c0.9-2.6,1.3-5.5,1.3-8.8s-0.5-6.2-1.4-8.8c-0.9-2.5-2.2-4.7-3.8-6.4c-1.6-1.7-3.5-3-5.7-3.9s-4.6-1.3-7.2-1.3 c-2.7,0-5.1,0.4-7.3,1.3s-4.2,2.2-5.8,3.9c-1.6,1.7-2.9,3.8-3.8,6.4c-0.9,2.5-1.4,5.4-1.4,8.7c0,3.3,0.4,6.2,1.3,8.8 c0.9,2.6,2.2,4.7,3.8,6.5c1.6,1.8,3.5,3.1,5.8,4C189.3,215.5,191.7,216,194.3,216z"/><path class="st14" d="M280.2,172.4l-12,46.1h-5l-12.6-41.7l-12.2,41.7h-5.1l-11.9-46.1h3.6l10.9,41.7l12.1-41.7h5.1l12.6,41.7 l10.9-41.7H280.2z"/><path class="st14" d="M320.9,218.5h-33.3v-46.1h32.2v3.4H291v17h27v3.4h-27v18.9h29.9V218.5z"/><path class="st14" d="M368.1,218.5h-3.7l-4.6-12.2c-0.4-1.2-0.9-2.3-1.5-3.3c-0.5-1-1.2-1.9-1.9-2.7c-0.7-0.8-1.6-1.4-2.5-1.8 c-0.9-0.4-2-0.7-3.3-0.7h-16.1v20.8h-3.4v-46.1h20.7c1.9,0,3.8,0.2,5.6,0.5c1.8,0.3,3.4,1,4.8,1.9c1.4,0.9,2.5,2.1,3.4,3.7 c0.8,1.6,1.3,3.6,1.3,6.1c0,1.5-0.2,3-0.6,4.3c-0.4,1.3-1,2.5-1.7,3.6c-0.8,1.1-1.8,2-2.9,2.7c-1.2,0.7-2.6,1.3-4.2,1.6 c0.9,0.7,1.6,1.3,2.1,1.9c0.6,0.6,1,1.3,1.5,2c0.4,0.7,0.8,1.5,1.1,2.3c0.3,0.8,0.7,1.8,1.1,2.9L368.1,218.5z M334.5,194.3h16 c2.3,0,4.2-0.2,5.8-0.5c1.6-0.3,3-0.9,4-1.7c1.1-0.8,1.8-1.8,2.3-3s0.8-2.7,0.8-4.5c0-3.2-1-5.4-3-6.8s-5-2-9-2h-17L334.5,194.3 L334.5,194.3z"/></svg>