<svg width="140" height="52" viewBox="0 0 140 52" fill="none" xmlns="http://www.w3.org/2000/svg">
<path fill-rule="evenodd" clip-rule="evenodd" d="M25.5718 0.43506C21.3322 0.433738 17.1608 1.5031 13.4447 3.54398C9.72857 5.58486 6.58803 8.53114 4.31434 12.1096C2.04065 15.688 0.707468 19.7826 0.438439 24.0138C0.16941 28.2449 0.97325 32.4754 2.7754 36.313C4.57755 40.1506 7.31965 43.4709 10.7474 45.966C14.1751 48.4611 18.1774 50.0502 22.3831 50.5858C26.5888 51.1215 30.8616 50.5864 34.8053 49.0302C38.749 47.4739 42.2359 44.947 44.9424 41.6836C41.829 42.5305 38.5426 42.5047 35.4428 41.609C32.3431 40.7134 29.5493 38.9825 27.3673 36.6057C27.1854 36.4 27.0114 36.1865 26.8374 35.9808C25.4759 34.2712 24.4701 32.3065 23.8793 30.2024C23.2884 28.0983 23.1243 25.8973 23.3967 23.7288C23.6797 21.6392 24.3848 19.629 25.469 17.8204C26.3826 16.197 27.6562 14.8046 29.1919 13.7502C30.7276 12.6958 32.4845 12.0074 34.3278 11.7379C38.8758 11.0814 43.1865 12.4023 45.9944 15.574C47.7733 17.7091 49.0275 20.231 49.6566 22.9379C50.0765 24.6955 50.2495 26.5031 50.1707 28.3085H32.6114V23.1831H42.7594C42.7942 21.9543 42.4343 20.7467 41.7325 19.7374C41.0307 18.7282 40.024 17.9703 38.86 17.5752C37.7858 17.2174 36.6367 17.1467 35.5267 17.3701C34.4167 17.5934 33.3844 18.1031 32.5323 18.8486C30.808 20.3752 30.278 23.5469 30.2859 25.6509C30.2859 28.9413 30.8633 31.3379 32.3978 32.9593C33.4704 34.1133 34.7781 35.0236 36.2326 35.6288C37.6871 36.234 39.2545 36.52 40.8291 36.4675C42.4036 36.415 43.9485 36.0253 45.3595 35.3245C46.7705 34.6238 48.0146 33.6284 49.008 32.4057C49.7206 31.5219 50.2114 30.4805 50.4396 29.3684C50.624 28.1245 50.7165 26.8688 50.7165 25.6113C50.7165 18.9396 48.0683 12.5408 43.3537 7.8202C38.6391 3.09964 32.2435 0.443444 25.5718 0.43506ZM11.817 29.1074C11.1725 29.1074 10.5425 28.9162 10.0066 28.5582C9.47065 28.2001 9.05297 27.6911 8.80632 27.0957C8.55967 26.5002 8.49514 25.845 8.62088 25.2129C8.74662 24.5807 9.05699 24.0001 9.51273 23.5443C9.96848 23.0886 10.5491 22.7782 11.1813 22.6525C11.8134 22.5267 12.4686 22.5913 13.0641 22.8379C13.6596 23.0846 14.1685 23.5022 14.5266 24.0381C14.8847 24.574 15.0758 25.2041 15.0758 25.8486C15.0758 26.7129 14.7324 27.5418 14.1213 28.1529C13.5102 28.764 12.6813 29.1074 11.817 29.1074V29.1074Z" fill="#5082C3"/>
<path fill-rule="evenodd" clip-rule="evenodd" d="M92.8668 30.9426C93.2543 33.2047 94.1481 34.8974 96.2441 35.5144C98.6882 36.2499 101.781 36.1076 103.363 34.0669C103.624 33.6898 103.798 33.2588 103.871 32.8056C103.943 32.3524 103.913 31.8887 103.782 31.4488C103.355 30.0567 102.129 29.7957 99.7718 29.2816C97.6679 28.8228 92.5583 28.2533 89.8215 26.1177C87.6069 24.4014 86.4758 21.1821 87.6622 17.6703C88.9357 13.9053 92.7956 12.1336 95.643 11.746C101.045 10.955 105.396 12.9562 107.231 14.9098C108.781 16.6213 109.612 18.8655 109.548 21.1742H103.616C103.578 20.4638 103.425 19.7641 103.165 19.1019C102.778 18.2987 102.166 17.6248 101.404 17.1616C100.642 16.6984 99.7616 16.4658 98.8701 16.4918C96.7978 16.3889 94.6701 16.8872 93.7368 18.6827C93.5704 19.0656 93.5049 19.4847 93.5464 19.9001C93.5879 20.3154 93.7352 20.7133 93.9741 21.0556C95.2792 22.5347 97.7944 22.5742 99.9063 22.9776C103.592 23.6895 107.61 24.2511 109.437 27.4624C110.21 28.8682 110.579 30.4603 110.504 32.0627C110.429 33.6652 109.912 35.2156 109.01 36.5426C108.115 37.7318 106.997 38.7364 105.72 39.5008C103.402 40.8138 99.4713 41.2884 95.5877 40.6477C94.1248 40.4638 92.7186 39.9674 91.4644 39.1922C90.2102 38.4171 89.1374 37.3812 88.3187 36.155C87.2306 34.6247 86.6246 32.804 86.5786 30.9268L92.8668 30.9426Z" fill="#123F8D"/>
<path fill-rule="evenodd" clip-rule="evenodd" d="M65.8238 23.183H75.9323C75.9704 21.9544 75.6117 20.7463 74.9094 19.7376C74.207 18.7289 73.1983 17.9734 72.0328 17.583C70.9592 17.2204 69.809 17.1471 68.6981 17.3707C67.5872 17.5943 66.5549 18.1067 65.7051 18.8564C63.9809 20.383 63.4509 23.5468 63.4588 25.6587C63.4588 29.4711 64.2498 32.0892 66.3854 33.679C67.817 34.7468 71.2023 36.0519 74.0577 33.9875C75.1211 33.2168 75.8798 32.097 76.2012 30.8237H83.3198C83.1063 33.1174 80.9944 36.7005 78.8034 38.3061C76.9418 39.6412 74.7854 40.5073 72.5175 40.8309C70.2496 41.1545 67.9371 40.926 65.7763 40.1649C57.2972 36.9141 55.9368 28.6881 56.6091 23.7287C56.8934 21.6394 57.5984 19.6294 58.6814 17.8203C59.5956 16.199 60.8684 14.8081 62.4024 13.7539C63.9363 12.6997 65.691 12.0101 67.5323 11.7378C72.0882 11.0813 76.391 12.4022 79.2068 15.5739C80.984 17.7101 82.238 20.2316 82.869 22.9378C83.2804 24.6968 83.4533 26.5032 83.3831 28.3084H65.8238V23.183Z" fill="#123F8D"/>
<path fill-rule="evenodd" clip-rule="evenodd" d="M115.085 21.1346C115.085 17.5911 116.857 14.0792 120.4 12.703C123.391 11.6718 126.578 11.3364 129.718 11.7222C135.602 12.4103 137.509 15.8668 137.967 17.947C138.344 20.1118 138.516 22.3071 138.481 24.5041V33.3075C138.481 34.9764 138.386 38.0533 139.407 40.0939H132.668C132.308 39.3713 132.043 38.6058 131.877 37.816C129.531 39.8644 126.52 40.989 123.406 40.9798C120.92 41.0143 118.49 40.252 116.469 38.8047C115.317 37.8988 114.439 36.6907 113.933 35.315C113.428 33.9392 113.314 32.4501 113.606 31.0137C114.705 26.0939 119.506 24.3538 122.86 23.8951C127.424 23.2939 130.722 23.1595 131.22 20.9131C131.348 20.4206 131.342 19.9031 131.203 19.4138C131.064 18.9244 130.797 18.4809 130.429 18.129C128.848 16.4917 125.842 16.4917 123.991 17.1482C123.217 17.4874 122.562 18.0507 122.111 18.7654C121.66 19.4801 121.433 20.3136 121.46 21.1583L115.085 21.1346ZM131.64 26.1809C130.738 26.8947 129.662 27.356 128.523 27.5177C124.956 28.3086 122.488 28.2691 121.191 30.4996C120.898 30.9572 120.726 31.4819 120.691 32.0243C120.657 32.5667 120.76 33.109 120.993 33.6001C121.352 34.2267 121.872 34.7457 122.5 35.1032C123.127 35.4607 123.839 35.6436 124.561 35.6329C127.614 35.7278 130.398 34.5809 131.307 32.2476C131.703 31.3855 131.648 26.7742 131.64 26.1809V26.1809Z" fill="#123F8D"/>
</svg>
