<svg width="178" height="76" viewBox="0 0 178 76" fill="none" xmlns="http://www.w3.org/2000/svg"><path d="M70.3416 46.9864H65.6401V65.4421H70.3416V46.9864Z" fill="#00A0DF"/><path d="M108.257 52.2778C107.045 51.6241 105.686 51.2832 104.306 51.2865C101.258 51.2865 99.1504 53.3914 99.1504 56.211C99.1504 58.9513 101.171 61.1355 104.306 61.1355C105.684 61.1386 107.041 60.8035 108.257 60.1601V65.1132C106.868 65.5377 105.425 65.7593 103.972 65.7709C98.6788 65.7709 94.0415 62.1601 94.0415 56.211C94.0415 50.6988 98.2425 46.6639 103.972 46.6639C105.426 46.6678 106.87 46.8896 108.257 47.3215V52.2778Z" fill="#00A0DF"/><path d="M59.1761 52.2778C57.9651 51.6244 56.6075 51.2835 55.2285 51.2865C52.1808 51.2865 50.0715 53.3914 50.0715 56.211C50.0715 58.9513 52.091 61.1355 55.2285 61.1355C56.6054 61.1377 57.9615 60.8026 59.1761 60.1601V65.1132C57.7848 65.539 56.3381 65.7606 54.882 65.7709C49.6031 65.7709 44.9658 62.1601 44.9658 56.211C44.9658 50.6988 49.1636 46.6639 54.882 46.6639C56.3387 46.6676 57.7864 46.8893 59.1761 47.3215V52.2778Z" fill="#00A0DF"/><path d="M132.895 56.211C132.895 61.4913 128.782 65.7709 123.052 65.7709C117.323 65.7709 113.211 61.4913 113.211 56.211C113.211 50.9307 117.321 46.6639 123.052 46.6639C128.783 46.6639 132.895 50.9387 132.895 56.211ZM123.052 51.3596C120.26 51.3596 118.187 53.5359 118.187 56.211C118.187 58.8861 120.26 61.072 123.052 61.072C125.845 61.072 127.919 58.9004 127.919 56.211C127.919 53.5216 125.834 51.3596 123.052 51.3596Z" fill="#00A0DF"/><path d="M88.1772 51.1849C88.1098 51.1626 86.1224 50.6178 84.5023 50.6178C82.6128 50.6178 81.5926 51.2532 81.5926 52.1364C81.5926 53.2484 82.9769 53.6471 83.7468 53.8838L85.0445 54.2937C88.0922 55.2468 89.4861 57.3246 89.4861 59.5692C89.4861 64.2093 85.3669 65.7645 81.769 65.7645C80.0656 65.7474 78.3671 65.5794 76.6938 65.2625V61.018C77.1093 61.1212 79.0807 61.7042 81.1354 61.7042C83.4774 61.7042 84.5521 61.0291 84.5521 59.9759C84.5521 59.045 83.6201 58.5081 82.4668 58.1475C82.1781 58.0506 81.7498 57.9171 81.4563 57.8202C78.8384 57.0053 76.6489 55.4739 76.6489 52.4239C76.6489 48.9752 79.2603 46.6528 83.5993 46.6528C85.1442 46.6731 86.6815 46.8709 88.1804 47.2421L88.1772 51.1849Z" fill="#00A0DF"/><path d="M39.9741 27.1534C39.9581 26.5507 39.7051 25.978 39.269 25.5573C38.8329 25.1366 38.2482 24.9011 37.6394 24.9011C37.0306 24.9011 36.4458 25.1366 36.0097 25.5573C35.5736 25.978 35.3206 26.5507 35.3047 27.1534V31.9969C35.3206 32.5996 35.5736 33.1723 36.0097 33.5931C36.4458 34.0138 37.0306 34.2492 37.6394 34.2492C38.2482 34.2492 38.8329 34.0138 39.269 33.5931C39.7051 33.1723 39.9581 32.5996 39.9741 31.9969V27.1534Z" fill="#00A0DF"/><path d="M52.8017 20.7929C52.7857 20.1902 52.5328 19.6174 52.0967 19.1967C51.6606 18.776 51.0758 18.5406 50.467 18.5406C49.8582 18.5406 49.2735 18.776 48.8374 19.1967C48.4013 19.6174 48.1483 20.1902 48.1323 20.7929V31.9969C48.1483 32.5996 48.4013 33.1723 48.8374 33.593C49.2735 34.0138 49.8582 34.2492 50.467 34.2492C51.0758 34.2492 51.6606 34.0138 52.0967 33.593C52.5328 33.1723 52.7857 32.5996 52.8017 31.9969V20.7929Z" fill="#00A0DF"/><path d="M65.6209 12.094C65.6209 11.481 65.375 10.8931 64.9373 10.4597C64.4996 10.0262 63.906 9.78271 63.287 9.78271C62.668 9.78271 62.0744 10.0262 61.6367 10.4597C61.199 10.8931 60.9531 11.481 60.9531 12.094V36.6021C60.9531 37.2151 61.199 37.803 61.6367 38.2364C62.0744 38.6699 62.668 38.9134 63.287 38.9134C63.906 38.9134 64.4996 38.6699 64.9373 38.2364C65.375 37.803 65.6209 37.2151 65.6209 36.6021V12.094Z" fill="#00A0DF"/><path d="M78.4468 20.7929C78.4468 20.1803 78.2011 19.5928 77.7637 19.1597C77.3263 18.7265 76.7331 18.4832 76.1145 18.4832C75.496 18.4832 74.9027 18.7265 74.4653 19.1597C74.0279 19.5928 73.7822 20.1803 73.7822 20.7929V31.9969C73.7822 32.6095 74.0279 33.197 74.4653 33.6301C74.9027 34.0633 75.496 34.3066 76.1145 34.3066C76.7331 34.3066 77.3263 34.0633 77.7637 33.6301C78.2011 33.197 78.4468 32.6095 78.4468 31.9969V20.7929Z" fill="#00A0DF"/><path d="M91.2569 27.1534C91.2685 26.8437 91.2169 26.5349 91.1053 26.2454C90.9936 25.9559 90.8242 25.6917 90.607 25.4685C90.3899 25.2454 90.1296 25.0679 89.8416 24.9466C89.5536 24.8254 89.2439 24.7629 88.931 24.7629C88.6181 24.7629 88.3084 24.8254 88.0204 24.9466C87.7324 25.0679 87.4721 25.2454 87.2549 25.4685C87.0378 25.6917 86.8684 25.9559 86.7567 26.2454C86.6451 26.5349 86.5935 26.8437 86.6051 27.1534V31.9969C86.5935 32.3066 86.6451 32.6154 86.7567 32.9049C86.8684 33.1944 87.0378 33.4586 87.2549 33.6818C87.4721 33.9049 87.7324 34.0824 88.0204 34.2037C88.3084 34.3249 88.6181 34.3874 88.931 34.3874C89.2439 34.3874 89.5536 34.3249 89.8416 34.2037C90.1296 34.0824 90.3899 33.9049 90.607 33.6818C90.8242 33.4586 90.9936 33.1944 91.1053 32.9049C91.2169 32.6154 91.2685 32.3066 91.2569 31.9969V27.1534Z" fill="#00A0DF"/><path d="M104.092 20.7929C104.109 20.4803 104.061 20.1675 103.952 19.8738C103.842 19.58 103.674 19.3114 103.456 19.0843C103.239 18.8572 102.976 18.6763 102.686 18.5527C102.396 18.4291 102.083 18.3654 101.767 18.3654C101.45 18.3654 101.138 18.4291 100.847 18.5527C100.557 18.6763 100.295 18.8572 100.077 19.0843C99.8594 19.3114 99.6908 19.58 99.5814 19.8738C99.472 20.1675 99.4241 20.4803 99.4407 20.7929V31.9969C99.4241 32.3096 99.472 32.6223 99.5814 32.9161C99.6908 33.2098 99.8594 33.4784 100.077 33.7056C100.295 33.9327 100.557 34.1136 100.847 34.2372C101.138 34.3608 101.45 34.4245 101.767 34.4245C102.083 34.4245 102.396 34.3608 102.686 34.2372C102.976 34.1136 103.239 33.9327 103.456 33.7056C103.674 33.4784 103.842 33.2098 103.952 32.9161C104.061 32.6223 104.109 32.3096 104.092 31.9969V20.7929Z" fill="#00A0DF"/><path d="M116.918 12.0941C116.93 11.7844 116.879 11.4756 116.767 11.1861C116.655 10.8966 116.486 10.6324 116.269 10.4092C116.052 10.186 115.791 10.0085 115.503 9.88729C115.215 9.76604 114.906 9.70355 114.593 9.70355C114.28 9.70355 113.97 9.76604 113.682 9.88729C113.394 10.0085 113.134 10.186 112.917 10.4092C112.699 10.6324 112.53 10.8966 112.418 11.1861C112.307 11.4756 112.255 11.7844 112.267 12.0941V36.6021C112.255 36.9118 112.307 37.2206 112.418 37.5101C112.53 37.7996 112.699 38.0638 112.917 38.287C113.134 38.5102 113.394 38.6877 113.682 38.8089C113.97 38.9302 114.28 38.9926 114.593 38.9926C114.906 38.9926 115.215 38.9302 115.503 38.8089C115.791 38.6877 116.052 38.5102 116.269 38.287C116.486 38.0638 116.655 37.7996 116.767 37.5101C116.879 37.2206 116.93 36.9118 116.918 36.6021V12.0941Z" fill="#00A0DF"/><path d="M129.743 20.7929C129.743 20.1778 129.496 19.5879 129.057 19.1529C128.618 18.718 128.022 18.4736 127.401 18.4736C126.78 18.4736 126.184 18.718 125.745 19.1529C125.306 19.5879 125.059 20.1778 125.059 20.7929V31.9969C125.059 32.612 125.306 33.2019 125.745 33.6369C126.184 34.0718 126.78 34.3162 127.401 34.3162C128.022 34.3162 128.618 34.0718 129.057 33.6369C129.496 33.2019 129.743 32.612 129.743 31.9969V20.7929Z" fill="#00A0DF"/><path d="M142.553 27.1534C142.564 26.8437 142.513 26.5349 142.401 26.2454C142.289 25.9559 142.12 25.6917 141.903 25.4685C141.686 25.2454 141.425 25.0679 141.137 24.9466C140.85 24.8254 140.54 24.7629 140.227 24.7629C139.914 24.7629 139.604 24.8254 139.316 24.9466C139.028 25.0679 138.768 25.2454 138.551 25.4685C138.334 25.6917 138.164 25.9559 138.053 26.2454C137.941 26.5349 137.889 26.8437 137.901 27.1534V31.9969C137.889 32.3066 137.941 32.6154 138.053 32.9049C138.164 33.1944 138.334 33.4586 138.551 33.6818C138.768 33.9049 139.028 34.0824 139.316 34.2037C139.604 34.3249 139.914 34.3874 140.227 34.3874C140.54 34.3874 140.85 34.3249 141.137 34.2037C141.425 34.0824 141.686 33.9049 141.903 33.6818C142.12 33.4586 142.289 33.1944 142.401 32.9049C142.513 32.6154 142.564 32.3066 142.553 31.9969V27.1534Z" fill="#00A0DF"/><path d="M139.859 63.0116V63.2975H139.035V65.4421H138.687V63.2975H137.851V63.0116H139.859Z" fill="#00A0DF"/><path d="M140.036 63.0116H140.57L141.303 64.9989H141.319L142.032 63.0116H142.553V65.4421H142.202V63.4516H142.19L141.443 65.4421H141.116L140.391 63.4516H140.381V65.4421H140.036V63.0116Z" fill="#00A0DF"/></svg>